<svg width="281" height="56" viewBox="0 0 281 56" fill="none" xmlns="http://www.w3.org/2000/svg">
<g filter="url(#filter0_d)">
<rect x="4.57141" y="2" width="271.571" height="48" rx="8.71" fill="white"/>
<path d="M26.2355 20.1782L26.0597 21.438C25.3468 21.1646 24.7218 21.0278 24.1847 21.0278C23.8234 21.0278 23.506 21.0864 23.2325 21.2036C22.964 21.3159 22.754 21.4771 22.6027 21.687C22.4562 21.8921 22.3829 22.1338 22.3829 22.4121C22.3829 22.8467 22.5343 23.1787 22.837 23.4082C23.1447 23.6377 23.6818 23.9526 24.4484 24.353C25.2198 24.7485 25.7985 25.1514 26.1842 25.5615C26.5699 25.9668 26.7628 26.5063 26.7628 27.1802C26.7628 27.7661 26.6212 28.291 26.338 28.7549C26.0548 29.2188 25.652 29.5752 25.1295 29.8242C24.6119 30.0732 24.0162 30.1978 23.3424 30.1978C22.5465 30.1978 21.7872 30.0659 21.0646 29.8022L21.2111 28.4546C21.9484 28.8062 22.6027 28.9819 23.174 28.9819C23.5792 28.9819 23.9381 28.9136 24.2506 28.7769C24.568 28.6401 24.8097 28.4448 24.9757 28.1909C25.1466 27.9321 25.2321 27.6294 25.2321 27.2827C25.2321 26.7847 25.0636 26.4087 24.7267 26.1548C24.3898 25.896 23.8551 25.5908 23.1227 25.2393C22.3903 24.8877 21.8361 24.5239 21.4601 24.1479C21.0841 23.7671 20.8961 23.2324 20.8961 22.5439C20.8961 22.0068 21.0255 21.5332 21.2843 21.123C21.548 20.708 21.9191 20.3857 22.3976 20.1562C22.881 19.9268 23.4303 19.812 24.0455 19.812C24.8219 19.812 25.5519 19.9341 26.2355 20.1782ZM35.4713 26.3525C35.4713 27.0947 35.3102 27.7588 34.9879 28.3447C34.6705 28.9307 34.2213 29.3872 33.6403 29.7144C33.0641 30.0366 32.4147 30.1978 31.692 30.1978C30.9791 30.1978 30.3395 30.0342 29.7731 29.707C29.2067 29.375 28.7623 28.9136 28.4401 28.3228C28.1178 27.7271 27.9567 27.0703 27.9567 26.3525C27.9567 25.7861 28.047 25.2686 28.2277 24.7998C28.4132 24.3262 28.6744 23.916 29.0114 23.5693C29.3531 23.2178 29.7535 22.9468 30.2125 22.7563C30.6764 22.5659 31.1744 22.4707 31.7067 22.4707C32.2438 22.4707 32.7443 22.5635 33.2081 22.749C33.672 22.9346 34.0748 23.2031 34.4166 23.5547C34.7584 23.9062 35.0197 24.3213 35.2003 24.7998C35.381 25.2783 35.4713 25.7959 35.4713 26.3525ZM34.0284 26.3818C34.0284 25.9814 33.9698 25.603 33.8527 25.2466C33.7404 24.8901 33.5792 24.5874 33.3693 24.3384C33.1642 24.0845 32.92 23.8892 32.6368 23.7524C32.3585 23.6157 32.0533 23.5474 31.7213 23.5474C31.0524 23.5474 30.4957 23.811 30.0514 24.3384C29.6119 24.8657 29.3922 25.5322 29.3922 26.3379C29.3922 26.8701 29.4899 27.3486 29.6852 27.7734C29.8854 28.1982 30.1613 28.5278 30.5128 28.7622C30.8693 28.9966 31.2721 29.1138 31.7213 29.1138C32.1559 29.1138 32.549 28.999 32.9005 28.7695C33.2521 28.5352 33.528 28.208 33.7281 27.7881C33.9283 27.3682 34.0284 26.8994 34.0284 26.3818ZM37.1046 22.6685H38.3644L38.4303 23.9722C38.65 23.5132 38.9357 23.1665 39.2872 22.9321C39.6437 22.6929 40.0563 22.5732 40.525 22.5732C40.7692 22.5732 41.0157 22.605 41.2648 22.6685V23.9136C41.0304 23.8306 40.8156 23.7891 40.6202 23.7891C40.1466 23.7891 39.7535 23.9282 39.441 24.2065C39.1285 24.48 38.9015 24.8315 38.7599 25.2612C38.6183 25.686 38.5475 26.1304 38.5475 26.5942V27.1216V30H37.1998V25.5322C37.1998 24.8096 37.1681 23.855 37.1046 22.6685ZM44.4655 20.5518V22.6978H46.4137V23.7598H44.4655V26.6382C44.4655 27.2974 44.4948 27.7783 44.5533 28.0811C44.5973 28.3447 44.7169 28.5547 44.9122 28.7109C45.1124 28.8623 45.3663 28.938 45.674 28.938C45.9572 28.938 46.2526 28.8623 46.5602 28.7109V29.8828C46.1305 30.0195 45.7106 30.0879 45.3004 30.0879C44.6656 30.0879 44.1871 29.9585 43.8649 29.6997C43.5426 29.4409 43.3351 29.1016 43.2423 28.6816C43.1544 28.2617 43.1105 27.7173 43.1105 27.0483V23.7598H41.4186V22.6978H43.1105V21.0132L44.4655 20.5518ZM53.5768 19.1968V23.0859C53.5768 23.3691 53.5621 23.6548 53.5328 23.9429C53.7135 23.5229 54.0333 23.186 54.4923 22.9321C54.9562 22.6733 55.4762 22.5439 56.0524 22.5439C56.5309 22.5439 56.963 22.6294 57.3488 22.8003C57.7394 22.9712 58.0739 23.2227 58.3522 23.5547C58.6354 23.8818 58.8502 24.2725 58.9967 24.7266C59.1432 25.1807 59.2164 25.6934 59.2164 26.2646C59.2164 26.8408 59.1432 27.3657 58.9967 27.8394C58.8502 28.3081 58.6354 28.7134 58.3522 29.0552C58.069 29.397 57.7296 29.6582 57.3341 29.8389C56.9435 30.0146 56.5114 30.1025 56.0377 30.1025C55.4713 30.1025 54.9684 29.9854 54.5289 29.751C54.0895 29.5117 53.7526 29.1797 53.5182 28.7549V30H52.2072V19.1968H53.5768ZM55.7667 23.7012C55.3615 23.7012 54.9928 23.8159 54.6608 24.0454C54.3287 24.2749 54.0699 24.5923 53.8844 24.9976C53.6989 25.3979 53.6061 25.8447 53.6061 26.3379C53.6061 26.8164 53.6964 27.2583 53.8771 27.6636C54.0626 28.064 54.3165 28.3789 54.6388 28.6084C54.9659 28.8379 55.3273 28.9526 55.7228 28.9526C56.1085 28.9526 56.4576 28.8403 56.7701 28.6157C57.0875 28.3911 57.3341 28.0762 57.5099 27.6709C57.6857 27.2656 57.7736 26.8164 57.7736 26.3232C57.7736 25.5469 57.588 24.917 57.2169 24.4336C56.8507 23.9453 56.3673 23.7012 55.7667 23.7012ZM66.775 22.6685L64.1676 29.9268C63.8942 30.6787 63.6622 31.2476 63.4718 31.6333C63.2863 32.0239 63.0055 32.3657 62.6295 32.6587C62.2535 32.9565 61.7701 33.1055 61.1793 33.1055C60.9547 33.1055 60.6764 33.0664 60.3444 32.9883L60.4176 31.8896C60.652 31.9775 60.8668 32.0215 61.0621 32.0215C61.4967 32.0215 61.8434 31.8604 62.1022 31.5381C62.361 31.2158 62.5636 30.8032 62.7101 30.3003L59.8903 22.6685H61.3624L62.9957 27.2974C63.2155 27.9419 63.3448 28.4473 63.3839 28.8135C63.4327 28.5156 63.5377 28.125 63.6989 27.6416L65.4274 22.6685H66.775ZM69.6827 22.6685V24.2725H68.0787V22.6685H69.6827ZM69.6827 28.396V30H68.0787V28.396H69.6827Z" fill="black"/>
<path d="M82.3658 30V19.9951H84.6437C85.2638 19.9951 85.818 20.0146 86.3063 20.0537C86.7946 20.0928 87.2828 20.1831 87.7711 20.3247C88.2594 20.4663 88.7013 20.6763 89.0968 20.9546C89.4288 21.1792 89.712 21.4453 89.9464 21.7529C90.1808 22.0605 90.3639 22.3828 90.4957 22.7197C90.6324 23.0518 90.7325 23.418 90.796 23.8184C90.8644 24.2139 90.8986 24.6143 90.8986 25.0195C90.8986 25.8594 90.7521 26.6333 90.4591 27.3413C90.171 28.0493 89.712 28.6304 89.0822 29.0845C88.7501 29.3286 88.3741 29.519 87.9542 29.6558C87.5343 29.7925 87.1022 29.8853 86.6578 29.9341C86.2135 29.978 85.7472 30 85.2589 30H82.3658ZM84.3873 28.4546C84.4996 28.4546 84.5924 28.457 84.6656 28.4619C84.7389 28.4619 84.817 28.4644 84.9 28.4692C85.4908 28.4692 86.0206 28.3984 86.4894 28.2568C86.9581 28.1104 87.3585 27.8931 87.6906 27.605C88.0275 27.312 88.2863 26.9458 88.4669 26.5063C88.6476 26.062 88.7379 25.542 88.7379 24.9463C88.7379 24.3506 88.6085 23.7891 88.3497 23.2617C88.0909 22.7344 87.7198 22.3315 87.2365 22.0532C87.0363 21.9312 86.8239 21.8384 86.5992 21.7749C86.3795 21.7065 86.1451 21.6577 85.8961 21.6284C85.652 21.5991 85.3785 21.5796 85.0758 21.5698C84.778 21.5601 84.5485 21.5552 84.3873 21.5552V28.4546ZM98.567 28.0225L98.5963 29.6851C97.8102 30.0269 96.9606 30.1978 96.0475 30.1978C95.4371 30.1978 94.8927 30.1123 94.4142 29.9414C93.9406 29.7656 93.5353 29.5093 93.1984 29.1724C92.8615 28.8306 92.6051 28.4204 92.4293 27.9419C92.2535 27.4585 92.1656 26.9092 92.1656 26.2939C92.1656 25.7275 92.2462 25.2075 92.4073 24.7339C92.5734 24.2554 92.8102 23.8428 93.1178 23.4961C93.4254 23.1445 93.8038 22.8711 94.2531 22.6758C94.7072 22.4805 95.2198 22.3828 95.7911 22.3828C96.3478 22.3828 96.8385 22.4829 97.2633 22.6831C97.6881 22.8833 98.0323 23.1592 98.296 23.5107C98.5646 23.8623 98.7648 24.27 98.8966 24.7339C99.0284 25.1929 99.0944 25.6982 99.0944 26.25C99.0944 26.3477 99.0919 26.4209 99.087 26.4697C99.0822 26.5186 99.0773 26.5796 99.0724 26.6528C99.0675 26.7261 99.0602 26.8115 99.0504 26.9092H94.0553C94.1041 27.4951 94.3312 27.9517 94.7365 28.2788C95.1466 28.606 95.6544 28.7695 96.2599 28.7695C96.9435 28.7695 97.7125 28.5205 98.567 28.0225ZM97.2633 25.5762C97.2535 25.2441 97.1925 24.939 97.0802 24.6606C96.9728 24.3823 96.8043 24.1577 96.5748 23.9868C96.3502 23.8159 96.0695 23.7305 95.7325 23.7305C95.3859 23.7305 95.088 23.8159 94.839 23.9868C94.5948 24.1528 94.4044 24.375 94.2677 24.6533C94.1359 24.9316 94.0553 25.2393 94.026 25.5762H97.2633ZM106.821 30H105.108L105.078 28.8867C104.849 29.2822 104.526 29.5874 104.111 29.8022C103.701 30.0122 103.255 30.1172 102.771 30.1172C102.278 30.1172 101.836 30.0317 101.445 29.8608C101.06 29.6899 100.755 29.4312 100.53 29.0845C100.305 28.7329 100.193 28.3081 100.193 27.8101C100.193 26.8823 100.557 26.2476 101.284 25.9058C102.012 25.564 102.898 25.3931 103.943 25.3931C104.094 25.3931 104.192 25.3955 104.236 25.4004C104.28 25.4004 104.378 25.4053 104.529 25.415C104.68 25.4199 104.834 25.4272 104.99 25.437C104.99 24.8853 104.856 24.4751 104.588 24.2065C104.319 23.938 103.904 23.8037 103.342 23.8037C102.493 23.8037 101.726 24.0747 101.043 24.6167L100.984 22.9468C101.78 22.6099 102.642 22.4414 103.569 22.4414C103.916 22.4414 104.26 22.4756 104.602 22.5439C104.944 22.6123 105.259 22.7271 105.547 22.8882C105.84 23.0444 106.082 23.2544 106.272 23.5181C106.467 23.7817 106.594 24.0845 106.653 24.4263C106.716 24.7632 106.748 25.166 106.748 25.6348C106.748 26.1182 106.748 26.604 106.748 27.0923C106.753 27.5806 106.758 28.0273 106.763 28.4326C106.773 28.833 106.792 29.3555 106.821 30ZM105.02 26.6235C104.971 26.6138 104.895 26.6089 104.793 26.6089H104.558C104.138 26.6089 103.753 26.6333 103.401 26.6821C103.054 26.7261 102.749 26.8433 102.485 27.0337C102.227 27.2192 102.097 27.4927 102.097 27.854C102.097 28.147 102.212 28.3813 102.442 28.5571C102.676 28.728 102.947 28.8135 103.255 28.8135C103.836 28.8135 104.275 28.5986 104.573 28.1689C104.871 27.7393 105.02 27.2241 105.02 26.6235ZM115.552 30H113.735L113.706 28.7402C113.486 29.1846 113.172 29.5264 112.761 29.7656C112.356 30 111.897 30.1172 111.384 30.1172C110.847 30.1172 110.376 30.0122 109.971 29.8022C109.57 29.5874 109.246 29.2993 108.997 28.938C108.748 28.5767 108.562 28.1665 108.44 27.7075C108.323 27.2485 108.264 26.7676 108.264 26.2646C108.264 25.6006 108.374 24.978 108.594 24.397C108.814 23.811 109.153 23.3398 109.612 22.9834C110.076 22.6221 110.652 22.4414 111.34 22.4414C111.858 22.4414 112.31 22.5562 112.695 22.7856C113.081 23.0151 113.399 23.3545 113.648 23.8037C113.599 23.4424 113.574 23.0029 113.574 22.4854V19.1968H115.493V27.8394C115.503 28.3179 115.51 28.7378 115.515 29.0991C115.525 29.4604 115.537 29.7607 115.552 30ZM113.604 26.3379C113.604 25.9521 113.543 25.5884 113.421 25.2466C113.298 24.8999 113.106 24.6143 112.842 24.3896C112.583 24.1602 112.261 24.0454 111.875 24.0454C111.299 24.0454 110.884 24.2676 110.63 24.7119C110.381 25.1514 110.256 25.6836 110.256 26.3086C110.256 26.8945 110.396 27.4243 110.674 27.8979C110.952 28.3716 111.362 28.6084 111.904 28.6084C112.271 28.6084 112.583 28.4985 112.842 28.2788C113.106 28.0542 113.298 27.771 113.421 27.4292C113.543 27.0825 113.604 26.7188 113.604 26.3379ZM119.404 30H117.485V19.1968H119.404V30ZM123.272 30H121.353V22.5732H123.272V30ZM123.301 21.2256H121.323V19.4092H123.301V21.2256ZM127.036 22.5732L127.08 23.7598C127.676 22.8906 128.511 22.4561 129.585 22.4561C130.581 22.4561 131.253 22.7515 131.599 23.3423C131.946 23.9282 132.119 24.7534 132.119 25.8179V30H130.2V26.2646C130.2 25.6055 130.115 25.0708 129.944 24.6606C129.778 24.2505 129.414 24.0454 128.853 24.0454C128.252 24.0454 127.83 24.2871 127.586 24.7705C127.341 25.249 127.219 25.8179 127.219 26.4771V30H125.293V25.2759C125.293 24.2261 125.269 23.3252 125.22 22.5732H127.036ZM139.964 28.0225L139.993 29.6851C139.207 30.0269 138.357 30.1978 137.444 30.1978C136.834 30.1978 136.289 30.1123 135.811 29.9414C135.337 29.7656 134.932 29.5093 134.595 29.1724C134.258 28.8306 134.002 28.4204 133.826 27.9419C133.65 27.4585 133.562 26.9092 133.562 26.2939C133.562 25.7275 133.643 25.2075 133.804 24.7339C133.97 24.2554 134.207 23.8428 134.514 23.4961C134.822 23.1445 135.2 22.8711 135.65 22.6758C136.104 22.4805 136.616 22.3828 137.188 22.3828C137.744 22.3828 138.235 22.4829 138.66 22.6831C139.085 22.8833 139.429 23.1592 139.693 23.5107C139.961 23.8623 140.161 24.27 140.293 24.7339C140.425 25.1929 140.491 25.6982 140.491 26.25C140.491 26.3477 140.488 26.4209 140.484 26.4697C140.479 26.5186 140.474 26.5796 140.469 26.6528C140.464 26.7261 140.457 26.8115 140.447 26.9092H135.452C135.501 27.4951 135.728 27.9517 136.133 28.2788C136.543 28.606 137.051 28.7695 137.656 28.7695C138.34 28.7695 139.109 28.5205 139.964 28.0225ZM138.66 25.5762C138.65 25.2441 138.589 24.939 138.477 24.6606C138.369 24.3823 138.201 24.1577 137.971 23.9868C137.747 23.8159 137.466 23.7305 137.129 23.7305C136.782 23.7305 136.484 23.8159 136.235 23.9868C135.991 24.1528 135.801 24.375 135.664 24.6533C135.532 24.9316 135.452 25.2393 135.422 25.5762H138.66ZM152.393 30H150.679L150.65 28.8867C150.42 29.2822 150.098 29.5874 149.683 29.8022C149.273 30.0122 148.826 30.1172 148.342 30.1172C147.849 30.1172 147.407 30.0317 147.017 29.8608C146.631 29.6899 146.326 29.4312 146.101 29.0845C145.877 28.7329 145.764 28.3081 145.764 27.8101C145.764 26.8823 146.128 26.2476 146.856 25.9058C147.583 25.564 148.469 25.3931 149.514 25.3931C149.666 25.3931 149.763 25.3955 149.807 25.4004C149.851 25.4004 149.949 25.4053 150.1 25.415C150.252 25.4199 150.405 25.4272 150.562 25.437C150.562 24.8853 150.427 24.4751 150.159 24.2065C149.89 23.938 149.475 23.8037 148.914 23.8037C148.064 23.8037 147.297 24.0747 146.614 24.6167L146.555 22.9468C147.351 22.6099 148.213 22.4414 149.141 22.4414C149.487 22.4414 149.832 22.4756 150.173 22.5439C150.515 22.6123 150.83 22.7271 151.118 22.8882C151.411 23.0444 151.653 23.2544 151.843 23.5181C152.039 23.7817 152.166 24.0845 152.224 24.4263C152.288 24.7632 152.319 25.166 152.319 25.6348C152.319 26.1182 152.319 26.604 152.319 27.0923C152.324 27.5806 152.329 28.0273 152.334 28.4326C152.344 28.833 152.363 29.3555 152.393 30ZM150.591 26.6235C150.542 26.6138 150.466 26.6089 150.364 26.6089H150.13C149.71 26.6089 149.324 26.6333 148.972 26.6821C148.626 26.7261 148.32 26.8433 148.057 27.0337C147.798 27.2192 147.669 27.4927 147.669 27.854C147.669 28.147 147.783 28.3813 148.013 28.5571C148.247 28.728 148.518 28.8135 148.826 28.8135C149.407 28.8135 149.846 28.5986 150.144 28.1689C150.442 27.7393 150.591 27.2241 150.591 26.6235ZM156.267 33.0469H154.341V24.7339C154.341 23.8843 154.317 23.1592 154.268 22.5586H156.113L156.143 23.7305C156.714 22.8711 157.525 22.4414 158.574 22.4414C159.082 22.4414 159.524 22.5439 159.9 22.749C160.281 22.9541 160.593 23.2349 160.838 23.5913C161.087 23.9429 161.27 24.3457 161.387 24.7998C161.509 25.249 161.57 25.7129 161.57 26.1914C161.57 26.8994 161.465 27.5488 161.255 28.1396C161.05 28.7305 160.715 29.209 160.252 29.5752C159.788 29.9365 159.199 30.1172 158.486 30.1172C158.023 30.1172 157.588 30.0171 157.183 29.8169C156.777 29.6167 156.46 29.3286 156.231 28.9526C156.255 29.2017 156.267 29.5801 156.267 30.0879V33.0469ZM159.578 26.3086C159.578 25.9131 159.526 25.5469 159.424 25.21C159.326 24.873 159.158 24.5947 158.919 24.375C158.684 24.1553 158.369 24.0454 157.974 24.0454C157.588 24.0454 157.266 24.1577 157.007 24.3823C156.748 24.6021 156.56 24.8877 156.443 25.2393C156.326 25.5859 156.267 25.9473 156.267 26.3232C156.267 26.9385 156.399 27.4707 156.663 27.9199C156.931 28.3643 157.354 28.5864 157.93 28.5864C158.306 28.5864 158.616 28.4741 158.86 28.2495C159.104 28.02 159.285 27.7295 159.402 27.3779C159.519 27.0215 159.578 26.665 159.578 26.3086ZM165.1 33.0469H163.174V24.7339C163.174 23.8843 163.15 23.1592 163.101 22.5586H164.946L164.976 23.7305C165.547 22.8711 166.358 22.4414 167.407 22.4414C167.915 22.4414 168.357 22.5439 168.733 22.749C169.114 22.9541 169.426 23.2349 169.671 23.5913C169.92 23.9429 170.103 24.3457 170.22 24.7998C170.342 25.249 170.403 25.7129 170.403 26.1914C170.403 26.8994 170.298 27.5488 170.088 28.1396C169.883 28.7305 169.548 29.209 169.085 29.5752C168.621 29.9365 168.032 30.1172 167.319 30.1172C166.856 30.1172 166.421 30.0171 166.016 29.8169C165.61 29.6167 165.293 29.3286 165.064 28.9526C165.088 29.2017 165.1 29.5801 165.1 30.0879V33.0469ZM168.411 26.3086C168.411 25.9131 168.359 25.5469 168.257 25.21C168.159 24.873 167.991 24.5947 167.752 24.375C167.517 24.1553 167.202 24.0454 166.807 24.0454C166.421 24.0454 166.099 24.1577 165.84 24.3823C165.581 24.6021 165.393 24.8877 165.276 25.2393C165.159 25.5859 165.1 25.9473 165.1 26.3232C165.1 26.9385 165.232 27.4707 165.496 27.9199C165.764 28.3643 166.187 28.5864 166.763 28.5864C167.139 28.5864 167.449 28.4741 167.693 28.2495C167.937 28.02 168.118 27.7295 168.235 27.3779C168.352 27.0215 168.411 26.665 168.411 26.3086ZM173.911 30H171.992V24.8071C171.968 23.5718 171.948 22.8271 171.934 22.5732H173.677L173.721 24.4482C173.887 23.8623 174.138 23.3936 174.475 23.042C174.817 22.6904 175.261 22.5146 175.808 22.5146C175.974 22.5146 176.162 22.5391 176.372 22.5879V24.3896C176.118 24.3213 175.894 24.2871 175.698 24.2871C175.244 24.2871 174.883 24.4067 174.614 24.646C174.346 24.8853 174.16 25.1929 174.058 25.5688C173.96 25.9399 173.911 26.3477 173.911 26.792V26.9385V30ZM184.832 26.3525C184.832 26.9238 184.739 27.4487 184.553 27.9272C184.368 28.4009 184.104 28.8062 183.762 29.1431C183.425 29.4751 183.02 29.7339 182.547 29.9194C182.073 30.105 181.546 30.1978 180.964 30.1978C180.198 30.1978 179.524 30.0317 178.943 29.6997C178.362 29.3677 177.913 28.8989 177.595 28.2935C177.283 27.688 177.127 27.0068 177.127 26.25C177.127 25.4932 177.288 24.8218 177.61 24.2358C177.932 23.6499 178.384 23.1958 178.965 22.8735C179.551 22.5464 180.222 22.3828 180.979 22.3828C181.565 22.3828 182.095 22.4805 182.568 22.6758C183.047 22.8711 183.455 23.1494 183.792 23.5107C184.129 23.8672 184.385 24.2871 184.561 24.7705C184.741 25.2539 184.832 25.7812 184.832 26.3525ZM182.839 26.3086C182.839 25.9082 182.774 25.5151 182.642 25.1294C182.515 24.7437 182.31 24.4263 182.026 24.1772C181.743 23.9282 181.394 23.8037 180.979 23.8037C180.584 23.8037 180.242 23.9258 179.954 24.1699C179.671 24.4141 179.461 24.7266 179.324 25.1074C179.187 25.4834 179.119 25.8643 179.119 26.25C179.119 26.665 179.182 27.0654 179.309 27.4512C179.441 27.8369 179.649 28.1543 179.932 28.4033C180.215 28.6475 180.574 28.7695 181.008 28.7695C181.316 28.7695 181.587 28.6963 181.821 28.5498C182.056 28.3984 182.246 28.208 182.393 27.9785C182.539 27.7441 182.649 27.4829 182.722 27.1948C182.8 26.9019 182.839 26.6064 182.839 26.3086ZM192.559 30H190.845L190.816 28.8867C190.586 29.2822 190.264 29.5874 189.849 29.8022C189.439 30.0122 188.992 30.1172 188.508 30.1172C188.015 30.1172 187.573 30.0317 187.183 29.8608C186.797 29.6899 186.492 29.4312 186.267 29.0845C186.043 28.7329 185.93 28.3081 185.93 27.8101C185.93 26.8823 186.294 26.2476 187.022 25.9058C187.749 25.564 188.635 25.3931 189.68 25.3931C189.832 25.3931 189.929 25.3955 189.973 25.4004C190.017 25.4004 190.115 25.4053 190.266 25.415C190.418 25.4199 190.571 25.4272 190.728 25.437C190.728 24.8853 190.593 24.4751 190.325 24.2065C190.056 23.938 189.641 23.8037 189.08 23.8037C188.23 23.8037 187.464 24.0747 186.78 24.6167L186.721 22.9468C187.517 22.6099 188.379 22.4414 189.307 22.4414C189.653 22.4414 189.998 22.4756 190.339 22.5439C190.681 22.6123 190.996 22.7271 191.284 22.8882C191.577 23.0444 191.819 23.2544 192.009 23.5181C192.205 23.7817 192.332 24.0845 192.39 24.4263C192.454 24.7632 192.485 25.166 192.485 25.6348C192.485 26.1182 192.485 26.604 192.485 27.0923C192.49 27.5806 192.495 28.0273 192.5 28.4326C192.51 28.833 192.529 29.3555 192.559 30ZM190.757 26.6235C190.708 26.6138 190.632 26.6089 190.53 26.6089H190.296C189.876 26.6089 189.49 26.6333 189.138 26.6821C188.792 26.7261 188.486 26.8433 188.223 27.0337C187.964 27.2192 187.835 27.4927 187.835 27.854C187.835 28.147 187.949 28.3813 188.179 28.5571C188.413 28.728 188.684 28.8135 188.992 28.8135C189.573 28.8135 190.012 28.5986 190.31 28.1689C190.608 27.7393 190.757 27.2241 190.757 26.6235ZM199.458 28.1543L199.568 29.7729C198.923 29.9634 198.347 30.0586 197.839 30.0586C197.273 30.0586 196.753 29.9731 196.279 29.8022C195.806 29.6265 195.398 29.3726 195.056 29.0405C194.719 28.7085 194.461 28.3057 194.28 27.832C194.104 27.3535 194.016 26.8262 194.016 26.25C194.016 25.5176 194.172 24.8682 194.485 24.3018C194.802 23.7354 195.247 23.2959 195.818 22.9834C196.394 22.6709 197.044 22.5146 197.766 22.5146C198.303 22.5146 198.848 22.5952 199.4 22.7563L199.253 24.3018C198.814 24.1309 198.418 24.0454 198.067 24.0454C197.666 24.0454 197.307 24.1455 196.99 24.3457C196.672 24.541 196.428 24.8047 196.257 25.1367C196.091 25.4639 196.008 25.8301 196.008 26.2354C196.008 26.9043 196.204 27.4414 196.594 27.8467C196.985 28.252 197.51 28.4546 198.169 28.4546C198.589 28.4546 199.019 28.3545 199.458 28.1543ZM207.734 30H205.816V26.3965C205.816 25.6836 205.737 25.1147 205.581 24.6899C205.43 24.2603 205.068 24.0454 204.497 24.0454C203.882 24.0454 203.45 24.2993 203.201 24.8071C202.952 25.3101 202.827 25.9009 202.827 26.5796V26.9531V30H200.908V19.1968H202.827V23.6279C203.106 23.2275 203.44 22.9297 203.831 22.7344C204.221 22.5391 204.668 22.4414 205.171 22.4414C205.693 22.4414 206.123 22.5269 206.46 22.6978C206.802 22.8638 207.063 23.0908 207.244 23.3789C207.429 23.667 207.556 24.0039 207.625 24.3896C207.698 24.7705 207.734 25.2197 207.734 25.7373V30ZM211.543 30H209.624V22.5732H211.543V30ZM211.572 21.2256H209.595V19.4092H211.572V21.2256ZM215.308 22.5732L215.352 23.7598C215.947 22.8906 216.782 22.4561 217.857 22.4561C218.853 22.4561 219.524 22.7515 219.871 23.3423C220.217 23.9282 220.391 24.7534 220.391 25.8179V30H218.472V26.2646C218.472 25.6055 218.386 25.0708 218.215 24.6606C218.049 24.2505 217.686 24.0454 217.124 24.0454C216.524 24.0454 216.101 24.2871 215.857 24.7705C215.613 25.249 215.491 25.8179 215.491 26.4771V30H213.565V25.2759C213.565 24.2261 213.54 23.3252 213.491 22.5732H215.308ZM227.246 22.5879H229.077V29.0991C229.077 30.4419 228.767 31.4551 228.147 32.1387C227.532 32.8223 226.553 33.1641 225.21 33.1641C224.341 33.1641 223.474 32.9883 222.61 32.6367L222.764 30.9741C223.159 31.1694 223.54 31.3208 223.906 31.4282C224.277 31.5356 224.651 31.5894 225.027 31.5894C225.447 31.5894 225.84 31.499 226.206 31.3184C226.572 31.1377 226.839 30.874 227.005 30.5273C227.117 30.293 227.185 30.0342 227.21 29.751C227.239 29.4678 227.261 29.0552 227.276 28.5132C227.031 28.9673 226.69 29.3286 226.25 29.5972C225.811 29.8657 225.332 30 224.815 30C224.146 30 223.584 29.8218 223.13 29.4653C222.681 29.1089 222.351 28.6426 222.141 28.0664C221.936 27.4902 221.834 26.875 221.834 26.2207C221.834 25.5518 221.939 24.9316 222.149 24.3604C222.363 23.7842 222.698 23.3203 223.152 22.9688C223.606 22.6172 224.175 22.4414 224.859 22.4414C225.396 22.4414 225.867 22.5513 226.272 22.771C226.677 22.9907 226.992 23.3252 227.217 23.7744L227.246 22.5879ZM227.173 26.2061C227.173 25.957 227.136 25.6982 227.063 25.4297C226.99 25.1611 226.882 24.9268 226.741 24.7266C226.604 24.5215 226.423 24.3555 226.199 24.2285C225.974 24.0967 225.728 24.0308 225.459 24.0308C224.912 24.0308 224.502 24.2456 224.229 24.6753C223.96 25.105 223.826 25.6104 223.826 26.1914C223.826 26.7676 223.963 27.2876 224.236 27.7515C224.514 28.2104 224.922 28.4399 225.459 28.4399C225.84 28.4399 226.157 28.3301 226.411 28.1104C226.665 27.8906 226.856 27.6074 226.983 27.2607C227.109 26.9141 227.173 26.5625 227.173 26.2061Z" fill="black"/>
<path d="M244.785 23.5893C244.952 23.4223 245.179 23.3285 245.415 23.3285C245.651 23.3285 245.878 23.4223 246.045 23.5893L250.759 28.3034L255.473 23.5893C255.555 23.5042 255.653 23.4364 255.762 23.3897C255.871 23.343 255.987 23.3184 256.106 23.3174C256.224 23.3164 256.341 23.3389 256.451 23.3837C256.56 23.4285 256.66 23.4946 256.743 23.5782C256.827 23.6619 256.893 23.7613 256.938 23.8708C256.982 23.9802 257.005 24.0975 257.004 24.2157C257.003 24.334 256.978 24.4509 256.932 24.5595C256.885 24.6682 256.817 24.7665 256.732 24.8486L251.388 30.1924C251.221 30.3593 250.995 30.4531 250.759 30.4531C250.523 30.4531 250.296 30.3593 250.129 30.1924L244.785 24.8486C244.618 24.6816 244.525 24.4551 244.525 24.219C244.525 23.9828 244.618 23.7563 244.785 23.5893Z" fill="black"/>
</g>
<defs>
<filter id="filter0_d" x="0.571411" y="0" width="279.571" height="56" filterUnits="userSpaceOnUse" color-interpolation-filters="sRGB">
<feFlood flood-opacity="0" result="BackgroundImageFix"/>
<feColorMatrix in="SourceAlpha" type="matrix" values="0 0 0 0 0 0 0 0 0 0 0 0 0 0 0 0 0 0 127 0" result="hardAlpha"/>
<feOffset dy="2"/>
<feGaussianBlur stdDeviation="2"/>
<feColorMatrix type="matrix" values="0 0 0 0 0 0 0 0 0 0 0 0 0 0 0 0 0 0 0.25 0"/>
<feBlend mode="normal" in2="BackgroundImageFix" result="effect1_dropShadow"/>
<feBlend mode="normal" in="SourceGraphic" in2="effect1_dropShadow" result="shape"/>
</filter>
</defs>
</svg>
