<svg width="272" height="148" viewBox="0 0 272 148" fill="none" xmlns="http://www.w3.org/2000/svg">
<g clip-path="url(#clip0)">
<g filter="url(#filter0_d)">
<rect width="271.571" height="48" rx="8.71" fill="white"/>
<path d="M21.6641 18.1782L21.4883 19.438C20.7754 19.1646 20.1504 19.0278 19.6133 19.0278C19.252 19.0278 18.9346 19.0864 18.6611 19.2036C18.3926 19.3159 18.1826 19.4771 18.0312 19.687C17.8848 19.8921 17.8115 20.1338 17.8115 20.4121C17.8115 20.8467 17.9629 21.1787 18.2656 21.4082C18.5732 21.6377 19.1104 21.9526 19.877 22.353C20.6484 22.7485 21.2271 23.1514 21.6128 23.5615C21.9985 23.9668 22.1914 24.5063 22.1914 25.1802C22.1914 25.7661 22.0498 26.291 21.7666 26.7549C21.4834 27.2188 21.0806 27.5752 20.5581 27.8242C20.0405 28.0732 19.4448 28.1978 18.771 28.1978C17.9751 28.1978 17.2158 28.0659 16.4932 27.8022L16.6396 26.4546C17.377 26.8062 18.0312 26.9819 18.6025 26.9819C19.0078 26.9819 19.3667 26.9136 19.6792 26.7769C19.9966 26.6401 20.2383 26.4448 20.4043 26.1909C20.5752 25.9321 20.6606 25.6294 20.6606 25.2827C20.6606 24.7847 20.4922 24.4087 20.1553 24.1548C19.8184 23.896 19.2837 23.5908 18.5513 23.2393C17.8188 22.8877 17.2646 22.5239 16.8887 22.1479C16.5127 21.7671 16.3247 21.2324 16.3247 20.5439C16.3247 20.0068 16.4541 19.5332 16.7129 19.123C16.9766 18.708 17.3477 18.3857 17.8262 18.1562C18.3096 17.9268 18.8589 17.812 19.4741 17.812C20.2505 17.812 20.9805 17.9341 21.6641 18.1782ZM30.8999 24.3525C30.8999 25.0947 30.7388 25.7588 30.4165 26.3447C30.0991 26.9307 29.6499 27.3872 29.0688 27.7144C28.4927 28.0366 27.8433 28.1978 27.1206 28.1978C26.4077 28.1978 25.7681 28.0342 25.2017 27.707C24.6353 27.375 24.1909 26.9136 23.8687 26.3228C23.5464 25.7271 23.3853 25.0703 23.3853 24.3525C23.3853 23.7861 23.4756 23.2686 23.6562 22.7998C23.8418 22.3262 24.103 21.916 24.4399 21.5693C24.7817 21.2178 25.1821 20.9468 25.6411 20.7563C26.105 20.5659 26.603 20.4707 27.1353 20.4707C27.6724 20.4707 28.1729 20.5635 28.6367 20.749C29.1006 20.9346 29.5034 21.2031 29.8452 21.5547C30.187 21.9062 30.4482 22.3213 30.6289 22.7998C30.8096 23.2783 30.8999 23.7959 30.8999 24.3525ZM29.457 24.3818C29.457 23.9814 29.3984 23.603 29.2812 23.2466C29.1689 22.8901 29.0078 22.5874 28.7979 22.3384C28.5928 22.0845 28.3486 21.8892 28.0654 21.7524C27.7871 21.6157 27.4819 21.5474 27.1499 21.5474C26.481 21.5474 25.9243 21.811 25.48 22.3384C25.0405 22.8657 24.8208 23.5322 24.8208 24.3379C24.8208 24.8701 24.9185 25.3486 25.1138 25.7734C25.314 26.1982 25.5898 26.5278 25.9414 26.7622C26.2979 26.9966 26.7007 27.1138 27.1499 27.1138C27.5845 27.1138 27.9775 26.999 28.3291 26.7695C28.6807 26.5352 28.9565 26.208 29.1567 25.7881C29.3569 25.3682 29.457 24.8994 29.457 24.3818ZM32.5332 20.6685H33.793L33.8589 21.9722C34.0786 21.5132 34.3643 21.1665 34.7158 20.9321C35.0723 20.6929 35.4849 20.5732 35.9536 20.5732C36.1978 20.5732 36.4443 20.605 36.6934 20.6685V21.9136C36.459 21.8306 36.2441 21.7891 36.0488 21.7891C35.5752 21.7891 35.1821 21.9282 34.8696 22.2065C34.5571 22.48 34.3301 22.8315 34.1885 23.2612C34.0469 23.686 33.9761 24.1304 33.9761 24.5942V25.1216V28H32.6284V23.5322C32.6284 22.8096 32.5967 21.855 32.5332 20.6685ZM39.894 18.5518V20.6978H41.8423V21.7598H39.894V24.6382C39.894 25.2974 39.9233 25.7783 39.9819 26.0811C40.0259 26.3447 40.1455 26.5547 40.3408 26.7109C40.541 26.8623 40.7949 26.938 41.1025 26.938C41.3857 26.938 41.6812 26.8623 41.9888 26.7109V27.8828C41.5591 28.0195 41.1392 28.0879 40.729 28.0879C40.0942 28.0879 39.6157 27.9585 39.2935 27.6997C38.9712 27.4409 38.7637 27.1016 38.6709 26.6816C38.583 26.2617 38.5391 25.7173 38.5391 25.0483V21.7598H36.8472V20.6978H38.5391V19.0132L39.894 18.5518ZM49.0054 17.1968V21.0859C49.0054 21.3691 48.9907 21.6548 48.9614 21.9429C49.1421 21.5229 49.4619 21.186 49.9209 20.9321C50.3848 20.6733 50.9048 20.5439 51.481 20.5439C51.9595 20.5439 52.3916 20.6294 52.7773 20.8003C53.168 20.9712 53.5024 21.2227 53.7808 21.5547C54.064 21.8818 54.2788 22.2725 54.4253 22.7266C54.5718 23.1807 54.645 23.6934 54.645 24.2646C54.645 24.8408 54.5718 25.3657 54.4253 25.8394C54.2788 26.3081 54.064 26.7134 53.7808 27.0552C53.4976 27.397 53.1582 27.6582 52.7627 27.8389C52.3721 28.0146 51.9399 28.1025 51.4663 28.1025C50.8999 28.1025 50.397 27.9854 49.9575 27.751C49.5181 27.5117 49.1812 27.1797 48.9468 26.7549V28H47.6357V17.1968H49.0054ZM51.1953 21.7012C50.79 21.7012 50.4214 21.8159 50.0894 22.0454C49.7573 22.2749 49.4985 22.5923 49.313 22.9976C49.1274 23.3979 49.0347 23.8447 49.0347 24.3379C49.0347 24.8164 49.125 25.2583 49.3057 25.6636C49.4912 26.064 49.7451 26.3789 50.0674 26.6084C50.3945 26.8379 50.7559 26.9526 51.1514 26.9526C51.5371 26.9526 51.8862 26.8403 52.1987 26.6157C52.5161 26.3911 52.7627 26.0762 52.9385 25.6709C53.1143 25.2656 53.2021 24.8164 53.2021 24.3232C53.2021 23.5469 53.0166 22.917 52.6455 22.4336C52.2793 21.9453 51.7959 21.7012 51.1953 21.7012ZM62.2036 20.6685L59.5962 27.9268C59.3228 28.6787 59.0908 29.2476 58.9004 29.6333C58.7148 30.0239 58.4341 30.3657 58.0581 30.6587C57.6821 30.9565 57.1987 31.1055 56.6079 31.1055C56.3833 31.1055 56.105 31.0664 55.7729 30.9883L55.8462 29.8896C56.0806 29.9775 56.2954 30.0215 56.4907 30.0215C56.9253 30.0215 57.272 29.8604 57.5308 29.5381C57.7896 29.2158 57.9922 28.8032 58.1387 28.3003L55.3188 20.6685H56.791L58.4243 25.2974C58.644 25.9419 58.7734 26.4473 58.8125 26.8135C58.8613 26.5156 58.9663 26.125 59.1274 25.6416L60.856 20.6685H62.2036ZM65.1113 20.6685V22.2725H63.5073V20.6685H65.1113ZM65.1113 26.396V28H63.5073V26.396H65.1113Z" fill="black"/>
<path d="M77.7944 28V17.9951H80.0723C80.6924 17.9951 81.2466 18.0146 81.7349 18.0537C82.2231 18.0928 82.7114 18.1831 83.1997 18.3247C83.688 18.4663 84.1299 18.6763 84.5254 18.9546C84.8574 19.1792 85.1406 19.4453 85.375 19.7529C85.6094 20.0605 85.7925 20.3828 85.9243 20.7197C86.061 21.0518 86.1611 21.418 86.2246 21.8184C86.293 22.2139 86.3271 22.6143 86.3271 23.0195C86.3271 23.8594 86.1807 24.6333 85.8877 25.3413C85.5996 26.0493 85.1406 26.6304 84.5107 27.0845C84.1787 27.3286 83.8027 27.519 83.3828 27.6558C82.9629 27.7925 82.5308 27.8853 82.0864 27.9341C81.6421 27.978 81.1758 28 80.6875 28H77.7944ZM79.8159 26.4546C79.9282 26.4546 80.021 26.457 80.0942 26.4619C80.1675 26.4619 80.2456 26.4644 80.3286 26.4692C80.9194 26.4692 81.4492 26.3984 81.918 26.2568C82.3867 26.1104 82.7871 25.8931 83.1191 25.605C83.4561 25.312 83.7148 24.9458 83.8955 24.5063C84.0762 24.062 84.1665 23.542 84.1665 22.9463C84.1665 22.3506 84.0371 21.7891 83.7783 21.2617C83.5195 20.7344 83.1484 20.3315 82.665 20.0532C82.4648 19.9312 82.2524 19.8384 82.0278 19.7749C81.8081 19.7065 81.5737 19.6577 81.3247 19.6284C81.0806 19.5991 80.8071 19.5796 80.5044 19.5698C80.2065 19.5601 79.9771 19.5552 79.8159 19.5552V26.4546ZM93.9956 26.0225L94.0249 27.6851C93.2388 28.0269 92.3892 28.1978 91.4761 28.1978C90.8657 28.1978 90.3213 28.1123 89.8428 27.9414C89.3691 27.7656 88.9639 27.5093 88.627 27.1724C88.29 26.8306 88.0337 26.4204 87.8579 25.9419C87.6821 25.4585 87.5942 24.9092 87.5942 24.2939C87.5942 23.7275 87.6748 23.2075 87.8359 22.7339C88.002 22.2554 88.2388 21.8428 88.5464 21.4961C88.854 21.1445 89.2324 20.8711 89.6816 20.6758C90.1357 20.4805 90.6484 20.3828 91.2197 20.3828C91.7764 20.3828 92.2671 20.4829 92.6919 20.6831C93.1167 20.8833 93.4609 21.1592 93.7246 21.5107C93.9932 21.8623 94.1934 22.27 94.3252 22.7339C94.457 23.1929 94.5229 23.6982 94.5229 24.25C94.5229 24.3477 94.5205 24.4209 94.5156 24.4697C94.5107 24.5186 94.5059 24.5796 94.501 24.6528C94.4961 24.7261 94.4888 24.8115 94.479 24.9092H89.4839C89.5327 25.4951 89.7598 25.9517 90.165 26.2788C90.5752 26.606 91.083 26.7695 91.6885 26.7695C92.3721 26.7695 93.1411 26.5205 93.9956 26.0225ZM92.6919 23.5762C92.6821 23.2441 92.6211 22.939 92.5088 22.6606C92.4014 22.3823 92.2329 22.1577 92.0034 21.9868C91.7788 21.8159 91.498 21.7305 91.1611 21.7305C90.8145 21.7305 90.5166 21.8159 90.2676 21.9868C90.0234 22.1528 89.833 22.375 89.6963 22.6533C89.5645 22.9316 89.4839 23.2393 89.4546 23.5762H92.6919ZM102.25 28H100.536L100.507 26.8867C100.277 27.2822 99.9551 27.5874 99.54 27.8022C99.1299 28.0122 98.6831 28.1172 98.1997 28.1172C97.7065 28.1172 97.2646 28.0317 96.874 27.8608C96.4883 27.6899 96.1831 27.4312 95.9585 27.0845C95.7339 26.7329 95.6216 26.3081 95.6216 25.8101C95.6216 24.8823 95.9854 24.2476 96.7129 23.9058C97.4404 23.564 98.3267 23.3931 99.3716 23.3931C99.5229 23.3931 99.6206 23.3955 99.6646 23.4004C99.7085 23.4004 99.8062 23.4053 99.9575 23.415C100.109 23.4199 100.263 23.4272 100.419 23.437C100.419 22.8853 100.285 22.4751 100.016 22.2065C99.7476 21.938 99.3325 21.8037 98.771 21.8037C97.9214 21.8037 97.1548 22.0747 96.4712 22.6167L96.4126 20.9468C97.2085 20.6099 98.0703 20.4414 98.998 20.4414C99.3447 20.4414 99.689 20.4756 100.031 20.5439C100.373 20.6123 100.688 20.7271 100.976 20.8882C101.269 21.0444 101.51 21.2544 101.701 21.5181C101.896 21.7817 102.023 22.0845 102.082 22.4263C102.145 22.7632 102.177 23.166 102.177 23.6348C102.177 24.1182 102.177 24.604 102.177 25.0923C102.182 25.5806 102.187 26.0273 102.191 26.4326C102.201 26.833 102.221 27.3555 102.25 28ZM100.448 24.6235C100.399 24.6138 100.324 24.6089 100.221 24.6089H99.9868C99.5669 24.6089 99.1812 24.6333 98.8296 24.6821C98.4829 24.7261 98.1777 24.8433 97.9141 25.0337C97.6553 25.2192 97.5259 25.4927 97.5259 25.854C97.5259 26.147 97.6406 26.3813 97.8701 26.5571C98.1045 26.728 98.3755 26.8135 98.6831 26.8135C99.2642 26.8135 99.7036 26.5986 100.001 26.1689C100.299 25.7393 100.448 25.2241 100.448 24.6235ZM110.98 28H109.164L109.135 26.7402C108.915 27.1846 108.6 27.5264 108.19 27.7656C107.785 28 107.326 28.1172 106.813 28.1172C106.276 28.1172 105.805 28.0122 105.399 27.8022C104.999 27.5874 104.674 27.2993 104.425 26.938C104.176 26.5767 103.991 26.1665 103.869 25.7075C103.751 25.2485 103.693 24.7676 103.693 24.2646C103.693 23.6006 103.803 22.978 104.022 22.397C104.242 21.811 104.582 21.3398 105.041 20.9834C105.504 20.6221 106.081 20.4414 106.769 20.4414C107.287 20.4414 107.738 20.5562 108.124 20.7856C108.51 21.0151 108.827 21.3545 109.076 21.8037C109.027 21.4424 109.003 21.0029 109.003 20.4854V17.1968H110.922V25.8394C110.932 26.3179 110.939 26.7378 110.944 27.0991C110.954 27.4604 110.966 27.7607 110.98 28ZM109.032 24.3379C109.032 23.9521 108.971 23.5884 108.849 23.2466C108.727 22.8999 108.534 22.6143 108.271 22.3896C108.012 22.1602 107.689 22.0454 107.304 22.0454C106.728 22.0454 106.312 22.2676 106.059 22.7119C105.81 23.1514 105.685 23.6836 105.685 24.3086C105.685 24.8945 105.824 25.4243 106.103 25.8979C106.381 26.3716 106.791 26.6084 107.333 26.6084C107.699 26.6084 108.012 26.4985 108.271 26.2788C108.534 26.0542 108.727 25.771 108.849 25.4292C108.971 25.0825 109.032 24.7188 109.032 24.3379ZM114.833 28H112.914V17.1968H114.833V28ZM118.7 28H116.781V20.5732H118.7V28ZM118.729 19.2256H116.752V17.4092H118.729V19.2256ZM122.465 20.5732L122.509 21.7598C123.104 20.8906 123.939 20.4561 125.014 20.4561C126.01 20.4561 126.681 20.7515 127.028 21.3423C127.375 21.9282 127.548 22.7534 127.548 23.8179V28H125.629V24.2646C125.629 23.6055 125.543 23.0708 125.373 22.6606C125.207 22.2505 124.843 22.0454 124.281 22.0454C123.681 22.0454 123.258 22.2871 123.014 22.7705C122.77 23.249 122.648 23.8179 122.648 24.4771V28H120.722V23.2759C120.722 22.2261 120.697 21.3252 120.648 20.5732H122.465ZM135.392 26.0225L135.421 27.6851C134.635 28.0269 133.786 28.1978 132.873 28.1978C132.262 28.1978 131.718 28.1123 131.239 27.9414C130.766 27.7656 130.36 27.5093 130.023 27.1724C129.687 26.8306 129.43 26.4204 129.254 25.9419C129.079 25.4585 128.991 24.9092 128.991 24.2939C128.991 23.7275 129.071 23.2075 129.232 22.7339C129.398 22.2554 129.635 21.8428 129.943 21.4961C130.25 21.1445 130.629 20.8711 131.078 20.6758C131.532 20.4805 132.045 20.3828 132.616 20.3828C133.173 20.3828 133.664 20.4829 134.088 20.6831C134.513 20.8833 134.857 21.1592 135.121 21.5107C135.39 21.8623 135.59 22.27 135.722 22.7339C135.854 23.1929 135.919 23.6982 135.919 24.25C135.919 24.3477 135.917 24.4209 135.912 24.4697C135.907 24.5186 135.902 24.5796 135.897 24.6528C135.893 24.7261 135.885 24.8115 135.875 24.9092H130.88C130.929 25.4951 131.156 25.9517 131.562 26.2788C131.972 26.606 132.479 26.7695 133.085 26.7695C133.769 26.7695 134.538 26.5205 135.392 26.0225ZM134.088 23.5762C134.079 23.2441 134.018 22.939 133.905 22.6606C133.798 22.3823 133.629 22.1577 133.4 21.9868C133.175 21.8159 132.895 21.7305 132.558 21.7305C132.211 21.7305 131.913 21.8159 131.664 21.9868C131.42 22.1528 131.229 22.375 131.093 22.6533C130.961 22.9316 130.88 23.2393 130.851 23.5762H134.088ZM147.821 28H146.107L146.078 26.8867C145.849 27.2822 145.526 27.5874 145.111 27.8022C144.701 28.0122 144.254 28.1172 143.771 28.1172C143.278 28.1172 142.836 28.0317 142.445 27.8608C142.06 27.6899 141.754 27.4312 141.53 27.0845C141.305 26.7329 141.193 26.3081 141.193 25.8101C141.193 24.8823 141.557 24.2476 142.284 23.9058C143.012 23.564 143.898 23.3931 144.943 23.3931C145.094 23.3931 145.192 23.3955 145.236 23.4004C145.28 23.4004 145.377 23.4053 145.529 23.415C145.68 23.4199 145.834 23.4272 145.99 23.437C145.99 22.8853 145.856 22.4751 145.587 22.2065C145.319 21.938 144.904 21.8037 144.342 21.8037C143.493 21.8037 142.726 22.0747 142.042 22.6167L141.984 20.9468C142.78 20.6099 143.642 20.4414 144.569 20.4414C144.916 20.4414 145.26 20.4756 145.602 20.5439C145.944 20.6123 146.259 20.7271 146.547 20.8882C146.84 21.0444 147.082 21.2544 147.272 21.5181C147.467 21.7817 147.594 22.0845 147.653 22.4263C147.716 22.7632 147.748 23.166 147.748 23.6348C147.748 24.1182 147.748 24.604 147.748 25.0923C147.753 25.5806 147.758 26.0273 147.763 26.4326C147.772 26.833 147.792 27.3555 147.821 28ZM146.02 24.6235C145.971 24.6138 145.895 24.6089 145.792 24.6089H145.558C145.138 24.6089 144.752 24.6333 144.401 24.6821C144.054 24.7261 143.749 24.8433 143.485 25.0337C143.227 25.2192 143.097 25.4927 143.097 25.854C143.097 26.147 143.212 26.3813 143.441 26.5571C143.676 26.728 143.947 26.8135 144.254 26.8135C144.835 26.8135 145.275 26.5986 145.573 26.1689C145.871 25.7393 146.02 25.2241 146.02 24.6235ZM151.696 31.0469H149.77V22.7339C149.77 21.8843 149.745 21.1592 149.696 20.5586H151.542L151.571 21.7305C152.143 20.8711 152.953 20.4414 154.003 20.4414C154.511 20.4414 154.953 20.5439 155.329 20.749C155.709 20.9541 156.022 21.2349 156.266 21.5913C156.515 21.9429 156.698 22.3457 156.815 22.7998C156.938 23.249 156.999 23.7129 156.999 24.1914C156.999 24.8994 156.894 25.5488 156.684 26.1396C156.479 26.7305 156.144 27.209 155.68 27.5752C155.216 27.9365 154.628 28.1172 153.915 28.1172C153.451 28.1172 153.017 28.0171 152.611 27.8169C152.206 27.6167 151.889 27.3286 151.659 26.9526C151.684 27.2017 151.696 27.5801 151.696 28.0879V31.0469ZM155.006 24.3086C155.006 23.9131 154.955 23.5469 154.853 23.21C154.755 22.873 154.586 22.5947 154.347 22.375C154.113 22.1553 153.798 22.0454 153.402 22.0454C153.017 22.0454 152.694 22.1577 152.436 22.3823C152.177 22.6021 151.989 22.8877 151.872 23.2393C151.754 23.5859 151.696 23.9473 151.696 24.3232C151.696 24.9385 151.828 25.4707 152.091 25.9199C152.36 26.3643 152.782 26.5864 153.358 26.5864C153.734 26.5864 154.044 26.4741 154.289 26.2495C154.533 26.02 154.713 25.7295 154.831 25.3779C154.948 25.0215 155.006 24.665 155.006 24.3086ZM160.529 31.0469H158.603V22.7339C158.603 21.8843 158.578 21.1592 158.529 20.5586H160.375L160.404 21.7305C160.976 20.8711 161.786 20.4414 162.836 20.4414C163.344 20.4414 163.786 20.5439 164.162 20.749C164.542 20.9541 164.855 21.2349 165.099 21.5913C165.348 21.9429 165.531 22.3457 165.648 22.7998C165.771 23.249 165.832 23.7129 165.832 24.1914C165.832 24.8994 165.727 25.5488 165.517 26.1396C165.312 26.7305 164.977 27.209 164.513 27.5752C164.049 27.9365 163.461 28.1172 162.748 28.1172C162.284 28.1172 161.85 28.0171 161.444 27.8169C161.039 27.6167 160.722 27.3286 160.492 26.9526C160.517 27.2017 160.529 27.5801 160.529 28.0879V31.0469ZM163.839 24.3086C163.839 23.9131 163.788 23.5469 163.686 23.21C163.588 22.873 163.419 22.5947 163.18 22.375C162.946 22.1553 162.631 22.0454 162.235 22.0454C161.85 22.0454 161.527 22.1577 161.269 22.3823C161.01 22.6021 160.822 22.8877 160.705 23.2393C160.587 23.5859 160.529 23.9473 160.529 24.3232C160.529 24.9385 160.661 25.4707 160.924 25.9199C161.193 26.3643 161.615 26.5864 162.191 26.5864C162.567 26.5864 162.877 26.4741 163.122 26.2495C163.366 26.02 163.546 25.7295 163.664 25.3779C163.781 25.0215 163.839 24.665 163.839 24.3086ZM169.34 28H167.421V22.8071C167.396 21.5718 167.377 20.8271 167.362 20.5732H169.105L169.149 22.4482C169.315 21.8623 169.567 21.3936 169.904 21.042C170.246 20.6904 170.69 20.5146 171.237 20.5146C171.403 20.5146 171.591 20.5391 171.801 20.5879V22.3896C171.547 22.3213 171.322 22.2871 171.127 22.2871C170.673 22.2871 170.312 22.4067 170.043 22.646C169.774 22.8853 169.589 23.1929 169.486 23.5688C169.389 23.9399 169.34 24.3477 169.34 24.792V24.9385V28ZM180.26 24.3525C180.26 24.9238 180.167 25.4487 179.982 25.9272C179.796 26.4009 179.533 26.8062 179.191 27.1431C178.854 27.4751 178.449 27.7339 177.975 27.9194C177.501 28.105 176.974 28.1978 176.393 28.1978C175.626 28.1978 174.953 28.0317 174.372 27.6997C173.791 27.3677 173.341 26.8989 173.024 26.2935C172.711 25.688 172.555 25.0068 172.555 24.25C172.555 23.4932 172.716 22.8218 173.039 22.2358C173.361 21.6499 173.812 21.1958 174.394 20.8735C174.979 20.5464 175.651 20.3828 176.408 20.3828C176.994 20.3828 177.523 20.4805 177.997 20.6758C178.476 20.8711 178.883 21.1494 179.22 21.5107C179.557 21.8672 179.813 22.2871 179.989 22.7705C180.17 23.2539 180.26 23.7812 180.26 24.3525ZM178.268 24.3086C178.268 23.9082 178.202 23.5151 178.07 23.1294C177.943 22.7437 177.738 22.4263 177.455 22.1772C177.172 21.9282 176.823 21.8037 176.408 21.8037C176.012 21.8037 175.67 21.9258 175.382 22.1699C175.099 22.4141 174.889 22.7266 174.752 23.1074C174.616 23.4834 174.547 23.8643 174.547 24.25C174.547 24.665 174.611 25.0654 174.738 25.4512C174.87 25.8369 175.077 26.1543 175.36 26.4033C175.644 26.6475 176.002 26.7695 176.437 26.7695C176.745 26.7695 177.016 26.6963 177.25 26.5498C177.484 26.3984 177.675 26.208 177.821 25.9785C177.968 25.7441 178.078 25.4829 178.151 25.1948C178.229 24.9019 178.268 24.6064 178.268 24.3086ZM187.987 28H186.273L186.244 26.8867C186.015 27.2822 185.692 27.5874 185.277 27.8022C184.867 28.0122 184.42 28.1172 183.937 28.1172C183.444 28.1172 183.002 28.0317 182.611 27.8608C182.226 27.6899 181.92 27.4312 181.696 27.0845C181.471 26.7329 181.359 26.3081 181.359 25.8101C181.359 24.8823 181.723 24.2476 182.45 23.9058C183.178 23.564 184.064 23.3931 185.109 23.3931C185.26 23.3931 185.358 23.3955 185.402 23.4004C185.446 23.4004 185.543 23.4053 185.695 23.415C185.846 23.4199 186 23.4272 186.156 23.437C186.156 22.8853 186.022 22.4751 185.753 22.2065C185.485 21.938 185.07 21.8037 184.508 21.8037C183.659 21.8037 182.892 22.0747 182.208 22.6167L182.15 20.9468C182.946 20.6099 183.808 20.4414 184.735 20.4414C185.082 20.4414 185.426 20.4756 185.768 20.5439C186.11 20.6123 186.425 20.7271 186.713 20.8882C187.006 21.0444 187.248 21.2544 187.438 21.5181C187.633 21.7817 187.76 22.0845 187.819 22.4263C187.882 22.7632 187.914 23.166 187.914 23.6348C187.914 24.1182 187.914 24.604 187.914 25.0923C187.919 25.5806 187.924 26.0273 187.929 26.4326C187.938 26.833 187.958 27.3555 187.987 28ZM186.186 24.6235C186.137 24.6138 186.061 24.6089 185.958 24.6089H185.724C185.304 24.6089 184.918 24.6333 184.567 24.6821C184.22 24.7261 183.915 24.8433 183.651 25.0337C183.393 25.2192 183.263 25.4927 183.263 25.854C183.263 26.147 183.378 26.3813 183.607 26.5571C183.842 26.728 184.113 26.8135 184.42 26.8135C185.001 26.8135 185.441 26.5986 185.739 26.1689C186.037 25.7393 186.186 25.2241 186.186 24.6235ZM194.887 26.1543L194.997 27.7729C194.352 27.9634 193.776 28.0586 193.268 28.0586C192.702 28.0586 192.182 27.9731 191.708 27.8022C191.234 27.6265 190.827 27.3726 190.485 27.0405C190.148 26.7085 189.889 26.3057 189.708 25.832C189.533 25.3535 189.445 24.8262 189.445 24.25C189.445 23.5176 189.601 22.8682 189.914 22.3018C190.231 21.7354 190.675 21.2959 191.247 20.9834C191.823 20.6709 192.472 20.5146 193.195 20.5146C193.732 20.5146 194.276 20.5952 194.828 20.7563L194.682 22.3018C194.242 22.1309 193.847 22.0454 193.495 22.0454C193.095 22.0454 192.736 22.1455 192.418 22.3457C192.101 22.541 191.857 22.8047 191.686 23.1367C191.52 23.4639 191.437 23.8301 191.437 24.2354C191.437 24.9043 191.632 25.4414 192.023 25.8467C192.414 26.252 192.938 26.4546 193.598 26.4546C194.018 26.4546 194.447 26.3545 194.887 26.1543ZM203.163 28H201.244V24.3965C201.244 23.6836 201.166 23.1147 201.01 22.6899C200.858 22.2603 200.497 22.0454 199.926 22.0454C199.311 22.0454 198.878 22.2993 198.629 22.8071C198.38 23.3101 198.256 23.9009 198.256 24.5796V24.9531V28H196.337V17.1968H198.256V21.6279C198.534 21.2275 198.869 20.9297 199.259 20.7344C199.65 20.5391 200.097 20.4414 200.6 20.4414C201.122 20.4414 201.552 20.5269 201.889 20.6978C202.23 20.8638 202.492 21.0908 202.672 21.3789C202.858 21.667 202.985 22.0039 203.053 22.3896C203.126 22.7705 203.163 23.2197 203.163 23.7373V28ZM206.972 28H205.053V20.5732H206.972V28ZM207.001 19.2256H205.023V17.4092H207.001V19.2256ZM210.736 20.5732L210.78 21.7598C211.376 20.8906 212.211 20.4561 213.285 20.4561C214.281 20.4561 214.953 20.7515 215.299 21.3423C215.646 21.9282 215.819 22.7534 215.819 23.8179V28H213.9V24.2646C213.9 23.6055 213.815 23.0708 213.644 22.6606C213.478 22.2505 213.114 22.0454 212.553 22.0454C211.952 22.0454 211.53 22.2871 211.286 22.7705C211.042 23.249 210.919 23.8179 210.919 24.4771V28H208.993V23.2759C208.993 22.2261 208.969 21.3252 208.92 20.5732H210.736ZM222.675 20.5879H224.506V27.0991C224.506 28.4419 224.196 29.4551 223.576 30.1387C222.96 30.8223 221.981 31.1641 220.639 31.1641C219.77 31.1641 218.903 30.9883 218.039 30.6367L218.192 28.9741C218.588 29.1694 218.969 29.3208 219.335 29.4282C219.706 29.5356 220.08 29.5894 220.456 29.5894C220.875 29.5894 221.269 29.499 221.635 29.3184C222.001 29.1377 222.267 28.874 222.433 28.5273C222.545 28.293 222.614 28.0342 222.638 27.751C222.667 27.4678 222.689 27.0552 222.704 26.5132C222.46 26.9673 222.118 27.3286 221.679 27.5972C221.239 27.8657 220.761 28 220.243 28C219.574 28 219.013 27.8218 218.559 27.4653C218.109 27.1089 217.78 26.6426 217.57 26.0664C217.365 25.4902 217.262 24.875 217.262 24.2207C217.262 23.5518 217.367 22.9316 217.577 22.3604C217.792 21.7842 218.126 21.3203 218.581 20.9688C219.035 20.6172 219.604 20.4414 220.287 20.4414C220.824 20.4414 221.295 20.5513 221.701 20.771C222.106 20.9907 222.421 21.3252 222.646 21.7744L222.675 20.5879ZM222.602 24.2061C222.602 23.957 222.565 23.6982 222.492 23.4297C222.418 23.1611 222.311 22.9268 222.169 22.7266C222.033 22.5215 221.852 22.3555 221.627 22.2285C221.403 22.0967 221.156 22.0308 220.888 22.0308C220.341 22.0308 219.931 22.2456 219.657 22.6753C219.389 23.105 219.254 23.6104 219.254 24.1914C219.254 24.7676 219.391 25.2876 219.665 25.7515C219.943 26.2104 220.351 26.4399 220.888 26.4399C221.269 26.4399 221.586 26.3301 221.84 26.1104C222.094 25.8906 222.284 25.6074 222.411 25.2607C222.538 24.9141 222.602 24.5625 222.602 24.2061Z" fill="black"/>
<path d="M240.214 26.4107C240.381 26.5777 240.607 26.6715 240.844 26.6715C241.08 26.6715 241.306 26.5777 241.473 26.4107L246.187 21.6966L250.901 26.4107C250.984 26.4958 251.082 26.5636 251.19 26.6103C251.299 26.657 251.416 26.6816 251.534 26.6826C251.653 26.6836 251.77 26.6611 251.879 26.6163C251.989 26.5715 252.088 26.5054 252.172 26.4218C252.255 26.3381 252.322 26.2387 252.366 26.1292C252.411 26.0198 252.434 25.9025 252.433 25.7843C252.432 25.666 252.407 25.5491 252.36 25.4405C252.314 25.3318 252.246 25.2335 252.161 25.1514L246.817 19.8076C246.65 19.6407 246.423 19.5469 246.187 19.5469C245.951 19.5469 245.725 19.6407 245.558 19.8076L240.214 25.1514C240.047 25.3184 239.953 25.5449 239.953 25.781C239.953 26.0172 240.047 26.2437 240.214 26.4107Z" fill="black"/>
</g>
<g filter="url(#filter1_d)">
<rect y="59" width="272" height="89" rx="8.71" fill="white"/>
<path d="M45.6568 74.3333C43.8887 74.3333 42.193 75.0357 40.9428 76.2859C39.6925 77.5362 38.9902 79.2318 38.9902 81C38.9902 82.7681 39.6925 84.4638 40.9428 85.714C42.193 86.9642 43.8887 87.6666 45.6568 87.6666C47.4249 87.6666 49.1206 86.9642 50.3709 85.714C51.6211 84.4638 52.3235 82.7681 52.3235 81C52.3235 79.2318 51.6211 77.5362 50.3709 76.2859C49.1206 75.0357 47.4249 74.3333 45.6568 74.3333ZM37.3235 81C37.3235 76.3975 41.0543 72.6666 45.6568 72.6666C50.2593 72.6666 53.9902 76.3975 53.9902 81C53.9902 85.6025 50.2593 89.3333 45.6568 89.3333C41.0543 89.3333 37.3235 85.6025 37.3235 81ZM45.6568 76C45.8778 76 46.0898 76.0878 46.2461 76.244C46.4024 76.4003 46.4902 76.6123 46.4902 76.8333V80.655L48.746 82.9108C48.8978 83.068 48.9818 83.2785 48.9799 83.497C48.978 83.7155 48.8903 83.9245 48.7358 84.079C48.5813 84.2335 48.3723 84.3211 48.1538 84.323C47.9353 84.3249 47.7248 84.2409 47.5677 84.0891L45.0677 81.5891C44.9114 81.4329 44.8235 81.221 44.8235 81V76.8333C44.8235 76.6123 44.9113 76.4003 45.0676 76.244C45.2238 76.0878 45.4358 76 45.6568 76Z" fill="black"/>
<path d="M64.9512 85V74.9951H67.229C67.8491 74.9951 68.4033 75.0146 68.8916 75.0537C69.3799 75.0928 69.8682 75.1831 70.3564 75.3247C70.8447 75.4663 71.2866 75.6763 71.6821 75.9546C72.0142 76.1792 72.2974 76.4453 72.5317 76.7529C72.7661 77.0605 72.9492 77.3828 73.0811 77.7197C73.2178 78.0518 73.3179 78.418 73.3813 78.8184C73.4497 79.2139 73.4839 79.6143 73.4839 80.0195C73.4839 80.8594 73.3374 81.6333 73.0444 82.3413C72.7563 83.0493 72.2974 83.6304 71.6675 84.0845C71.3354 84.3286 70.9595 84.519 70.5396 84.6558C70.1196 84.7925 69.6875 84.8853 69.2432 84.9341C68.7988 84.978 68.3325 85 67.8442 85H64.9512ZM66.9727 83.4546C67.085 83.4546 67.1777 83.457 67.251 83.4619C67.3242 83.4619 67.4023 83.4644 67.4854 83.4692C68.0762 83.4692 68.606 83.3984 69.0747 83.2568C69.5435 83.1104 69.9438 82.8931 70.2759 82.605C70.6128 82.312 70.8716 81.9458 71.0522 81.5063C71.2329 81.062 71.3232 80.542 71.3232 79.9463C71.3232 79.3506 71.1938 78.7891 70.9351 78.2617C70.6763 77.7344 70.3052 77.3315 69.8218 77.0532C69.6216 76.9312 69.4092 76.8384 69.1846 76.7749C68.9648 76.7065 68.7305 76.6577 68.4814 76.6284C68.2373 76.5991 67.9639 76.5796 67.6611 76.5698C67.3633 76.5601 67.1338 76.5552 66.9727 76.5552V83.4546ZM81.1523 83.0225L81.1816 84.6851C80.3955 85.0269 79.5459 85.1978 78.6328 85.1978C78.0225 85.1978 77.478 85.1123 76.9995 84.9414C76.5259 84.7656 76.1206 84.5093 75.7837 84.1724C75.4468 83.8306 75.1904 83.4204 75.0146 82.9419C74.8389 82.4585 74.751 81.9092 74.751 81.2939C74.751 80.7275 74.8315 80.2075 74.9927 79.7339C75.1587 79.2554 75.3955 78.8428 75.7031 78.4961C76.0107 78.1445 76.3892 77.8711 76.8384 77.6758C77.2925 77.4805 77.8052 77.3828 78.3765 77.3828C78.9331 77.3828 79.4238 77.4829 79.8486 77.6831C80.2734 77.8833 80.6177 78.1592 80.8813 78.5107C81.1499 78.8623 81.3501 79.27 81.4819 79.7339C81.6138 80.1929 81.6797 80.6982 81.6797 81.25C81.6797 81.3477 81.6772 81.4209 81.6724 81.4697C81.6675 81.5186 81.6626 81.5796 81.6577 81.6528C81.6528 81.7261 81.6455 81.8115 81.6357 81.9092H76.6406C76.6895 82.4951 76.9165 82.9517 77.3218 83.2788C77.7319 83.606 78.2397 83.7695 78.8452 83.7695C79.5288 83.7695 80.2979 83.5205 81.1523 83.0225ZM79.8486 80.5762C79.8389 80.2441 79.7778 79.939 79.6655 79.6606C79.5581 79.3823 79.3896 79.1577 79.1602 78.9868C78.9355 78.8159 78.6548 78.7305 78.3179 78.7305C77.9712 78.7305 77.6733 78.8159 77.4243 78.9868C77.1802 79.1528 76.9897 79.375 76.853 79.6533C76.7212 79.9316 76.6406 80.2393 76.6113 80.5762H79.8486ZM89.4067 85H87.6929L87.6636 83.8867C87.4341 84.2822 87.1118 84.5874 86.6968 84.8022C86.2866 85.0122 85.8398 85.1172 85.3564 85.1172C84.8633 85.1172 84.4214 85.0317 84.0308 84.8608C83.645 84.6899 83.3398 84.4312 83.1152 84.0845C82.8906 83.7329 82.7783 83.3081 82.7783 82.8101C82.7783 81.8823 83.1421 81.2476 83.8696 80.9058C84.5972 80.564 85.4834 80.3931 86.5283 80.3931C86.6797 80.3931 86.7773 80.3955 86.8213 80.4004C86.8652 80.4004 86.9629 80.4053 87.1143 80.415C87.2656 80.4199 87.4194 80.4272 87.5757 80.437C87.5757 79.8853 87.4414 79.4751 87.1729 79.2065C86.9043 78.938 86.4893 78.8037 85.9277 78.8037C85.0781 78.8037 84.3115 79.0747 83.6279 79.6167L83.5693 77.9468C84.3652 77.6099 85.2271 77.4414 86.1548 77.4414C86.5015 77.4414 86.8457 77.4756 87.1875 77.5439C87.5293 77.6123 87.8442 77.7271 88.1323 77.8882C88.4253 78.0444 88.667 78.2544 88.8574 78.5181C89.0527 78.7817 89.1797 79.0845 89.2383 79.4263C89.3018 79.7632 89.3335 80.166 89.3335 80.6348C89.3335 81.1182 89.3335 81.604 89.3335 82.0923C89.3384 82.5806 89.3433 83.0273 89.3481 83.4326C89.3579 83.833 89.3774 84.3555 89.4067 85ZM87.605 81.6235C87.5562 81.6138 87.4805 81.6089 87.3779 81.6089H87.1436C86.7236 81.6089 86.3379 81.6333 85.9863 81.6821C85.6396 81.7261 85.3345 81.8433 85.0708 82.0337C84.812 82.2192 84.6826 82.4927 84.6826 82.854C84.6826 83.147 84.7974 83.3813 85.0269 83.5571C85.2612 83.728 85.5322 83.8135 85.8398 83.8135C86.4209 83.8135 86.8604 83.5986 87.1582 83.1689C87.4561 82.7393 87.605 82.2241 87.605 81.6235ZM98.1372 85H96.3208L96.2915 83.7402C96.0718 84.1846 95.7568 84.5264 95.3467 84.7656C94.9414 85 94.4824 85.1172 93.9697 85.1172C93.4326 85.1172 92.9614 85.0122 92.5562 84.8022C92.1558 84.5874 91.8311 84.2993 91.582 83.938C91.333 83.5767 91.1475 83.1665 91.0254 82.7075C90.9082 82.2485 90.8496 81.7676 90.8496 81.2646C90.8496 80.6006 90.9595 79.978 91.1792 79.397C91.3989 78.811 91.7383 78.3398 92.1973 77.9834C92.6611 77.6221 93.2373 77.4414 93.9258 77.4414C94.4434 77.4414 94.895 77.5562 95.2808 77.7856C95.6665 78.0151 95.9839 78.3545 96.2329 78.8037C96.1841 78.4424 96.1597 78.0029 96.1597 77.4854V74.1968H98.0786V82.8394C98.0884 83.3179 98.0957 83.7378 98.1006 84.0991C98.1104 84.4604 98.1226 84.7607 98.1372 85ZM96.189 81.3379C96.189 80.9521 96.1279 80.5884 96.0059 80.2466C95.8838 79.8999 95.6909 79.6143 95.4272 79.3896C95.1685 79.1602 94.8462 79.0454 94.4604 79.0454C93.8843 79.0454 93.4692 79.2676 93.2153 79.7119C92.9663 80.1514 92.8418 80.6836 92.8418 81.3086C92.8418 81.8945 92.981 82.4243 93.2593 82.8979C93.5376 83.3716 93.9478 83.6084 94.4897 83.6084C94.856 83.6084 95.1685 83.4985 95.4272 83.2788C95.6909 83.0542 95.8838 82.771 96.0059 82.4292C96.1279 82.0825 96.189 81.7188 96.189 81.3379ZM101.99 85H100.071V74.1968H101.99V85ZM105.857 85H103.938V77.5732H105.857V85ZM105.886 76.2256H103.909V74.4092H105.886V76.2256ZM109.622 77.5732L109.666 78.7598C110.261 77.8906 111.096 77.4561 112.17 77.4561C113.167 77.4561 113.838 77.7515 114.185 78.3423C114.531 78.9282 114.705 79.7534 114.705 80.8179V85H112.786V81.2646C112.786 80.6055 112.7 80.0708 112.529 79.6606C112.363 79.2505 112 79.0454 111.438 79.0454C110.837 79.0454 110.415 79.2871 110.171 79.7705C109.927 80.249 109.805 80.8179 109.805 81.4771V85H107.878V80.2759C107.878 79.2261 107.854 78.3252 107.805 77.5732H109.622ZM122.549 83.0225L122.578 84.6851C121.792 85.0269 120.942 85.1978 120.029 85.1978C119.419 85.1978 118.875 85.1123 118.396 84.9414C117.922 84.7656 117.517 84.5093 117.18 84.1724C116.843 83.8306 116.587 83.4204 116.411 82.9419C116.235 82.4585 116.147 81.9092 116.147 81.2939C116.147 80.7275 116.228 80.2075 116.389 79.7339C116.555 79.2554 116.792 78.8428 117.1 78.4961C117.407 78.1445 117.786 77.8711 118.235 77.6758C118.689 77.4805 119.202 77.3828 119.773 77.3828C120.33 77.3828 120.82 77.4829 121.245 77.6831C121.67 77.8833 122.014 78.1592 122.278 78.5107C122.546 78.8623 122.747 79.27 122.878 79.7339C123.01 80.1929 123.076 80.6982 123.076 81.25C123.076 81.3477 123.074 81.4209 123.069 81.4697C123.064 81.5186 123.059 81.5796 123.054 81.6528C123.049 81.7261 123.042 81.8115 123.032 81.9092H118.037C118.086 82.4951 118.313 82.9517 118.718 83.2788C119.128 83.606 119.636 83.7695 120.242 83.7695C120.925 83.7695 121.694 83.5205 122.549 83.0225ZM121.245 80.5762C121.235 80.2441 121.174 79.939 121.062 79.6606C120.955 79.3823 120.786 79.1577 120.557 78.9868C120.332 78.8159 120.051 78.7305 119.714 78.7305C119.368 78.7305 119.07 78.8159 118.821 78.9868C118.577 79.1528 118.386 79.375 118.25 79.6533C118.118 79.9316 118.037 80.2393 118.008 80.5762H121.245ZM134.978 85H133.264L133.235 83.8867C133.005 84.2822 132.683 84.5874 132.268 84.8022C131.858 85.0122 131.411 85.1172 130.928 85.1172C130.435 85.1172 129.993 85.0317 129.602 84.8608C129.216 84.6899 128.911 84.4312 128.687 84.0845C128.462 83.7329 128.35 83.3081 128.35 82.8101C128.35 81.8823 128.713 81.2476 129.441 80.9058C130.168 80.564 131.055 80.3931 132.1 80.3931C132.251 80.3931 132.349 80.3955 132.393 80.4004C132.437 80.4004 132.534 80.4053 132.686 80.415C132.837 80.4199 132.991 80.4272 133.147 80.437C133.147 79.8853 133.013 79.4751 132.744 79.2065C132.476 78.938 132.061 78.8037 131.499 78.8037C130.649 78.8037 129.883 79.0747 129.199 79.6167L129.141 77.9468C129.937 77.6099 130.798 77.4414 131.726 77.4414C132.073 77.4414 132.417 77.4756 132.759 77.5439C133.101 77.6123 133.416 77.7271 133.704 77.8882C133.997 78.0444 134.238 78.2544 134.429 78.5181C134.624 78.7817 134.751 79.0845 134.81 79.4263C134.873 79.7632 134.905 80.166 134.905 80.6348C134.905 81.1182 134.905 81.604 134.905 82.0923C134.91 82.5806 134.915 83.0273 134.919 83.4326C134.929 83.833 134.949 84.3555 134.978 85ZM133.176 81.6235C133.127 81.6138 133.052 81.6089 132.949 81.6089H132.715C132.295 81.6089 131.909 81.6333 131.558 81.6821C131.211 81.7261 130.906 81.8433 130.642 82.0337C130.383 82.2192 130.254 82.4927 130.254 82.854C130.254 83.147 130.369 83.3813 130.598 83.5571C130.833 83.728 131.104 83.8135 131.411 83.8135C131.992 83.8135 132.432 83.5986 132.729 83.1689C133.027 82.7393 133.176 82.2241 133.176 81.6235ZM138.853 88.0469H136.926V79.7339C136.926 78.8843 136.902 78.1592 136.853 77.5586H138.699L138.728 78.7305C139.299 77.8711 140.11 77.4414 141.16 77.4414C141.667 77.4414 142.109 77.5439 142.485 77.749C142.866 77.9541 143.179 78.2349 143.423 78.5913C143.672 78.9429 143.855 79.3457 143.972 79.7998C144.094 80.249 144.155 80.7129 144.155 81.1914C144.155 81.8994 144.05 82.5488 143.84 83.1396C143.635 83.7305 143.301 84.209 142.837 84.5752C142.373 84.9365 141.785 85.1172 141.072 85.1172C140.608 85.1172 140.173 85.0171 139.768 84.8169C139.363 84.6167 139.045 84.3286 138.816 83.9526C138.84 84.2017 138.853 84.5801 138.853 85.0879V88.0469ZM142.163 81.3086C142.163 80.9131 142.112 80.5469 142.009 80.21C141.912 79.873 141.743 79.5947 141.504 79.375C141.27 79.1553 140.955 79.0454 140.559 79.0454C140.173 79.0454 139.851 79.1577 139.592 79.3823C139.333 79.6021 139.146 79.8877 139.028 80.2393C138.911 80.5859 138.853 80.9473 138.853 81.3232C138.853 81.9385 138.984 82.4707 139.248 82.9199C139.517 83.3643 139.939 83.5864 140.515 83.5864C140.891 83.5864 141.201 83.4741 141.445 83.2495C141.689 83.02 141.87 82.7295 141.987 82.3779C142.104 82.0215 142.163 81.665 142.163 81.3086ZM147.686 88.0469H145.759V79.7339C145.759 78.8843 145.735 78.1592 145.686 77.5586H147.532L147.561 78.7305C148.132 77.8711 148.943 77.4414 149.993 77.4414C150.5 77.4414 150.942 77.5439 151.318 77.749C151.699 77.9541 152.012 78.2349 152.256 78.5913C152.505 78.9429 152.688 79.3457 152.805 79.7998C152.927 80.249 152.988 80.7129 152.988 81.1914C152.988 81.8994 152.883 82.5488 152.673 83.1396C152.468 83.7305 152.134 84.209 151.67 84.5752C151.206 84.9365 150.618 85.1172 149.905 85.1172C149.441 85.1172 149.006 85.0171 148.601 84.8169C148.196 84.6167 147.878 84.3286 147.649 83.9526C147.673 84.2017 147.686 84.5801 147.686 85.0879V88.0469ZM150.996 81.3086C150.996 80.9131 150.945 80.5469 150.842 80.21C150.745 79.873 150.576 79.5947 150.337 79.375C150.103 79.1553 149.788 79.0454 149.392 79.0454C149.006 79.0454 148.684 79.1577 148.425 79.3823C148.167 79.6021 147.979 79.8877 147.861 80.2393C147.744 80.5859 147.686 80.9473 147.686 81.3232C147.686 81.9385 147.817 82.4707 148.081 82.9199C148.35 83.3643 148.772 83.5864 149.348 83.5864C149.724 83.5864 150.034 83.4741 150.278 83.2495C150.522 83.02 150.703 82.7295 150.82 82.3779C150.938 82.0215 150.996 81.665 150.996 81.3086ZM156.497 85H154.578V79.8071C154.553 78.5718 154.534 77.8271 154.519 77.5732H156.262L156.306 79.4482C156.472 78.8623 156.724 78.3936 157.061 78.042C157.402 77.6904 157.847 77.5146 158.394 77.5146C158.56 77.5146 158.748 77.5391 158.958 77.5879V79.3896C158.704 79.3213 158.479 79.2871 158.284 79.2871C157.83 79.2871 157.468 79.4067 157.2 79.646C156.931 79.8853 156.746 80.1929 156.643 80.5688C156.545 80.9399 156.497 81.3477 156.497 81.792V81.9385V85ZM167.417 81.3525C167.417 81.9238 167.324 82.4487 167.139 82.9272C166.953 83.4009 166.689 83.8062 166.348 84.1431C166.011 84.4751 165.605 84.7339 165.132 84.9194C164.658 85.105 164.131 85.1978 163.55 85.1978C162.783 85.1978 162.109 85.0317 161.528 84.6997C160.947 84.3677 160.498 83.8989 160.181 83.2935C159.868 82.688 159.712 82.0068 159.712 81.25C159.712 80.4932 159.873 79.8218 160.195 79.2358C160.518 78.6499 160.969 78.1958 161.55 77.8735C162.136 77.5464 162.808 77.3828 163.564 77.3828C164.15 77.3828 164.68 77.4805 165.154 77.6758C165.632 77.8711 166.04 78.1494 166.377 78.5107C166.714 78.8672 166.97 79.2871 167.146 79.7705C167.327 80.2539 167.417 80.7812 167.417 81.3525ZM165.425 81.3086C165.425 80.9082 165.359 80.5151 165.227 80.1294C165.1 79.7437 164.895 79.4263 164.612 79.1772C164.329 78.9282 163.979 78.8037 163.564 78.8037C163.169 78.8037 162.827 78.9258 162.539 79.1699C162.256 79.4141 162.046 79.7266 161.909 80.1074C161.772 80.4834 161.704 80.8643 161.704 81.25C161.704 81.665 161.768 82.0654 161.895 82.4512C162.026 82.8369 162.234 83.1543 162.517 83.4033C162.8 83.6475 163.159 83.7695 163.594 83.7695C163.901 83.7695 164.172 83.6963 164.407 83.5498C164.641 83.3984 164.832 83.208 164.978 82.9785C165.125 82.7441 165.234 82.4829 165.308 82.1948C165.386 81.9019 165.425 81.6064 165.425 81.3086ZM175.144 85H173.43L173.401 83.8867C173.171 84.2822 172.849 84.5874 172.434 84.8022C172.024 85.0122 171.577 85.1172 171.094 85.1172C170.601 85.1172 170.159 85.0317 169.768 84.8608C169.382 84.6899 169.077 84.4312 168.853 84.0845C168.628 83.7329 168.516 83.3081 168.516 82.8101C168.516 81.8823 168.879 81.2476 169.607 80.9058C170.334 80.564 171.221 80.3931 172.266 80.3931C172.417 80.3931 172.515 80.3955 172.559 80.4004C172.603 80.4004 172.7 80.4053 172.852 80.415C173.003 80.4199 173.157 80.4272 173.313 80.437C173.313 79.8853 173.179 79.4751 172.91 79.2065C172.642 78.938 172.227 78.8037 171.665 78.8037C170.815 78.8037 170.049 79.0747 169.365 79.6167L169.307 77.9468C170.103 77.6099 170.964 77.4414 171.892 77.4414C172.239 77.4414 172.583 77.4756 172.925 77.5439C173.267 77.6123 173.582 77.7271 173.87 77.8882C174.163 78.0444 174.404 78.2544 174.595 78.5181C174.79 78.7817 174.917 79.0845 174.976 79.4263C175.039 79.7632 175.071 80.166 175.071 80.6348C175.071 81.1182 175.071 81.604 175.071 82.0923C175.076 82.5806 175.081 83.0273 175.085 83.4326C175.095 83.833 175.115 84.3555 175.144 85ZM173.342 81.6235C173.293 81.6138 173.218 81.6089 173.115 81.6089H172.881C172.461 81.6089 172.075 81.6333 171.724 81.6821C171.377 81.7261 171.072 81.8433 170.808 82.0337C170.549 82.2192 170.42 82.4927 170.42 82.854C170.42 83.147 170.535 83.3813 170.764 83.5571C170.999 83.728 171.27 83.8135 171.577 83.8135C172.158 83.8135 172.598 83.5986 172.896 83.1689C173.193 82.7393 173.342 82.2241 173.342 81.6235ZM182.043 83.1543L182.153 84.7729C181.509 84.9634 180.933 85.0586 180.425 85.0586C179.858 85.0586 179.338 84.9731 178.865 84.8022C178.391 84.6265 177.983 84.3726 177.642 84.0405C177.305 83.7085 177.046 83.3057 176.865 82.832C176.689 82.3535 176.602 81.8262 176.602 81.25C176.602 80.5176 176.758 79.8682 177.07 79.3018C177.388 78.7354 177.832 78.2959 178.403 77.9834C178.979 77.6709 179.629 77.5146 180.352 77.5146C180.889 77.5146 181.433 77.5952 181.985 77.7563L181.838 79.3018C181.399 79.1309 181.003 79.0454 180.652 79.0454C180.251 79.0454 179.893 79.1455 179.575 79.3457C179.258 79.541 179.014 79.8047 178.843 80.1367C178.677 80.4639 178.594 80.8301 178.594 81.2354C178.594 81.9043 178.789 82.4414 179.18 82.8467C179.57 83.252 180.095 83.4546 180.754 83.4546C181.174 83.4546 181.604 83.3545 182.043 83.1543ZM190.32 85H188.401V81.3965C188.401 80.6836 188.323 80.1147 188.167 79.6899C188.015 79.2603 187.654 79.0454 187.083 79.0454C186.467 79.0454 186.035 79.2993 185.786 79.8071C185.537 80.3101 185.413 80.9009 185.413 81.5796V81.9531V85H183.494V74.1968H185.413V78.6279C185.691 78.2275 186.025 77.9297 186.416 77.7344C186.807 77.5391 187.253 77.4414 187.756 77.4414C188.279 77.4414 188.708 77.5269 189.045 77.6978C189.387 77.8638 189.648 78.0908 189.829 78.3789C190.015 78.667 190.142 79.0039 190.21 79.3896C190.283 79.7705 190.32 80.2197 190.32 80.7373V85ZM194.128 85H192.209V77.5732H194.128V85ZM194.158 76.2256H192.18V74.4092H194.158V76.2256ZM197.893 77.5732L197.937 78.7598C198.533 77.8906 199.368 77.4561 200.442 77.4561C201.438 77.4561 202.109 77.7515 202.456 78.3423C202.803 78.9282 202.976 79.7534 202.976 80.8179V85H201.057V81.2646C201.057 80.6055 200.972 80.0708 200.801 79.6606C200.635 79.2505 200.271 79.0454 199.709 79.0454C199.109 79.0454 198.687 79.2871 198.442 79.7705C198.198 80.249 198.076 80.8179 198.076 81.4771V85H196.15V80.2759C196.15 79.2261 196.125 78.3252 196.077 77.5732H197.893ZM209.832 77.5879H211.663V84.0991C211.663 85.4419 211.353 86.4551 210.732 87.1387C210.117 87.8223 209.138 88.1641 207.795 88.1641C206.926 88.1641 206.06 87.9883 205.195 87.6367L205.349 85.9741C205.745 86.1694 206.125 86.3208 206.492 86.4282C206.863 86.5356 207.236 86.5894 207.612 86.5894C208.032 86.5894 208.425 86.499 208.792 86.3184C209.158 86.1377 209.424 85.874 209.59 85.5273C209.702 85.293 209.771 85.0342 209.795 84.751C209.824 84.4678 209.846 84.0552 209.861 83.5132C209.617 83.9673 209.275 84.3286 208.835 84.5972C208.396 84.8657 207.917 85 207.4 85C206.731 85 206.169 84.8218 205.715 84.4653C205.266 84.1089 204.937 83.6426 204.727 83.0664C204.521 82.4902 204.419 81.875 204.419 81.2207C204.419 80.5518 204.524 79.9316 204.734 79.3604C204.949 78.7842 205.283 78.3203 205.737 77.9688C206.191 77.6172 206.76 77.4414 207.444 77.4414C207.981 77.4414 208.452 77.5513 208.857 77.771C209.263 77.9907 209.578 78.3252 209.802 78.7744L209.832 77.5879ZM209.758 81.2061C209.758 80.957 209.722 80.6982 209.648 80.4297C209.575 80.1611 209.468 79.9268 209.326 79.7266C209.189 79.5215 209.009 79.3555 208.784 79.2285C208.56 79.0967 208.313 79.0308 208.044 79.0308C207.498 79.0308 207.087 79.2456 206.814 79.6753C206.545 80.105 206.411 80.6104 206.411 81.1914C206.411 81.7676 206.548 82.2876 206.821 82.7515C207.1 83.2104 207.507 83.4399 208.044 83.4399C208.425 83.4399 208.743 83.3301 208.997 83.1104C209.25 82.8906 209.441 82.6074 209.568 82.2607C209.695 81.9141 209.758 81.5625 209.758 81.2061Z" fill="black"/>
<path d="M228.99 83.9883L226.246 81.2442L225.068 82.4225L228.99 86.345L237.079 78.2558L235.901 77.0775L228.99 83.9883Z" fill="#F58AE3"/>
<path fill-rule="evenodd" clip-rule="evenodd" d="M51.1445 118.125H38.0195C37.9367 118.125 37.8572 118.158 37.7986 118.217C37.74 118.275 37.707 118.355 37.707 118.438V131.562C37.707 131.735 37.847 131.875 38.0195 131.875H51.1445C51.2274 131.875 51.3069 131.842 51.3655 131.783C51.4241 131.725 51.457 131.645 51.457 131.562V118.438C51.457 118.355 51.4241 118.275 51.3655 118.217C51.3069 118.158 51.2274 118.125 51.1445 118.125ZM38.0195 116.25H51.1445C52.352 116.25 53.332 117.23 53.332 118.438V131.562C53.332 132.143 53.1016 132.699 52.6913 133.109C52.2811 133.52 51.7247 133.75 51.1445 133.75H38.0195C37.4394 133.75 36.883 133.52 36.4727 133.109C36.0625 132.699 35.832 132.143 35.832 131.562V118.438C35.832 117.23 36.812 116.25 38.0195 116.25ZM44.582 120C44.8307 120 45.0691 120.099 45.2449 120.275C45.4208 120.45 45.5195 120.689 45.5195 120.938V124.062H48.6445C48.8932 124.062 49.1316 124.161 49.3074 124.337C49.4833 124.513 49.582 124.751 49.582 125C49.582 125.249 49.4833 125.487 49.3074 125.663C49.1316 125.839 48.8932 125.938 48.6445 125.938H45.5195V129.062C45.5195 129.311 45.4208 129.55 45.2449 129.725C45.0691 129.901 44.8307 130 44.582 130C44.3334 130 44.0949 129.901 43.9191 129.725C43.7433 129.55 43.6445 129.311 43.6445 129.062V125.938H40.5195C40.2709 125.938 40.0324 125.839 39.8566 125.663C39.6808 125.487 39.582 125.249 39.582 125C39.582 124.751 39.6808 124.513 39.8566 124.337C40.0324 124.161 40.2709 124.062 40.5195 124.062H43.6445V120.938C43.6445 120.689 43.7433 120.45 43.9191 120.275C44.0949 120.099 44.3334 120 44.582 120Z" fill="black"/>
<path d="M66.1489 129H64.1128V118.995H67.394C68.0532 118.995 68.6514 119.068 69.1885 119.215C69.7305 119.356 70.1675 119.623 70.4995 120.013C70.8315 120.399 70.9976 120.938 70.9976 121.632C70.9976 122.271 70.8169 122.801 70.4556 123.221C70.0942 123.636 69.5986 123.893 68.9688 123.99C69.2959 124.112 69.54 124.291 69.7012 124.525C69.8623 124.759 70.0283 125.086 70.1992 125.506L71.6421 129H69.3936L68.2949 126.166C68.1436 125.755 67.9849 125.462 67.8188 125.287C67.6528 125.106 67.4453 124.989 67.1963 124.935C66.9521 124.876 66.603 124.847 66.1489 124.847V129ZM66.1343 123.302H67.0352C67.5576 123.302 67.9873 123.192 68.3242 122.972C68.666 122.752 68.8369 122.401 68.8369 121.917C68.8369 121.009 68.2925 120.555 67.2036 120.555H66.1343V123.302ZM78.8052 127.022L78.8345 128.685C78.0483 129.027 77.1987 129.198 76.2856 129.198C75.6753 129.198 75.1309 129.112 74.6523 128.941C74.1787 128.766 73.7734 128.509 73.4365 128.172C73.0996 127.831 72.8433 127.42 72.6675 126.942C72.4917 126.458 72.4038 125.909 72.4038 125.294C72.4038 124.728 72.4844 124.208 72.6455 123.734C72.8115 123.255 73.0483 122.843 73.356 122.496C73.6636 122.145 74.042 121.871 74.4912 121.676C74.9453 121.48 75.458 121.383 76.0293 121.383C76.5859 121.383 77.0767 121.483 77.5015 121.683C77.9263 121.883 78.2705 122.159 78.5342 122.511C78.8027 122.862 79.0029 123.27 79.1348 123.734C79.2666 124.193 79.3325 124.698 79.3325 125.25C79.3325 125.348 79.3301 125.421 79.3252 125.47C79.3203 125.519 79.3154 125.58 79.3105 125.653C79.3057 125.726 79.2983 125.812 79.2886 125.909H74.2935C74.3423 126.495 74.5693 126.952 74.9746 127.279C75.3848 127.606 75.8926 127.77 76.498 127.77C77.1816 127.77 77.9507 127.521 78.8052 127.022ZM77.5015 124.576C77.4917 124.244 77.4307 123.939 77.3184 123.661C77.2109 123.382 77.0425 123.158 76.813 122.987C76.5884 122.816 76.3076 122.73 75.9707 122.73C75.624 122.73 75.3262 122.816 75.0771 122.987C74.833 123.153 74.6426 123.375 74.5059 123.653C74.374 123.932 74.2935 124.239 74.2642 124.576H77.5015ZM85.8877 127.154L85.9976 128.773C85.353 128.963 84.7769 129.059 84.269 129.059C83.7026 129.059 83.1826 128.973 82.709 128.802C82.2354 128.626 81.8276 128.373 81.4858 128.041C81.1489 127.708 80.8901 127.306 80.7095 126.832C80.5337 126.354 80.4458 125.826 80.4458 125.25C80.4458 124.518 80.6021 123.868 80.9146 123.302C81.2319 122.735 81.6763 122.296 82.2476 121.983C82.8237 121.671 83.4731 121.515 84.1958 121.515C84.7329 121.515 85.2773 121.595 85.8291 121.756L85.6826 123.302C85.2432 123.131 84.8477 123.045 84.4961 123.045C84.0957 123.045 83.7368 123.146 83.4194 123.346C83.1021 123.541 82.8579 123.805 82.687 124.137C82.521 124.464 82.438 124.83 82.438 125.235C82.438 125.904 82.6333 126.441 83.0239 126.847C83.4146 127.252 83.9395 127.455 84.5986 127.455C85.0186 127.455 85.4482 127.354 85.8877 127.154ZM93.3071 127.022L93.3364 128.685C92.5503 129.027 91.7007 129.198 90.7876 129.198C90.1772 129.198 89.6328 129.112 89.1543 128.941C88.6807 128.766 88.2754 128.509 87.9385 128.172C87.6016 127.831 87.3452 127.42 87.1694 126.942C86.9937 126.458 86.9058 125.909 86.9058 125.294C86.9058 124.728 86.9863 124.208 87.1475 123.734C87.3135 123.255 87.5503 122.843 87.8579 122.496C88.1655 122.145 88.5439 121.871 88.9932 121.676C89.4473 121.48 89.96 121.383 90.5312 121.383C91.0879 121.383 91.5786 121.483 92.0034 121.683C92.4282 121.883 92.7725 122.159 93.0361 122.511C93.3047 122.862 93.5049 123.27 93.6367 123.734C93.7686 124.193 93.8345 124.698 93.8345 125.25C93.8345 125.348 93.832 125.421 93.8271 125.47C93.8223 125.519 93.8174 125.58 93.8125 125.653C93.8076 125.726 93.8003 125.812 93.7905 125.909H88.7954C88.8442 126.495 89.0713 126.952 89.4766 127.279C89.8867 127.606 90.3945 127.77 91 127.77C91.6836 127.77 92.4526 127.521 93.3071 127.022ZM92.0034 124.576C91.9937 124.244 91.9326 123.939 91.8203 123.661C91.7129 123.382 91.5444 123.158 91.3149 122.987C91.0903 122.816 90.8096 122.73 90.4727 122.73C90.126 122.73 89.8281 122.816 89.5791 122.987C89.335 123.153 89.1445 123.375 89.0078 123.653C88.876 123.932 88.7954 124.239 88.7661 124.576H92.0034ZM97.1816 121.573L97.2256 122.76C97.8213 121.891 98.6562 121.456 99.7305 121.456C100.727 121.456 101.398 121.751 101.745 122.342C102.091 122.928 102.265 123.753 102.265 124.818V129H100.346V125.265C100.346 124.605 100.26 124.071 100.089 123.661C99.9233 123.25 99.5596 123.045 98.998 123.045C98.3975 123.045 97.9751 123.287 97.731 123.771C97.4868 124.249 97.3647 124.818 97.3647 125.477V129H95.4385V124.276C95.4385 123.226 95.4141 122.325 95.3652 121.573H97.1816ZM108.292 127.411L108.358 128.912C107.87 129.01 107.438 129.059 107.062 129.059C106.432 129.059 105.934 128.944 105.568 128.714C105.202 128.48 104.945 128.15 104.799 127.726C104.652 127.296 104.579 126.771 104.579 126.151V123.045H103.18V121.617H104.608V120.108L106.527 119.479V121.617H108.219V123.045H106.527V125.748C106.527 126.324 106.588 126.764 106.71 127.066C106.837 127.364 107.145 127.513 107.633 127.513C107.814 127.513 108.034 127.479 108.292 127.411ZM111.581 129H109.662V118.197H111.581V129ZM113.185 131.937L113.317 130.487C113.6 130.594 113.871 130.648 114.13 130.648C114.521 130.648 114.826 130.536 115.045 130.311C115.265 130.086 115.456 129.774 115.617 129.374L112.687 121.559H114.818L116.349 126.092C116.383 126.2 116.427 126.339 116.481 126.51C116.535 126.676 116.596 126.871 116.664 127.096C116.737 126.832 116.803 126.595 116.862 126.385C116.925 126.17 116.979 125.997 117.023 125.865L118.466 121.559H120.414L117.462 129.513C117.238 130.094 117.011 130.562 116.781 130.919C116.557 131.28 116.259 131.573 115.888 131.798C115.521 132.022 115.07 132.135 114.533 132.135C114.171 132.135 113.722 132.069 113.185 131.937ZM131.913 129H130.199L130.17 127.887C129.94 128.282 129.618 128.587 129.203 128.802C128.793 129.012 128.346 129.117 127.863 129.117C127.37 129.117 126.928 129.032 126.537 128.861C126.151 128.69 125.846 128.431 125.622 128.084C125.397 127.733 125.285 127.308 125.285 126.81C125.285 125.882 125.648 125.248 126.376 124.906C127.104 124.564 127.99 124.393 129.035 124.393C129.186 124.393 129.284 124.396 129.328 124.4C129.372 124.4 129.469 124.405 129.621 124.415C129.772 124.42 129.926 124.427 130.082 124.437C130.082 123.885 129.948 123.475 129.679 123.207C129.411 122.938 128.996 122.804 128.434 122.804C127.584 122.804 126.818 123.075 126.134 123.617L126.076 121.947C126.872 121.61 127.733 121.441 128.661 121.441C129.008 121.441 129.352 121.476 129.694 121.544C130.036 121.612 130.351 121.727 130.639 121.888C130.932 122.044 131.173 122.254 131.364 122.518C131.559 122.782 131.686 123.084 131.745 123.426C131.808 123.763 131.84 124.166 131.84 124.635C131.84 125.118 131.84 125.604 131.84 126.092C131.845 126.581 131.85 127.027 131.854 127.433C131.864 127.833 131.884 128.355 131.913 129ZM130.111 125.624C130.062 125.614 129.987 125.609 129.884 125.609H129.65C129.23 125.609 128.844 125.633 128.493 125.682C128.146 125.726 127.841 125.843 127.577 126.034C127.318 126.219 127.189 126.493 127.189 126.854C127.189 127.147 127.304 127.381 127.533 127.557C127.768 127.728 128.039 127.813 128.346 127.813C128.927 127.813 129.367 127.599 129.665 127.169C129.962 126.739 130.111 126.224 130.111 125.624ZM140.644 129H138.827L138.798 127.74C138.578 128.185 138.263 128.526 137.853 128.766C137.448 129 136.989 129.117 136.476 129.117C135.939 129.117 135.468 129.012 135.062 128.802C134.662 128.587 134.337 128.299 134.088 127.938C133.839 127.577 133.654 127.167 133.532 126.708C133.415 126.249 133.356 125.768 133.356 125.265C133.356 124.601 133.466 123.978 133.686 123.397C133.905 122.811 134.245 122.34 134.704 121.983C135.167 121.622 135.744 121.441 136.432 121.441C136.95 121.441 137.401 121.556 137.787 121.786C138.173 122.015 138.49 122.354 138.739 122.804C138.69 122.442 138.666 122.003 138.666 121.485V118.197H140.585V126.839C140.595 127.318 140.602 127.738 140.607 128.099C140.617 128.46 140.629 128.761 140.644 129ZM138.695 125.338C138.695 124.952 138.634 124.588 138.512 124.247C138.39 123.9 138.197 123.614 137.934 123.39C137.675 123.16 137.353 123.045 136.967 123.045C136.391 123.045 135.976 123.268 135.722 123.712C135.473 124.151 135.348 124.684 135.348 125.309C135.348 125.895 135.487 126.424 135.766 126.898C136.044 127.372 136.454 127.608 136.996 127.608C137.362 127.608 137.675 127.499 137.934 127.279C138.197 127.054 138.39 126.771 138.512 126.429C138.634 126.083 138.695 125.719 138.695 125.338ZM149.447 129H147.631L147.602 127.74C147.382 128.185 147.067 128.526 146.657 128.766C146.251 129 145.792 129.117 145.28 129.117C144.743 129.117 144.271 129.012 143.866 128.802C143.466 128.587 143.141 128.299 142.892 127.938C142.643 127.577 142.458 127.167 142.335 126.708C142.218 126.249 142.16 125.768 142.16 125.265C142.16 124.601 142.27 123.978 142.489 123.397C142.709 122.811 143.048 122.34 143.507 121.983C143.971 121.622 144.547 121.441 145.236 121.441C145.753 121.441 146.205 121.556 146.591 121.786C146.977 122.015 147.294 122.354 147.543 122.804C147.494 122.442 147.47 122.003 147.47 121.485V118.197H149.389V126.839C149.398 127.318 149.406 127.738 149.411 128.099C149.42 128.46 149.433 128.761 149.447 129ZM147.499 125.338C147.499 124.952 147.438 124.588 147.316 124.247C147.194 123.9 147.001 123.614 146.737 123.39C146.479 123.16 146.156 123.045 145.771 123.045C145.194 123.045 144.779 123.268 144.525 123.712C144.276 124.151 144.152 124.684 144.152 125.309C144.152 125.895 144.291 126.424 144.569 126.898C144.848 127.372 145.258 127.608 145.8 127.608C146.166 127.608 146.479 127.499 146.737 127.279C147.001 127.054 147.194 126.771 147.316 126.429C147.438 126.083 147.499 125.719 147.499 125.338ZM157.365 127.022L157.394 128.685C156.608 129.027 155.758 129.198 154.845 129.198C154.235 129.198 153.69 129.112 153.212 128.941C152.738 128.766 152.333 128.509 151.996 128.172C151.659 127.831 151.403 127.42 151.227 126.942C151.051 126.458 150.963 125.909 150.963 125.294C150.963 124.728 151.044 124.208 151.205 123.734C151.371 123.255 151.608 122.843 151.916 122.496C152.223 122.145 152.602 121.871 153.051 121.676C153.505 121.48 154.018 121.383 154.589 121.383C155.146 121.383 155.636 121.483 156.061 121.683C156.486 121.883 156.83 122.159 157.094 122.511C157.362 122.862 157.562 123.27 157.694 123.734C157.826 124.193 157.892 124.698 157.892 125.25C157.892 125.348 157.89 125.421 157.885 125.47C157.88 125.519 157.875 125.58 157.87 125.653C157.865 125.726 157.858 125.812 157.848 125.909H152.853C152.902 126.495 153.129 126.952 153.534 127.279C153.944 127.606 154.452 127.77 155.058 127.77C155.741 127.77 156.51 127.521 157.365 127.022ZM156.061 124.576C156.051 124.244 155.99 123.939 155.878 123.661C155.771 123.382 155.602 123.158 155.373 122.987C155.148 122.816 154.867 122.73 154.53 122.73C154.184 122.73 153.886 122.816 153.637 122.987C153.393 123.153 153.202 123.375 153.065 123.653C152.934 123.932 152.853 124.239 152.824 124.576H156.061ZM166.278 129H164.462L164.433 127.74C164.213 128.185 163.898 128.526 163.488 128.766C163.083 129 162.624 129.117 162.111 129.117C161.574 129.117 161.103 129.012 160.697 128.802C160.297 128.587 159.972 128.299 159.723 127.938C159.474 127.577 159.289 127.167 159.167 126.708C159.049 126.249 158.991 125.768 158.991 125.265C158.991 124.601 159.101 123.978 159.32 123.397C159.54 122.811 159.879 122.34 160.338 121.983C160.802 121.622 161.378 121.441 162.067 121.441C162.584 121.441 163.036 121.556 163.422 121.786C163.808 122.015 164.125 122.354 164.374 122.804C164.325 122.442 164.301 122.003 164.301 121.485V118.197H166.22V126.839C166.229 127.318 166.237 127.738 166.242 128.099C166.251 128.46 166.264 128.761 166.278 129ZM164.33 125.338C164.33 124.952 164.269 124.588 164.147 124.247C164.025 123.9 163.832 123.614 163.568 123.39C163.31 123.16 162.987 123.045 162.602 123.045C162.025 123.045 161.61 123.268 161.356 123.712C161.107 124.151 160.983 124.684 160.983 125.309C160.983 125.895 161.122 126.424 161.4 126.898C161.679 127.372 162.089 127.608 162.631 127.608C162.997 127.608 163.31 127.499 163.568 127.279C163.832 127.054 164.025 126.771 164.147 126.429C164.269 126.083 164.33 125.719 164.33 125.338Z" fill="black"/>
<line x1="25.373" y1="102.75" x2="246.585" y2="102.75" stroke="black" stroke-width="0.5"/>
</g>
</g>
<defs>
<filter id="filter0_d" x="-4" y="-2" width="279.572" height="56" filterUnits="userSpaceOnUse" color-interpolation-filters="sRGB">
<feFlood flood-opacity="0" result="BackgroundImageFix"/>
<feColorMatrix in="SourceAlpha" type="matrix" values="0 0 0 0 0 0 0 0 0 0 0 0 0 0 0 0 0 0 127 0" result="hardAlpha"/>
<feOffset dy="2"/>
<feGaussianBlur stdDeviation="2"/>
<feColorMatrix type="matrix" values="0 0 0 0 0 0 0 0 0 0 0 0 0 0 0 0 0 0 0.25 0"/>
<feBlend mode="normal" in2="BackgroundImageFix" result="effect1_dropShadow"/>
<feBlend mode="normal" in="SourceGraphic" in2="effect1_dropShadow" result="shape"/>
</filter>
<filter id="filter1_d" x="-4" y="57" width="280" height="97" filterUnits="userSpaceOnUse" color-interpolation-filters="sRGB">
<feFlood flood-opacity="0" result="BackgroundImageFix"/>
<feColorMatrix in="SourceAlpha" type="matrix" values="0 0 0 0 0 0 0 0 0 0 0 0 0 0 0 0 0 0 127 0" result="hardAlpha"/>
<feOffset dy="2"/>
<feGaussianBlur stdDeviation="2"/>
<feColorMatrix type="matrix" values="0 0 0 0 0 0 0 0 0 0 0 0 0 0 0 0 0 0 0.25 0"/>
<feBlend mode="normal" in2="BackgroundImageFix" result="effect1_dropShadow"/>
<feBlend mode="normal" in="SourceGraphic" in2="effect1_dropShadow" result="shape"/>
</filter>
<clipPath id="clip0">
<rect width="272" height="148" fill="white"/>
</clipPath>
</defs>
</svg>
