<svg width="151" height="101" viewBox="0 0 151 101" fill="none" xmlns="http://www.w3.org/2000/svg">
<g clip-path="url(#clip0)">
<g filter="url(#filter0_d)">
<rect width="150.571" height="48" rx="8.71" fill="white"/>
<path d="M24.9189 17.9951L21.1396 28H19.3965L15.5732 17.9951H17.1479L19.5942 24.5942C19.7212 24.9116 19.8433 25.2632 19.9604 25.6489C20.0825 26.0298 20.1948 26.4229 20.2974 26.8281C20.439 26.1982 20.666 25.4536 20.9785 24.5942L23.4175 17.9951H24.9189ZM27.4238 17.4092V18.9106H25.937V17.4092H27.4238ZM27.3945 20.6685V28H26.0249V20.6685H27.3945ZM30.3828 24.6821C30.4805 25.4097 30.7466 25.9858 31.1812 26.4106C31.6206 26.8306 32.1699 27.0405 32.8291 27.0405C33.2197 27.0405 33.6006 26.9844 33.9717 26.8721C34.3428 26.7598 34.7261 26.5864 35.1216 26.3521V27.6558C34.6772 27.8511 34.2744 27.9902 33.9131 28.0732C33.5518 28.1562 33.1709 28.1978 32.7705 28.1978C32.2041 28.1978 31.689 28.105 31.2251 27.9194C30.7612 27.7339 30.3657 27.4678 30.0386 27.1211C29.7114 26.7744 29.46 26.3569 29.2842 25.8687C29.1084 25.3755 29.0205 24.8359 29.0205 24.25C29.0205 23.5029 29.1621 22.8438 29.4453 22.2725C29.7285 21.7012 30.1338 21.2593 30.6611 20.9468C31.1934 20.6294 31.7964 20.4707 32.4702 20.4707C33.2612 20.4707 33.8911 20.666 34.3599 21.0566C34.8335 21.4424 35.168 21.9526 35.3633 22.5874C35.5635 23.2222 35.6636 23.9204 35.6636 24.6821H30.3828ZM30.3975 23.6201H34.3013C34.2524 23.2197 34.1597 22.8682 34.0229 22.5654C33.8862 22.2578 33.6836 22.0112 33.415 21.8257C33.1465 21.6401 32.8169 21.5474 32.4263 21.5474C31.8892 21.5474 31.4399 21.7329 31.0786 22.104C30.7222 22.4702 30.4951 22.9756 30.3975 23.6201ZM48.0635 20.6685L45.7197 28H44.145L42.8853 24.2354C42.7095 23.6885 42.5825 23.2832 42.5044 23.0195C42.4263 22.751 42.3286 22.3555 42.2114 21.833C42.0308 22.6289 41.811 23.4199 41.5522 24.2061L40.3364 28H38.7764L36.3594 20.6685H37.8462L39.0474 24.6089C39.2964 25.3364 39.4819 26.0566 39.604 26.7695C39.6089 26.7549 39.6528 26.5474 39.7358 26.147C39.8237 25.7466 39.9189 25.4438 40.0215 25.2388L41.4644 20.6685H43.0537L44.3867 24.6968C44.4697 24.9214 44.5698 25.2534 44.687 25.6929C44.8042 26.1274 44.8945 26.4863 44.958 26.7695C44.9824 26.5596 45.0166 26.3594 45.0605 26.1689C45.1045 25.9736 45.168 25.7295 45.251 25.4365C45.334 25.1436 45.4097 24.8823 45.478 24.6528L46.7085 20.6685H48.0635ZM53.769 21.2178C54.1694 20.9834 54.5649 20.8125 54.9556 20.7051C55.3511 20.5977 55.7734 20.5439 56.2227 20.5439C56.9111 20.5439 57.4873 20.6758 57.9512 20.9395C58.4199 21.1982 58.7446 21.5669 58.9253 22.0454C59.0767 22.4458 59.1523 23.1245 59.1523 24.0815V25.5098C59.1523 26.0615 59.1572 26.5449 59.167 26.96C59.1816 27.3701 59.2012 27.7168 59.2256 28H57.9805C57.9707 27.8291 57.9658 27.6387 57.9658 27.4287C57.9658 27.1699 57.9707 26.9404 57.9805 26.7402C57.6973 27.2139 57.3604 27.5605 56.9697 27.7803C56.5791 27.9951 56.0957 28.1025 55.5195 28.1025C55.0117 28.1025 54.5625 28.0122 54.1719 27.8315C53.7861 27.6509 53.4883 27.3945 53.2783 27.0625C53.0732 26.7256 52.9707 26.3374 52.9707 25.8979C52.9707 25.5122 53.0537 25.1729 53.2197 24.8799C53.3906 24.582 53.6396 24.3306 53.9668 24.1255C54.2939 23.9155 54.6943 23.7593 55.168 23.6567C55.6416 23.5542 56.1885 23.5029 56.8086 23.5029C57.1797 23.5029 57.5215 23.5127 57.834 23.5322C57.8242 22.9023 57.6704 22.4409 57.3726 22.1479C57.0747 21.8501 56.6182 21.7012 56.0029 21.7012C55.6025 21.7012 55.2363 21.7573 54.9043 21.8696C54.5723 21.9771 54.2183 22.1553 53.8423 22.4043L53.769 21.2178ZM57.8633 24.5356C57.5605 24.5063 57.314 24.4917 57.1235 24.4917C55.3169 24.4917 54.4136 24.9556 54.4136 25.8833C54.4136 26.1079 54.4722 26.3057 54.5894 26.4766C54.7065 26.6475 54.8726 26.7817 55.0874 26.8794C55.3022 26.9771 55.5464 27.0259 55.8198 27.0259C56.3228 27.0259 56.7256 26.916 57.0283 26.6963C57.3311 26.4766 57.5459 26.1812 57.6729 25.8101C57.7998 25.439 57.8633 25.0142 57.8633 24.5356ZM65.0483 20.8442L64.9458 21.9868C64.4673 21.7476 63.9717 21.6279 63.459 21.6279C63.083 21.6279 62.7827 21.7134 62.5581 21.8843C62.3384 22.0503 62.2285 22.27 62.2285 22.5435C62.2285 22.8267 62.3384 23.0439 62.5581 23.1953C62.7778 23.3467 63.1685 23.564 63.73 23.8472C64.2964 24.1255 64.7261 24.4136 65.019 24.7114C65.312 25.0093 65.4585 25.4048 65.4585 25.8979C65.4585 26.23 65.395 26.5352 65.2681 26.8135C65.146 27.0869 64.9653 27.3237 64.7261 27.5239C64.4868 27.7192 64.1987 27.8706 63.8618 27.978C63.5298 28.0806 63.1709 28.1318 62.7852 28.1318C62.1113 28.1318 61.4766 27.9927 60.8809 27.7144V26.4985C61.2324 26.6694 61.5425 26.7939 61.811 26.8721C62.0796 26.9453 62.3433 26.9819 62.6021 26.9819C62.8706 26.9819 63.1123 26.9404 63.3271 26.8574C63.542 26.7744 63.7104 26.6597 63.8325 26.5132C63.9546 26.3667 64.0156 26.2031 64.0156 26.0225C64.0156 25.7441 63.8984 25.5269 63.6641 25.3706C63.4346 25.2144 63.0415 24.9922 62.4849 24.7041C61.9331 24.416 61.5132 24.123 61.2251 23.8252C60.937 23.5225 60.793 23.1392 60.793 22.6753C60.793 22.2505 60.8979 21.877 61.1079 21.5547C61.3179 21.2324 61.6157 20.9834 62.0015 20.8076C62.3921 20.6318 62.8389 20.5439 63.3418 20.5439C63.8838 20.5439 64.4526 20.644 65.0483 20.8442ZM68.7397 20.6685V22.2725H67.1357V20.6685H68.7397ZM68.7397 26.396V28H67.1357V26.396H68.7397Z" fill="black"/>
<path d="M87.6265 26.3667V28H81.7012V17.9951H83.7227V26.3667H87.6265ZM90.7759 28H88.8569V20.5732H90.7759V28ZM90.8052 19.2256H88.8276V17.4092H90.8052V19.2256ZM92.3945 27.8022L92.4824 26.1836C93.166 26.5352 93.7959 26.7109 94.3721 26.7109C94.6895 26.7109 94.9897 26.6426 95.2729 26.5059C95.5562 26.3691 95.6978 26.1567 95.6978 25.8687C95.6978 25.6196 95.4951 25.4072 95.0898 25.2314C94.6846 25.0557 94.2769 24.8823 93.8667 24.7114C93.4614 24.5405 93.1099 24.3013 92.812 23.9937C92.5142 23.686 92.3652 23.2563 92.3652 22.7046C92.3652 22.1772 92.519 21.7451 92.8267 21.4082C93.1392 21.0713 93.5347 20.8271 94.0132 20.6758C94.4917 20.5195 94.9873 20.4414 95.5 20.4414C96.042 20.4414 96.6523 20.5366 97.3311 20.7271L97.1919 22.1626C96.5962 21.9722 96.0713 21.877 95.6172 21.877C95.2852 21.877 94.9775 21.9331 94.6943 22.0454C94.4111 22.1577 94.2695 22.353 94.2695 22.6313C94.2695 22.8706 94.4624 23.0708 94.8481 23.2319C95.2388 23.3882 95.6465 23.5469 96.0713 23.708C96.501 23.8643 96.8672 24.1011 97.1699 24.4185C97.4775 24.731 97.6313 25.1802 97.6313 25.7661C97.6313 26.2983 97.4824 26.7427 97.1846 27.0991C96.8916 27.4556 96.5107 27.7168 96.042 27.8828C95.5732 28.0488 95.0776 28.1318 94.5552 28.1318C93.9595 28.1318 93.2393 28.022 92.3945 27.8022ZM103.337 26.4106L103.403 27.9121C102.915 28.0098 102.482 28.0586 102.106 28.0586C101.477 28.0586 100.979 27.9438 100.612 27.7144C100.246 27.48 99.9897 27.1504 99.8433 26.7256C99.6968 26.2959 99.6235 25.771 99.6235 25.1509V22.0454H98.2246V20.6172H99.6528V19.1084L101.572 18.4785V20.6172H103.264V22.0454H101.572V24.748C101.572 25.3242 101.633 25.7637 101.755 26.0664C101.882 26.3643 102.189 26.5132 102.678 26.5132C102.858 26.5132 103.078 26.479 103.337 26.4106Z" fill="black"/>
<path d="M119.214 26.4107C119.381 26.5777 119.607 26.6715 119.844 26.6715C120.08 26.6715 120.306 26.5777 120.473 26.4107L125.187 21.6966L129.901 26.4107C129.984 26.4958 130.082 26.5636 130.19 26.6103C130.299 26.657 130.416 26.6816 130.534 26.6826C130.653 26.6836 130.77 26.6611 130.879 26.6163C130.989 26.5715 131.088 26.5054 131.172 26.4218C131.255 26.3381 131.322 26.2387 131.366 26.1292C131.411 26.0198 131.434 25.9025 131.433 25.7843C131.432 25.666 131.407 25.5491 131.36 25.4405C131.314 25.3318 131.246 25.2335 131.161 25.1514L125.817 19.8076C125.65 19.6407 125.423 19.5469 125.187 19.5469C124.951 19.5469 124.725 19.6407 124.558 19.8076L119.214 25.1514C119.047 25.3184 118.953 25.5449 118.953 25.781C118.953 26.0172 119.047 26.2437 119.214 26.4107Z" fill="black"/>
</g>
<g filter="url(#filter1_d)">
<rect y="53" width="151" height="48" rx="8.71" fill="white"/>
<path d="M24.9189 70.9951L21.1396 81H19.3965L15.5732 70.9951H17.1479L19.5942 77.5942C19.7212 77.9116 19.8433 78.2632 19.9604 78.6489C20.0825 79.0298 20.1948 79.4229 20.2974 79.8281C20.439 79.1982 20.666 78.4536 20.9785 77.5942L23.4175 70.9951H24.9189ZM27.4238 70.4092V71.9106H25.937V70.4092H27.4238ZM27.3945 73.6685V81H26.0249V73.6685H27.3945ZM30.3828 77.6821C30.4805 78.4097 30.7466 78.9858 31.1812 79.4106C31.6206 79.8306 32.1699 80.0405 32.8291 80.0405C33.2197 80.0405 33.6006 79.9844 33.9717 79.8721C34.3428 79.7598 34.7261 79.5864 35.1216 79.3521V80.6558C34.6772 80.8511 34.2744 80.9902 33.9131 81.0732C33.5518 81.1562 33.1709 81.1978 32.7705 81.1978C32.2041 81.1978 31.689 81.105 31.2251 80.9194C30.7612 80.7339 30.3657 80.4678 30.0386 80.1211C29.7114 79.7744 29.46 79.3569 29.2842 78.8687C29.1084 78.3755 29.0205 77.8359 29.0205 77.25C29.0205 76.5029 29.1621 75.8438 29.4453 75.2725C29.7285 74.7012 30.1338 74.2593 30.6611 73.9468C31.1934 73.6294 31.7964 73.4707 32.4702 73.4707C33.2612 73.4707 33.8911 73.666 34.3599 74.0566C34.8335 74.4424 35.168 74.9526 35.3633 75.5874C35.5635 76.2222 35.6636 76.9204 35.6636 77.6821H30.3828ZM30.3975 76.6201H34.3013C34.2524 76.2197 34.1597 75.8682 34.0229 75.5654C33.8862 75.2578 33.6836 75.0112 33.415 74.8257C33.1465 74.6401 32.8169 74.5474 32.4263 74.5474C31.8892 74.5474 31.4399 74.7329 31.0786 75.104C30.7222 75.4702 30.4951 75.9756 30.3975 76.6201ZM48.0635 73.6685L45.7197 81H44.145L42.8853 77.2354C42.7095 76.6885 42.5825 76.2832 42.5044 76.0195C42.4263 75.751 42.3286 75.3555 42.2114 74.833C42.0308 75.6289 41.811 76.4199 41.5522 77.2061L40.3364 81H38.7764L36.3594 73.6685H37.8462L39.0474 77.6089C39.2964 78.3364 39.4819 79.0566 39.604 79.7695C39.6089 79.7549 39.6528 79.5474 39.7358 79.147C39.8237 78.7466 39.9189 78.4438 40.0215 78.2388L41.4644 73.6685H43.0537L44.3867 77.6968C44.4697 77.9214 44.5698 78.2534 44.687 78.6929C44.8042 79.1274 44.8945 79.4863 44.958 79.7695C44.9824 79.5596 45.0166 79.3594 45.0605 79.1689C45.1045 78.9736 45.168 78.7295 45.251 78.4365C45.334 78.1436 45.4097 77.8823 45.478 77.6528L46.7085 73.6685H48.0635ZM53.769 74.2178C54.1694 73.9834 54.5649 73.8125 54.9556 73.7051C55.3511 73.5977 55.7734 73.5439 56.2227 73.5439C56.9111 73.5439 57.4873 73.6758 57.9512 73.9395C58.4199 74.1982 58.7446 74.5669 58.9253 75.0454C59.0767 75.4458 59.1523 76.1245 59.1523 77.0815V78.5098C59.1523 79.0615 59.1572 79.5449 59.167 79.96C59.1816 80.3701 59.2012 80.7168 59.2256 81H57.9805C57.9707 80.8291 57.9658 80.6387 57.9658 80.4287C57.9658 80.1699 57.9707 79.9404 57.9805 79.7402C57.6973 80.2139 57.3604 80.5605 56.9697 80.7803C56.5791 80.9951 56.0957 81.1025 55.5195 81.1025C55.0117 81.1025 54.5625 81.0122 54.1719 80.8315C53.7861 80.6509 53.4883 80.3945 53.2783 80.0625C53.0732 79.7256 52.9707 79.3374 52.9707 78.8979C52.9707 78.5122 53.0537 78.1729 53.2197 77.8799C53.3906 77.582 53.6396 77.3306 53.9668 77.1255C54.2939 76.9155 54.6943 76.7593 55.168 76.6567C55.6416 76.5542 56.1885 76.5029 56.8086 76.5029C57.1797 76.5029 57.5215 76.5127 57.834 76.5322C57.8242 75.9023 57.6704 75.4409 57.3726 75.1479C57.0747 74.8501 56.6182 74.7012 56.0029 74.7012C55.6025 74.7012 55.2363 74.7573 54.9043 74.8696C54.5723 74.9771 54.2183 75.1553 53.8423 75.4043L53.769 74.2178ZM57.8633 77.5356C57.5605 77.5063 57.314 77.4917 57.1235 77.4917C55.3169 77.4917 54.4136 77.9556 54.4136 78.8833C54.4136 79.1079 54.4722 79.3057 54.5894 79.4766C54.7065 79.6475 54.8726 79.7817 55.0874 79.8794C55.3022 79.9771 55.5464 80.0259 55.8198 80.0259C56.3228 80.0259 56.7256 79.916 57.0283 79.6963C57.3311 79.4766 57.5459 79.1812 57.6729 78.8101C57.7998 78.439 57.8633 78.0142 57.8633 77.5356ZM65.0483 73.8442L64.9458 74.9868C64.4673 74.7476 63.9717 74.6279 63.459 74.6279C63.083 74.6279 62.7827 74.7134 62.5581 74.8843C62.3384 75.0503 62.2285 75.27 62.2285 75.5435C62.2285 75.8267 62.3384 76.0439 62.5581 76.1953C62.7778 76.3467 63.1685 76.564 63.73 76.8472C64.2964 77.1255 64.7261 77.4136 65.019 77.7114C65.312 78.0093 65.4585 78.4048 65.4585 78.8979C65.4585 79.23 65.395 79.5352 65.2681 79.8135C65.146 80.0869 64.9653 80.3237 64.7261 80.5239C64.4868 80.7192 64.1987 80.8706 63.8618 80.978C63.5298 81.0806 63.1709 81.1318 62.7852 81.1318C62.1113 81.1318 61.4766 80.9927 60.8809 80.7144V79.4985C61.2324 79.6694 61.5425 79.7939 61.811 79.8721C62.0796 79.9453 62.3433 79.9819 62.6021 79.9819C62.8706 79.9819 63.1123 79.9404 63.3271 79.8574C63.542 79.7744 63.7104 79.6597 63.8325 79.5132C63.9546 79.3667 64.0156 79.2031 64.0156 79.0225C64.0156 78.7441 63.8984 78.5269 63.6641 78.3706C63.4346 78.2144 63.0415 77.9922 62.4849 77.7041C61.9331 77.416 61.5132 77.123 61.2251 76.8252C60.937 76.5225 60.793 76.1392 60.793 75.6753C60.793 75.2505 60.8979 74.877 61.1079 74.5547C61.3179 74.2324 61.6157 73.9834 62.0015 73.8076C62.3921 73.6318 62.8389 73.5439 63.3418 73.5439C63.8838 73.5439 64.4526 73.644 65.0483 73.8442ZM68.7397 73.6685V75.2725H67.1357V73.6685H68.7397ZM68.7397 79.396V81H67.1357V79.396H68.7397Z" fill="black"/>
<path d="M88.9302 78.9785L89.0034 80.7437C88.1733 80.9634 87.4141 81.0732 86.7256 81.0732C85.9443 81.0732 85.2217 80.9707 84.5576 80.7656C83.8936 80.5605 83.3076 80.248 82.7998 79.8281C82.2969 79.4033 81.9087 78.8784 81.6353 78.2534C81.3667 77.6284 81.2324 76.9082 81.2324 76.0928C81.2324 75.2773 81.3545 74.5474 81.5986 73.9028C81.8428 73.2583 82.1968 72.7139 82.6606 72.2695C83.1294 71.8203 83.6909 71.4834 84.3452 71.2588C84.9995 71.0342 85.7319 70.9219 86.5425 70.9219C87.2651 70.9219 88.0708 71.0659 88.9595 71.354L88.7983 73.0679C88.1392 72.7065 87.4238 72.5259 86.6523 72.5259C85.998 72.5259 85.4219 72.6675 84.9238 72.9507C84.4258 73.229 84.0425 73.6196 83.7739 74.1226C83.5103 74.6255 83.3784 75.2041 83.3784 75.8584C83.3784 76.5371 83.5176 77.1475 83.7959 77.6895C84.0791 78.2314 84.4795 78.6514 84.9971 78.9492C85.5146 79.2471 86.1201 79.396 86.8135 79.396C87.4727 79.396 88.1782 79.2568 88.9302 78.9785ZM96.5034 81H94.7896L94.7603 79.8867C94.5308 80.2822 94.2085 80.5874 93.7935 80.8022C93.3833 81.0122 92.9365 81.1172 92.4531 81.1172C91.96 81.1172 91.5181 81.0317 91.1274 80.8608C90.7417 80.6899 90.4365 80.4312 90.2119 80.0845C89.9873 79.7329 89.875 79.3081 89.875 78.8101C89.875 77.8823 90.2388 77.2476 90.9663 76.9058C91.6938 76.564 92.5801 76.3931 93.625 76.3931C93.7764 76.3931 93.874 76.3955 93.918 76.4004C93.9619 76.4004 94.0596 76.4053 94.2109 76.415C94.3623 76.4199 94.5161 76.4272 94.6724 76.437C94.6724 75.8853 94.5381 75.4751 94.2695 75.2065C94.001 74.938 93.5859 74.8037 93.0244 74.8037C92.1748 74.8037 91.4082 75.0747 90.7246 75.6167L90.666 73.9468C91.4619 73.6099 92.3237 73.4414 93.2515 73.4414C93.5981 73.4414 93.9424 73.4756 94.2842 73.5439C94.626 73.6123 94.9409 73.7271 95.229 73.8882C95.522 74.0444 95.7637 74.2544 95.9541 74.5181C96.1494 74.7817 96.2764 75.0845 96.335 75.4263C96.3984 75.7632 96.4302 76.166 96.4302 76.6348C96.4302 77.1182 96.4302 77.604 96.4302 78.0923C96.4351 78.5806 96.4399 79.0273 96.4448 79.4326C96.4546 79.833 96.4741 80.3555 96.5034 81ZM94.7017 77.6235C94.6528 77.6138 94.5771 77.6089 94.4746 77.6089H94.2402C93.8203 77.6089 93.4346 77.6333 93.083 77.6821C92.7363 77.7261 92.4312 77.8433 92.1675 78.0337C91.9087 78.2192 91.7793 78.4927 91.7793 78.854C91.7793 79.147 91.894 79.3813 92.1235 79.5571C92.3579 79.728 92.6289 79.8135 92.9365 79.8135C93.5176 79.8135 93.957 79.5986 94.2549 79.1689C94.5527 78.7393 94.7017 78.2241 94.7017 77.6235ZM100.356 81H98.437V75.8071C98.4126 74.5718 98.3931 73.8271 98.3784 73.5732H100.122L100.166 75.4482C100.332 74.8623 100.583 74.3936 100.92 74.042C101.262 73.6904 101.706 73.5146 102.253 73.5146C102.419 73.5146 102.607 73.5391 102.817 73.5879V75.3896C102.563 75.3213 102.338 75.2871 102.143 75.2871C101.689 75.2871 101.328 75.4067 101.059 75.646C100.791 75.8853 100.605 76.1929 100.502 76.5688C100.405 76.9399 100.356 77.3477 100.356 77.792V77.9385V81ZM110.859 81H109.042L109.013 79.7402C108.793 80.1846 108.479 80.5264 108.068 80.7656C107.663 81 107.204 81.1172 106.691 81.1172C106.154 81.1172 105.683 81.0122 105.278 80.8022C104.877 80.5874 104.553 80.2993 104.304 79.938C104.055 79.5767 103.869 79.1665 103.747 78.7075C103.63 78.2485 103.571 77.7676 103.571 77.2646C103.571 76.6006 103.681 75.978 103.901 75.397C104.121 74.811 104.46 74.3398 104.919 73.9834C105.383 73.6221 105.959 73.4414 106.647 73.4414C107.165 73.4414 107.617 73.5562 108.002 73.7856C108.388 74.0151 108.706 74.3545 108.955 74.8037C108.906 74.4424 108.881 74.0029 108.881 73.4854V70.1968H110.8V78.8394C110.81 79.3179 110.817 79.7378 110.822 80.0991C110.832 80.4604 110.844 80.7607 110.859 81ZM108.911 77.3379C108.911 76.9521 108.85 76.5884 108.728 76.2466C108.605 75.8999 108.413 75.6143 108.149 75.3896C107.89 75.1602 107.568 75.0454 107.182 75.0454C106.606 75.0454 106.191 75.2676 105.937 75.7119C105.688 76.1514 105.563 76.6836 105.563 77.3086C105.563 77.8945 105.703 78.4243 105.981 78.8979C106.259 79.3716 106.669 79.6084 107.211 79.6084C107.578 79.6084 107.89 79.4985 108.149 79.2788C108.413 79.0542 108.605 78.771 108.728 78.4292C108.85 78.0825 108.911 77.7188 108.911 77.3379ZM112.478 80.8022L112.565 79.1836C113.249 79.5352 113.879 79.7109 114.455 79.7109C114.772 79.7109 115.073 79.6426 115.356 79.5059C115.639 79.3691 115.781 79.1567 115.781 78.8687C115.781 78.6196 115.578 78.4072 115.173 78.2314C114.768 78.0557 114.36 77.8823 113.95 77.7114C113.544 77.5405 113.193 77.3013 112.895 76.9937C112.597 76.686 112.448 76.2563 112.448 75.7046C112.448 75.1772 112.602 74.7451 112.91 74.4082C113.222 74.0713 113.618 73.8271 114.096 73.6758C114.575 73.5195 115.07 73.4414 115.583 73.4414C116.125 73.4414 116.735 73.5366 117.414 73.7271L117.275 75.1626C116.679 74.9722 116.154 74.877 115.7 74.877C115.368 74.877 115.061 74.9331 114.777 75.0454C114.494 75.1577 114.353 75.353 114.353 75.6313C114.353 75.8706 114.545 76.0708 114.931 76.2319C115.322 76.3882 115.729 76.5469 116.154 76.708C116.584 76.8643 116.95 77.1011 117.253 77.4185C117.561 77.731 117.714 78.1802 117.714 78.7661C117.714 79.2983 117.565 79.7427 117.268 80.0991C116.975 80.4556 116.594 80.7168 116.125 80.8828C115.656 81.0488 115.161 81.1318 114.638 81.1318C114.042 81.1318 113.322 81.022 112.478 80.8022Z" fill="black"/>
</g>
</g>
<defs>
<filter id="filter0_d" x="-4" y="-2" width="158.572" height="56" filterUnits="userSpaceOnUse" color-interpolation-filters="sRGB">
<feFlood flood-opacity="0" result="BackgroundImageFix"/>
<feColorMatrix in="SourceAlpha" type="matrix" values="0 0 0 0 0 0 0 0 0 0 0 0 0 0 0 0 0 0 127 0" result="hardAlpha"/>
<feOffset dy="2"/>
<feGaussianBlur stdDeviation="2"/>
<feColorMatrix type="matrix" values="0 0 0 0 0 0 0 0 0 0 0 0 0 0 0 0 0 0 0.25 0"/>
<feBlend mode="normal" in2="BackgroundImageFix" result="effect1_dropShadow"/>
<feBlend mode="normal" in="SourceGraphic" in2="effect1_dropShadow" result="shape"/>
</filter>
<filter id="filter1_d" x="-4" y="51" width="159" height="56" filterUnits="userSpaceOnUse" color-interpolation-filters="sRGB">
<feFlood flood-opacity="0" result="BackgroundImageFix"/>
<feColorMatrix in="SourceAlpha" type="matrix" values="0 0 0 0 0 0 0 0 0 0 0 0 0 0 0 0 0 0 127 0" result="hardAlpha"/>
<feOffset dy="2"/>
<feGaussianBlur stdDeviation="2"/>
<feColorMatrix type="matrix" values="0 0 0 0 0 0 0 0 0 0 0 0 0 0 0 0 0 0 0.25 0"/>
<feBlend mode="normal" in2="BackgroundImageFix" result="effect1_dropShadow"/>
<feBlend mode="normal" in="SourceGraphic" in2="effect1_dropShadow" result="shape"/>
</filter>
<clipPath id="clip0">
<rect width="151" height="101" fill="white"/>
</clipPath>
</defs>
</svg>
