<svg width="173" height="56" viewBox="0 0 173 56" fill="none" xmlns="http://www.w3.org/2000/svg">
<g filter="url(#filter0_d)">
<rect x="4" y="2" width="164.571" height="48" rx="8.71" fill="white"/>
<path d="M28.9189 19.9951L25.1396 30H23.3965L19.5732 19.9951H21.1479L23.5942 26.5942C23.7212 26.9116 23.8433 27.2632 23.9604 27.6489C24.0825 28.0298 24.1948 28.4229 24.2974 28.8281C24.439 28.1982 24.666 27.4536 24.9785 26.5942L27.4175 19.9951H28.9189ZM31.4238 19.4092V20.9106H29.937V19.4092H31.4238ZM31.3945 22.6685V30H30.0249V22.6685H31.3945ZM34.3828 26.6821C34.4805 27.4097 34.7466 27.9858 35.1812 28.4106C35.6206 28.8306 36.1699 29.0405 36.8291 29.0405C37.2197 29.0405 37.6006 28.9844 37.9717 28.8721C38.3428 28.7598 38.7261 28.5864 39.1216 28.3521V29.6558C38.6772 29.8511 38.2744 29.9902 37.9131 30.0732C37.5518 30.1562 37.1709 30.1978 36.7705 30.1978C36.2041 30.1978 35.689 30.105 35.2251 29.9194C34.7612 29.7339 34.3657 29.4678 34.0386 29.1211C33.7114 28.7744 33.46 28.3569 33.2842 27.8687C33.1084 27.3755 33.0205 26.8359 33.0205 26.25C33.0205 25.5029 33.1621 24.8438 33.4453 24.2725C33.7285 23.7012 34.1338 23.2593 34.6611 22.9468C35.1934 22.6294 35.7964 22.4707 36.4702 22.4707C37.2612 22.4707 37.8911 22.666 38.3599 23.0566C38.8335 23.4424 39.168 23.9526 39.3633 24.5874C39.5635 25.2222 39.6636 25.9204 39.6636 26.6821H34.3828ZM34.3975 25.6201H38.3013C38.2524 25.2197 38.1597 24.8682 38.0229 24.5654C37.8862 24.2578 37.6836 24.0112 37.415 23.8257C37.1465 23.6401 36.8169 23.5474 36.4263 23.5474C35.8892 23.5474 35.4399 23.7329 35.0786 24.104C34.7222 24.4702 34.4951 24.9756 34.3975 25.6201ZM52.0635 22.6685L49.7197 30H48.145L46.8853 26.2354C46.7095 25.6885 46.5825 25.2832 46.5044 25.0195C46.4263 24.751 46.3286 24.3555 46.2114 23.833C46.0308 24.6289 45.811 25.4199 45.5522 26.2061L44.3364 30H42.7764L40.3594 22.6685H41.8462L43.0474 26.6089C43.2964 27.3364 43.4819 28.0566 43.604 28.7695C43.6089 28.7549 43.6528 28.5474 43.7358 28.147C43.8237 27.7466 43.9189 27.4438 44.0215 27.2388L45.4644 22.6685H47.0537L48.3867 26.6968C48.4697 26.9214 48.5698 27.2534 48.687 27.6929C48.8042 28.1274 48.8945 28.4863 48.958 28.7695C48.9824 28.5596 49.0166 28.3594 49.0605 28.1689C49.1045 27.9736 49.168 27.7295 49.251 27.4365C49.334 27.1436 49.4097 26.8823 49.478 26.6528L50.7085 22.6685H52.0635ZM57.769 23.2178C58.1694 22.9834 58.5649 22.8125 58.9556 22.7051C59.3511 22.5977 59.7734 22.5439 60.2227 22.5439C60.9111 22.5439 61.4873 22.6758 61.9512 22.9395C62.4199 23.1982 62.7446 23.5669 62.9253 24.0454C63.0767 24.4458 63.1523 25.1245 63.1523 26.0815V27.5098C63.1523 28.0615 63.1572 28.5449 63.167 28.96C63.1816 29.3701 63.2012 29.7168 63.2256 30H61.9805C61.9707 29.8291 61.9658 29.6387 61.9658 29.4287C61.9658 29.1699 61.9707 28.9404 61.9805 28.7402C61.6973 29.2139 61.3604 29.5605 60.9697 29.7803C60.5791 29.9951 60.0957 30.1025 59.5195 30.1025C59.0117 30.1025 58.5625 30.0122 58.1719 29.8315C57.7861 29.6509 57.4883 29.3945 57.2783 29.0625C57.0732 28.7256 56.9707 28.3374 56.9707 27.8979C56.9707 27.5122 57.0537 27.1729 57.2197 26.8799C57.3906 26.582 57.6396 26.3306 57.9668 26.1255C58.2939 25.9155 58.6943 25.7593 59.168 25.6567C59.6416 25.5542 60.1885 25.5029 60.8086 25.5029C61.1797 25.5029 61.5215 25.5127 61.834 25.5322C61.8242 24.9023 61.6704 24.4409 61.3726 24.1479C61.0747 23.8501 60.6182 23.7012 60.0029 23.7012C59.6025 23.7012 59.2363 23.7573 58.9043 23.8696C58.5723 23.9771 58.2183 24.1553 57.8423 24.4043L57.769 23.2178ZM61.8633 26.5356C61.5605 26.5063 61.314 26.4917 61.1235 26.4917C59.3169 26.4917 58.4136 26.9556 58.4136 27.8833C58.4136 28.1079 58.4722 28.3057 58.5894 28.4766C58.7065 28.6475 58.8726 28.7817 59.0874 28.8794C59.3022 28.9771 59.5464 29.0259 59.8198 29.0259C60.3228 29.0259 60.7256 28.916 61.0283 28.6963C61.3311 28.4766 61.5459 28.1812 61.6729 27.8101C61.7998 27.439 61.8633 27.0142 61.8633 26.5356ZM69.0483 22.8442L68.9458 23.9868C68.4673 23.7476 67.9717 23.6279 67.459 23.6279C67.083 23.6279 66.7827 23.7134 66.5581 23.8843C66.3384 24.0503 66.2285 24.27 66.2285 24.5435C66.2285 24.8267 66.3384 25.0439 66.5581 25.1953C66.7778 25.3467 67.1685 25.564 67.73 25.8472C68.2964 26.1255 68.7261 26.4136 69.019 26.7114C69.312 27.0093 69.4585 27.4048 69.4585 27.8979C69.4585 28.23 69.395 28.5352 69.2681 28.8135C69.146 29.0869 68.9653 29.3237 68.7261 29.5239C68.4868 29.7192 68.1987 29.8706 67.8618 29.978C67.5298 30.0806 67.1709 30.1318 66.7852 30.1318C66.1113 30.1318 65.4766 29.9927 64.8809 29.7144V28.4985C65.2324 28.6694 65.5425 28.7939 65.811 28.8721C66.0796 28.9453 66.3433 28.9819 66.6021 28.9819C66.8706 28.9819 67.1123 28.9404 67.3271 28.8574C67.542 28.7744 67.7104 28.6597 67.8325 28.5132C67.9546 28.3667 68.0156 28.2031 68.0156 28.0225C68.0156 27.7441 67.8984 27.5269 67.6641 27.3706C67.4346 27.2144 67.0415 26.9922 66.4849 26.7041C65.9331 26.416 65.5132 26.123 65.2251 25.8252C64.937 25.5225 64.793 25.1392 64.793 24.6753C64.793 24.2505 64.8979 23.877 65.1079 23.5547C65.3179 23.2324 65.6157 22.9834 66.0015 22.8076C66.3921 22.6318 66.8389 22.5439 67.3418 22.5439C67.8838 22.5439 68.4526 22.644 69.0483 22.8442ZM72.7397 22.6685V24.2725H71.1357V22.6685H72.7397ZM72.7397 28.396V30H71.1357V28.396H72.7397Z" fill="black"/>
<path d="M92.9302 27.9785L93.0034 29.7437C92.1733 29.9634 91.4141 30.0732 90.7256 30.0732C89.9443 30.0732 89.2217 29.9707 88.5576 29.7656C87.8936 29.5605 87.3076 29.248 86.7998 28.8281C86.2969 28.4033 85.9087 27.8784 85.6353 27.2534C85.3667 26.6284 85.2324 25.9082 85.2324 25.0928C85.2324 24.2773 85.3545 23.5474 85.5986 22.9028C85.8428 22.2583 86.1968 21.7139 86.6606 21.2695C87.1294 20.8203 87.6909 20.4834 88.3452 20.2588C88.9995 20.0342 89.7319 19.9219 90.5425 19.9219C91.2651 19.9219 92.0708 20.0659 92.9595 20.354L92.7983 22.0679C92.1392 21.7065 91.4238 21.5259 90.6523 21.5259C89.998 21.5259 89.4219 21.6675 88.9238 21.9507C88.4258 22.229 88.0425 22.6196 87.7739 23.1226C87.5103 23.6255 87.3784 24.2041 87.3784 24.8584C87.3784 25.5371 87.5176 26.1475 87.7959 26.6895C88.0791 27.2314 88.4795 27.6514 88.9971 27.9492C89.5146 28.2471 90.1201 28.396 90.8135 28.396C91.4727 28.396 92.1782 28.2568 92.9302 27.9785ZM100.503 30H98.7896L98.7603 28.8867C98.5308 29.2822 98.2085 29.5874 97.7935 29.8022C97.3833 30.0122 96.9365 30.1172 96.4531 30.1172C95.96 30.1172 95.5181 30.0317 95.1274 29.8608C94.7417 29.6899 94.4365 29.4312 94.2119 29.0845C93.9873 28.7329 93.875 28.3081 93.875 27.8101C93.875 26.8823 94.2388 26.2476 94.9663 25.9058C95.6938 25.564 96.5801 25.3931 97.625 25.3931C97.7764 25.3931 97.874 25.3955 97.918 25.4004C97.9619 25.4004 98.0596 25.4053 98.2109 25.415C98.3623 25.4199 98.5161 25.4272 98.6724 25.437C98.6724 24.8853 98.5381 24.4751 98.2695 24.2065C98.001 23.938 97.5859 23.8037 97.0244 23.8037C96.1748 23.8037 95.4082 24.0747 94.7246 24.6167L94.666 22.9468C95.4619 22.6099 96.3237 22.4414 97.2515 22.4414C97.5981 22.4414 97.9424 22.4756 98.2842 22.5439C98.626 22.6123 98.9409 22.7271 99.229 22.8882C99.522 23.0444 99.7637 23.2544 99.9541 23.5181C100.149 23.7817 100.276 24.0845 100.335 24.4263C100.398 24.7632 100.43 25.166 100.43 25.6348C100.43 26.1182 100.43 26.604 100.43 27.0923C100.435 27.5806 100.44 28.0273 100.445 28.4326C100.455 28.833 100.474 29.3555 100.503 30ZM98.7017 26.6235C98.6528 26.6138 98.5771 26.6089 98.4746 26.6089H98.2402C97.8203 26.6089 97.4346 26.6333 97.083 26.6821C96.7363 26.7261 96.4312 26.8433 96.1675 27.0337C95.9087 27.2192 95.7793 27.4927 95.7793 27.854C95.7793 28.147 95.894 28.3813 96.1235 28.5571C96.3579 28.728 96.6289 28.8135 96.9365 28.8135C97.5176 28.8135 97.957 28.5986 98.2549 28.1689C98.5527 27.7393 98.7017 27.2241 98.7017 26.6235ZM104.356 30H102.437V24.8071C102.413 23.5718 102.393 22.8271 102.378 22.5732H104.122L104.166 24.4482C104.332 23.8623 104.583 23.3936 104.92 23.042C105.262 22.6904 105.706 22.5146 106.253 22.5146C106.419 22.5146 106.607 22.5391 106.817 22.5879V24.3896C106.563 24.3213 106.338 24.2871 106.143 24.2871C105.689 24.2871 105.328 24.4067 105.059 24.646C104.791 24.8853 104.605 25.1929 104.502 25.5688C104.405 25.9399 104.356 26.3477 104.356 26.792V26.9385V30ZM114.859 30H113.042L113.013 28.7402C112.793 29.1846 112.479 29.5264 112.068 29.7656C111.663 30 111.204 30.1172 110.691 30.1172C110.154 30.1172 109.683 30.0122 109.278 29.8022C108.877 29.5874 108.553 29.2993 108.304 28.938C108.055 28.5767 107.869 28.1665 107.747 27.7075C107.63 27.2485 107.571 26.7676 107.571 26.2646C107.571 25.6006 107.681 24.978 107.901 24.397C108.121 23.811 108.46 23.3398 108.919 22.9834C109.383 22.6221 109.959 22.4414 110.647 22.4414C111.165 22.4414 111.617 22.5562 112.002 22.7856C112.388 23.0151 112.706 23.3545 112.955 23.8037C112.906 23.4424 112.881 23.0029 112.881 22.4854V19.1968H114.8V27.8394C114.81 28.3179 114.817 28.7378 114.822 29.0991C114.832 29.4604 114.844 29.7607 114.859 30ZM112.911 26.3379C112.911 25.9521 112.85 25.5884 112.728 25.2466C112.605 24.8999 112.413 24.6143 112.149 24.3896C111.89 24.1602 111.568 24.0454 111.182 24.0454C110.606 24.0454 110.191 24.2676 109.937 24.7119C109.688 25.1514 109.563 25.6836 109.563 26.3086C109.563 26.8945 109.703 27.4243 109.981 27.8979C110.259 28.3716 110.669 28.6084 111.211 28.6084C111.578 28.6084 111.89 28.4985 112.149 28.2788C112.413 28.0542 112.605 27.771 112.728 27.4292C112.85 27.0825 112.911 26.7188 112.911 26.3379ZM116.478 29.8022L116.565 28.1836C117.249 28.5352 117.879 28.7109 118.455 28.7109C118.772 28.7109 119.073 28.6426 119.356 28.5059C119.639 28.3691 119.781 28.1567 119.781 27.8687C119.781 27.6196 119.578 27.4072 119.173 27.2314C118.768 27.0557 118.36 26.8823 117.95 26.7114C117.544 26.5405 117.193 26.3013 116.895 25.9937C116.597 25.686 116.448 25.2563 116.448 24.7046C116.448 24.1772 116.602 23.7451 116.91 23.4082C117.222 23.0713 117.618 22.8271 118.096 22.6758C118.575 22.5195 119.07 22.4414 119.583 22.4414C120.125 22.4414 120.735 22.5366 121.414 22.7271L121.275 24.1626C120.679 23.9722 120.154 23.877 119.7 23.877C119.368 23.877 119.061 23.9331 118.777 24.0454C118.494 24.1577 118.353 24.353 118.353 24.6313C118.353 24.8706 118.545 25.0708 118.931 25.2319C119.322 25.3882 119.729 25.5469 120.154 25.708C120.584 25.8643 120.95 26.1011 121.253 26.4185C121.561 26.731 121.714 27.1802 121.714 27.7661C121.714 28.2983 121.565 28.7427 121.268 29.0991C120.975 29.4556 120.594 29.7168 120.125 29.8828C119.656 30.0488 119.161 30.1318 118.638 30.1318C118.042 30.1318 117.322 30.022 116.478 29.8022Z" fill="black"/>
<path d="M137.214 23.5893C137.381 23.4223 137.607 23.3285 137.844 23.3285C138.08 23.3285 138.306 23.4223 138.473 23.5893L143.187 28.3034L147.901 23.5893C147.984 23.5042 148.082 23.4364 148.19 23.3897C148.299 23.343 148.416 23.3184 148.534 23.3174C148.653 23.3164 148.77 23.3389 148.879 23.3837C148.989 23.4285 149.088 23.4946 149.172 23.5782C149.255 23.6619 149.322 23.7613 149.366 23.8708C149.411 23.9802 149.434 24.0975 149.433 24.2157C149.432 24.334 149.407 24.4509 149.36 24.5595C149.314 24.6682 149.246 24.7665 149.161 24.8486L143.817 30.1924C143.65 30.3593 143.423 30.4531 143.187 30.4531C142.951 30.4531 142.725 30.3593 142.558 30.1924L137.214 24.8486C137.047 24.6816 136.953 24.4551 136.953 24.219C136.953 23.9828 137.047 23.7563 137.214 23.5893Z" fill="black"/>
</g>
<defs>
<filter id="filter0_d" x="0" y="0" width="172.571" height="56" filterUnits="userSpaceOnUse" color-interpolation-filters="sRGB">
<feFlood flood-opacity="0" result="BackgroundImageFix"/>
<feColorMatrix in="SourceAlpha" type="matrix" values="0 0 0 0 0 0 0 0 0 0 0 0 0 0 0 0 0 0 127 0" result="hardAlpha"/>
<feOffset dy="2"/>
<feGaussianBlur stdDeviation="2"/>
<feColorMatrix type="matrix" values="0 0 0 0 0 0 0 0 0 0 0 0 0 0 0 0 0 0 0.25 0"/>
<feBlend mode="normal" in2="BackgroundImageFix" result="effect1_dropShadow"/>
<feBlend mode="normal" in="SourceGraphic" in2="effect1_dropShadow" result="shape"/>
</filter>
</defs>
</svg>
