<svg width="160" height="56" viewBox="0 0 160 56" fill="none" xmlns="http://www.w3.org/2000/svg">
<g filter="url(#filter0_d)">
<rect x="4.14282" y="2" width="151.571" height="48" rx="8.71" fill="white"/>
<path d="M26.2419 19.9951V21.2256H22.3601V24.2065H26.0955V25.4224H22.3601V30H20.9319V19.9951H26.2419ZM29.3108 19.4092V20.9106H27.824V19.4092H29.3108ZM29.2815 22.6685V30H27.9119V22.6685H29.2815ZM32.7239 19.1968V30H31.3542V19.1968H32.7239ZM36.7668 20.5518V22.6978H38.7151V23.7598H36.7668V26.6382C36.7668 27.2974 36.7961 27.7783 36.8547 28.0811C36.8987 28.3447 37.0183 28.5547 37.2136 28.7109C37.4138 28.8623 37.6677 28.938 37.9753 28.938C38.2585 28.938 38.554 28.8623 38.8616 28.7109V29.8828C38.4319 30.0195 38.012 30.0879 37.6018 30.0879C36.967 30.0879 36.4885 29.9585 36.1663 29.6997C35.844 29.4409 35.6365 29.1016 35.5437 28.6816C35.4558 28.2617 35.4119 27.7173 35.4119 27.0483V23.7598H33.72V22.6978H35.4119V21.0132L36.7668 20.5518ZM41.22 26.6821C41.3176 27.4097 41.5837 27.9858 42.0183 28.4106C42.4578 28.8306 43.0071 29.0405 43.6663 29.0405C44.0569 29.0405 44.4377 28.9844 44.8088 28.8721C45.1799 28.7598 45.5632 28.5864 45.9587 28.3521V29.6558C45.5144 29.8511 45.1116 29.9902 44.7502 30.0732C44.3889 30.1562 44.0081 30.1978 43.6077 30.1978C43.0413 30.1978 42.5261 30.105 42.0623 29.9194C41.5984 29.7339 41.2029 29.4678 40.8757 29.1211C40.5486 28.7744 40.2971 28.3569 40.1213 27.8687C39.9456 27.3755 39.8577 26.8359 39.8577 26.25C39.8577 25.5029 39.9993 24.8438 40.2825 24.2725C40.5657 23.7012 40.9709 23.2593 41.4983 22.9468C42.0305 22.6294 42.6335 22.4707 43.3074 22.4707C44.0984 22.4707 44.7283 22.666 45.197 23.0566C45.6707 23.4424 46.0051 23.9526 46.2004 24.5874C46.4006 25.2222 46.5007 25.9204 46.5007 26.6821H41.22ZM41.2346 25.6201H45.1384C45.0896 25.2197 44.9968 24.8682 44.8601 24.5654C44.7234 24.2578 44.5208 24.0112 44.2522 23.8257C43.9836 23.6401 43.6541 23.5474 43.2634 23.5474C42.7263 23.5474 42.2771 23.7329 41.9158 24.104C41.5593 24.4702 41.3323 24.9756 41.2346 25.6201ZM48.156 22.6685H49.4158L49.4817 23.9722C49.7014 23.5132 49.9871 23.1665 50.3386 22.9321C50.6951 22.6929 51.1077 22.5732 51.5764 22.5732C51.8206 22.5732 52.0671 22.605 52.3162 22.6685V23.9136C52.0818 23.8306 51.8669 23.7891 51.6716 23.7891C51.198 23.7891 50.8049 23.9282 50.4924 24.2065C50.1799 24.48 49.9529 24.8315 49.8113 25.2612C49.6697 25.686 49.5989 26.1304 49.5989 26.5942V27.1216V30H48.2512V25.5322C48.2512 24.8096 48.2195 23.855 48.156 22.6685ZM57.2966 22.8442L57.1941 23.9868C56.7156 23.7476 56.22 23.6279 55.7073 23.6279C55.3313 23.6279 55.031 23.7134 54.8064 23.8843C54.5867 24.0503 54.4768 24.27 54.4768 24.5435C54.4768 24.8267 54.5867 25.0439 54.8064 25.1953C55.0261 25.3467 55.4167 25.564 55.9783 25.8472C56.5447 26.1255 56.9744 26.4136 57.2673 26.7114C57.5603 27.0093 57.7068 27.4048 57.7068 27.8979C57.7068 28.23 57.6433 28.5352 57.5164 28.8135C57.3943 29.0869 57.2136 29.3237 56.9744 29.5239C56.7351 29.7192 56.447 29.8706 56.1101 29.978C55.7781 30.0806 55.4192 30.1318 55.0334 30.1318C54.3596 30.1318 53.7249 29.9927 53.1292 29.7144V28.4985C53.4807 28.6694 53.7908 28.7939 54.0593 28.8721C54.3279 28.9453 54.5916 28.9819 54.8503 28.9819C55.1189 28.9819 55.3606 28.9404 55.5754 28.8574C55.7903 28.7744 55.9587 28.6597 56.0808 28.5132C56.2029 28.3667 56.2639 28.2031 56.2639 28.0225C56.2639 27.7441 56.1467 27.5269 55.9124 27.3706C55.6829 27.2144 55.2898 26.9922 54.7332 26.7041C54.1814 26.416 53.7615 26.123 53.4734 25.8252C53.1853 25.5225 53.0413 25.1392 53.0413 24.6753C53.0413 24.2505 53.1462 23.877 53.3562 23.5547C53.5662 23.2324 53.864 22.9834 54.2498 22.8076C54.6404 22.6318 55.0872 22.5439 55.5901 22.5439C56.1321 22.5439 56.7009 22.644 57.2966 22.8442ZM60.988 22.6685V24.2725H59.384V22.6685H60.988ZM60.988 28.396V30H59.384V28.396H60.988Z" fill="black"/>
<path d="M82.0764 30H79.6448L76.3635 23.9575C76.1536 23.5767 75.8777 22.9858 75.5359 22.1851C75.6873 23.2251 75.7629 24.0845 75.7629 24.7632V30H73.844V19.9951H76.2244L79.5862 26.0522C79.7034 26.2671 79.7791 26.4209 79.8132 26.5137C79.8523 26.6064 79.9231 26.7822 80.0256 27.041C80.1282 27.2998 80.2332 27.561 80.3406 27.8247C80.2185 27.1265 80.1575 26.311 80.1575 25.3784V19.9951H82.0764V30ZM91.5247 26.3525C91.5247 26.9238 91.4319 27.4487 91.2463 27.9272C91.0608 28.4009 90.7971 28.8062 90.4553 29.1431C90.1184 29.4751 89.7131 29.7339 89.2395 29.9194C88.7659 30.105 88.2385 30.1978 87.6575 30.1978C86.8909 30.1978 86.217 30.0317 85.636 29.6997C85.0549 29.3677 84.6057 28.8989 84.2883 28.2935C83.9758 27.688 83.8196 27.0068 83.8196 26.25C83.8196 25.4932 83.9807 24.8218 84.303 24.2358C84.6252 23.6499 85.0769 23.1958 85.658 22.8735C86.2439 22.5464 86.9153 22.3828 87.6721 22.3828C88.2581 22.3828 88.7878 22.4805 89.2615 22.6758C89.74 22.8711 90.1477 23.1494 90.4846 23.5107C90.8215 23.8672 91.0779 24.2871 91.2537 24.7705C91.4343 25.2539 91.5247 25.7812 91.5247 26.3525ZM89.5325 26.3086C89.5325 25.9082 89.4666 25.5151 89.3347 25.1294C89.2078 24.7437 89.0027 24.4263 88.7195 24.1772C88.4363 23.9282 88.0872 23.8037 87.6721 23.8037C87.2766 23.8037 86.9348 23.9258 86.6467 24.1699C86.3635 24.4141 86.1536 24.7266 86.0168 25.1074C85.8801 25.4834 85.8118 25.8643 85.8118 26.25C85.8118 26.665 85.8752 27.0654 86.0022 27.4512C86.134 27.8369 86.3416 28.1543 86.6248 28.4033C86.908 28.6475 87.2668 28.7695 87.7014 28.7695C88.009 28.7695 88.28 28.6963 88.5144 28.5498C88.7488 28.3984 88.9392 28.208 89.0857 27.9785C89.2322 27.7441 89.342 27.4829 89.4153 27.1948C89.4934 26.9019 89.5325 26.6064 89.5325 26.3086ZM94.8718 22.5732L94.9158 23.7598C95.5115 22.8906 96.3464 22.4561 97.4207 22.4561C98.4167 22.4561 99.0881 22.7515 99.4348 23.3423C99.7815 23.9282 99.9548 24.7534 99.9548 25.8179V30H98.0359V26.2646C98.0359 25.6055 97.9504 25.0708 97.7795 24.6606C97.6135 24.2505 97.2498 24.0454 96.6882 24.0454C96.0876 24.0454 95.6653 24.2871 95.4211 24.7705C95.177 25.249 95.0549 25.8179 95.0549 26.4771V30H93.1287V25.2759C93.1287 24.2261 93.1042 23.3252 93.0554 22.5732H94.8718ZM107.799 28.0225L107.828 29.6851C107.042 30.0269 106.193 30.1978 105.28 30.1978C104.669 30.1978 104.125 30.1123 103.646 29.9414C103.173 29.7656 102.767 29.5093 102.43 29.1724C102.094 28.8306 101.837 28.4204 101.661 27.9419C101.486 27.4585 101.398 26.9092 101.398 26.2939C101.398 25.7275 101.478 25.2075 101.639 24.7339C101.805 24.2554 102.042 23.8428 102.35 23.4961C102.657 23.1445 103.036 22.8711 103.485 22.6758C103.939 22.4805 104.452 22.3828 105.023 22.3828C105.58 22.3828 106.071 22.4829 106.495 22.6831C106.92 22.8833 107.264 23.1592 107.528 23.5107C107.797 23.8623 107.997 24.27 108.129 24.7339C108.26 25.1929 108.326 25.6982 108.326 26.25C108.326 26.3477 108.324 26.4209 108.319 26.4697C108.314 26.5186 108.309 26.5796 108.304 26.6528C108.3 26.7261 108.292 26.8115 108.282 26.9092H103.287C103.336 27.4951 103.563 27.9517 103.969 28.2788C104.379 28.606 104.886 28.7695 105.492 28.7695C106.176 28.7695 106.945 28.5205 107.799 28.0225ZM106.495 25.5762C106.486 25.2441 106.425 24.939 106.312 24.6606C106.205 24.3823 106.036 24.1577 105.807 23.9868C105.582 23.8159 105.302 23.7305 104.965 23.7305C104.618 23.7305 104.32 23.8159 104.071 23.9868C103.827 24.1528 103.636 24.375 103.5 24.6533C103.368 24.9316 103.287 25.2393 103.258 25.5762H106.495Z" fill="black"/>
<path d="M124.357 23.5893C124.524 23.4223 124.75 23.3285 124.986 23.3285C125.223 23.3285 125.449 23.4223 125.616 23.5893L130.33 28.3034L135.044 23.5893C135.126 23.5042 135.225 23.4364 135.333 23.3897C135.442 23.343 135.559 23.3184 135.677 23.3174C135.795 23.3164 135.913 23.3389 136.022 23.3837C136.132 23.4285 136.231 23.4946 136.315 23.5782C136.398 23.6619 136.464 23.7613 136.509 23.8708C136.554 23.9802 136.576 24.0975 136.575 24.2157C136.574 24.334 136.55 24.4509 136.503 24.5595C136.456 24.6682 136.389 24.7665 136.304 24.8486L130.96 30.1924C130.793 30.3593 130.566 30.4531 130.33 30.4531C130.094 30.4531 129.867 30.3593 129.7 30.1924L124.357 24.8486C124.19 24.6816 124.096 24.4551 124.096 24.219C124.096 23.9828 124.19 23.7563 124.357 23.5893Z" fill="black"/>
</g>
<defs>
<filter id="filter0_d" x="0.142822" y="0" width="159.571" height="56" filterUnits="userSpaceOnUse" color-interpolation-filters="sRGB">
<feFlood flood-opacity="0" result="BackgroundImageFix"/>
<feColorMatrix in="SourceAlpha" type="matrix" values="0 0 0 0 0 0 0 0 0 0 0 0 0 0 0 0 0 0 127 0" result="hardAlpha"/>
<feOffset dy="2"/>
<feGaussianBlur stdDeviation="2"/>
<feColorMatrix type="matrix" values="0 0 0 0 0 0 0 0 0 0 0 0 0 0 0 0 0 0 0.25 0"/>
<feBlend mode="normal" in2="BackgroundImageFix" result="effect1_dropShadow"/>
<feBlend mode="normal" in="SourceGraphic" in2="effect1_dropShadow" result="shape"/>
</filter>
</defs>
</svg>
