<svg width="146" height="45" viewBox="0 0 146 45" fill="none" xmlns="http://www.w3.org/2000/svg">
<path d="M21.196 26.5H18.7205L15.2341 16.4951H17.3948L19.5261 22.9331C19.7019 23.4312 19.863 23.9658 20.0095 24.5371C20.1707 23.8926 20.3391 23.3066 20.5149 22.7793L22.5876 16.4951H24.5945L21.196 26.5ZM27.634 26.5H25.7151V19.0732H27.634V26.5ZM27.6633 17.7256H25.6858V15.9092H27.6633V17.7256ZM29.2527 26.3022L29.3406 24.6836C30.0242 25.0352 30.6541 25.2109 31.2302 25.2109C31.5476 25.2109 31.8479 25.1426 32.1311 25.0059C32.4143 24.8691 32.5559 24.6567 32.5559 24.3687C32.5559 24.1196 32.3533 23.9072 31.948 23.7314C31.5427 23.5557 31.135 23.3823 30.7249 23.2114C30.3196 23.0405 29.968 22.8013 29.6702 22.4937C29.3723 22.186 29.2234 21.7563 29.2234 21.2046C29.2234 20.6772 29.3772 20.2451 29.6848 19.9082C29.9973 19.5713 30.3928 19.3271 30.8713 19.1758C31.3499 19.0195 31.8455 18.9414 32.3582 18.9414C32.9001 18.9414 33.5105 19.0366 34.1892 19.2271L34.05 20.6626C33.4543 20.4722 32.9294 20.377 32.4753 20.377C32.1433 20.377 31.8357 20.4331 31.5525 20.5454C31.2693 20.6577 31.1277 20.853 31.1277 21.1313C31.1277 21.3706 31.3206 21.5708 31.7063 21.7319C32.0969 21.8882 32.5046 22.0469 32.9294 22.208C33.3591 22.3643 33.7253 22.6011 34.0281 22.9185C34.3357 23.231 34.4895 23.6802 34.4895 24.2661C34.4895 24.7983 34.3406 25.2427 34.0427 25.5991C33.7498 25.9556 33.3689 26.2168 32.9001 26.3828C32.4314 26.5488 31.9358 26.6318 31.4133 26.6318C30.8176 26.6318 30.0974 26.522 29.2527 26.3022ZM37.9612 26.5H36.0422V19.0732H37.9612V26.5ZM37.9905 17.7256H36.0129V15.9092H37.9905V17.7256ZM44.0623 24.9106L44.1282 26.4121C43.6399 26.5098 43.2078 26.5586 42.8318 26.5586C42.2019 26.5586 41.7039 26.4438 41.3376 26.2144C40.9714 25.98 40.7151 25.6504 40.5686 25.2256C40.4221 24.7959 40.3489 24.271 40.3489 23.6509V20.5454H38.95V19.1172H40.3782V17.6084L42.2971 16.9785V19.1172H43.989V20.5454H42.2971V23.248C42.2971 23.8242 42.3582 24.2637 42.4802 24.5664C42.6072 24.8643 42.9148 25.0132 43.4031 25.0132C43.5837 25.0132 43.8035 24.979 44.0623 24.9106ZM61.3108 19.0732L59.011 26.5H56.7771L55.8469 23.6216C55.637 22.938 55.4783 22.3911 55.3708 21.981C55.2634 21.5659 55.178 21.1069 55.1145 20.604C55.0559 20.936 54.9949 21.2388 54.9314 21.5122C54.8679 21.7808 54.7898 22.0933 54.697 22.4497C54.6042 22.8062 54.5188 23.1406 54.4407 23.4531L53.5105 26.5H51.2986L48.7791 19.0732H50.8079L51.6794 21.7466C52.0798 22.9868 52.3484 24.0708 52.4851 24.9985C52.5632 24.4712 52.6536 23.9829 52.7561 23.5337C52.8635 23.0845 52.9929 22.5986 53.1443 22.0762L54.0305 19.0732H56.2498L57.3044 22.4204C57.6023 23.3286 57.8074 24.1782 57.9197 24.9692C58.032 24.1489 58.22 23.2896 58.4836 22.3911L59.4504 19.0732H61.3108ZM68.408 24.5225L68.4373 26.1851C67.6511 26.5269 66.8015 26.6978 65.8884 26.6978C65.2781 26.6978 64.7336 26.6123 64.2551 26.4414C63.7815 26.2656 63.3762 26.0093 63.0393 25.6724C62.7024 25.3306 62.446 24.9204 62.2703 24.4419C62.0945 23.9585 62.0066 23.4092 62.0066 22.7939C62.0066 22.2275 62.0872 21.7075 62.2483 21.2339C62.4143 20.7554 62.6511 20.3428 62.9587 19.9961C63.2664 19.6445 63.6448 19.3711 64.094 19.1758C64.5481 18.9805 65.0608 18.8828 65.6321 18.8828C66.1887 18.8828 66.6794 18.9829 67.1042 19.1831C67.5291 19.3833 67.8733 19.6592 68.137 20.0107C68.4055 20.3623 68.6057 20.77 68.7375 21.2339C68.8694 21.6929 68.9353 22.1982 68.9353 22.75C68.9353 22.8477 68.9329 22.9209 68.928 22.9697C68.9231 23.0186 68.9182 23.0796 68.9133 23.1528C68.9084 23.2261 68.9011 23.3115 68.8914 23.4092H63.8962C63.9451 23.9951 64.1721 24.4517 64.5774 24.7788C64.9875 25.106 65.4954 25.2695 66.1008 25.2695C66.7844 25.2695 67.5535 25.0205 68.408 24.5225ZM67.1042 22.0762C67.0945 21.7441 67.0334 21.439 66.9211 21.1606C66.8137 20.8823 66.6453 20.6577 66.4158 20.4868C66.1912 20.3159 65.9104 20.2305 65.5735 20.2305C65.2268 20.2305 64.929 20.3159 64.6799 20.4868C64.4358 20.6528 64.2454 20.875 64.1086 21.1533C63.9768 21.4316 63.8962 21.7393 63.8669 22.0762H67.1042ZM72.2532 26.5H70.4514V15.6968H72.3704V19C72.3704 19.5322 72.3459 19.9912 72.2971 20.377C72.551 19.8887 72.8757 19.5273 73.2712 19.293C73.6667 19.0586 74.1477 18.9414 74.7141 18.9414C75.2317 18.9414 75.6785 19.0415 76.0544 19.2417C76.4353 19.437 76.7454 19.708 76.9846 20.0547C77.2239 20.4014 77.4021 20.7944 77.5193 21.2339C77.6365 21.6685 77.6951 22.1348 77.6951 22.6328C77.6951 23.1602 77.6414 23.6606 77.5339 24.1343C77.4265 24.603 77.2556 25.0229 77.0212 25.394C76.7869 25.7603 76.4695 26.0557 76.0691 26.2803C75.6687 26.5049 75.1902 26.6172 74.6335 26.6172C73.5349 26.6172 72.7561 26.1875 72.2971 25.3281L72.2532 26.5ZM75.7029 22.7939C75.7029 22.1982 75.5735 21.6758 75.3147 21.2266C75.0608 20.7725 74.6604 20.5454 74.1135 20.5454C73.5374 20.5454 73.1052 20.7798 72.8171 21.2485C72.5291 21.7173 72.385 22.252 72.385 22.8525C72.385 23.4531 72.5266 23.9805 72.8098 24.4346C73.093 24.8838 73.5178 25.1084 74.0842 25.1084C74.4553 25.1084 74.7605 24.9888 74.9998 24.7495C75.2439 24.5103 75.4221 24.2124 75.5344 23.856C75.6467 23.4946 75.7029 23.1406 75.7029 22.7939ZM78.9109 26.3022L78.9988 24.6836C79.6824 25.0352 80.3123 25.2109 80.8884 25.2109C81.2058 25.2109 81.5061 25.1426 81.7893 25.0059C82.0725 24.8691 82.2141 24.6567 82.2141 24.3687C82.2141 24.1196 82.0115 23.9072 81.6062 23.7314C81.2009 23.5557 80.7932 23.3823 80.3831 23.2114C79.9778 23.0405 79.6262 22.8013 79.3284 22.4937C79.0305 22.186 78.8816 21.7563 78.8816 21.2046C78.8816 20.6772 79.0354 20.2451 79.343 19.9082C79.6555 19.5713 80.051 19.3271 80.5295 19.1758C81.0081 19.0195 81.5037 18.9414 82.0164 18.9414C82.5583 18.9414 83.1687 19.0366 83.8474 19.2271L83.7083 20.6626C83.1125 20.4722 82.5876 20.377 82.1335 20.377C81.8015 20.377 81.4939 20.4331 81.2107 20.5454C80.9275 20.6577 80.7859 20.853 80.7859 21.1313C80.7859 21.3706 80.9788 21.5708 81.3645 21.7319C81.7551 21.8882 82.1628 22.0469 82.5876 22.208C83.0173 22.3643 83.3835 22.6011 83.6863 22.9185C83.9939 23.231 84.1477 23.6802 84.1477 24.2661C84.1477 24.7983 83.9988 25.2427 83.7009 25.5991C83.408 25.9556 83.0271 26.2168 82.5583 26.3828C82.0896 26.5488 81.594 26.6318 81.0715 26.6318C80.4758 26.6318 79.7556 26.522 78.9109 26.3022ZM87.6194 26.5H85.7004V19.0732H87.6194V26.5ZM87.6487 17.7256H85.6711V15.9092H87.6487V17.7256ZM93.7205 24.9106L93.7864 26.4121C93.2981 26.5098 92.866 26.5586 92.49 26.5586C91.8601 26.5586 91.3621 26.4438 90.9958 26.2144C90.6296 25.98 90.3733 25.6504 90.2268 25.2256C90.0803 24.7959 90.0071 24.271 90.0071 23.6509V20.5454H88.6082V19.1172H90.0364V17.6084L91.9553 16.9785V19.1172H93.6472V20.5454H91.9553V23.248C91.9553 23.8242 92.0164 24.2637 92.1384 24.5664C92.2654 24.8643 92.573 25.0132 93.0613 25.0132C93.2419 25.0132 93.4617 24.979 93.7205 24.9106ZM101.074 24.5225L101.103 26.1851C100.317 26.5269 99.4675 26.6978 98.5544 26.6978C97.9441 26.6978 97.3997 26.6123 96.9211 26.4414C96.4475 26.2656 96.0422 26.0093 95.7053 25.6724C95.3684 25.3306 95.1121 24.9204 94.9363 24.4419C94.7605 23.9585 94.6726 23.4092 94.6726 22.7939C94.6726 22.2275 94.7532 21.7075 94.9143 21.2339C95.0803 20.7554 95.3171 20.3428 95.6248 19.9961C95.9324 19.6445 96.3108 19.3711 96.76 19.1758C97.2141 18.9805 97.7268 18.8828 98.2981 18.8828C98.8547 18.8828 99.3455 18.9829 99.7703 19.1831C100.195 19.3833 100.539 19.6592 100.803 20.0107C101.072 20.3623 101.272 20.77 101.404 21.2339C101.535 21.6929 101.601 22.1982 101.601 22.75C101.601 22.8477 101.599 22.9209 101.594 22.9697C101.589 23.0186 101.584 23.0796 101.579 23.1528C101.574 23.2261 101.567 23.3115 101.557 23.4092H96.5623C96.6111 23.9951 96.8381 24.4517 97.2434 24.7788C97.6536 25.106 98.1614 25.2695 98.7668 25.2695C99.4504 25.2695 100.219 25.0205 101.074 24.5225ZM99.7703 22.0762C99.7605 21.7441 99.6995 21.439 99.5872 21.1606C99.4797 20.8823 99.3113 20.6577 99.0818 20.4868C98.8572 20.3159 98.5764 20.2305 98.2395 20.2305C97.8928 20.2305 97.595 20.3159 97.3459 20.4868C97.1018 20.6528 96.9114 20.875 96.7747 21.1533C96.6428 21.4316 96.5623 21.7393 96.533 22.0762H99.7703Z" fill="#424141"/>
<path d="M121.981 15.314C122.182 15.1129 122.455 15 122.739 15C123.023 15 123.296 15.1129 123.497 15.314L129.932 21.7483C130.133 21.9494 130.246 22.2221 130.246 22.5065C130.246 22.7908 130.133 23.0635 129.932 23.2647L123.497 29.699C123.295 29.8943 123.024 30.0024 122.743 30C122.462 29.9975 122.193 29.8847 121.994 29.6859C121.795 29.4871 121.682 29.2181 121.68 28.9369C121.678 28.6558 121.786 28.3849 121.981 28.1826L126.585 23.5789H114.16C113.876 23.5789 113.603 23.4659 113.402 23.2648C113.201 23.0637 113.088 22.7909 113.088 22.5065C113.088 22.2221 113.201 21.9493 113.402 21.7482C113.603 21.5471 113.876 21.4341 114.16 21.4341H126.585L121.981 16.8303C121.78 16.6292 121.667 16.3565 121.667 16.0722C121.667 15.7878 121.78 15.5151 121.981 15.314Z" fill="#424141"/>
</svg>
