<svg width="133" height="44" viewBox="0 0 133 44" fill="none" xmlns="http://www.w3.org/2000/svg">
<path d="M18.4678 26H16.4316V15.9951H19.7129C20.3721 15.9951 20.9702 16.0684 21.5073 16.2148C22.0493 16.3564 22.4863 16.6226 22.8184 17.0132C23.1504 17.3989 23.3164 17.9385 23.3164 18.6318C23.3164 19.2715 23.1357 19.8013 22.7744 20.2212C22.4131 20.6362 21.9175 20.8926 21.2876 20.9902C21.6147 21.1123 21.8589 21.2905 22.02 21.5249C22.1812 21.7593 22.3472 22.0864 22.5181 22.5063L23.9609 26H21.7124L20.6138 23.1655C20.4624 22.7554 20.3037 22.4624 20.1377 22.2866C19.9717 22.106 19.7642 21.9888 19.5151 21.9351C19.271 21.8765 18.9219 21.8472 18.4678 21.8472V26ZM18.4531 20.3018H19.354C19.8765 20.3018 20.3062 20.1919 20.6431 19.9722C20.9849 19.7524 21.1558 19.4009 21.1558 18.9175C21.1558 18.0093 20.6113 17.5552 19.5225 17.5552H18.4531V20.3018ZM31.124 24.0225L31.1533 25.6851C30.3672 26.0269 29.5176 26.1978 28.6045 26.1978C27.9941 26.1978 27.4497 26.1123 26.9712 25.9414C26.4976 25.7656 26.0923 25.5093 25.7554 25.1724C25.4185 24.8306 25.1621 24.4204 24.9863 23.9419C24.8105 23.4585 24.7227 22.9092 24.7227 22.2939C24.7227 21.7275 24.8032 21.2075 24.9644 20.7339C25.1304 20.2554 25.3672 19.8428 25.6748 19.4961C25.9824 19.1445 26.3608 18.8711 26.8101 18.6758C27.2642 18.4805 27.7769 18.3828 28.3481 18.3828C28.9048 18.3828 29.3955 18.4829 29.8203 18.6831C30.2451 18.8833 30.5894 19.1592 30.853 19.5107C31.1216 19.8623 31.3218 20.27 31.4536 20.7339C31.5854 21.1929 31.6514 21.6982 31.6514 22.25C31.6514 22.3477 31.6489 22.4209 31.644 22.4697C31.6392 22.5186 31.6343 22.5796 31.6294 22.6528C31.6245 22.7261 31.6172 22.8115 31.6074 22.9092H26.6123C26.6611 23.4951 26.8882 23.9517 27.2935 24.2788C27.7036 24.606 28.2114 24.7695 28.8169 24.7695C29.5005 24.7695 30.2695 24.5205 31.124 24.0225ZM29.8203 21.5762C29.8105 21.2441 29.7495 20.939 29.6372 20.6606C29.5298 20.3823 29.3613 20.1577 29.1318 19.9868C28.9072 19.8159 28.6265 19.7305 28.2896 19.7305C27.9429 19.7305 27.645 19.8159 27.396 19.9868C27.1519 20.1528 26.9614 20.375 26.8247 20.6533C26.6929 20.9316 26.6123 21.2393 26.583 21.5762H29.8203ZM39.3784 26H37.6646L37.6353 24.8867C37.4058 25.2822 37.0835 25.5874 36.6685 25.8022C36.2583 26.0122 35.8115 26.1172 35.3281 26.1172C34.835 26.1172 34.3931 26.0317 34.0024 25.8608C33.6167 25.6899 33.3115 25.4312 33.0869 25.0845C32.8623 24.7329 32.75 24.3081 32.75 23.8101C32.75 22.8823 33.1138 22.2476 33.8413 21.9058C34.5688 21.564 35.4551 21.3931 36.5 21.3931C36.6514 21.3931 36.749 21.3955 36.793 21.4004C36.8369 21.4004 36.9346 21.4053 37.0859 21.415C37.2373 21.4199 37.3911 21.4272 37.5474 21.437C37.5474 20.8853 37.4131 20.4751 37.1445 20.2065C36.876 19.938 36.4609 19.8037 35.8994 19.8037C35.0498 19.8037 34.2832 20.0747 33.5996 20.6167L33.541 18.9468C34.3369 18.6099 35.1987 18.4414 36.1265 18.4414C36.4731 18.4414 36.8174 18.4756 37.1592 18.5439C37.501 18.6123 37.8159 18.7271 38.104 18.8882C38.397 19.0444 38.6387 19.2544 38.8291 19.5181C39.0244 19.7817 39.1514 20.0845 39.21 20.4263C39.2734 20.7632 39.3052 21.166 39.3052 21.6348C39.3052 22.1182 39.3052 22.604 39.3052 23.0923C39.3101 23.5806 39.3149 24.0273 39.3198 24.4326C39.3296 24.833 39.3491 25.3555 39.3784 26ZM37.5767 22.6235C37.5278 22.6138 37.4521 22.6089 37.3496 22.6089H37.1152C36.6953 22.6089 36.3096 22.6333 35.958 22.6821C35.6113 22.7261 35.3062 22.8433 35.0425 23.0337C34.7837 23.2192 34.6543 23.4927 34.6543 23.854C34.6543 24.147 34.769 24.3813 34.9985 24.5571C35.2329 24.728 35.5039 24.8135 35.8115 24.8135C36.3926 24.8135 36.832 24.5986 37.1299 24.1689C37.4277 23.7393 37.5767 23.2241 37.5767 22.6235ZM48.1089 26H46.2925L46.2632 24.7402C46.0435 25.1846 45.7285 25.5264 45.3184 25.7656C44.9131 26 44.4541 26.1172 43.9414 26.1172C43.4043 26.1172 42.9331 26.0122 42.5278 25.8022C42.1274 25.5874 41.8027 25.2993 41.5537 24.938C41.3047 24.5767 41.1191 24.1665 40.9971 23.7075C40.8799 23.2485 40.8213 22.7676 40.8213 22.2646C40.8213 21.6006 40.9312 20.978 41.1509 20.397C41.3706 19.811 41.71 19.3398 42.1689 18.9834C42.6328 18.6221 43.209 18.4414 43.8975 18.4414C44.415 18.4414 44.8667 18.5562 45.2524 18.7856C45.6382 19.0151 45.9556 19.3545 46.2046 19.8037C46.1558 19.4424 46.1313 19.0029 46.1313 18.4854V15.1968H48.0503V23.8394C48.0601 24.3179 48.0674 24.7378 48.0723 25.0991C48.082 25.4604 48.0942 25.7607 48.1089 26ZM46.1606 22.3379C46.1606 21.9521 46.0996 21.5884 45.9775 21.2466C45.8555 20.8999 45.6626 20.6143 45.3989 20.3896C45.1401 20.1602 44.8179 20.0454 44.4321 20.0454C43.856 20.0454 43.4409 20.2676 43.187 20.7119C42.938 21.1514 42.8135 21.6836 42.8135 22.3086C42.8135 22.8945 42.9526 23.4243 43.231 23.8979C43.5093 24.3716 43.9194 24.6084 44.4614 24.6084C44.8276 24.6084 45.1401 24.4985 45.3989 24.2788C45.6626 24.0542 45.8555 23.771 45.9775 23.4292C46.0996 23.0825 46.1606 22.7188 46.1606 22.3379ZM56.1509 26H54.2319V18.5732H56.1509V26ZM56.1802 17.2256H54.2026V15.4092H56.1802V17.2256ZM59.9155 18.5732L59.9595 19.7598C60.5552 18.8906 61.3901 18.4561 62.4644 18.4561C63.4604 18.4561 64.1318 18.7515 64.4785 19.3423C64.8252 19.9282 64.9985 20.7534 64.9985 21.8179V26H63.0796V22.2646C63.0796 21.6055 62.9941 21.0708 62.8232 20.6606C62.6572 20.2505 62.2935 20.0454 61.7319 20.0454C61.1313 20.0454 60.709 20.2871 60.4648 20.7705C60.2207 21.249 60.0986 21.8179 60.0986 22.4771V26H58.1724V21.2759C58.1724 20.2261 58.1479 19.3252 58.0991 18.5732H59.9155ZM71.0264 24.4106L71.0923 25.9121C70.604 26.0098 70.1719 26.0586 69.7959 26.0586C69.166 26.0586 68.668 25.9438 68.3018 25.7144C67.9355 25.48 67.6792 25.1504 67.5327 24.7256C67.3862 24.2959 67.313 23.771 67.313 23.1509V20.0454H65.9141V18.6172H67.3423V17.1084L69.2612 16.4785V18.6172H70.9531V20.0454H69.2612V22.748C69.2612 23.3242 69.3223 23.7637 69.4443 24.0664C69.5713 24.3643 69.8789 24.5132 70.3672 24.5132C70.5479 24.5132 70.7676 24.479 71.0264 24.4106ZM78.3799 24.0225L78.4092 25.6851C77.623 26.0269 76.7734 26.1978 75.8604 26.1978C75.25 26.1978 74.7056 26.1123 74.2271 25.9414C73.7534 25.7656 73.3481 25.5093 73.0112 25.1724C72.6743 24.8306 72.418 24.4204 72.2422 23.9419C72.0664 23.4585 71.9785 22.9092 71.9785 22.2939C71.9785 21.7275 72.0591 21.2075 72.2202 20.7339C72.3862 20.2554 72.623 19.8428 72.9307 19.4961C73.2383 19.1445 73.6167 18.8711 74.0659 18.6758C74.52 18.4805 75.0327 18.3828 75.604 18.3828C76.1606 18.3828 76.6514 18.4829 77.0762 18.6831C77.501 18.8833 77.8452 19.1592 78.1089 19.5107C78.3774 19.8623 78.5776 20.27 78.7095 20.7339C78.8413 21.1929 78.9072 21.6982 78.9072 22.25C78.9072 22.3477 78.9048 22.4209 78.8999 22.4697C78.895 22.5186 78.8901 22.5796 78.8853 22.6528C78.8804 22.7261 78.873 22.8115 78.8633 22.9092H73.8682C73.917 23.4951 74.144 23.9517 74.5493 24.2788C74.9595 24.606 75.4673 24.7695 76.0728 24.7695C76.7563 24.7695 77.5254 24.5205 78.3799 24.0225ZM77.0762 21.5762C77.0664 21.2441 77.0054 20.939 76.8931 20.6606C76.7856 20.3823 76.6172 20.1577 76.3877 19.9868C76.1631 19.8159 75.8823 19.7305 75.5454 19.7305C75.1987 19.7305 74.9009 19.8159 74.6519 19.9868C74.4077 20.1528 74.2173 20.375 74.0806 20.6533C73.9487 20.9316 73.8682 21.2393 73.8389 21.5762H77.0762ZM82.4155 26H80.4966V20.8071C80.4722 19.5718 80.4526 18.8271 80.438 18.5732H82.1812L82.2251 20.4482C82.3911 19.8623 82.6426 19.3936 82.9795 19.042C83.3213 18.6904 83.7656 18.5146 84.3125 18.5146C84.4785 18.5146 84.6665 18.5391 84.8765 18.5879V20.3896C84.6226 20.3213 84.3979 20.2871 84.2026 20.2871C83.7485 20.2871 83.3872 20.4067 83.1187 20.646C82.8501 20.8853 82.6646 21.1929 82.562 21.5688C82.4644 21.9399 82.4155 22.3477 82.4155 22.792V22.9385V26ZM90.1572 26H88.0112L85.2354 18.5732H87.3374L88.5825 22.1475C88.9097 23.0605 89.1099 23.7954 89.1831 24.3521C89.3003 23.7612 89.4565 23.1851 89.6519 22.6235L90.9849 18.5732H92.9185L90.1572 26ZM95.9507 26H94.0317V18.5732H95.9507V26ZM95.98 17.2256H94.0024V15.4092H95.98V17.2256ZM103.868 24.0225L103.897 25.6851C103.111 26.0269 102.262 26.1978 101.349 26.1978C100.738 26.1978 100.194 26.1123 99.7153 25.9414C99.2417 25.7656 98.8364 25.5093 98.4995 25.1724C98.1626 24.8306 97.9062 24.4204 97.7305 23.9419C97.5547 23.4585 97.4668 22.9092 97.4668 22.2939C97.4668 21.7275 97.5474 21.2075 97.7085 20.7339C97.8745 20.2554 98.1113 19.8428 98.4189 19.4961C98.7266 19.1445 99.105 18.8711 99.5542 18.6758C100.008 18.4805 100.521 18.3828 101.092 18.3828C101.649 18.3828 102.14 18.4829 102.564 18.6831C102.989 18.8833 103.333 19.1592 103.597 19.5107C103.866 19.8623 104.066 20.27 104.198 20.7339C104.33 21.1929 104.396 21.6982 104.396 22.25C104.396 22.3477 104.393 22.4209 104.388 22.4697C104.383 22.5186 104.378 22.5796 104.374 22.6528C104.369 22.7261 104.361 22.8115 104.352 22.9092H99.3564C99.4053 23.4951 99.6323 23.9517 100.038 24.2788C100.448 24.606 100.956 24.7695 101.561 24.7695C102.245 24.7695 103.014 24.5205 103.868 24.0225ZM102.564 21.5762C102.555 21.2441 102.494 20.939 102.381 20.6606C102.274 20.3823 102.105 20.1577 101.876 19.9868C101.651 19.8159 101.371 19.7305 101.034 19.7305C100.687 19.7305 100.389 19.8159 100.14 19.9868C99.896 20.1528 99.7056 20.375 99.5688 20.6533C99.437 20.9316 99.3564 21.2393 99.3271 21.5762H102.564ZM117.616 18.5732L115.316 26H113.082L112.152 23.1216C111.942 22.438 111.783 21.8911 111.676 21.481C111.568 21.0659 111.483 20.6069 111.419 20.104C111.361 20.436 111.3 20.7388 111.236 21.0122C111.173 21.2808 111.095 21.5933 111.002 21.9497C110.909 22.3062 110.824 22.6406 110.746 22.9531L109.815 26H107.604L105.084 18.5732H107.113L107.984 21.2466C108.385 22.4868 108.653 23.5708 108.79 24.4985C108.868 23.9712 108.958 23.4829 109.061 23.0337C109.168 22.5845 109.298 22.0986 109.449 21.5762L110.335 18.5732H112.555L113.609 21.9204C113.907 22.8286 114.112 23.6782 114.225 24.4692C114.337 23.6489 114.525 22.7896 114.789 21.8911L115.755 18.5732H117.616Z" fill="#424141"/>
<path d="M10 1H123V-1H10V1ZM132 10V34H134V10H132ZM123 43H10V45H123V43ZM1 34V10H-1V34H1ZM10 43C5.02944 43 1 38.9706 1 34H-1C-1 40.0751 3.92487 45 10 45V43ZM132 34C132 38.9706 127.971 43 123 43V45C129.075 45 134 40.0751 134 34H132ZM123 1C127.971 1 132 5.02944 132 10H134C134 3.92487 129.075 -1 123 -1V1ZM10 -1C3.92487 -1 -1 3.92487 -1 10H1C1 5.02944 5.02944 1 10 1V-1Z" fill="#F58AE3"/>
</svg>
