<svg width="178" height="43" viewBox="0 0 178 43" fill="none" xmlns="http://www.w3.org/2000/svg">
<g filter="url(#filter0_d)">
<rect x="4.52838" y="2" width="169" height="34.7004" rx="17.3502" fill="#24C7D2"/>
<path d="M38.5176 23.7239L38.707 21.8671C39.5256 22.3117 40.3062 22.534 41.0489 22.534C41.5289 22.534 41.9483 22.4153 42.307 22.1778C42.6708 21.9403 42.8527 21.5917 42.8527 21.1319C42.8527 20.6671 42.6986 20.3361 42.3904 20.1391C42.0872 19.942 41.534 19.6717 40.7306 19.3281C39.9272 18.9795 39.3234 18.5929 38.9192 18.1685C38.5201 17.7391 38.3205 17.1277 38.3205 16.3344C38.3205 15.6725 38.4872 15.1218 38.8207 14.6822C39.1592 14.2376 39.6039 13.9117 40.1546 13.7045C40.7104 13.4923 41.3142 13.3862 41.966 13.3862C42.8401 13.3862 43.6637 13.5226 44.4367 13.7955L44.2624 15.5007C43.5096 15.1571 42.7946 14.9854 42.1176 14.9854C41.6729 14.9854 41.2839 15.0864 40.9504 15.2885C40.622 15.4856 40.4578 15.7988 40.4578 16.2283C40.4578 16.6376 40.5816 16.918 40.8291 17.0696C41.0767 17.2212 41.6376 17.4915 42.5117 17.8805C43.3908 18.2645 44.0376 18.6763 44.4519 19.1159C44.8662 19.5504 45.0734 20.1618 45.0734 20.95C45.0734 21.5109 44.9698 21.9959 44.7626 22.4052C44.5555 22.8144 44.2675 23.153 43.8986 23.4208C43.5348 23.6835 43.1155 23.878 42.6405 24.0043C42.1706 24.1307 41.6704 24.1938 41.1399 24.1938C40.3011 24.1938 39.427 24.0372 38.5176 23.7239ZM55.0534 13.6211H57.0694V19.889C57.0694 20.8338 56.9228 21.6245 56.6298 22.2612C56.3367 22.8978 55.882 23.3803 55.2656 23.7088C54.6491 24.0321 53.8584 24.1938 52.8933 24.1938C51.9232 24.1938 51.1199 24.0397 50.4832 23.7315C49.8517 23.4182 49.3818 22.9408 49.0735 22.2991C48.7653 21.6574 48.6112 20.849 48.6112 19.8738V13.6211H50.703V19.6919C50.703 20.5509 50.8672 21.2405 51.1957 21.761C51.5241 22.2763 52.1001 22.534 52.9237 22.534C53.4896 22.534 53.9291 22.3976 54.2424 22.1248C54.5557 21.8519 54.7679 21.5007 54.879 21.0713C54.9953 20.6367 55.0534 20.1466 55.0534 19.601V13.6211ZM63.1992 20.033V23.9589H61.1074V13.606H63.9496C64.5357 13.606 65.0637 13.6515 65.5336 13.7424C66.0085 13.8334 66.438 14.0102 66.822 14.2729C67.211 14.5508 67.5167 14.9096 67.739 15.3491C67.9614 15.7887 68.0725 16.2586 68.0725 16.7588C68.0725 17.3348 67.9689 17.8351 67.7618 18.2595C67.5546 18.6839 67.2717 19.03 66.9129 19.2978C66.5542 19.5605 66.1323 19.7551 65.6472 19.8814C65.1622 20.0026 64.6468 20.0633 64.1011 20.0633C63.894 20.0633 63.5933 20.0532 63.1992 20.033ZM63.1992 18.4338C63.563 18.4338 63.894 18.4186 64.1921 18.3883C64.4952 18.358 64.7681 18.2923 65.0106 18.1913C65.2531 18.0902 65.4502 17.926 65.6018 17.6986C65.7584 17.4713 65.8367 17.1732 65.8367 16.8043C65.8367 16.3041 65.7104 15.9403 65.4578 15.7129C65.2051 15.4805 64.902 15.339 64.5483 15.2885C64.1997 15.2329 63.75 15.2001 63.1992 15.19V18.4338ZM73.2702 20.033V23.9589H71.1784V13.606H74.0205C74.6066 13.606 75.1346 13.6515 75.6045 13.7424C76.0795 13.8334 76.5089 14.0102 76.8929 14.2729C77.282 14.5508 77.5877 14.9096 77.81 15.3491C78.0323 15.7887 78.1435 16.2586 78.1435 16.7588C78.1435 17.3348 78.0399 17.8351 77.8327 18.2595C77.6256 18.6839 77.3426 19.03 76.9839 19.2978C76.6251 19.5605 76.2032 19.7551 75.7182 19.8814C75.2331 20.0026 74.7178 20.0633 74.1721 20.0633C73.9649 20.0633 73.6643 20.0532 73.2702 20.033ZM73.2702 18.4338C73.634 18.4338 73.9649 18.4186 74.263 18.3883C74.5662 18.358 74.839 18.2923 75.0816 18.1913C75.3241 18.0902 75.5211 17.926 75.6727 17.6986C75.8293 17.4713 75.9077 17.1732 75.9077 16.8043C75.9077 16.3041 75.7813 15.9403 75.5287 15.7129C75.2761 15.4805 74.9729 15.339 74.6192 15.2885C74.2706 15.2329 73.8209 15.2001 73.2702 15.19V18.4338ZM90.8746 18.8506C90.8746 19.8814 90.6725 20.8035 90.2683 21.617C89.8691 22.4304 89.2881 23.0645 88.5251 23.5193C87.7622 23.969 86.8628 24.1938 85.827 24.1938C84.7609 24.1938 83.8439 23.9664 83.0759 23.5117C82.3079 23.057 81.7268 22.4203 81.3327 21.6018C80.9436 20.7782 80.7491 19.8359 80.7491 18.7748C80.7491 17.7138 80.9462 16.7765 81.3403 15.963C81.7344 15.1496 82.3129 14.518 83.0759 14.0683C83.8439 13.6136 84.7609 13.3862 85.827 13.3862C86.6354 13.3862 87.358 13.5201 87.9946 13.7879C88.6312 14.0557 89.1618 14.4346 89.5862 14.9247C90.0106 15.4148 90.3315 15.9908 90.5487 16.6527C90.766 17.3146 90.8746 18.0473 90.8746 18.8506ZM88.654 18.8052C88.654 18.3555 88.5984 17.9058 88.4872 17.4561C88.3761 17.0064 88.2018 16.5946 87.9643 16.2207C87.7319 15.8468 87.4363 15.5487 87.0776 15.3264C86.7188 15.099 86.2969 14.9854 85.8119 14.9854C85.1752 14.9854 84.6422 15.1748 84.2127 15.5538C83.7883 15.9327 83.475 16.4178 83.2729 17.0089C83.0708 17.5951 82.9697 18.1938 82.9697 18.8052C82.9697 19.4165 83.0708 20.0153 83.2729 20.6014C83.475 21.1824 83.7908 21.6599 84.2203 22.0338C84.6548 22.4077 85.1904 22.5946 85.827 22.5946C86.302 22.5946 86.7188 22.4835 87.0776 22.2612C87.4413 22.0389 87.7369 21.7407 87.9643 21.3669C88.1967 20.993 88.3685 20.5837 88.4797 20.1391C88.5959 19.6944 88.654 19.2498 88.654 18.8052ZM96.5346 23.9589H94.4276V13.606H97.823C98.5051 13.606 99.1241 13.6818 99.6799 13.8334C100.241 13.9799 100.693 14.2552 101.037 14.6595C101.38 15.0586 101.552 15.6169 101.552 16.3344C101.552 16.9963 101.365 17.5445 100.991 17.9791C100.617 18.4085 100.104 18.6738 99.4525 18.7748C99.791 18.9012 100.044 19.0856 100.21 19.3281C100.377 19.5706 100.549 19.9092 100.726 20.3437L102.219 23.9589H99.8921L98.7552 21.0258C98.5986 20.6014 98.4344 20.2982 98.2626 20.1163C98.0908 19.9294 97.8761 19.8081 97.6184 19.7525C97.3658 19.6919 97.0045 19.6616 96.5346 19.6616V23.9589ZM96.5194 18.0624H97.4517C97.9923 18.0624 98.4369 17.9487 98.7856 17.7214C99.1392 17.494 99.3161 17.1302 99.3161 16.63C99.3161 15.6902 98.7527 15.2203 97.626 15.2203H96.5194V18.0624ZM109.182 23.9589H107.091V15.3113H104.135V13.606H112.161V15.3113H109.182V23.9589ZM127.43 13.6211H129.446V19.889C129.446 20.8338 129.299 21.6245 129.006 22.2612C128.713 22.8978 128.258 23.3803 127.642 23.7088C127.025 24.0321 126.235 24.1938 125.27 24.1938C124.299 24.1938 123.496 24.0397 122.859 23.7315C122.228 23.4182 121.758 22.9408 121.45 22.2991C121.142 21.6574 120.987 20.849 120.987 19.8738V13.6211H123.079V19.6919C123.079 20.5509 123.243 21.2405 123.572 21.761C123.9 22.2763 124.476 22.534 125.3 22.534C125.866 22.534 126.305 22.3976 126.619 22.1248C126.932 21.8519 127.144 21.5007 127.255 21.0713C127.371 20.6367 127.43 20.1466 127.43 19.601V13.6211ZM133.324 23.7239L133.514 21.8671C134.332 22.3117 135.113 22.534 135.856 22.534C136.336 22.534 136.755 22.4153 137.114 22.1778C137.478 21.9403 137.66 21.5917 137.66 21.1319C137.66 20.6671 137.506 20.3361 137.197 20.1391C136.894 19.942 136.341 19.6717 135.538 19.3281C134.734 18.9795 134.13 18.5929 133.726 18.1685C133.327 17.7391 133.127 17.1277 133.127 16.3344C133.127 15.6725 133.294 15.1218 133.628 14.6822C133.966 14.2376 134.411 13.9117 134.962 13.7045C135.517 13.4923 136.121 13.3862 136.773 13.3862C137.647 13.3862 138.471 13.5226 139.244 13.7955L139.069 15.5007C138.316 15.1571 137.602 14.9854 136.924 14.9854C136.48 14.9854 136.091 15.0864 135.757 15.2885C135.429 15.4856 135.265 15.7988 135.265 16.2283C135.265 16.6376 135.388 16.918 135.636 17.0696C135.884 17.2212 136.444 17.4915 137.319 17.8805C138.198 18.2645 138.844 18.6763 139.259 19.1159C139.673 19.5504 139.88 20.1618 139.88 20.95C139.88 21.5109 139.777 21.9959 139.57 22.4052C139.362 22.8144 139.074 23.153 138.706 23.4208C138.342 23.6835 137.922 23.878 137.447 24.0043C136.978 24.1307 136.477 24.1938 135.947 24.1938C135.108 24.1938 134.234 24.0372 133.324 23.7239Z" fill="black"/>
</g>
<defs>
<filter id="filter0_d" x="0.528381" y="0" width="177" height="42.7004" filterUnits="userSpaceOnUse" color-interpolation-filters="sRGB">
<feFlood flood-opacity="0" result="BackgroundImageFix"/>
<feColorMatrix in="SourceAlpha" type="matrix" values="0 0 0 0 0 0 0 0 0 0 0 0 0 0 0 0 0 0 127 0" result="hardAlpha"/>
<feOffset dy="2"/>
<feGaussianBlur stdDeviation="2"/>
<feColorMatrix type="matrix" values="0 0 0 0 0 0 0 0 0 0 0 0 0 0 0 0 0 0 0.25 0"/>
<feBlend mode="normal" in2="BackgroundImageFix" result="effect1_dropShadow"/>
<feBlend mode="normal" in="SourceGraphic" in2="effect1_dropShadow" result="shape"/>
</filter>
</defs>
</svg>
