<svg width="20" height="20" viewBox="0 0 20 20" fill="none" xmlns="http://www.w3.org/2000/svg">
<path fill-rule="evenodd" clip-rule="evenodd" d="M16.5625 3.125H3.4375C3.35462 3.125 3.27513 3.15792 3.21653 3.21653C3.15792 3.27513 3.125 3.35462 3.125 3.4375V16.5625C3.125 16.735 3.265 16.875 3.4375 16.875H16.5625C16.6454 16.875 16.7249 16.8421 16.7835 16.7835C16.8421 16.7249 16.875 16.6454 16.875 16.5625V3.4375C16.875 3.35462 16.8421 3.27513 16.7835 3.21653C16.7249 3.15792 16.6454 3.125 16.5625 3.125ZM3.4375 1.25H16.5625C17.77 1.25 18.75 2.23 18.75 3.4375V16.5625C18.75 17.1427 18.5195 17.6991 18.1093 18.1093C17.6991 18.5195 17.1427 18.75 16.5625 18.75H3.4375C2.85734 18.75 2.30094 18.5195 1.8907 18.1093C1.48047 17.6991 1.25 17.1427 1.25 16.5625V3.4375C1.25 2.23 2.23 1.25 3.4375 1.25ZM10 5C10.2486 5 10.4871 5.09877 10.6629 5.27459C10.8387 5.4504 10.9375 5.68886 10.9375 5.9375V9.0625H14.0625C14.3111 9.0625 14.5496 9.16127 14.7254 9.33709C14.9012 9.5129 15 9.75136 15 10C15 10.2486 14.9012 10.4871 14.7254 10.6629C14.5496 10.8387 14.3111 10.9375 14.0625 10.9375H10.9375V14.0625C10.9375 14.3111 10.8387 14.5496 10.6629 14.7254C10.4871 14.9012 10.2486 15 10 15C9.75136 15 9.5129 14.9012 9.33709 14.7254C9.16127 14.5496 9.0625 14.3111 9.0625 14.0625V10.9375H5.9375C5.68886 10.9375 5.4504 10.8387 5.27459 10.6629C5.09877 10.4871 5 10.2486 5 10C5 9.75136 5.09877 9.5129 5.27459 9.33709C5.4504 9.16127 5.68886 9.0625 5.9375 9.0625H9.0625V5.9375C9.0625 5.68886 9.16127 5.4504 9.33709 5.27459C9.5129 5.09877 9.75136 5 10 5Z" fill="black"/>
</svg>
