<svg width="22" height="19" viewBox="0 0 22 19" fill="none" xmlns="http://www.w3.org/2000/svg">
<path d="M11.7243 0.740388C11.9743 0.490427 12.3134 0.350006 12.6669 0.350006C13.0205 0.350006 13.3596 0.490427 13.6096 0.740388L21.6096 8.74039C21.8596 8.99043 22 9.3295 22 9.68305C22 10.0366 21.8596 10.3757 21.6096 10.6257L13.6096 18.6257C13.3581 18.8686 13.0213 19.003 12.6717 19C12.3221 18.9969 11.9877 18.8567 11.7405 18.6095C11.4933 18.3623 11.3531 18.0279 11.35 17.6783C11.347 17.3287 11.4814 16.9919 11.7243 16.7404L17.4483 11.0164H2.00026C1.64664 11.0164 1.3075 10.8759 1.05746 10.6259C0.807407 10.3758 0.666931 10.0367 0.666931 9.68305C0.666931 9.32943 0.807407 8.99029 1.05746 8.74025C1.3075 8.4902 1.64664 8.34972 2.00026 8.34972H17.4483L11.7243 2.62572C11.4743 2.37568 11.3339 2.03661 11.3339 1.68305C11.3339 1.3295 11.4743 0.990425 11.7243 0.740388Z" fill="#424141"/>
</svg>
