<svg width="21" height="20" viewBox="0 0 21 20" fill="none" xmlns="http://www.w3.org/2000/svg">
<path d="M16.2187 12.8638C16.0517 13.0308 15.8252 13.1246 15.5891 13.1246C15.3529 13.1246 15.1264 13.0308 14.9594 12.8638L10.2453 8.14977L5.53123 12.8638C5.44907 12.9489 5.3508 13.0168 5.24214 13.0634C5.13348 13.1101 5.01661 13.1347 4.89835 13.1357C4.7801 13.1367 4.66282 13.1142 4.55337 13.0694C4.44391 13.0246 4.34447 12.9585 4.26085 12.8749C4.17722 12.7913 4.11109 12.6918 4.06631 12.5824C4.02153 12.4729 3.99899 12.3556 4.00002 12.2374C4.00105 12.1191 4.02562 12.0023 4.0723 11.8936C4.11897 11.7849 4.18682 11.6867 4.27189 11.6045L9.61564 6.26075C9.78265 6.09378 10.0091 5.99999 10.2453 5.99999C10.4815 5.99999 10.708 6.09378 10.875 6.26075L16.2187 11.6045C16.3857 11.7715 16.4795 11.998 16.4795 12.2342C16.4795 12.4703 16.3857 12.6968 16.2187 12.8638Z" fill="black"/>
</svg>
