<svg width="21" height="20" viewBox="0 0 21 20" fill="none" xmlns="http://www.w3.org/2000/svg">
<path d="M4.26076 6.2719C4.42778 6.10493 4.65427 6.01113 4.89043 6.01113C5.1266 6.01113 5.35309 6.10493 5.52011 6.2719L10.2342 10.986L14.9483 6.2719C15.0304 6.18683 15.1287 6.11898 15.2374 6.07231C15.346 6.02563 15.4629 6.00106 15.5811 6.00003C15.6994 5.99901 15.8167 6.02154 15.9261 6.06632C16.0356 6.1111 16.135 6.17724 16.2186 6.26086C16.3023 6.34448 16.3684 6.44392 16.4132 6.55338C16.458 6.66283 16.4805 6.78011 16.4795 6.89836C16.4784 7.01662 16.4539 7.13349 16.4072 7.24215C16.3605 7.35081 16.2927 7.44908 16.2076 7.53124L10.8639 12.875C10.6968 13.042 10.4703 13.1358 10.2342 13.1358C9.99802 13.1358 9.77153 13.042 9.60451 12.875L4.26076 7.53124C4.0938 7.36422 4 7.13773 4 6.90157C4 6.66541 4.0938 6.43891 4.26076 6.2719Z" fill="black"/>
</svg>
