<svg width="20" height="20" viewBox="0 0 20 20" fill="none" xmlns="http://www.w3.org/2000/svg">
<path d="M9.99996 3.33329C8.23185 3.33329 6.53616 4.03567 5.28591 5.28591C4.03567 6.53616 3.33329 8.23185 3.33329 9.99996C3.33329 11.7681 4.03567 13.4638 5.28591 14.714C6.53616 15.9642 8.23185 16.6666 9.99996 16.6666C11.7681 16.6666 13.4638 15.9642 14.714 14.714C15.9642 13.4638 16.6666 11.7681 16.6666 9.99996C16.6666 8.23185 15.9642 6.53616 14.714 5.28591C13.4638 4.03567 11.7681 3.33329 9.99996 3.33329ZM1.66663 9.99996C1.66663 5.39746 5.39746 1.66663 9.99996 1.66663C14.6025 1.66663 18.3333 5.39746 18.3333 9.99996C18.3333 14.6025 14.6025 18.3333 9.99996 18.3333C5.39746 18.3333 1.66663 14.6025 1.66663 9.99996ZM9.99996 4.99996C10.221 4.99996 10.4329 5.08776 10.5892 5.24404C10.7455 5.40032 10.8333 5.61228 10.8333 5.83329V9.65496L13.0891 11.9108C13.2409 12.068 13.3249 12.2785 13.323 12.497C13.3211 12.7155 13.2335 12.9245 13.079 13.079C12.9245 13.2335 12.7155 13.3211 12.497 13.323C12.2785 13.3249 12.068 13.2409 11.9108 13.0891L9.41079 10.5891C9.2545 10.4329 9.16667 10.221 9.16663 9.99996V5.83329C9.16663 5.61228 9.25442 5.40032 9.4107 5.24404C9.56698 5.08776 9.77895 4.99996 9.99996 4.99996Z" fill="black"/>
</svg>
