<svg width="21" height="21" viewBox="0 0 21 21" fill="none" xmlns="http://www.w3.org/2000/svg">
<path d="M17.1666 4.66665C17.1666 4.44563 17.0788 4.23367 16.9225 4.07739C16.7662 3.92111 16.5543 3.83331 16.3333 3.83331H12.1666C11.9456 3.83331 11.7336 3.92111 11.5773 4.07739C11.4211 4.23367 11.3333 4.44563 11.3333 4.66665C11.3333 4.88766 11.4211 5.09962 11.5773 5.2559C11.7336 5.41218 11.9456 5.49998 12.1666 5.49998H14.3083L11.5749 8.24165C11.4968 8.31912 11.4348 8.41128 11.3925 8.51283C11.3502 8.61438 11.3284 8.7233 11.3284 8.83331C11.3284 8.94332 11.3502 9.05224 11.3925 9.15379C11.4348 9.25534 11.4968 9.34751 11.5749 9.42498C11.6524 9.50309 11.7446 9.56508 11.8461 9.60739C11.9477 9.6497 12.0566 9.67148 12.1666 9.67148C12.2766 9.67148 12.3855 9.6497 12.4871 9.60739C12.5886 9.56508 12.6808 9.50309 12.7583 9.42498L15.4999 6.68331V8.83331C15.4999 9.05433 15.5877 9.26629 15.744 9.42257C15.9003 9.57885 16.1122 9.66665 16.3333 9.66665C16.5543 9.66665 16.7662 9.57885 16.9225 9.42257C17.0788 9.26629 17.1666 9.05433 17.1666 8.83331V4.66665ZM9.42492 11.575C9.34745 11.4969 9.25528 11.4349 9.15373 11.3926C9.05218 11.3503 8.94326 11.3285 8.83325 11.3285C8.72324 11.3285 8.61432 11.3503 8.51277 11.3926C8.41122 11.4349 8.31906 11.4969 8.24159 11.575L5.49992 14.3083V12.1666C5.49992 11.9456 5.41212 11.7337 5.25584 11.5774C5.09956 11.4211 4.8876 11.3333 4.66659 11.3333C4.44557 11.3333 4.23361 11.4211 4.07733 11.5774C3.92105 11.7337 3.83325 11.9456 3.83325 12.1666V16.3333C3.83325 16.5543 3.92105 16.7663 4.07733 16.9226C4.23361 17.0788 4.44557 17.1666 4.66659 17.1666H8.83325C9.05427 17.1666 9.26623 17.0788 9.42251 16.9226C9.57879 16.7663 9.66659 16.5543 9.66659 16.3333C9.66659 16.1123 9.57879 15.9003 9.42251 15.7441C9.26623 15.5878 9.05427 15.5 8.83325 15.5H6.68325L9.42492 12.7583C9.50303 12.6808 9.56502 12.5887 9.60733 12.4871C9.64964 12.3856 9.67142 12.2767 9.67142 12.1666C9.67142 12.0566 9.64964 11.9477 9.60733 11.8462C9.56502 11.7446 9.50303 11.6524 9.42492 11.575Z" fill="black"/>
</svg>
