<svg width="22" height="22" viewBox="0 0 22 22" fill="none" xmlns="http://www.w3.org/2000/svg">
<path d="M10.8167 9.99167C8.73584 9.45083 8.06667 8.89167 8.06667 8.02083C8.06667 7.02167 8.9925 6.325 10.5417 6.325C12.1733 6.325 12.7783 7.10417 12.8333 8.25H14.8592C14.795 6.67333 13.8325 5.225 11.9167 4.7575V2.75H9.16667V4.73C7.38833 5.115 5.95833 6.27 5.95833 8.03917C5.95833 10.1567 7.70917 11.2108 10.2667 11.825C12.5583 12.375 13.0167 13.1817 13.0167 14.0342C13.0167 14.6667 12.5675 15.675 10.5417 15.675C8.65333 15.675 7.91084 14.8317 7.81 13.75H5.79333C5.90333 15.7575 7.40667 16.885 9.16667 17.2608V19.25H11.9167V17.2792C13.7042 16.94 15.125 15.9042 15.125 14.025C15.125 11.4217 12.8975 10.5325 10.8167 9.99167Z" fill="black"/>
</svg>
