<svg width="16" height="17" viewBox="0 0 16 17" fill="none" xmlns="http://www.w3.org/2000/svg">
<path d="M7.99995 1.62222C7.13947 1.62222 6.31423 1.96405 5.70578 2.5725C5.09733 3.18095 4.75551 4.00619 4.75551 4.86667C4.75551 5.72715 5.09733 6.55238 5.70578 7.16084C6.31423 7.76929 7.13947 8.11111 7.99995 8.11111C8.86043 8.11111 9.68567 7.76929 10.2941 7.16084C10.9026 6.55238 11.2444 5.72715 11.2444 4.86667C11.2444 4.00619 10.9026 3.18095 10.2941 2.5725C9.68567 1.96405 8.86043 1.62222 7.99995 1.62222ZM3.13328 4.86667C3.13328 3.57595 3.64602 2.33809 4.5587 1.42541C5.47138 0.512737 6.70923 0 7.99995 0C9.29067 0 10.5285 0.512737 11.4412 1.42541C12.3539 2.33809 12.8666 3.57595 12.8666 4.86667C12.8666 6.15739 12.3539 7.39524 11.4412 8.30792C10.5285 9.2206 9.29067 9.73333 7.99995 9.73333C6.70923 9.73333 5.47138 9.2206 4.5587 8.30792C3.64602 7.39524 3.13328 6.15739 3.13328 4.86667ZM4.75551 12.9778C4.11015 12.9778 3.49122 13.2341 3.03488 13.6905C2.57854 14.1468 2.32217 14.7658 2.32217 15.4111C2.32217 15.6262 2.23672 15.8325 2.0846 15.9847C1.93249 16.1368 1.72618 16.2222 1.51106 16.2222C1.29594 16.2222 1.08963 16.1368 0.93752 15.9847C0.785407 15.8325 0.699951 15.6262 0.699951 15.4111C0.699951 14.3355 1.12723 13.304 1.8878 12.5434C2.64836 11.7828 3.67991 11.3556 4.75551 11.3556H11.2444C12.32 11.3556 13.3515 11.7828 14.1121 12.5434C14.8727 13.304 15.3 14.3355 15.3 15.4111C15.3 15.6262 15.2145 15.8325 15.0624 15.9847C14.9103 16.1368 14.704 16.2222 14.4888 16.2222C14.2737 16.2222 14.0674 16.1368 13.9153 15.9847C13.7632 15.8325 13.6777 15.6262 13.6777 15.4111C13.6777 14.7658 13.4214 14.1468 12.965 13.6905C12.5087 13.2341 11.8898 12.9778 11.2444 12.9778H4.75551Z" fill="black"/>
</svg>
