<svg width="100" height="100" viewBox="0 0 100 100" fill="none" xmlns="http://www.w3.org/2000/svg">
<path d="M41.8594 65.3984C41.9158 65.4582 41.9735 65.5188 42.0236 65.5832C42.0789 65.6543 42.0972 65.7526 42.1597 65.8241C42.2551 65.9331 42.2867 66.0627 42.3552 66.1859C42.4323 66.3247 42.4628 66.4972 42.5356 66.6429C42.5787 66.729 42.6277 66.8121 42.6717 66.8957C42.7194 66.9863 42.8102 67.081 42.8467 67.1722C42.8762 67.2458 42.9297 67.3127 42.9472 67.3915C42.9622 67.4589 42.9835 67.5658 43.0163 67.6248C43.0893 67.7563 43.0649 67.9217 43.0649 68.0721C43.0649 68.1466 43.0649 68.2211 43.0649 68.2957C43.0649 68.3029 43.0674 68.1901 43.0606 68.1596C43.045 68.0891 43.0107 68.0178 43.0066 67.9457C42.998 67.7946 42.9432 67.6271 42.9051 67.479C42.8769 67.3696 42.8599 67.2515 42.8165 67.1485C42.7885 67.0819 42.7927 66.9598 42.7927 66.8859C42.7927 66.8471 42.7927 66.8082 42.7927 66.7693C42.7927 66.7236 42.8155 66.8532 42.8219 66.8762C42.9029 67.1678 43.1098 67.4516 43.2702 67.7037C43.3847 67.8836 43.4324 68.1093 43.5359 68.2957C43.5835 68.3812 43.6328 68.4696 43.6872 68.5528C43.7056 68.581 43.7284 68.6394 43.7498 68.6608C43.7613 68.6723 43.7039 68.5645 43.6915 68.5485C43.5725 68.3943 43.4348 68.2595 43.3091 68.111C43.1964 67.9778 43.1136 67.8388 42.9882 67.7134C42.9464 67.6715 42.7149 67.505 42.7149 67.6551C42.7149 67.8105 42.7278 67.9243 42.7733 68.0721C42.8063 68.1794 42.8353 68.2922 42.8856 68.3929C42.8912 68.404 42.9209 68.5009 42.9288 68.5009C42.9398 68.5009 42.9145 68.3537 42.9137 68.3497C42.8605 68.0839 42.801 67.8344 42.7149 67.5762C42.666 67.4293 42.5594 67.2475 42.5594 67.0901" stroke="black" stroke-linecap="round"/>
<path d="M51.1133 62.9531C51.3078 63.3206 51.7517 63.5317 51.9182 63.9063C51.9929 64.0743 52.1778 64.2999 52.2995 64.4359C52.4327 64.5848 52.516 64.7653 52.6055 64.9443C52.7548 65.2429 52.8598 65.5275 52.9326 65.8551C53.0041 66.1766 53.1044 66.4831 53.1044 66.8295C53.1044 67.0061 53.1044 67.1826 53.1044 67.3591C53.1044 67.4698 53.1627 67.8158 53.095 67.9004C53.0278 67.9844 53.0197 68.2409 53.0197 68.3547C53.0197 68.4797 52.9761 68.7085 52.9138 68.8207C52.7696 69.0803 52.7949 69.4245 52.5631 69.6562C52.3894 69.8299 52.3079 70.1722 52.0877 70.2823" stroke="black" stroke-linecap="round"/>
<path d="M49.502 69.7743C49.8015 69.2627 49.7807 68.6326 49.5444 68.1009C49.4603 67.9117 49.3634 67.7803 49.2149 67.6466C49.0467 67.4952 48.8932 67.4984 48.6971 67.4113C48.4046 67.2813 48.4005 67.6709 48.4005 67.8467C48.4005 68.1375 48.7825 68.3577 49.0148 68.461C49.1205 68.5079 49.6248 68.8846 49.3537 68.8846C49.0902 68.8846 48.9519 68.614 48.7583 68.5033C48.4711 68.3393 48.2734 67.6994 48.2734 67.4019C48.2734 66.6863 49.1948 67.4519 49.3326 67.762C49.4789 68.0912 49.5827 68.6957 49.2996 68.9788C49.1311 69.1473 49.0918 68.9014 49.0031 68.7905C48.9404 68.7122 48.7818 68.4327 48.7818 68.3339" stroke="black" stroke-linecap="round"/>
<path d="M40.437 66.4263C40.2229 65.9714 40.2675 65.3975 40.2675 64.88C40.2675 64.6005 40.28 64.3579 40.3734 64.0962C40.4592 63.8562 40.4558 63.5008 40.6159 63.3007C40.8889 62.9595 41.0351 62.4848 41.3902 62.2086C41.6281 62.0236 41.8616 61.6579 42.0233 61.4037C42.1867 61.147 42.3855 60.8959 42.5223 60.6223C42.6607 60.3456 42.848 60.098 42.9883 59.8174C43.1328 59.5283 43.2517 59.2449 43.3602 58.9465C43.4703 58.6437 43.5697 58.3412 43.6779 58.038C43.7423 57.8577 43.7949 57.6545 43.8239 57.4661C43.8459 57.323 43.8193 57.1108 43.878 56.9789C43.932 56.8573 43.8687 56.7139 43.9204 56.5976C43.9631 56.5015 43.9957 56.321 43.9957 56.2163C43.9957 55.974 44.1118 55.5583 44.2287 55.3478C44.4988 54.8616 44.5508 54.2681 44.8218 53.7803C44.9677 53.5177 45.0772 53.1395 45.1419 52.8483C45.2018 52.5785 45.3784 52.2982 45.3937 52.0222C45.4058 51.8039 45.5805 51.6124 45.6055 51.3867C45.6371 51.1028 45.7977 50.8291 45.8574 50.5606C45.9635 50.083 46.2548 49.572 46.2834 49.0566C46.3124 48.5338 46.4105 47.9952 46.4105 47.4679C46.4105 46.9531 46.4952 46.4314 46.4952 45.9216C46.4952 45.3543 46.406 44.7892 46.2857 44.2482C46.1687 43.7213 46.086 43.2322 45.8691 42.7442C45.8189 42.6312 45.7919 42.5175 45.7421 42.4053C45.7071 42.3266 45.6881 42.1155 45.6267 42.0664C45.5228 41.9832 45.3514 41.6402 45.3514 41.5156" stroke="black" stroke-linecap="round"/>
<path d="M52.8066 46.3881C52.8066 46.2663 53.026 46.0432 53.1244 45.9645C53.2669 45.8504 53.3698 45.6426 53.5268 45.5502C53.6815 45.4592 53.7923 45.2818 53.9717 45.2419C54.1953 45.1922 54.3994 45.1051 54.6283 45.0724C55.0681 45.0096 55.4693 44.8021 55.8993 44.7782C56.1311 44.7654 56.3502 44.6511 56.596 44.6511C56.8055 44.6511 57.0207 44.5664 57.2362 44.5664C57.9515 44.5664 58.7033 44.5789 59.3732 44.8394C59.7111 44.9708 60.0579 45.0931 60.3994 45.2113C60.7671 45.3386 61.0736 45.6125 61.4397 45.7432C61.7481 45.8534 62.0792 46.1015 62.3388 46.3034C62.6462 46.5425 62.9743 46.7694 63.2496 47.0448C63.5744 47.3695 63.8669 47.7074 64.0758 48.1251" stroke="black" stroke-linecap="round"/>
<path d="M55.9838 46.0078C55.7006 46.291 55.5598 46.9095 55.4731 47.2999C55.3735 47.7478 55.3736 48.1658 55.4731 48.6133C55.6899 49.5892 56.5694 49.9483 57.4854 50.1149C57.9932 50.2072 58.3766 50.3012 58.8646 50.0843C59.3235 49.8803 59.628 49.628 59.9661 49.2699C60.2454 48.9742 60.6785 48.6621 60.7287 48.2108C60.753 47.9915 60.8981 47.7846 60.8981 47.5541C60.8981 47.367 61.0676 47.1754 61.0676 46.9822" stroke="black" stroke-linecap="round"/>
<path d="M58.5695 46.8138C58.5748 46.7282 58.6482 46.6867 58.5271 46.6867C58.4712 46.6867 58.4081 46.7065 58.4 46.7714C58.3779 46.9481 58.3697 46.8917 58.4942 47.0162C58.6847 47.2067 58.9408 46.8119 58.8237 46.6655C58.7616 46.5879 58.5809 46.6056 58.5271 46.5384C58.4227 46.4078 58.3465 46.6872 58.2941 46.729C58.0626 46.9142 58.437 47.1527 58.6119 47.1527" stroke="black" stroke-linecap="round"/>
<path d="M31.5391 45.1172C31.5391 46.0781 31.9384 47.0841 32.6194 47.765C33.0114 48.157 33.4542 48.3703 33.9986 48.5064C34.2739 48.5752 34.5487 48.6335 34.8341 48.6335C35.0437 48.6335 35.3237 48.6829 35.5214 48.6123C35.8496 48.4951 36.25 48.2861 36.4958 48.0404C36.7529 47.7833 37.0942 47.626 37.3431 47.3625C37.544 47.1498 37.7117 46.7995 37.8421 46.5388C37.9338 46.3552 38.1066 45.7522 38.2751 45.6679" stroke="black" stroke-linecap="round"/>
<path d="M35.3099 45.0762C35.1566 45.039 34.9176 44.9689 34.8227 45.1397C34.7808 45.2151 34.6923 45.4718 34.7803 45.5422C34.9802 45.702 35.3397 45.8293 35.4464 45.5328C35.5232 45.3194 35.4821 44.7213 35.1216 44.8243C34.8677 44.8969 34.9128 45.4151 34.7168 45.4151" stroke="black" stroke-linecap="round"/>
<path d="M29.5918 44.6957C29.6223 44.543 30.0408 44.4152 30.1849 44.3992C30.3427 44.3816 30.589 44.2144 30.7027 44.112C30.8622 43.9685 31.1819 44.0034 31.3711 43.9237C31.5313 43.8563 31.9339 43.9288 32.049 43.7849C32.084 43.7411 32.5072 43.6366 32.5785 43.6366C32.7912 43.6366 33.004 43.5942 33.2258 43.5942C33.8309 43.5942 34.4321 43.5037 35.0357 43.5966C35.3573 43.6461 35.7181 43.6555 36.0313 43.7425C36.3422 43.8289 36.7073 43.924 37.0269 43.9732C37.7102 44.0783 38.3772 44.4124 39.0392 44.6016C39.3784 44.6985 39.7118 44.8398 40.0466 44.9593C40.3486 45.0672 40.7559 45.2318 41.0069 45.4371C41.1699 45.5705 41.4461 45.6073 41.5811 45.776C41.6343 45.8425 41.7308 45.9009 41.793 45.9667C41.878 46.0567 41.9297 46.1393 42.0471 46.1785" stroke="black" stroke-linecap="round"/>
<path d="M26.9219 38.468C27.1689 38.3974 27.5184 38.2763 27.708 38.0867C27.7709 38.0238 27.8312 37.9556 27.9175 37.9172C28.0584 37.8546 28.1905 37.6321 28.3293 37.5359C28.4494 37.4528 28.5827 37.4348 28.6918 37.3335C28.806 37.2275 29.0045 37.124 29.1437 37.0511C29.4095 36.9119 29.6419 36.6801 29.9086 36.5616C30.2906 36.3918 30.7295 36.1838 31.0523 35.9327C31.3854 35.6737 31.8575 35.722 32.2599 35.7142C32.6471 35.7068 33.0352 35.7142 33.4226 35.7142C33.7161 35.7142 34.0912 35.7023 34.3781 35.766C35.0596 35.9175 35.7839 35.8518 36.4729 35.9896C36.8983 36.0747 37.3375 36.118 37.7674 36.1897C38.1935 36.2607 38.5972 36.4462 39.0171 36.5192C39.5427 36.6106 40.1313 36.9874 40.5729 37.2818C40.8699 37.4798 42.7075 38.455 42.0674 38.9528C41.8773 39.1007 41.4425 39.2064 41.2178 39.2706C40.8482 39.3762 40.488 39.2442 40.1068 39.2306C39.4735 39.2079 38.7915 38.9845 38.2004 38.7645C37.6065 38.5435 36.9946 38.3642 36.414 38.1102C35.7843 37.8347 35.1683 37.5497 34.5476 37.2394C33.9765 36.9538 33.3499 36.7559 32.7659 36.5004C32.6152 36.4344 32.1471 36.3074 32.3117 36.3074C32.7759 36.3074 33.2401 36.4193 33.7003 36.4768C34.235 36.5437 34.7618 36.768 35.2678 36.9428C35.8129 37.1311 36.3581 37.3305 36.9106 37.4936C38.32 37.9095 39.7582 38.2349 41.1777 38.5504C41.3237 38.5828 41.2115 38.5152 41.1495 38.4656C40.8566 38.2313 40.4273 38.1509 40.088 38.002C39.5515 37.7664 39.0228 37.522 38.4876 37.2841C37.6645 36.9183 36.7393 36.6039 35.828 36.6039C35.7107 36.6039 35.5859 36.6241 35.4796 36.571C35.3398 36.5011 35.7785 36.6627 35.9268 36.7122C36.7307 36.9801 37.555 37.1777 38.3605 37.4512C39.0908 37.6993 39.7835 38.0447 40.5023 38.3174C40.8752 38.4588 41.3483 38.5275 41.6838 38.741C41.8217 38.8288 41.6904 38.7637 41.599 38.7198C41.2105 38.5333 40.7535 38.4653 40.3422 38.3409C39.8986 38.2067 39.4427 38.1127 39.0054 37.9596C38.6526 37.8361 38.3002 37.6951 37.9392 37.5995C37.3644 37.4474 36.7998 37.2024 36.2328 37.0182C35.6365 36.8244 34.9946 36.6407 34.3781 36.5286C33.8666 36.4356 33.3252 36.3129 32.8295 36.1591C32.512 36.0606 32.2287 36.1545 31.9223 36.032C31.601 35.9035 31.0797 35.8413 30.7347 35.8413C30.4384 35.8413 30.1681 35.787 29.9722 36.032C29.7935 36.2553 29.3691 36.1164 29.0731 36.3403C28.8624 36.4997 28.8245 36.7086 28.6377 36.8581C28.5724 36.9103 28.4884 37.0595 28.4047 37.0699C28.2899 37.0843 28.0829 37.2138 27.981 37.2818" stroke="black" stroke-linecap="round"/>
<path d="M52.9766 41.8968C52.9766 40.972 53.5609 40.1478 54.417 39.8421C54.9464 39.653 55.5779 39.6695 56.1304 39.569C56.7042 39.4647 57.3223 39.3549 57.9121 39.3549C58.4087 39.3549 58.9288 39.3125 59.4349 39.3125C59.7722 39.3125 60.1008 39.3364 60.4328 39.3549C60.7747 39.3739 61.107 39.5301 61.4284 39.6279C62.0024 39.8026 62.6084 40.0002 63.1442 40.2681C63.5454 40.4687 63.7863 40.8019 64.0974 41.113C64.4095 41.4251 64.9269 41.6316 65.1448 42.0239C65.3533 42.3992 65.5907 42.8181 65.8979 43.1254C66.0425 43.2699 66.2787 43.4207 66.3639 43.6126C66.4041 43.7028 66.5176 43.9381 66.331 43.7514C66.1172 43.5376 65.8345 43.4144 65.5778 43.2501C65.2827 43.0612 64.9187 42.8172 64.594 42.6923C64.3964 42.6163 64.2515 42.4077 64.055 42.3204C63.8983 42.2508 63.772 42.1142 63.6102 42.0333C63.2261 41.8412 62.692 41.6167 62.2639 41.6002C62.0451 41.5918 61.7801 41.4677 61.5555 41.4331C61.2286 41.3828 60.8948 41.2949 60.5693 41.2283C59.9663 41.105 59.3549 41.0666 58.7382 41.0495C58.1164 41.0322 57.4914 40.9381 56.8765 41.0918C56.4121 41.2079 56.0524 41.5371 55.6244 41.7273C55.286 41.8777 54.9337 42.0481 54.5864 42.1721C54.2466 42.2935 54.0095 42.4052 53.6332 42.4052C53.5154 42.4052 53.2788 42.4546 53.1978 42.3534C53.0551 42.1749 53.4607 41.9787 53.5485 41.918C53.8288 41.7239 54.2001 41.6706 54.5017 41.5155C54.74 41.3929 54.9381 41.189 55.1796 41.0683C55.4121 40.952 55.6448 40.8703 55.8998 40.8047C56.0226 40.7731 56.1679 40.7732 56.281 40.72C56.3257 40.6989 55.9741 40.6682 55.9209 40.6682C55.3276 40.6682 54.7222 40.8171 54.1628 41.0071C54.0876 41.0326 53.6242 41.3171 53.845 41.2189C54.2458 41.0408 54.6537 40.946 55.0713 40.8165C55.4461 40.7001 55.8638 40.5867 56.2481 40.5081C56.7115 40.4134 57.1512 40.4438 57.6179 40.4116C58.2152 40.3704 58.7782 40.4481 59.3737 40.4564C60.4904 40.4719 61.7175 40.5296 62.7959 40.8376C63.0294 40.9044 63.268 40.9647 63.4925 41.0589C63.6584 41.1285 64.1879 41.2189 64.008 41.2189C63.6304 41.2189 63.1887 40.9451 62.8382 40.8282C62.1463 40.5976 61.42 40.4771 60.7294 40.2469C60.2703 40.0939 59.7008 39.9558 59.2137 39.948C58.1156 39.9303 57.0678 40.0122 55.9845 40.1928C55.5335 40.2679 55.0989 40.4207 54.65 40.4987C54.4797 40.5283 54.0159 40.6288 53.918 40.7953C53.7109 41.1473 53.4426 41.5374 53.4426 41.9815" stroke="black" stroke-linecap="round"/>
<path d="M35.5781 77.4661C35.7606 77.4661 35.9096 77.5627 36.0826 77.5723C36.1752 77.5775 36.2904 77.6302 36.3806 77.6579C36.5077 77.697 36.6402 77.7265 36.767 77.7641C36.8844 77.7989 37.0082 77.7963 37.124 77.832C37.2195 77.8613 37.3692 77.891 37.4692 77.891C37.7614 77.891 38.0463 78.0768 38.3394 78.0768C38.4281 78.0768 38.5397 78.0986 38.6256 78.124C38.7592 78.1636 38.9195 78.1311 39.0563 78.1624C39.3152 78.2215 39.6126 78.2096 39.8794 78.2096C40.2254 78.2096 40.5194 78.0896 40.8205 77.9175C40.9438 77.847 41.0618 77.7531 41.1922 77.6785C41.3034 77.615 41.4991 77.4993 41.5787 77.3998C41.6124 77.3576 41.7532 77.2765 41.8044 77.2537C41.9079 77.2077 42.0052 77.0977 42.1097 77.0679C42.2829 77.0184 42.4877 76.8166 42.6274 76.708C42.8109 76.5652 43.0016 76.4287 43.185 76.2861C43.3187 76.1821 43.4702 76.1498 43.6098 76.0722C43.7885 75.9729 43.9679 76.2444 44.0863 76.3628C44.1445 76.421 44.2278 76.5312 44.3002 76.5634C44.3432 76.5825 44.494 76.7317 44.52 76.7758C44.5574 76.8395 44.699 76.9457 44.7648 76.9823C44.8699 77.0407 44.9497 77.138 45.0569 77.1947C45.2355 77.2893 45.3901 77.5105 45.5407 77.6461C45.7957 77.8756 45.9399 78.2917 46.3579 78.0827C46.5387 77.9923 46.6454 77.8186 46.7768 77.6726C46.9251 77.5079 47.0994 77.3619 47.2606 77.2006C47.4552 77.0061 47.6717 76.8321 47.8713 76.6431C47.965 76.5542 48.0976 76.5179 48.1899 76.4306C48.2556 76.3686 48.3846 76.2707 48.4702 76.2463C48.5568 76.2215 48.5886 76.3116 48.6546 76.3923C48.7795 76.545 48.901 76.7169 49.0395 76.8555C49.2631 77.079 49.4697 77.3077 49.6768 77.5443C49.916 77.8177 50.1613 78.1062 50.4468 78.3305C50.7407 78.5615 51.0429 78.7583 51.3628 78.953C52.0067 79.345 52.709 79.6323 53.3659 80.0018C53.7662 80.227 54.1342 80.5086 54.5091 80.7585" stroke="black" stroke-linecap="round"/>
<path d="M57.9074 81.0495C57.6968 81.0646 57.5089 81.1557 57.2967 81.1557C57.1728 81.1557 57.0489 81.1557 56.925 81.1557C56.6658 81.1557 56.3963 81.1348 56.1432 81.1808C55.9751 81.2114 55.7363 81.2088 55.5694 81.2088C55.4393 81.2088 55.2654 81.179 55.1402 81.2147C55.0174 81.2498 54.8479 81.2885 54.7213 81.2885C54.3295 81.2885 53.9367 81.315 53.5397 81.315C53.3165 81.315 53.0929 81.2885 52.8745 81.2885C52.6836 81.2885 52.4868 81.1823 52.3051 81.1823C52.1394 81.1823 51.959 81.1292 51.8006 81.1292C51.5999 81.1292 51.41 80.9967 51.2283 80.9448C50.7856 80.8183 50.3317 80.7435 49.9155 80.5244C49.6157 80.3666 49.2875 80.2264 48.9464 80.2264C48.7947 80.2264 48.6251 80.2011 48.5142 80.312C48.3939 80.4323 48.2133 80.5619 48.0437 80.5996C47.7218 80.6712 47.377 80.7575 47.048 80.7575C46.9639 80.7575 46.8798 80.7575 46.7958 80.7575C46.7706 80.7575 46.595 80.7403 46.576 80.725C46.4507 80.6248 46.2947 80.5358 46.16 80.4256C46.0621 80.3455 45.9424 80.2891 45.8532 80.1999C45.7919 80.1386 45.6838 80.1011 45.6408 80.0258C45.5421 79.8532 45.1725 79.6797 44.977 79.6689C44.7958 79.6588 44.6241 79.6145 44.446 79.6895C44.3592 79.726 44.2352 79.722 44.1406 79.722C44.0049 79.722 43.875 79.7485 43.7409 79.7485C43.4314 79.7485 43.1405 79.7432 42.8396 79.6969C42.5273 79.6488 42.1864 79.5982 41.8705 79.5892C41.6115 79.5818 41.3558 79.4745 41.0946 79.4565C40.7633 79.4336 40.4438 79.31 40.1167 79.2691C40.0085 79.2556 39.9214 79.2014 39.8202 79.1703C39.6797 79.1271 39.53 79.1019 39.388 79.0582C39.2104 79.0036 39.0303 78.9459 38.8496 78.9048C38.6528 78.8601 38.4693 78.7577 38.2714 78.7189C37.9395 78.6539 37.644 78.4155 37.317 78.3428C37.1571 78.3073 37.0194 78.1991 36.8789 78.1289" stroke="black" stroke-linecap="round"/>
<path d="M37.5684 78.3945C37.8923 78.6244 38.3209 78.6888 38.6437 78.9123C38.7872 79.0117 38.9496 79.0852 39.1054 79.163C39.3326 79.2767 39.5475 79.4121 39.7721 79.5303C39.9908 79.6454 40.2186 79.797 40.4506 79.8814C40.6453 79.9522 40.8066 80.0962 40.9994 80.1676C41.1634 80.2283 41.3725 80.3665 41.5097 80.4788C41.6353 80.5815 41.7858 80.6354 41.9021 80.7517C42.1127 80.9623 42.2158 81.2365 42.4272 81.4479C42.6402 81.6609 42.907 81.8568 43.0172 82.1323C43.1273 82.4076 43.4442 82.5941 43.681 82.7489C43.9402 82.9184 44.1909 83.1189 44.4717 83.2593C44.5901 83.3185 44.7719 83.3948 44.8699 83.4805C44.9314 83.5343 45.0064 83.5578 45.0617 83.6192C45.1168 83.6805 45.1773 83.7385 45.2475 83.7844C45.42 83.8972 45.6336 83.8974 45.8243 83.957C46.0737 84.0349 46.3297 84.0859 46.5751 84.1768C46.7717 84.2496 46.9801 84.2933 47.1784 84.3553C47.3717 84.4157 47.6146 84.469 47.8171 84.4747C48.2695 84.4877 48.7195 84.5454 49.1771 84.5278C49.3633 84.5207 49.5604 84.4216 49.742 84.4216C49.91 84.4216 50.1569 84.3752 50.3129 84.3095C51.1383 83.962 51.7609 83.2923 52.3839 82.6693C52.5481 82.505 52.7231 82.3519 52.9031 82.2046C53.0714 82.067 53.2616 81.9917 53.44 81.8727C53.6651 81.7227 53.9396 81.626 54.1495 81.4627C54.3296 81.3226 54.606 81.2405 54.8266 81.209" stroke="black" stroke-linecap="round"/>
<path d="M68.7793 66.4712C69.2132 66.3323 69.7171 66.4864 70.1562 66.3888C70.2299 66.3724 70.3187 66.4084 70.3892 66.3771C70.4606 66.3453 70.5254 66.3062 70.601 66.3017C70.7137 66.2951 70.8462 66.1621 70.9587 66.1299C71.5563 65.9592 71.9561 65.3631 72.4651 65.0637C72.7918 64.8715 73.0677 64.5553 73.3335 64.2894C73.8167 63.8062 74.0914 63.1947 74.4774 62.6372C75.0814 61.7647 75.6042 60.794 76.1296 59.8599C76.639 58.9544 76.8811 57.8941 77.1582 56.8967C77.4242 55.9389 77.8697 55.1052 78.2691 54.2065C78.4412 53.8193 78.6341 53.4482 78.7869 53.0509C78.874 52.8244 79.0184 52.6054 79.1164 52.3848C79.1989 52.1992 79.2836 51.9241 79.4129 51.7705C79.5496 51.6082 79.632 51.3278 79.7283 51.135C79.8343 50.923 79.9326 50.7124 80.039 50.4995C80.2166 50.1443 80.3747 49.7415 80.505 49.3651C80.6777 48.8662 80.912 48.3521 81.1287 47.8705C81.3871 47.2965 81.4656 46.6632 81.5336 46.0512C81.5914 45.5306 81.6583 45.0103 81.6583 44.4837C81.6583 43.9759 81.7088 43.3949 81.5642 42.9068C81.4094 42.3845 81.354 41.8625 81.0887 41.3698C80.8399 40.9078 80.7104 40.4903 80.2838 40.1413C79.8999 39.8271 79.5482 39.5165 79.0952 39.3151C78.5981 39.0942 78.0776 38.9808 77.5701 38.7856C77.1972 38.6422 76.6735 38.6147 76.2779 38.5949C75.8541 38.5737 75.1865 38.4941 74.7951 38.6702C74.3552 38.8682 74.0937 39.1269 73.7572 39.4634C73.4415 39.7791 73.1036 40.1252 72.8275 40.4802C72.5555 40.83 72.173 41.1733 71.9567 41.5605C71.8897 41.6804 71.7681 41.7697 71.6837 41.8782C71.6369 41.9384 71.6054 42.0703 71.5542 42.1112C71.4201 42.2185 71.449 42.4493 71.3542 42.5678C71.1891 42.7741 71.2777 43.1929 71.1188 43.3916C71.0282 43.5049 71.0613 43.7728 71.0223 43.9094C70.9888 44.0265 70.953 44.1611 70.8976 44.2719" stroke="black" stroke-linecap="round"/>
<path d="M68.7891 66.078C68.8916 65.891 68.9057 65.783 68.9057 65.5822C68.9057 65.4393 68.9222 65.3127 68.9435 65.1739C68.9617 65.0555 68.99 64.9309 69.003 64.8141C69.0207 64.654 69.1124 64.4859 69.1542 64.328C69.2169 64.091 69.2847 63.8554 69.3422 63.6172C69.3819 63.4527 69.3866 63.2795 69.4113 63.1127C69.4333 62.9643 69.4769 62.8152 69.488 62.6655C69.5138 62.3167 69.5869 61.9712 69.6349 61.6252C69.6898 61.2302 69.8105 60.8486 69.8402 60.4488C69.8524 60.2835 69.8948 60.1238 69.8974 59.9573C69.9008 59.7458 69.9283 59.5305 69.9514 59.32C69.9725 59.128 69.9715 58.9352 69.9989 58.7431C70.0232 58.5732 70.0467 58.3938 70.053 58.2224C70.0749 57.6189 70.1913 57.0194 70.2269 56.4152C70.2425 56.1499 70.279 55.8805 70.2863 55.6169C70.2932 55.3685 70.3549 55.1257 70.3641 54.878C70.3697 54.7254 70.4166 54.5748 70.4224 54.4221C70.4259 54.3292 70.4386 54.2047 70.4764 54.1196C70.5109 54.0421 70.4745 53.8311 70.5585 53.7891" stroke="black" stroke-linecap="round"/>
<path d="M70.4918 54.577C70.4918 54.0433 70.6368 53.5358 70.6368 53C70.6368 52.4718 70.7094 51.931 70.7094 51.4047C70.7094 50.591 70.7819 49.7842 70.7819 48.9656C70.7819 48.7603 70.7865 48.5544 70.7819 48.3493C70.775 48.0469 70.7743 47.6983 70.7275 47.3986C70.665 46.9989 70.7192 46.5822 70.655 46.184C70.6242 45.9933 70.633 45.7982 70.6086 45.606C70.5835 45.4079 70.5355 45.205 70.5281 45.0057C70.5058 44.4033 70.3493 43.7781 70.2461 43.1849C70.1411 42.5814 70.038 41.9699 69.948 41.3621C69.86 40.7684 69.7786 40.0478 69.4686 39.5232C69.2029 39.0735 68.9956 38.4967 68.6066 38.1354C68.4481 37.9883 68.3246 37.8221 68.1353 37.7004C67.9348 37.5715 67.7333 37.4035 67.5552 37.2452C67.0985 36.8392 66.6181 36.4433 66.1493 36.0508C66.0349 35.955 65.9157 35.8485 65.8129 35.7406C65.6934 35.6151 65.5406 35.5491 65.4161 35.4344C65.1437 35.1836 64.8465 34.9776 64.5823 34.7134C64.2255 34.3566 63.8385 33.8934 63.3496 33.7305" stroke="black" stroke-linecap="round"/>
<path d="M68.75 66.2701C68.2856 66.7926 68.4071 67.8516 68.1282 68.4793C67.8836 69.0295 67.6059 69.9617 67.5718 70.5412C67.4901 71.9305 66.5326 74.436 66.5326 74.436L65.0762 77.8398L64.258 79.7462L63.4807 81.62L62.597 83.6492L61.7951 85.3838L60.9114 87.2984L59.8396 89.0985L58.514 91.0132L57.2949 92.5187L55.6421 93.7788L53.9484 95.2843L50.8555 97.1989L48.6463 97.3462L46.3307 97.2317C46.3307 97.2317 44.658 96.7781 44.3015 96.7571C43.8132 96.7284 42.2723 96.2825 42.2723 96.2825L40.6195 95.3988C40.6195 95.3988 39.9843 95.1804 39.6213 94.957L38.9176 94.4088C38.9176 94.4088 36.6293 92.8577 35.3992 91.6023C34.2648 90.4444 33.7283 89.6895 32.8464 88.3294C31.6164 86.4325 31.063 85.3109 29.9944 83.3186C29.2285 81.8908 28.7848 81.054 28.248 79.5253C27.8966 78.5247 27.6589 76.8743 27.6589 76.8743C27.6589 76.8743 27.2801 75.5168 27.1025 74.6323C27.0245 74.244 26.9225 73.7747 26.9225 73.6341C26.9225 73.3107 26.7752 72.6031 26.7752 72.6031L26.3415 70.4594C26.3415 70.4594 25.4152 66.5939 24.9996 64.7237C24.8303 63.9615 24.6945 63.2583 24.5578 62.5063C24.3966 61.6196 24.3708 60.4552 24.0096 59.6425C23.7592 59.0792 23.6823 57.8716 23.6823 57.2533C23.6823 56.6541 23.4096 56.0769 23.3877 55.4859C23.3686 54.9707 23.3341 54.3669 23.1259 53.8986C22.7579 53.0706 22.7685 51.854 22.5368 50.953C22.2134 49.6955 21.8615 48.3393 21.6286 47.0582C21.3173 45.3464 21.0312 43.8977 21.0312 42.1161C21.0312 40.3968 21.3976 38.958 21.7595 37.3295C22.0899 35.8424 23.0957 34.7764 23.8296 33.4921C24.3491 32.5829 25.2903 31.8131 25.9651 30.9883C26.6663 30.1313 27.4463 29.4263 28.248 28.7137C29.5489 27.5573 31.2425 27.2355 32.8137 26.5372C34.3435 25.8573 35.7394 24.9006 37.3139 24.4507C38.1644 24.2077 39.2975 24.148 40.1859 24.148C41.0673 24.148 42.261 23.7975 43.0496 24.148C44.0895 24.6101 45.1212 25.0792 46.1507 25.5471C47.4252 26.1264 48.6077 26.926 49.8982 27.5354C52.3446 28.6907 54.7586 29.8966 57.254 30.9883C57.8958 31.2691 58.6379 31.3703 59.2423 31.7329C59.9836 32.1777 60.8171 32.6337 61.6069 32.9848C62.3843 33.3303 63.0052 34.0889 63.7425 34.4576" stroke="black" stroke-linecap="round"/>
<path d="M43.419 23.7063C43.1793 22.9572 42.3793 20.3847 43.1981 19.7297C43.3305 19.6238 43.3744 19.1673 43.4517 18.9933C43.6265 18.6001 43.8306 18.1642 44.1226 17.8478C44.5854 17.3466 45.151 16.642 45.4482 16.0477C45.7552 15.4338 46.3248 15.0782 46.6591 14.4931C46.9281 14.0224 47.863 13.0253 48.3529 12.8076C49.5741 12.2648 50.2584 11.1875 51.6667 11.1875" stroke="black" stroke-linecap="round"/>
<path d="M23.9041 60.8432C23.6749 60.356 21.8411 58.826 21.8411 58.826C21.4047 58.4866 20.9575 57.5823 20.9575 57.5823L19.8856 55.0459C19.8856 55.0459 19.3124 52.9779 19.1083 52.0593C18.8559 50.9238 18.6746 48.7455 18.6746 48.7455C18.6746 48.7455 18.5273 46.4367 18.5273 45.2845C18.5273 44.2521 18.6419 41.6761 18.6419 41.6761L18.8137 40.1215L18.8219 38.3623C18.8219 38.3623 19.4177 35.5708 19.7138 34.2384L20.1802 32.7247C20.5421 32.2722 20.4289 31.3828 20.7693 30.9574L21.1784 29.5255C21.1784 28.9068 21.612 27.7581 21.612 27.7581C21.612 27.7581 21.8217 26.4936 22.0948 25.9171C22.2974 25.4894 22.6512 24.4443 22.6512 24.4443C22.6512 24.4443 23.1727 23.2854 23.2403 22.6769L23.7149 21.2369L25.5232 17.7431C25.5232 17.7431 26.6546 15.2459 27.5114 14.282C28.3589 13.3286 29.0315 12.3715 30.0888 11.5491C31.3278 10.5855 32.393 9.41331 33.6236 8.45623C34.0183 8.14925 34.466 7.77571 34.8427 7.47436C35.3402 7.07638 36.0231 6.89882 36.4955 6.47613C37.0933 5.94131 38.0007 5.85365 38.6311 5.36335C38.9457 5.11867 39.8505 4.56149 40.2512 4.56149C41.5274 4.56149 42.9641 3.97237 44.3014 3.97237C44.9381 3.97237 46.0148 3.86671 46.5924 3.60417C47.0803 3.38238 48.1178 3.08869 48.6461 3.08869C49.8113 3.08869 51.1551 2.94141 52.4018 2.94141C53.2364 2.94141 54.071 2.94141 54.9055 2.94141C55.5524 2.94141 56.2446 3.29155 56.8938 3.39143C58.4904 3.63706 60.24 4.40399 61.7132 4.9706C63.0357 5.47928 64.4387 6.25424 65.5097 7.21253C66.1012 7.74173 66.7834 8.0607 67.3425 8.61987C67.7982 9.07557 68.29 9.57739 68.6844 10.0845C69.4231 11.0343 70.0802 12.0006 70.6318 13.1037C71.875 15.5902 73.4816 17.8379 74.7229 20.3205C75.1348 21.1443 75.4179 21.9979 75.8193 22.8242C76.2278 23.6651 76.2338 24.6329 76.5885 25.4753C76.8417 26.0768 76.8503 27.0995 76.8503 27.7499C76.8503 28.4078 76.6046 29.6872 76.9239 30.2619C77.4781 31.2593 76.7331 32.996 76.703 34.0175C76.6646 35.3248 76.2612 36.7237 76.2612 37.9941" stroke="black" stroke-linecap="round"/>
</svg>
