<svg width="33" height="33" viewBox="0 0 33 33" fill="none" xmlns="http://www.w3.org/2000/svg">
<path d="M14.2473 5.37737C12.1212 5.37737 10.0822 6.22196 8.57881 7.72535C7.07542 9.22874 6.23082 11.2678 6.23082 13.3939C6.23082 15.52 7.07542 17.559 8.57881 19.0624C10.0822 20.5658 12.1212 21.4104 14.2473 21.4104C16.3734 21.4104 18.4125 20.5658 19.9159 19.0624C21.4192 17.559 22.2638 15.52 22.2638 13.3939C22.2638 11.2678 21.4192 9.22874 19.9159 7.72535C18.4125 6.22196 16.3734 5.37737 14.2473 5.37737ZM3.55865 13.3939C3.5589 11.6929 3.96512 10.0165 4.74355 8.504C5.52198 6.99154 6.65014 5.68671 8.03428 4.69795C9.41841 3.70919 11.0185 3.06505 12.7017 2.81907C14.3848 2.57309 16.1024 2.73238 17.7116 3.28369C19.3208 3.835 20.7752 4.76241 21.9539 5.98885C23.1326 7.21529 24.0015 8.70533 24.4886 10.3351C24.9756 11.965 25.0666 13.6875 24.754 15.3595C24.4414 17.0316 23.7343 18.6049 22.6914 19.9487L29.8889 27.1462C30.1323 27.3982 30.2669 27.7357 30.2639 28.086C30.2608 28.4363 30.1203 28.7714 29.8726 29.0191C29.6249 29.2669 29.2898 29.4074 28.9395 29.4104C28.5891 29.4135 28.2516 29.2788 27.9997 29.0354L20.8022 21.8379C19.2222 23.0646 17.3297 23.8233 15.3399 24.0278C13.3502 24.2322 11.3429 23.8743 9.54652 22.9946C7.75009 22.1149 6.23656 20.7487 5.17802 19.0515C4.11949 17.3543 3.55843 15.3941 3.55865 13.3939V13.3939Z" fill="black"/>
</svg>
