<svg width="100" height="101" viewBox="0 0 100 101" fill="none" xmlns="http://www.w3.org/2000/svg">
<path d="M41.6831 64.5586C41.6052 64.5878 41.5125 64.6891 41.4663 64.761C41.3974 64.8681 41.2819 64.9533 41.2221 65.0629C41.0535 65.3721 40.8017 65.6389 40.6278 65.948C40.4792 66.2121 40.2888 66.4578 40.1508 66.727C40.0824 66.8604 40.0031 66.9885 39.9195 67.1093C39.8416 67.2217 39.8087 67.377 39.7171 67.4787C39.5534 67.6606 39.4809 67.9425 39.3268 68.1308C39.1845 68.3048 39.1503 68.5618 39.0087 68.7348C38.8392 68.942 38.667 69.2786 38.5606 69.525C38.4951 69.6767 38.4067 69.8015 38.3646 69.9651C38.3399 70.0615 38.3249 70.203 38.2715 70.2832" stroke="black" stroke-linecap="round"/>
<path d="M43.4761 65.1371C43.3704 65.1931 43.2738 65.341 43.2159 65.4423C43.1368 65.5807 43.0104 65.7122 42.8978 65.831C42.6797 66.0613 42.5723 66.3533 42.4208 66.6261C42.1625 67.091 41.9727 67.649 41.9727 68.1873C41.9727 68.7407 42.0721 69.2947 42.4288 69.7406C42.4845 69.8101 42.534 69.9303 42.5798 70.0104C42.6291 70.0966 42.7551 70.2104 42.7806 70.2995C42.8272 70.4628 43.104 70.7095 43.2448 70.7975C43.295 70.8289 43.3309 70.8807 43.3604 70.9324C43.3937 70.9906 43.4953 71.0357 43.5484 71.0769C43.6458 71.1527 43.7401 71.2274 43.8584 71.2729C44.1449 71.3831 44.3882 71.5719 44.6904 71.615C45.2868 71.7002 45.8667 71.6073 46.4251 71.8865C46.5422 71.945 46.7386 72.0169 46.8074 72.1338C46.8539 72.2129 46.996 72.3476 47.0772 72.394C47.1743 72.4495 47.2774 72.5974 47.3567 72.6767C47.4877 72.8077 47.6493 72.9029 47.784 73.0301C47.8793 73.1202 48.0094 73.1942 48.1165 73.2775C48.2387 73.3725 48.3518 73.4773 48.5068 73.5216C48.7074 73.5789 48.9079 73.6534 49.1075 73.7176C49.3385 73.7918 49.5747 73.8088 49.8078 73.8621C50.2496 73.9631 50.7706 73.8975 51.2245 73.8975C51.4292 73.8975 51.7538 73.9386 51.9344 73.8236C52.1158 73.7082 52.2791 73.5921 52.4533 73.4638C52.7909 73.215 53.2221 73.0732 53.531 72.7924C53.6632 72.6722 53.8031 72.5647 53.9551 72.4679C54.0729 72.393 54.239 72.3898 54.3614 72.3218C54.4734 72.2596 54.6603 72.2784 54.7871 72.2784C54.9831 72.2784 55.179 72.2784 55.375 72.2784C55.8558 72.2784 56.2351 72.1792 56.6599 71.9668C57.071 71.7612 57.3442 71.4906 57.643 71.1492C58.0064 70.7339 57.9728 70.0896 57.8807 69.5832C57.8268 69.2866 57.7953 68.9887 57.7297 68.6933C57.675 68.4471 57.5875 68.2104 57.5209 67.9705C57.363 67.4023 56.9325 66.9544 56.6744 66.4382C56.5455 66.1803 56.3609 65.8905 56.1909 65.6575C56.0847 65.5119 56.0109 65.3554 55.9307 65.195C55.8525 65.0386 55.7192 64.9114 55.648 64.7549C55.5029 64.4356 55.3104 64.093 55.1276 63.7927C54.9435 63.4902 54.791 63.1694 54.6072 62.8675C54.221 62.2331 53.9935 61.5772 53.8137 60.8582C53.7312 60.5281 53.6679 60.1349 53.6531 59.7948C53.6372 59.4292 53.5169 59.0624 53.5085 58.6962C53.4946 58.0822 53.3062 57.4777 53.3062 56.8555C53.3062 56.3032 53.2772 55.7468 53.2772 55.1914" stroke="black" stroke-linecap="round"/>
<path d="M53.3047 55.4221C53.3116 55.1953 53.418 54.9008 53.5135 54.6993C53.6347 54.4434 53.7314 54.1768 53.8476 53.9187C54.014 53.5489 54.1363 53.1614 54.3905 52.8345C54.6852 52.4556 55.078 52.1743 55.4153 51.837C55.5758 51.6765 55.8047 51.5386 55.9999 51.4258C56.4558 51.1624 56.9646 50.99 57.4359 50.7544C58.005 50.4699 58.7133 50.6154 59.3184 50.4846C59.9058 50.3576 60.5408 50.3047 61.1398 50.3047C61.3233 50.3047 61.451 50.313 61.6185 50.3609C61.6485 50.3695 61.8594 50.3691 61.8594 50.4059C61.8594 50.4419 61.5977 50.5452 61.5671 50.5649C61.224 50.7854 60.8396 50.963 60.4395 51.05C60.2114 51.0996 59.9794 51.1407 59.7521 51.1945C59.629 51.2237 59.5016 51.2431 59.3762 51.2588C59.2213 51.2781 59.0821 51.3516 58.9281 51.3744C58.8149 51.3912 58.7163 51.4533 58.602 51.4612C58.5682 51.4635 58.4727 51.4775 58.451 51.5045C58.4414 51.5165 58.3505 51.5213 58.3707 51.5415C58.3939 51.5647 58.5053 51.5533 58.5378 51.5624C58.7824 51.6303 59.0939 51.619 59.3473 51.633C59.6157 51.6479 59.8879 51.6346 60.1568 51.6346C60.8789 51.6346 61.6082 51.6057 62.3252 51.6057C62.5267 51.6057 62.7206 51.5479 62.9308 51.5479C63.0229 51.5479 63.1829 51.5168 63.2649 51.5624C63.382 51.6274 63.6301 51.6586 63.7644 51.6636C63.9953 51.6721 64.2434 51.7531 64.4647 51.8145C64.7656 51.8981 65.0142 52.086 65.3032 52.1824C65.6178 52.2872 65.9059 52.4869 66.1994 52.6337C66.3149 52.6914 66.4336 52.7527 66.5335 52.8345C66.6627 52.9401 66.8483 53.0977 67.0025 53.1605C67.0657 53.1863 67.3412 53.458 67.2628 53.5364C67.2448 53.5544 67.0392 53.5717 67.009 53.5717C66.9169 53.5717 66.8248 53.5717 66.7327 53.5717C66.4242 53.5717 66.1369 53.4748 65.838 53.4288C65.6548 53.4006 65.4716 53.3702 65.2887 53.3421C65.1325 53.318 64.9399 53.287 64.7827 53.2826C64.0985 53.2636 63.4396 53.0224 62.7477 53.0224C62.3081 53.0224 61.8685 53.0224 61.429 53.0224C61.1933 53.0224 60.9229 53.1172 60.6917 53.1686C60.4603 53.22 60.157 53.2859 59.9416 53.3838C59.848 53.4264 59.7244 53.4683 59.6236 53.4866C59.5041 53.5083 59.3983 53.6122 59.283 53.6521C58.8182 53.813 58.377 54.0686 57.9145 54.2367C57.6976 54.3156 57.5259 54.4664 57.3235 54.5676C57.1183 54.6702 56.8619 54.8034 56.6874 54.9595C56.3908 55.2249 56.0041 55.432 55.6337 55.5667C55.4622 55.6291 55.2944 55.7401 55.1117 55.7401C54.8942 55.7401 54.6588 55.7132 54.4676 55.5956C54.2787 55.4793 54.0281 55.3531 53.9472 55.1266C53.8655 54.8978 53.876 54.6834 54.0114 54.4777C54.2427 54.1263 54.5339 53.7386 54.9093 53.53C55.2275 53.3532 55.5749 53.2438 55.8923 53.0658C56.265 52.8567 56.6521 52.6718 57.0215 52.457C57.3073 52.2909 57.5689 52.0863 57.815 51.8675C57.8954 51.7961 57.9806 51.7085 58.0687 51.6475C58.1465 51.5936 58.1318 51.5578 58.0398 51.6122C57.1902 52.1142 56.3233 52.6246 55.5598 53.2537C55.2592 53.5014 54.9815 53.7645 54.6925 54.0215C54.4505 54.2365 54.9816 53.4369 55.1824 53.183C55.3173 53.0124 56.9816 51.2425 57.0616 51.3359C57.2529 51.559 56.8607 52.1183 56.742 52.2852C56.1853 53.068 55.3537 53.6851 54.5254 54.15C54.3537 54.2464 54.2179 54.3706 54.0709 54.4985C54.0501 54.5165 53.8773 54.6993 53.9761 54.6993C54.4262 54.6993 54.9241 54.524 55.3574 54.4166C55.8414 54.2967 56.2621 54.1394 56.6938 53.8898C56.7362 53.8653 56.9301 53.7605 56.9283 53.7629C56.7839 53.9485 56.6097 54.106 56.4256 54.2512C56.1805 54.4444 55.9075 54.6192 55.6241 54.7507C55.4877 54.814 55.3196 54.9309 55.1711 54.9579C55.0789 54.9747 55.1466 54.7984 55.1615 54.7636C55.2428 54.5727 55.41 54.3885 55.5614 54.2528C55.9971 53.8624 56.59 53.6049 57.1484 53.4432C57.243 53.4158 57.4541 53.2995 57.317 53.4336C57.1102 53.6359 56.8979 53.8309 56.6456 53.9765C56.3862 54.1263 56.106 54.256 55.8216 54.3508C55.7785 54.3651 55.465 54.5023 55.5148 54.3749C55.7465 53.7829 56.3375 53.4004 56.8609 53.1027C57.3029 52.8513 57.7765 52.6609 58.2486 52.4731C58.5912 52.3368 59.0189 52.184 59.3907 52.184C59.4263 52.184 59.633 52.1782 59.63 52.184C59.5593 52.3175 59.3996 52.433 59.2895 52.5309C58.8871 52.8886 58.4008 53.1784 57.9579 53.485C57.9189 53.512 57.5552 53.8054 57.5034 53.7677C57.4422 53.7232 57.5487 53.5478 57.5708 53.5123C57.8385 53.0841 58.3727 52.763 58.8462 52.6176C59.2878 52.482 59.7445 52.4267 60.2018 52.3799C60.5645 52.3428 60.9258 52.2707 61.2908 52.2707C62.0973 52.2707 62.8984 52.2798 63.6969 52.4008C64.1978 52.4767 64.7289 52.4756 65.2004 52.6899C65.3004 52.7354 65.3805 52.7836 65.4622 52.8489C65.5246 52.8989 65.562 52.9922 65.6212 53.0513" stroke="black" stroke-linecap="round"/>
<path d="M53.1035 55.3345C53.1035 55.1404 53.1799 54.9716 53.1903 54.7852C53.1964 54.6748 53.2367 54.4644 53.2914 54.3659C53.3527 54.2556 53.3486 54.118 53.3991 54.0045C53.4405 53.9114 53.5083 53.7978 53.5083 53.701C53.5083 53.4467 53.6694 53.23 53.7685 53.0071C53.8288 52.8713 53.9119 52.7475 53.9773 52.6168C54.0398 52.4918 54.1488 52.3754 54.2022 52.2554C54.2601 52.125 54.4567 52.0478 54.5636 51.9646C54.6742 51.8786 54.799 51.8188 54.925 51.7558C55.1967 51.62 55.4603 51.4592 55.7345 51.3221C56.035 51.1719 56.3811 51.099 56.6886 50.9624C56.948 50.847 57.2701 50.8242 57.556 50.8242" stroke="black" stroke-linecap="round"/>
<path d="M53.2193 54.4959C53.2193 54.1012 53.2048 53.7899 53.3285 53.4326C53.4001 53.2257 53.5337 53.0048 53.6819 52.8479C53.8175 52.7043 53.9134 52.5296 54.0577 52.3853C54.2555 52.1876 54.4901 52.0276 54.7066 51.8505C54.8985 51.6935 55.1282 51.5368 55.3443 51.4168C55.5139 51.3225 55.721 51.1458 55.9225 51.1148C56.2566 51.0634 56.5759 50.9178 56.9184 50.8835C57.0855 50.8668 57.2441 50.8105 57.4131 50.7936C57.7585 50.759 58.1039 50.7663 58.4523 50.7663" stroke="black" stroke-linecap="round"/>
<path d="M57.7604 56.2027C58.3137 56.2027 58.8629 56.1406 59.4196 56.1406C59.5459 56.1406 59.6667 56.1561 59.7917 56.1561C59.9557 56.1561 60.1129 56.1871 60.2759 56.1871C60.3968 56.1871 60.5139 56.2182 60.6368 56.2182C60.7397 56.2182 60.8691 56.2233 60.9702 56.2457C61.1 56.2746 61.2636 56.2492 61.3966 56.2492C61.5056 56.2492 61.654 56.223 61.7576 56.2526C61.8884 56.29 62.0337 56.2879 62.1642 56.3345C62.2597 56.3686 62.3892 56.4086 62.4898 56.4197C62.6045 56.4325 62.72 56.5052 62.831 56.536C62.9427 56.5671 63.0495 56.6013 63.1566 56.6489C63.2985 56.712 63.4627 56.7292 63.6063 56.785C63.7722 56.8495 63.949 56.8656 64.1214 56.897C64.3005 56.9296 64.4945 56.9315 64.6762 56.9315C64.8384 56.9315 64.9951 56.9065 65.1535 56.9004C65.3341 56.8935 65.6224 56.8616 65.7651 56.99C65.8161 57.0359 65.8856 57.074 65.94 57.1175C65.9992 57.1649 65.9943 57.2635 65.9943 57.3346C65.9943 57.4174 65.9438 57.4959 65.8943 57.5595C65.8491 57.6177 65.794 57.7017 65.7307 57.7412C65.6671 57.781 65.6262 57.86 65.5523 57.8928C65.4302 57.9471 65.2939 57.9763 65.1604 57.9859C65.0867 57.9911 65.0181 58.029 64.9433 58.0324C64.8646 58.036 64.7661 58.0601 64.6917 58.0867C64.607 58.1169 64.5007 58.1254 64.4126 58.1254C63.9135 58.1254 63.4179 58.0787 62.943 57.9204C62.6686 57.829 62.3947 57.7566 62.1332 57.6258C62.0304 57.5744 61.9246 57.5319 61.823 57.4811C61.7188 57.4289 61.6025 57.4089 61.4974 57.3622C61.3025 57.2755 61.1013 57.2462 60.8927 57.1985C60.7911 57.1753 60.642 57.164 60.5429 57.164C60.4462 57.164 60.3144 57.1689 60.2259 57.1296C60.1361 57.0897 60.0565 57.0172 59.9683 56.978C59.83 56.9165 59.6956 56.8408 59.5591 56.7764C59.3284 56.6674 59.0626 56.6092 58.8148 56.5472C58.6162 56.4976 58.4174 56.4554 58.2178 56.412C58.0662 56.379 57.8999 56.3422 57.7449 56.3422C57.7374 56.3422 57.6335 56.3364 57.6432 56.3267C57.6694 56.3005 57.8451 56.3532 57.8775 56.3577C58.2722 56.4121 58.6567 56.4984 59.0474 56.5748C59.9769 56.7567 60.9183 56.8783 61.8506 57.04C61.9423 57.0559 62.04 57.0697 62.1332 57.071C62.1506 57.0713 62.2389 57.0843 62.2538 57.0676C62.2807 57.0373 61.7711 56.8605 61.7455 56.8548C61.3685 56.771 60.98 56.7377 60.5972 56.6911C60.2854 56.6532 59.9574 56.6338 59.6556 56.5403C59.6288 56.5321 59.4472 56.4959 59.442 56.4697C59.4374 56.447 59.6319 56.4508 59.6401 56.4508C60.0989 56.4508 60.5602 56.5168 61.0159 56.5679C61.5495 56.6278 62.1075 56.7189 62.6139 56.9004C62.693 56.9288 62.8303 57.0139 62.8585 57.0986C62.8956 57.2098 62.6197 57.1923 62.5656 57.1942C62.4282 57.1989 62.2879 57.1997 62.1504 57.1942C62.1299 57.1934 61.9714 57.1866 61.9721 57.1873C62.0005 57.2157 62.0676 57.2107 62.103 57.22C62.215 57.2497 62.329 57.2813 62.4399 57.3157C62.7867 57.423 63.1362 57.5396 63.4908 57.6215C63.8894 57.7135 64.3019 57.6868 64.7072 57.6913C64.9581 57.6941 65.2584 57.7656 65.4826 57.6215C65.5882 57.5536 65.4793 57.3819 65.4085 57.3346C65.209 57.2016 64.9049 57.2416 64.6771 57.2416C64.5148 57.2416 64.3514 57.2571 64.1878 57.2571C64.0053 57.2571 63.826 57.2286 63.6442 57.2261C63.1698 57.2195 62.7257 57.0153 62.2882 56.8694" stroke="black" stroke-width="0.5" stroke-linecap="round"/>
<path d="M65.6687 57.1641C65.7018 57.2489 65.7782 57.3669 65.7273 57.4587C65.7137 57.4831 65.6793 57.501 65.6523 57.5043C65.5209 57.5208 65.3796 57.4911 65.25 57.4742" stroke="black" stroke-width="0.5" stroke-linecap="round"/>
<path d="M61.0801 55.0226C61.0801 55.1278 61.2472 55.2402 61.3287 55.3052C61.4378 55.3921 61.6904 55.4252 61.8389 55.4421C61.9356 55.4532 62.0323 55.4878 62.1318 55.4878C62.2237 55.4878 62.3337 55.4759 62.4226 55.4956C62.6231 55.5399 62.8998 55.5033 63.1079 55.5033C63.3025 55.5033 63.5365 55.4785 63.7219 55.5223C63.9679 55.5803 64.2513 55.5666 64.4764 55.6808C64.5799 55.7332 64.7645 55.7776 64.8839 55.7988C64.9595 55.8122 65.0465 55.8504 65.1174 55.8755C65.2207 55.912 65.3389 55.9417 65.4482 55.9685C65.5259 55.9875 65.6755 55.9894 65.7346 56.0271C65.8186 56.0806 65.8218 55.9386 65.8038 55.9065C65.7774 55.8591 65.7274 55.805 65.6719 55.779C65.6132 55.7514 65.5648 55.6683 65.5163 55.6274C65.4445 55.5668 65.3559 55.5167 65.2731 55.4654C64.8585 55.2084 64.2701 55.1456 63.7608 55.1312C63.4659 55.1228 63.156 55.1077 62.8658 55.0657C62.6158 55.0295 62.3375 55.0536 62.0832 55.0536C61.9029 55.0536 61.7046 55.0286 61.5384 54.9907C61.4122 54.962 61.277 54.9615 61.1579 54.9141" stroke="black" stroke-width="0.5" stroke-linecap="round"/>
<path d="M31.9277 53.0239C32.0892 53.0239 32.281 53.0067 32.4308 52.9386C32.4925 52.9106 32.5581 52.8886 32.6186 52.8611C32.6828 52.8319 32.7574 52.8268 32.8185 52.7991C32.9063 52.7591 32.9868 52.739 33.0752 52.6948C33.1449 52.66 33.2498 52.5742 33.3233 52.5742" stroke="black" stroke-width="0.5" stroke-linecap="round"/>
<path d="M32.0977 53.0373C32.2149 52.8661 32.3134 52.8261 32.4776 52.7349C32.6019 52.6658 32.7653 52.6767 32.8962 52.6263C32.9428 52.6084 33.0323 52.5876 33.0823 52.5876C33.1327 52.5876 33.1806 52.5593 33.2296 52.5566C33.3397 52.5505 33.4453 52.5162 33.5553 52.51C33.6658 52.5039 33.7953 52.4731 33.9041 52.4489C34.0267 52.4216 34.1464 52.4006 34.2677 52.3627C34.4032 52.3204 34.5836 52.2642 34.695 52.1775C34.7695 52.1195 34.9083 52.0534 34.9973 52.0216C35.0999 51.985 35.1993 51.8984 35.3109 51.8898C35.4444 51.8795 35.5737 51.8044 35.7106 51.7968C35.8313 51.7901 35.9576 51.7812 36.0828 51.7812C36.1603 51.7812 36.2379 51.7812 36.3154 51.7812C36.4167 51.7812 36.5107 51.8067 36.61 51.8123C36.9866 51.8332 37.3525 51.9887 37.7265 52.0302C37.9155 52.0512 38.0985 52.112 38.2847 52.1534C38.4055 52.1802 38.5595 52.2113 38.6646 52.2697C38.7065 52.293 38.7661 52.3093 38.7964 52.3472C38.8075 52.3611 38.7125 52.355 38.6879 52.355C38.6388 52.355 38.5897 52.355 38.5406 52.355C38.4677 52.355 38.4027 52.3275 38.3312 52.324C38.1736 52.3161 38.014 52.2695 37.8583 52.2456C37.6671 52.2162 37.4794 52.1576 37.2906 52.1146C37.1689 52.087 37.0217 52.0604 36.8969 52.0604C36.8388 52.0604 36.7106 52.0654 36.6565 52.0414C36.5955 52.0143 36.5217 52.0488 36.4618 52.0216C36.4022 51.9945 36.2878 51.9983 36.2224 51.9983C36.0498 51.9983 35.8398 51.9702 35.6796 52.0414C35.5835 52.0841 35.4744 52.1316 35.3729 52.1655C35.1473 52.2407 34.9468 52.3964 34.7105 52.4489C34.585 52.4768 34.4878 52.51 34.353 52.51C34.184 52.51 34.0005 52.5211 33.8335 52.5419C33.6714 52.5622 33.472 52.5798 33.3227 52.6462C33.1749 52.7118 33.0037 52.732 32.8575 52.8012C32.7239 52.8645 32.5613 52.8823 32.4354 52.9597C32.3916 52.9867 32.2122 53.0619 32.1752 53.0373" stroke="black" stroke-width="0.5" stroke-linecap="round"/>
<path d="M30.083 53.4896C30.2842 53.4896 30.4784 53.5946 30.6567 53.6791C30.834 53.7631 31.0036 53.8557 31.1908 53.9238C31.4177 54.0063 31.6798 54.0788 31.9248 54.0788C32.2187 54.0788 32.5141 54.1564 32.8112 54.1564C32.9508 54.1564 33.1017 54.1719 33.2463 54.1719C33.4238 54.1719 33.6004 54.1409 33.7804 54.1409C34.0009 54.1409 34.2199 54.0943 34.4403 54.0943C34.6524 54.0943 34.8863 54.066 35.095 54.0289C35.3222 53.9885 35.555 53.989 35.7816 53.947C36.0172 53.9034 36.259 53.8841 36.4957 53.8462C36.9204 53.7783 37.3346 53.6788 37.7552 53.5947C37.986 53.5485 38.223 53.5207 38.4444 53.4551C38.4929 53.4408 38.6735 53.3912 38.6735 53.4663C38.6735 53.5317 38.6496 53.6574 38.6813 53.7144C38.7198 53.7837 38.718 53.8511 38.7786 53.9117C38.819 53.9521 38.9298 53.9703 38.9836 53.9703C39.1498 53.9703 39.3063 53.9858 39.4721 53.9858C39.5086 53.9858 39.7107 53.9134 39.7245 53.9272C39.7725 53.9752 39.613 54.2144 39.5798 54.2572C39.5524 54.2924 39.529 54.3345 39.5074 54.3735C39.473 54.4354 39.4075 54.4793 39.3713 54.544C39.3115 54.6511 39.2051 54.7239 39.1266 54.8111C39.0143 54.9359 38.9113 55.1012 38.7743 55.2108C38.7075 55.2642 38.6181 55.316 38.5339 55.3383C38.4912 55.3496 38.4512 55.3789 38.4099 55.3814C38.3962 55.3822 38.315 55.4076 38.3048 55.4158C38.2588 55.4526 38.1466 55.4887 38.0912 55.5046C38.0119 55.5272 37.9421 55.5999 37.8672 55.6415C37.7966 55.6807 37.6856 55.7285 37.6346 55.7923C37.608 55.8255 37.4856 55.8978 37.4407 55.9077C37.1549 55.9712 36.8628 56.0259 36.5681 56.0326C36.3911 56.0367 36.2064 56.0474 36.0297 56.0628C35.8836 56.0755 35.7134 56.0477 35.5722 56.0869C35.4992 56.1072 35.4151 56.0925 35.3396 56.0947C35.2574 56.097 35.1757 56.1102 35.0915 56.1102C34.9571 56.1102 34.8228 56.1102 34.6884 56.1102C34.5537 56.1102 34.4223 56.0684 34.2886 56.0636C34.1598 56.059 34.0299 56.0636 33.901 56.0636C33.8083 56.0636 33.7208 56.0481 33.6262 56.0481C33.487 56.0481 33.337 56.0326 33.1929 56.0326C33.0724 56.0326 32.9587 55.9596 32.8431 55.9275C32.7485 55.9013 32.6556 55.8556 32.5605 55.8345C32.4838 55.8174 32.387 55.7961 32.3193 55.7535C32.0704 55.5968 31.8122 55.4539 31.5681 55.2883C31.4183 55.1866 31.2509 55.1072 31.1219 54.9782C31.0182 54.8745 30.9178 54.7229 30.7963 54.6448C30.6933 54.5786 30.6074 54.459 30.5172 54.3735C30.3998 54.2623 30.2493 54.1717 30.1174 54.0788C30.0979 54.0651 30.0754 54.0449 30.0614 54.0254C30.0531 54.0137 30.106 54.0456 30.1148 54.0478C30.2197 54.074 30.3383 54.1452 30.4327 54.196C30.599 54.2855 30.7554 54.3895 30.9203 54.4811C31.1035 54.5829 31.2977 54.6615 31.4854 54.7534C31.9819 54.9963 32.5706 55.0881 33.1067 55.1987C33.7633 55.3342 34.4105 55.321 35.0769 55.303C35.8504 55.2821 36.6389 55.2004 37.402 55.0747C37.7824 55.012 38.1771 54.9236 38.5305 54.7646C38.6442 54.7134 38.8458 54.6313 38.894 54.501C38.9378 54.3827 38.6784 54.3253 38.6037 54.3037C38.3887 54.2416 38.1688 54.2422 37.9456 54.2348C37.2113 54.2103 36.5362 54.4654 35.8212 54.5905C35.2089 54.6977 34.5759 54.6526 33.9561 54.6526C33.5962 54.6526 33.2332 54.673 32.8741 54.6956C32.8096 54.6997 32.4195 54.7464 32.3934 54.6681" stroke="black" stroke-linecap="round"/>
<path d="M30.6395 54.2928C30.5815 54.266 30.49 54.2378 30.4399 54.193C30.4011 54.1583 30.3581 54.1296 30.3188 54.0974C30.2684 54.0561 30.2154 54.0183 30.1673 53.975C30.1413 53.9516 30.1251 53.9113 30.0943 53.8936C29.9969 53.838 29.9492 53.6871 29.9492 53.5859" stroke="black" stroke-linecap="round"/>
<path d="M51.263 55.4264C51.263 55.1844 51.2383 54.9471 51.2383 54.7075C51.2383 54.4099 51.1641 54.1216 51.1641 53.8237C51.1641 53.3053 51.2306 52.789 51.3428 52.2842C51.468 51.7208 51.3811 51.0805 51.362 50.5083C51.3441 49.97 51.362 49.433 51.362 48.8945" stroke="black" stroke-linecap="round"/>
<path d="M45.8685 49.5625C45.8964 49.7927 45.9675 50.0365 45.9675 50.2676C45.9675 50.4632 45.9481 50.657 45.9427 50.8491C45.9351 51.1234 45.8997 51.4326 45.8245 51.6958C45.7894 51.8189 45.7943 52.0072 45.7943 52.1357C45.7943 52.2269 45.7766 52.3309 45.7572 52.4202C45.7357 52.5191 45.7667 52.6282 45.7393 52.724C45.7027 52.8521 45.7141 52.9822 45.6939 53.113C45.6851 53.1706 45.6648 53.4252 45.6211 53.447" stroke="black" stroke-linecap="round"/>
<path d="M29.0938 51.4675C29.3413 51.4675 29.5833 51.4181 29.825 51.4181C29.9828 51.4181 30.2114 51.3853 30.3556 51.3246C30.5179 51.2562 30.6909 51.2147 30.8504 51.1349C30.9287 51.0957 31.0215 51.0796 31.0979 51.0414C31.1879 50.9964 31.2689 50.9146 31.3645 50.8792C31.4677 50.841 31.541 50.7294 31.6422 50.7005C31.7207 50.6781 31.8311 50.5826 31.9006 50.5383C32.0958 50.4141 32.275 50.2634 32.4834 50.1562C32.7198 50.0347 32.9387 49.8503 33.1996 49.7851C33.3307 49.7523 33.4657 49.6711 33.5954 49.6256C33.7948 49.5559 34.0027 49.5178 34.203 49.4511C34.7144 49.2806 35.1713 48.9623 35.6999 48.8449C35.9316 48.7934 36.179 48.6964 36.4174 48.6964C36.7106 48.6964 37.0039 48.6964 37.2971 48.6964C37.7341 48.6964 38.3284 48.6701 38.706 48.9315C38.9328 49.0885 39.2084 49.1954 39.4414 49.3507C39.6965 49.5208 39.936 49.7161 40.1535 49.9335C40.3106 50.0906 40.4443 50.2657 40.5864 50.4394C40.7058 50.5852 40.8661 50.7129 40.9947 50.849C41.2277 51.0958 41.4855 51.2651 41.7864 51.3988C42.075 51.5271 42.4235 51.5249 42.7266 51.5418C42.9674 51.5551 43.2807 51.8509 43.3947 52.0504C43.4577 52.1607 43.6145 52.242 43.7411 52.2345C43.8369 52.2289 43.9486 51.9747 43.9651 51.9005C44.0521 51.509 44.0789 51.0437 43.895 50.6758C43.812 50.5098 43.7481 50.3437 43.6311 50.1933C43.563 50.1058 43.5081 49.9997 43.4387 49.9088C43.348 49.7902 43.212 49.709 43.1225 49.5926C43.0495 49.4977 42.8891 49.397 42.7885 49.3274C42.6716 49.2465 42.5587 49.1606 42.4421 49.0799C42.2096 48.919 41.9674 48.7869 41.7122 48.6593C40.9713 48.2888 40.1865 48.1151 39.4126 47.8442C39.1186 47.7413 38.8065 47.6854 38.5205 47.5583C38.3362 47.4764 38.0865 47.3698 37.8909 47.3342C37.7382 47.3065 37.621 47.2119 37.4621 47.2119C37.1116 47.2119 36.7452 47.1844 36.405 47.26C36.2923 47.2851 36.1683 47.2815 36.0518 47.3054C35.899 47.3366 35.7508 47.3737 35.6009 47.4153C35.3345 47.4893 35.0369 47.5698 34.7844 47.682C34.539 47.7911 34.2496 47.9055 33.9927 47.9789C33.7354 48.0524 33.5103 48.2229 33.2504 48.2951C32.7623 48.4306 32.2312 48.7711 31.8649 49.117C31.4191 49.5381 30.5743 49.4908 30.3061 50.0944C30.2202 50.2877 30.1358 50.4808 30.0642 50.6813C30.0319 50.7717 30.017 50.9043 29.9721 50.9851C29.8752 51.1594 30.2283 50.9543 30.2676 50.937C30.4442 50.8593 30.6151 50.7711 30.7955 50.7005C31.0245 50.6109 31.1866 50.4797 31.3755 50.3294C31.626 50.1302 31.8514 49.9192 32.1137 49.7356C32.2713 49.6252 32.4993 49.5241 32.6814 49.4634C33.0067 49.355 33.3166 49.207 33.638 49.0868C34.1436 48.8978 34.6309 48.6569 35.1432 48.4861C35.7015 48.3 36.2491 48.2016 36.838 48.2016C37.118 48.2016 37.3993 48.194 37.6792 48.2016C37.9504 48.2089 38.2606 48.3439 38.515 48.4298C39.179 48.6539 39.8174 48.914 40.449 49.216C41.1322 49.5428 41.891 49.8792 42.405 50.4586C42.6067 50.686 42.7965 50.9181 43.0222 51.1212C43.0683 51.1627 43.2465 51.3325 43.2696 51.1706C43.3006 50.9534 43.1676 50.7271 43.0483 50.5548C42.8414 50.256 42.5941 49.9797 42.2936 49.7727C41.9252 49.5189 41.5953 49.2461 41.1926 49.0428C40.8355 48.8626 40.4175 48.7081 40.0242 48.6277C39.83 48.588 39.9937 48.8934 40.0188 48.9823C40.1335 49.3891 40.3991 49.8021 40.6401 50.1452C41.0228 50.6903 41.6979 51.0782 42.3253 51.2641C42.4517 51.3016 42.4559 51.0714 42.4545 50.9974C42.4502 50.7716 42.2948 50.5034 42.1081 50.3789" stroke="black" stroke-linecap="round"/>
<path d="M40.5158 81.2302C40.6378 81.0675 40.8899 81.0288 40.9963 80.8586C41.0367 80.7939 41.1605 80.6977 41.2253 80.6634C41.3184 80.6141 41.4176 80.493 41.4956 80.4194C41.6054 80.3157 41.7171 80.1904 41.8484 80.1153C42.0824 79.9816 42.2951 79.7717 42.5279 79.6235C42.7768 79.4651 43.0204 79.2759 43.2862 79.143C44.3807 78.5958 45.4911 78.3923 46.7059 78.3923C47.3421 78.3923 48.0228 78.5571 48.641 78.6945C48.8658 78.7444 49.0911 78.7889 49.3149 78.8296C49.6045 78.8823 49.8547 78.9666 50.152 78.9666C50.8063 78.9666 51.4582 79.0457 52.1059 78.9647C52.286 78.9422 52.4846 78.899 52.6633 78.899C52.8598 78.899 53.0617 78.9164 53.2527 78.8728C53.4483 78.828 53.7279 78.837 53.9283 78.8315C54.1143 78.8263 54.3779 78.882 54.5534 78.8146C54.6991 78.7585 54.9207 78.7977 55.077 78.7977C55.2635 78.7977 55.4499 78.7977 55.6364 78.7977C55.9357 78.7977 56.2054 78.9005 56.496 78.9328C56.725 78.9583 56.968 79.0884 57.1717 79.1956C57.3972 79.3143 57.6612 79.4018 57.8643 79.5597C58.052 79.7058 58.2528 79.8315 58.4386 79.9801C58.5101 80.0373 58.5683 80.1073 58.6413 80.1641C58.7317 80.2344 58.7995 80.3709 58.8947 80.4269C59.0564 80.522 59.2827 80.887 59.3696 81.0462C59.4275 81.1525 59.498 81.2242 59.5704 81.3146C59.6074 81.3609 59.8449 81.3423 59.882 81.3053C60.0331 81.1542 59.9488 80.9334 59.942 80.7497C59.9366 80.6028 59.7892 80.4808 59.7731 80.3518C59.7568 80.2212 59.5193 80.1101 59.469 79.997C59.4182 79.8827 59.2627 79.7945 59.1837 79.693C59.1198 79.6108 59.0264 79.4706 58.9454 79.4058C58.7782 79.2721 58.674 79.0171 58.5306 78.8577C58.4672 78.7873 58.41 78.7066 58.3466 78.6363C58.2369 78.5143 58.0994 78.4631 57.9825 78.3585C57.746 78.1468 57.4366 78.0393 57.1867 77.8348C57.1098 77.7719 57.0003 77.7593 56.9164 77.6978C56.8298 77.6343 56.7358 77.586 56.6461 77.5289C56.518 77.4473 56.3943 77.3523 56.2595 77.2849C55.9524 77.1314 55.5695 76.9262 55.2291 76.8738C54.8908 76.8218 54.5811 76.6653 54.2324 76.6336C53.8241 76.5965 53.4255 76.4543 53.0162 76.4328C52.8086 76.4218 52.5944 76.4068 52.3818 76.399C52.2772 76.3951 52.1473 76.3234 52.0364 76.3727C51.7477 76.501 51.368 76.5827 51.0717 76.6674C50.8164 76.7403 50.6004 76.7706 50.3322 76.7706C49.99 76.7706 49.6576 76.6355 49.3261 76.6355C49.0136 76.6355 48.695 76.5003 48.3877 76.5003C48.075 76.5003 47.7474 76.4665 47.4248 76.4665C47.0577 76.4665 46.6912 76.5003 46.3268 76.5003C46.1685 76.5003 46.0102 76.5003 45.8519 76.5003C45.6372 76.5003 45.4461 76.5525 45.2382 76.5679C44.8861 76.594 44.5435 76.8094 44.2246 76.932C44.0541 76.9976 43.9212 77.117 43.7592 77.2023C43.6057 77.2831 43.469 77.4204 43.3049 77.4801C42.9934 77.5934 42.7932 77.9007 42.5241 78.0544C42.2421 78.2156 42.0457 78.6285 41.8672 78.8915C41.4395 79.5218 40.9519 80.1198 40.5158 80.7497C40.4523 80.8414 40.3469 80.9484 40.3469 81.0613C40.3469 81.1178 40.3116 81.1568 40.3807 81.095C40.4502 81.0329 40.533 80.9792 40.6097 80.9261C40.7843 80.8053 40.9531 80.6788 41.1239 80.547C41.3314 80.3869 41.4758 80.1723 41.6645 79.997C41.8895 79.7881 42.0723 79.5385 42.2895 79.3213C42.5036 79.1073 42.7144 78.9215 42.9483 78.7301C43.47 78.3033 44.157 78.0323 44.799 77.8517C45.6099 77.6236 46.4372 77.6152 47.2728 77.6152C47.6647 77.6152 48.0726 77.5837 48.4627 77.6227C48.5632 77.6328 49.6207 77.8183 49.6358 77.7654C49.6708 77.6428 49.4575 77.4473 49.3655 77.3956C49.0223 77.2026 48.6892 77.2098 48.3013 77.2098C47.8968 77.2098 47.5 77.2774 47.0963 77.2774C46.6101 77.2774 46.0814 77.2167 45.6004 77.2943C45.3781 77.3301 44.7014 77.3449 44.9266 77.3449C45.5245 77.3449 46.1145 77.471 46.6984 77.5814C47.994 77.8265 49.2203 78.3352 50.5574 78.3585C51.3684 78.3726 52.1785 78.4598 52.9899 78.4598C53.5816 78.4598 54.1578 78.3673 54.7467 78.3585C55.1834 78.352 55.6181 78.3167 56.0568 78.3247C56.2242 78.3277 56.3981 78.3598 56.5636 78.3848C56.6158 78.3926 56.8417 78.434 56.7494 78.3416C56.3924 77.9847 55.7089 77.8566 55.2384 77.7504C54.3866 77.558 53.5241 77.377 52.6483 77.3468C51.9992 77.3244 51.3228 77.4497 50.685 77.5645C50.045 77.6797 49.403 77.7508 48.7593 77.8254C48.5468 77.8501 48.6178 77.8206 48.7743 77.7917C49.0569 77.7393 49.3586 77.7215 49.6452 77.7166C50.0102 77.7103 50.3715 77.6802 50.7376 77.6828C51.1897 77.686 51.6105 77.7979 52.0533 77.8667C52.6141 77.954 53.184 77.9647 53.7407 78.0713C53.9758 78.1163 54.4178 78.0623 54.5703 78.2909" stroke="black" stroke-linecap="round"/>
<path d="M40.3789 81.5347C40.4638 81.5442 40.6949 81.7524 40.7505 81.8219C40.8357 81.9283 41.0348 81.9243 41.1297 82.0002C41.2151 82.0686 41.436 82.0467 41.5426 82.0772C41.6804 82.1165 41.8423 82.1809 41.9837 82.2123C42.3312 82.2895 42.6849 82.4531 43.0179 82.5483C43.2031 82.6012 43.4232 82.6513 43.5885 82.7247C43.7727 82.8066 43.9825 82.8021 44.1703 82.8599C44.946 83.0985 45.9486 83.0967 46.7454 82.9518C47.4835 82.8176 48.18 82.5821 48.9527 82.5821C49.4479 82.5821 49.898 82.6077 50.3792 82.7247C50.8757 82.8455 51.3449 83.0004 51.8338 83.1226C52.2312 83.222 52.6529 83.4267 53.0669 83.4267C53.2409 83.4267 53.4148 83.4267 53.5887 83.4267C53.8291 83.4267 54.055 83.3675 54.2907 83.3591C54.8153 83.3404 55.3105 83.2759 55.8185 83.1489C56.3264 83.0219 56.8451 82.8802 57.29 82.5971C57.5178 82.4521 57.8209 82.3548 58.022 82.1691C58.1795 82.0238 58.397 81.8859 58.5889 81.79C58.8669 81.651 59.1353 81.4642 59.3997 81.332" stroke="black" stroke-linecap="round"/>
<path d="M55.752 74.982C56.457 75.2122 57.2713 75.2576 57.9067 75.6577C58.2628 75.8819 58.6563 76.0324 59.0291 76.2395C59.2447 76.3593 59.4433 76.5159 59.656 76.6374C59.8026 76.7212 60.0134 76.9249 60.1027 77.0766C60.209 77.2573 60.3848 77.4226 60.5306 77.5684C60.6881 77.7258 60.8046 77.981 60.9736 78.1258C61.1508 78.2777 61.2083 78.5285 61.3602 78.6983C61.4989 78.8533 61.6333 79.2378 61.6624 79.4415C61.7344 79.9456 61.9683 80.4256 61.9683 80.9281C61.9683 81.149 62.0207 81.3749 62.0678 81.5869C62.1226 81.8334 62.1115 82.1074 62.2123 82.347C62.3987 82.7895 62.4075 83.337 62.4075 83.8167C62.4075 84.025 62.4075 84.2333 62.4075 84.4417C62.4075 84.6289 62.4751 84.0714 62.4751 83.8842C62.4751 83.6101 62.5765 83.3301 62.5765 83.049C62.5765 82.7193 62.5765 82.3896 62.5765 82.0599C62.5765 81.7765 62.5188 81.5029 62.5089 81.2246C62.4932 80.7843 62.4679 80.3502 62.4057 79.9145C62.319 79.3079 62.1049 78.7103 61.9421 78.1239C61.7912 77.5808 61.6616 77.1566 61.2514 76.7463C61.0348 76.5298 60.8083 76.3515 60.5494 76.1851C60.1799 75.9476 59.7448 75.7893 59.3838 75.5394C59.054 75.3111 58.597 75.2268 58.2257 75.0833C57.8825 74.9507 57.5186 74.8527 57.1709 74.7286C56.6841 74.5547 56.2766 74.4414 55.752 74.4414" stroke="black" stroke-linecap="round"/>
<path d="M47.7793 88.2611C47.7933 88.1488 48.2123 88.0562 48.2936 88.0321C48.4929 87.973 48.7136 87.9908 48.9205 87.9908C49.1828 87.9908 49.4387 88.0128 49.6975 88.0246C49.9818 88.0375 50.2531 88.1486 50.5327 88.1916C50.7339 88.2226 50.9434 88.3354 51.1409 88.3962C51.3599 88.4636 51.579 88.5207 51.7997 88.582C52.2277 88.7009 52.7219 88.8308 53.0835 89.0719" stroke="black" stroke-linecap="round"/>
<path d="M38.0994 84.0503C38.0647 83.9481 38.0285 83.8512 38.0055 83.7479C37.9868 83.6635 37.9909 83.5771 37.9909 83.4886C37.9909 83.2756 38.0064 83.0655 38.0064 82.8528C38.0064 82.3018 38.2201 81.7762 38.3561 81.2514C38.5291 80.5842 38.6678 79.9007 38.8747 79.2433C38.9557 78.986 39.0154 78.7288 39.1228 78.48C39.1806 78.3462 39.2514 78.221 39.3003 78.0812C39.3354 77.9809 39.3784 77.881 39.4261 77.7857C39.4926 77.6525 39.6278 77.5011 39.6492 77.3515C39.6719 77.1928 39.6673 77.0925 39.5915 76.9483C39.522 76.8164 39.4502 76.6742 39.3399 76.5762C39.2685 76.5127 39.0913 76.4672 38.9996 76.5073C38.7878 76.5999 38.6093 76.8628 38.4647 77.0336C38.315 77.2105 38.1594 77.3842 38.0184 77.5686C37.8849 77.7432 37.7279 77.9001 37.6032 78.0838C37.5482 78.1648 37.4885 78.242 37.4404 78.3276C37.394 78.4101 37.354 78.5075 37.3008 78.5843C37.1724 78.7698 37.1444 79.0231 37.0527 79.2269C37.0056 79.3316 36.9916 79.4482 36.9554 79.5569C36.9259 79.6454 36.8899 79.7701 36.8899 79.8635C36.8899 80.0488 36.8279 80.2344 36.8279 80.4218C36.8279 80.6702 36.7969 80.9164 36.7969 81.1661C36.7969 81.3792 36.8213 81.6157 36.8779 81.8208C36.9525 82.0915 36.992 82.3754 37.0846 82.64C37.166 82.8726 37.259 83.0977 37.3465 83.3284C37.4174 83.5152 37.4755 83.8032 37.6532 83.9262C37.6916 83.9529 37.7612 84.0485 37.8117 84.0485C37.8532 84.0485 37.837 83.6795 37.8324 83.6437C37.7984 83.3808 37.766 83.1171 37.7204 82.8563C37.6699 82.5679 37.6807 82.264 37.6807 81.9724C37.6807 81.8191 37.6689 81.6604 37.6894 81.5081C37.7128 81.3337 37.7643 81.1635 37.7893 80.9886C37.8431 80.6121 37.9182 80.244 38.0227 79.8782C38.1054 79.5888 38.2258 79.3137 38.3131 79.0262C38.3956 78.754 38.4704 78.4852 38.5336 78.2078C38.5972 77.9284 38.7174 77.6818 38.8437 77.429C38.8662 77.384 38.8859 77.3404 38.9023 77.2929C38.9086 77.2749 38.9331 77.2025 38.9126 77.2611C38.7781 77.6455 38.5903 78.0032 38.425 78.3749C38.2492 78.7706 38.0578 79.1479 37.8479 79.5259C37.7195 79.7569 37.5698 79.9863 37.4636 80.2279C37.3695 80.4423 37.2758 80.6355 37.2345 80.868C37.2316 80.8842 37.2191 80.9899 37.2405 80.9947C37.3226 81.0129 37.4105 80.9523 37.4792 80.918" stroke="black" stroke-linecap="round"/>
<path d="M43.8218 75.0733C43.8218 75.0358 43.8528 75.0109 43.8528 74.9802C43.8528 74.959 43.7788 74.9492 43.7598 74.9492" stroke="black" stroke-width="0.5" stroke-linecap="round"/>
<path d="M43.0447 75.2592C43.0363 75.1831 42.8587 75.1538 42.8587 75.0809C42.8587 75.0594 42.8527 74.9998 42.8397 74.9836C42.8181 74.9566 42.7768 74.956 42.7656 74.9336" stroke="black" stroke-width="0.5" stroke-linecap="round"/>
<path d="M42.3631 75.2914C42.2956 75.2671 42.2478 75.2264 42.1848 75.1984C42.1385 75.1778 42.1236 75.1097 42.084 75.0898" stroke="black" stroke-width="0.5" stroke-linecap="round"/>
<path d="M42.0371 76.2812C42.1404 76.3063 42.2837 76.3487 42.3593 76.4243C42.39 76.4549 42.4588 76.5294 42.5023 76.5294" stroke="black" stroke-width="0.5" stroke-linecap="round"/>
<path d="M42.9844 76.5014C43.0298 76.385 43.0868 76.2811 43.1394 76.1758" stroke="black" stroke-width="0.5" stroke-linecap="round"/>
<path d="M42.3945 75.8938C42.455 75.8661 42.5106 75.8371 42.5651 75.8008" stroke="black" stroke-width="0.5" stroke-linecap="round"/>
<path d="M41.1387 77.0292C41.2027 76.9496 41.2638 76.8899 41.3368 76.8242C41.364 76.7998 41.4 76.8012 41.4178 76.7656" stroke="black" stroke-width="0.5" stroke-linecap="round"/>
<path d="M41.5098 76.3295C41.4675 76.2565 41.4147 76.1511 41.347 76.0969C41.3177 76.0735 41.2774 76.0353 41.2617 76.0039" stroke="black" stroke-width="0.5" stroke-linecap="round"/>
<path d="M40.8743 76.4087C40.8341 76.3635 40.8002 76.2794 40.7812 76.2227" stroke="black" stroke-width="0.5" stroke-linecap="round"/>
<path d="M40.6258 75.958C40.5125 75.8854 40.4014 75.8406 40.3467 75.7176C40.3271 75.6734 40.2765 75.5703 40.2227 75.5703" stroke="black" stroke-width="0.5" stroke-linecap="round"/>
<path d="M40.4255 76.5932C40.4228 76.5682 40.4081 76.5359 40.3945 76.5156" stroke="black" stroke-width="0.5" stroke-linecap="round"/>
<path d="M40.0684 76.0663V76.0508" stroke="black" stroke-width="0.5" stroke-linecap="round"/>
<path d="M40.1934 77.5859V77.648" stroke="black" stroke-width="0.5" stroke-linecap="round"/>
<path d="M40.1777 77.0582V77.0117" stroke="black" stroke-width="0.5" stroke-linecap="round"/>
<path d="M23.4532 65.2533C23.3145 65.0973 23.1975 64.902 23.1079 64.7128C23.0041 64.4937 22.8151 64.2791 22.6762 64.0784C22.4182 63.7057 22.2124 63.3398 22.0268 62.9222C21.5959 61.9528 21.3586 60.8227 21.3586 59.7633C21.3586 59.4324 21.291 59.0978 21.291 58.7667C21.291 58.3393 21.291 57.912 21.291 57.4847C21.291 56.7313 21.2968 55.9871 21.4599 55.2531C21.5566 54.8182 21.648 54.3625 21.7809 53.9373C21.8503 53.7154 21.9329 53.4061 21.9329 53.1753C21.9329 53.0618 22.031 52.8471 22.085 52.7511C22.1741 52.5927 22.2257 52.4146 22.3233 52.2612C22.3929 52.1519 22.4197 52.0384 22.5242 51.9572C22.6136 51.8876 22.6121 51.7208 22.71 51.6719" stroke="black" stroke-linecap="round"/>
<path d="M22.7188 51.7812C22.9816 52.6028 22.9902 53.4783 23.1743 54.3066C23.2649 54.7144 23.2003 55.1892 23.3419 55.5857C23.4778 55.9662 23.5059 56.4933 23.5059 56.8976C23.5059 57.4174 23.6371 57.9399 23.6371 58.4719C23.6371 58.7288 23.7027 58.9826 23.7027 59.2299C23.7027 59.4414 23.6468 59.7491 23.7355 59.9442C23.8303 60.1528 23.7163 60.4057 23.7828 60.622C23.8491 60.8374 23.8911 61.1461 23.8995 61.3727C23.9164 61.8309 24.0306 62.2841 24.0306 62.7356C24.0306 63.5681 24.3283 64.3576 24.3586 65.1772C24.3738 65.5868 24.621 66.0058 24.621 66.4089C24.621 66.7676 24.7438 67.2075 24.8214 67.5568C24.8927 67.8774 25.0802 68.2789 25.0802 68.6063C25.0802 69.0265 25.2411 69.6615 25.3571 70.0676C25.56 70.7777 25.4511 71.5727 25.7507 72.2468C25.8647 72.5033 25.9876 72.9633 25.9985 73.2453C26.0124 73.6082 26.1862 73.9608 26.2645 74.3131C26.4625 75.204 26.8382 76.1421 27.2302 76.9696C28.038 78.6749 29.2008 80.1077 30.3569 81.5941C30.9078 82.3024 31.3532 83.141 31.9676 83.7915C32.5302 84.3872 32.8543 85.2103 33.4399 85.7958C33.6934 86.0493 33.897 86.3769 34.165 86.6449C34.5714 87.0513 34.9735 87.4533 35.3785 87.8584C35.6434 88.1233 35.9122 88.3899 36.1365 88.6783C36.3106 88.9021 36.8678 89.3339 37.1496 89.3671C37.4866 89.4067 37.8974 89.7264 38.1991 89.8772C38.4982 90.0268 38.8907 90.2168 39.2158 90.289C39.5378 90.3606 39.9832 90.6206 40.2654 90.7773C40.6651 90.9995 41.0773 91.0247 41.4934 91.1527C42.3675 91.4216 43.355 91.5317 44.2666 91.5317C45.5589 91.5317 46.8877 91.7285 48.1987 91.7285C48.8665 91.7285 49.5028 91.7941 50.1665 91.7941C50.6809 91.7941 51.2339 91.7336 51.7408 91.8086C52.3405 91.8975 52.8841 91.8157 53.4681 91.7941C54.1558 91.7686 55.0348 91.6159 55.6801 91.3677C56.1099 91.2024 56.644 91.1194 57.0941 91.0069C57.7418 90.845 58.4814 90.6602 59.0437 90.2854C60.1513 89.547 61.3941 88.9489 62.4692 88.1353C63.1903 87.5896 63.921 87.1937 64.5682 86.5465C65.1267 85.9881 65.6193 85.3899 65.9093 84.6442C66.4598 83.2285 66.8329 81.7547 67.52 80.3806C68.0486 79.3234 68.6994 78.2381 68.9594 77.068C69.2056 75.9602 69.619 74.7997 69.619 73.6571C69.619 73.0758 69.8137 72.4952 69.8778 71.9188C69.9406 71.3536 70.0744 70.8041 70.1584 70.2352C70.3904 68.6626 70.9309 67.0645 70.9309 65.4578C70.9309 64.1849 71.1277 62.9009 71.1277 61.635C71.1277 61.3034 71.1613 60.9955 71.1897 60.6693C71.2273 60.2362 71.1332 59.7846 71.2261 59.3574C71.3449 58.811 71.2832 58.2565 71.5869 57.7504" stroke="black" stroke-linecap="round"/>
<path d="M23.1789 52.2415C23.0938 51.805 23.1134 51.3731 23.1134 50.9296C23.1134 50.5787 23.0295 50.0955 23.1279 49.7635C23.2389 49.3889 23.2154 48.8809 23.2445 48.488C23.2788 48.0258 23.4534 47.5861 23.5106 47.1288C23.6079 46.3503 23.9024 45.3033 24.2941 44.6179C24.7065 43.8961 24.8344 42.992 25.3108 42.3039C25.8205 41.5676 26.17 40.5816 26.4915 39.7457C26.6835 39.2463 26.9254 38.767 27.1474 38.2735C27.4173 37.6737 27.6107 37.0025 27.9674 36.4477C28.1148 36.2185 28.192 35.95 28.3281 35.708C28.4895 35.4211 28.6655 35.1518 28.8201 34.8589C29.1055 34.3181 29.5057 33.7996 29.8368 33.2846C30.4291 32.3632 31.248 31.5491 32.0197 30.7774C32.778 30.0191 33.6317 29.2162 34.5924 28.7221C34.8224 28.6039 35.0321 28.4713 35.2484 28.3322C35.473 28.1878 35.7548 28.1683 35.9845 28.037C36.4218 27.7872 36.9989 27.6508 37.4786 27.4795C39.4869 26.7622 41.4091 25.6801 43.5461 25.3513C45.9848 24.9761 48.5246 25.3476 50.9766 25.3476C53.9727 25.3476 56.8357 25.9573 59.7808 26.4482C60.5321 26.5734 61.274 26.7727 62.0111 26.9365C62.4971 27.0445 62.9992 27.1253 63.4541 27.3301C64.017 27.5833 64.5221 27.8359 65.0612 28.1354C65.6601 28.4681 66.3635 28.8096 66.8651 29.2833C67.2195 29.6181 67.6102 29.803 67.9292 30.2017C68.1367 30.4611 68.5462 30.6904 68.6398 31.0179C68.7349 31.3508 69.2337 31.76 69.4524 32.0383C69.6812 32.3295 69.9645 32.6046 70.1448 32.9202C70.3473 33.2745 70.6588 33.5867 70.8008 33.977C70.959 34.4121 71.2343 34.8368 71.4421 35.2525C71.8027 35.9735 72.1991 36.8058 72.3714 37.5811C72.4424 37.9006 72.5718 38.24 72.5718 38.565C72.5718 38.8902 72.6606 39.3831 72.754 39.6983C72.8121 39.8942 72.7313 40.1071 72.8014 40.3033C72.8713 40.4988 72.8924 40.8321 72.8998 41.0394C72.9139 41.4356 72.9654 41.8108 72.9654 42.2055C72.9654 42.8922 73.031 43.577 73.031 44.2717C73.031 44.6824 72.8998 45.1022 72.8998 45.518C72.8998 45.9576 72.8023 46.4055 72.7176 46.8482C72.5234 47.8621 72.3859 48.86 72.2402 49.8801C72.1149 50.7573 72.0471 51.6412 72.0471 52.5367C72.0471 53.4611 71.9159 54.3817 71.9159 55.3099C71.9159 56.7452 71.9815 58.1532 71.9815 59.5881" stroke="black" stroke-linecap="round"/>
<path d="M72.0273 59.8261C72.1996 59.5569 72.2573 59.0691 72.2573 58.753C72.2573 58.4216 72.3413 58.0491 72.4149 57.7182C72.5348 57.1784 72.7196 56.5872 72.9855 56.1085C73.0958 55.9099 73.3441 55.6197 73.4028 55.4144C73.4793 55.1467 73.7294 55.1519 73.9436 55.0567C74.4673 54.824 74.8405 54.3832 74.8634 53.7877C74.8898 53.0998 75.3233 52.4145 75.3233 51.7395C75.3233 51.0472 75.3999 50.3069 75.3999 49.5933C75.3999 49.0013 75.5532 48.4216 75.5532 47.8687C75.5532 47.3171 75.9365 46.8573 75.9365 46.3357C75.9365 46.0467 76.2389 44.8606 75.9748 44.6494C75.9217 44.6069 75.7884 43.9772 75.7832 43.8829C75.7669 43.5889 75.6299 43.3907 75.6299 43.0781C75.6299 42.4899 76.1905 42.0185 76.5667 41.6004C76.7325 41.4162 76.9331 41.3064 77.1246 41.1576C77.3789 40.9597 77.3642 40.6994 77.5291 40.4933C77.7366 40.2338 77.5398 39.0831 77.4737 38.7857C77.3184 38.0865 77.2395 37.4335 77.2395 36.7161C77.2395 36.1628 77.4695 35.7189 77.4695 35.1448C77.4695 34.611 77.3961 34.0015 77.1629 33.5352" stroke="black" stroke-linecap="round"/>
<path d="M77.1621 33.5357C76.9944 33.5357 76.8126 33.4304 76.6596 33.3867C76.4632 33.3306 76.1788 33.3824 75.974 33.3824C75.8191 33.3824 75.536 33.3846 75.4162 33.2887C75.2248 33.1357 75.453 32.9632 75.4758 32.7692C75.534 32.2747 76.3836 30.7763 75.3608 30.7763C74.9739 30.7763 74.6285 30.5143 74.2494 30.4697C74.0902 30.451 73.9245 30.2838 73.7554 30.2355C73.6717 30.2116 73.6857 29.679 73.7512 29.6266C73.8164 29.5744 73.8661 29.0916 73.8661 28.9963C73.8661 28.7294 73.9428 28.5106 73.9428 28.2469C73.9428 27.8317 74.0467 27.2282 73.8661 26.8672" stroke="black" stroke-linecap="round"/>
<path d="M73.8663 26.7137C73.4566 26.7137 73.1048 26.7903 72.7165 26.7903C72.3048 26.7903 71.8828 26.8901 71.4901 26.867C71.302 26.8559 70.8963 26.1216 70.8769 25.9472C70.8392 25.6075 70.7972 25.2116 70.5533 24.9678C70.3366 24.751 70.0315 24.627 69.7868 24.4312C69.6203 24.298 69.0158 23.9803 68.8074 23.9543C68.3484 23.8969 68.9607 21.8541 68.9607 21.5781" stroke="black" stroke-linecap="round"/>
<path d="M69.0371 21.4988C68.4276 21.4988 67.7881 21.5088 67.2316 21.3498C67.0269 21.2913 66.7676 20.0051 66.7376 19.7359C66.6609 19.0456 66.1606 18.3823 65.7412 17.858C65.6262 17.7142 65.3251 17.1359 65.128 17.2235C64.9515 17.3019 64.513 17.6895 64.4381 17.858C64.3171 18.1303 62.8516 18.7826 62.8285 18.5861C62.7709 18.0964 62.2041 17.6685 61.798 17.4364C61.2355 17.115 60.9395 16.4477 60.2224 16.3633C59.8686 16.3217 59.6993 16.3558 59.3409 16.5549C59.0772 16.7015 58.684 16.8232 58.3828 16.8232" stroke="black" stroke-linecap="round"/>
<path d="M58.3069 16.6728C58.0162 16.2276 57.7607 15.7378 57.4041 15.3527C57.0442 14.9639 56.869 14.3671 56.4929 13.973C56.126 13.5887 55.8541 13.1256 55.4709 12.7636C55.1996 12.5074 55.0051 12.782 54.781 12.9936C54.2518 13.4934 53.456 13.5428 52.8052 13.7431C52.5693 13.8156 52.2536 13.9764 52.0216 13.99C51.8077 14.0026 51.6501 14.2682 51.4084 14.2966C51.175 14.3241 50.9814 14.5266 50.7186 14.5266C50.5062 14.5266 50.1895 14.3467 50.0458 14.203C49.7247 13.8819 49.2755 13.3972 48.879 13.1639C48.5929 12.9956 48.4133 12.9893 48.2487 13.3002C48.1246 13.5347 47.9326 13.7441 47.7463 13.9304C47.6705 14.0062 47.4009 14.3713 47.2864 14.2796C47.136 14.1593 46.9529 14.0228 46.8265 13.8964C46.5643 13.6341 45.8072 13.3401 45.5234 13.6238C45.0129 14.1343 44.7065 13.4941 44.3396 13.1639C44.1374 12.9819 43.7621 12.9123 43.5135 12.7807C43.2252 12.6281 43.1902 13.061 43.0706 13.3002C42.8041 13.8333 42.4582 14.314 42.2275 14.8332C42.1366 15.0376 42.0062 15.3808 41.9805 15.5997C41.9526 15.8369 41.7001 16.0532 41.6739 16.2895C41.627 16.7116 41.0926 17.3423 40.8137 17.6522C40.7362 17.7383 40.4178 18.0973 40.2942 18.0354C40.1577 17.9672 39.9656 17.6399 39.8343 17.5159C39.6065 17.3008 39.2854 17.2761 39.0848 17.1156C38.9295 16.9914 38.7396 16.8261 38.5312 16.8261" stroke="black" stroke-linecap="round"/>
<path d="M38.5318 16.746C38.2821 16.8635 37.8297 17.0624 37.629 17.2229C37.4853 17.3379 37.0347 17.5029 36.8455 17.4188C36.6356 17.3255 36.2706 17.2518 36.096 17.1122C35.8656 16.9279 35.5717 16.9975 35.3125 16.8823C35.2355 16.8481 34.5881 16.6613 34.563 16.6864C34.4286 16.8209 34.5753 17.389 34.4864 17.5892C34.4071 17.7675 34.3637 18.1676 34.0861 18.2023C33.8295 18.2344 33.5723 18.2379 33.3963 17.9298C33.0502 17.3242 32.0289 17.1106 31.4417 16.7843C31.1345 16.6137 30.8672 16.495 30.7859 16.861C30.7408 17.0639 30.7654 17.5323 30.5985 17.6658C30.3978 17.8264 30.2733 18.2593 30.062 18.4706C29.8548 18.6779 29.473 18.9127 29.3338 19.1562C29.0714 19.6155 28.3259 19.835 28.1074 20.2719" stroke="black" stroke-linecap="round"/>
<path d="M27.953 20.5819C27.1903 20.4294 26.6064 19.9688 25.8069 19.9688C25.4686 19.9688 25.3565 20.3444 25.1553 20.5053C24.8842 20.7222 24.7989 20.8119 24.4272 20.8119C23.9146 20.8119 23.0307 20.0663 22.6046 20.599C22.3958 20.8599 22.5109 21.564 22.5109 21.885C22.5109 22.325 22.4407 22.8148 22.6259 23.2221C22.6895 23.3621 22.6923 23.5568 22.8005 23.665C22.8047 23.6692 22.5969 23.5254 22.5109 23.4776C22.0727 23.2342 21.4927 22.9464 21.012 22.8091C20.6164 22.696 20.4141 22.7952 20.3647 23.2647C20.3269 23.6238 20.1348 23.9198 20.1348 24.2995C20.1348 25.0141 20.3647 25.6871 20.3647 26.369C20.3647 26.697 20.518 26.9822 20.518 27.3271C20.518 27.5627 20.5331 28.329 20.8246 27.9403" stroke="black" stroke-linecap="round"/>
<path d="M20.6709 28.3213C20.151 28.3213 19.6276 28.168 19.0996 28.168C18.4526 28.168 18.2204 28.4813 17.6816 28.7982C17.3794 28.976 16.9795 29.3905 16.7618 29.6626C16.5071 29.9811 15.7007 29.701 15.3821 29.701C14.8564 29.701 15.0951 30.6989 15.1479 31.0423C15.2661 31.8106 15.1522 32.6782 15.1522 33.4568C15.1522 34.0034 15.229 34.469 15.4971 34.9515C15.6089 35.1528 15.7116 35.4187 15.7611 35.6413C15.8468 36.0268 15.8716 35.7483 15.7483 35.5264C15.4883 35.0583 14.9562 34.4489 14.5092 34.1509C14.4129 34.0867 14.4486 34.5706 14.5049 34.6832C14.6812 35.0358 14.9574 35.2978 15.0925 35.6626C15.2882 36.191 15.6887 36.7536 15.6887 37.3276C15.6887 37.4507 15.8803 37.8125 15.7228 37.9025C15.4673 38.0485 15.3055 38.219 15.3055 38.5157C15.3055 39.2035 15.7042 39.7564 16.1145 40.2786C16.5824 40.8741 17.2572 41.1233 17.7753 41.6413C17.9974 41.8634 18.1415 42.4634 18.1415 42.7698C18.1415 43.0115 18.3987 43.9059 18.1415 44.0345" stroke="black" stroke-linecap="round"/>
<path d="M17.9886 44.4963C17.5488 44.2148 17.1487 44.4196 16.6855 44.4196C16.1779 44.4196 17.0624 45.4712 17.1497 45.5694C18.1084 46.6479 18.832 47.8528 19.7089 48.9803C20.223 49.6412 20.7098 50.4089 21.2675 51.0285C21.6239 51.4246 21.9744 52.2581 21.9744 52.7745" stroke="black" stroke-linecap="round"/>
<path d="M15.3057 39.8183C14.8444 39.8183 14.4334 39.6912 13.9771 39.6608C13.5667 39.6334 13.1705 39.5884 12.7592 39.5884C12.5161 39.5884 12.216 39.6492 12.0098 39.5117" stroke="black" stroke-linecap="round"/>
<path d="M15.2297 32.8439C14.8515 32.2236 14.3054 31.9254 13.7904 31.4472C13.5644 31.2373 13.3961 30.7391 13.1602 30.6211" stroke="black" stroke-linecap="round"/>
<path d="M19.2159 27.709C18.8895 27.0926 18.2333 26.6216 17.7255 26.1761C17.1118 25.6378 16.4927 25.1392 15.9199 24.5664" stroke="black" stroke-linecap="round"/>
<path d="M20.8254 22.6481C20.4726 21.6681 19.3323 21.06 18.7559 20.1953" stroke="black" stroke-linecap="round"/>
<path d="M26.4206 19.9661C26.1456 19.526 25.7255 19.1997 25.3092 18.893C25.0564 18.7067 24.5649 18.4774 24.4277 18.2031" stroke="black" stroke-linecap="round"/>
<path d="M31.4785 16.5937C31.6953 15.2746 31.766 13.7129 32.475 12.5312" stroke="black" stroke-linecap="round"/>
<path d="M31.1729 16.3649C30.5797 15.9654 30.001 15.5435 29.41 15.1385C29.0903 14.9195 28.3598 14.5712 28.1836 14.2188" stroke="black" stroke-linecap="round"/>
<path d="M39.4501 16.8263C39.0269 15.9962 38.6836 15.2487 38.6836 14.2969" stroke="black" stroke-linecap="round"/>
<path d="M50.1055 12.8402C50.1055 11.9962 50.2813 11.1287 50.4887 10.3108C50.6138 9.81746 50.808 8.69264 51.2552 8.39453" stroke="black" stroke-linecap="round"/>
<path d="M50.3347 12.6079C49.9597 11.7982 49.6039 11.0509 48.9592 10.4277C48.7505 10.2259 48.5365 10.0023 48.3588 9.77188C48.2134 9.58337 48.0352 9.32783 48.0352 9.08203" stroke="black" stroke-linecap="round"/>
<path d="M63.2129 18.2827C63.2968 17.4282 63.3294 16.5501 63.5621 15.7192C63.6417 15.4349 63.812 15.1825 63.9027 14.9102" stroke="black" stroke-linecap="round"/>
<path d="M71.7207 25.945C72.2634 25.1309 72.7881 24.3055 73.3303 23.4922" stroke="black" stroke-linecap="round"/>
<path d="M72.7162 24.1813C72.4468 23.2194 71.8075 22.3863 71.5664 21.4219" stroke="black" stroke-linecap="round"/>
<path d="M78.1582 38.7454C78.5843 37.774 79.3975 37.6921 80.3044 37.2891" stroke="black" stroke-linecap="round"/>
<path d="M76.3965 45.4162C77.6528 44.8886 78.88 44.2833 79.999 43.5" stroke="black" stroke-linecap="round"/>
<path d="M56.9395 78.5898C57.3067 78.6789 57.7037 78.8935 58.006 79.0951" stroke="black" stroke-linecap="round"/>
<path d="M60.5879 76.793C60.7472 76.9029 61.1492 77.0225 61.1492 77.2701C61.1492 77.3795 61.1606 77.4332 61.2054 77.5227" stroke="black" stroke-linecap="round"/>
<path d="M44.3086 77.6364C44.5885 77.4419 44.9784 77.0858 45.319 76.9753C45.5277 76.9076 45.7399 76.8366 45.9365 76.7383" stroke="black" stroke-linecap="round"/>
</svg>
