<svg width="100" height="100" viewBox="0 0 100 100" fill="none" xmlns="http://www.w3.org/2000/svg">
<path d="M26.1582 46.8345C26.4652 46.5275 26.5494 46.0709 26.8563 45.7641C27.1509 45.4695 27.2742 45.036 27.5699 44.7403C27.874 44.4361 28.1288 44.0643 28.5162 43.8491C28.7993 43.6918 28.9726 43.3906 29.3228 43.3906C30.0956 43.3906 30.8452 43.538 31.6033 43.6699C32.1141 43.7587 32.6384 43.9246 33.139 44.0594C33.556 44.1717 34.0001 44.2355 34.4111 44.3662C34.8395 44.5025 35.2855 44.5818 35.7142 44.7247C36.1357 44.8652 36.5608 45.041 36.9931 45.135C37.3926 45.2218 37.7892 45.3589 38.1721 45.5004C38.5133 45.6265 38.8757 45.6897 39.196 45.8727C39.4773 46.0335 39.809 46.0807 40.0888 46.2605C40.3598 46.4347 40.654 46.5553 40.911 46.7552C40.9858 46.8134 41.0736 46.9205 41.1592 46.9586C41.1959 46.9749 41.3572 47.1284 41.2833 47.112C41.2047 47.0945 41.067 46.9937 41.0041 46.9448C40.8841 46.8515 40.7228 46.8146 40.587 46.7552C40.1125 46.5476 39.6254 46.3537 39.1339 46.1899C38.5423 45.9926 37.9665 45.7571 37.3517 45.6314C36.4744 45.4519 35.6006 45.2569 34.7214 45.0971C34.2203 45.0059 33.726 44.8538 33.2166 44.8161C32.7392 44.7807 32.2289 44.7343 31.7584 44.6472C30.9607 44.4994 30.1324 44.5386 29.3228 44.5386C28.9337 44.5386 28.5616 44.6317 28.1749 44.6317" stroke="black" stroke-width="2" stroke-linecap="round"/>
<path d="M37.7917 50.0307C37.5985 50.0065 37.4038 49.9066 37.2022 49.9066C36.9706 49.9066 36.742 49.8755 36.5041 49.8755C36.3785 49.8755 36.2697 49.8445 36.1473 49.8445C35.954 49.8445 35.7708 49.7584 35.582 49.7514C35.2497 49.7391 34.9575 49.5439 34.6426 49.4739C34.3381 49.4063 34.0243 49.2478 33.7032 49.224C33.3461 49.1976 32.999 49.053 32.6431 49.0085C32.3356 48.9701 32.0524 48.9448 31.7348 48.9448C31.5234 48.9448 31.0506 48.87 30.904 49.0534C30.7941 49.1906 30.5101 49.2069 30.4231 49.3636C30.3378 49.5171 30.288 49.8037 30.4144 49.9617C30.5903 50.1816 30.7566 50.1149 31.0108 50.1875C31.2191 50.247 31.4506 50.2479 31.6796 50.2479C31.8221 50.2479 31.9646 50.2479 32.1071 50.2479C32.207 50.2479 32.3828 50.2812 32.4708 50.2323C32.5679 50.1784 32.7317 50.173 32.8414 50.1531C32.9546 50.1325 33.0928 50.068 33.1999 50.0617C33.6143 50.0373 33.9635 49.835 34.3168 49.6584" stroke="black" stroke-width="2" stroke-linecap="round"/>
<path d="M52.4531 46.3816C52.5305 46.1397 52.6734 46.0159 52.8882 45.9022C53.0013 45.8424 53.11 45.7977 53.2306 45.7632C53.2776 45.7498 53.4614 45.6765 53.4965 45.6484C53.6177 45.5514 53.8984 45.4813 54.0564 45.4752C54.3527 45.4638 54.6536 45.3548 54.9366 45.2919C55.0451 45.2678 55.1358 45.2275 55.2448 45.2214C55.3191 45.2173 55.5238 45.2033 55.5892 45.1671C55.7414 45.0825 56.0698 45.0402 56.2418 45.0402C56.8147 45.0402 57.4427 45.0039 58.0364 45.0039C58.3533 45.0039 58.6702 45.0039 58.9871 45.0039C59.4506 45.0039 59.8984 45.0999 60.3567 45.1127C60.602 45.1195 60.8778 45.2043 61.118 45.2577C61.3705 45.3138 61.6181 45.3647 61.8713 45.4108C62.3429 45.4965 62.8383 45.6056 63.2913 45.7471C63.7184 45.8806 64.1623 45.9467 64.5965 46.0553C64.9987 46.1558 65.372 46.2979 65.7587 46.436C66.0565 46.5423 66.3148 46.7342 66.5925 46.873C66.847 47.0003 67.0725 47.2016 67.3176 47.3242" stroke="black" stroke-width="2" stroke-linecap="round"/>
<path d="M56.4414 49.2105C56.4556 49.3243 57.0367 49.4844 57.0215 49.2105C57.0147 49.0876 56.7677 49.0352 56.7677 49.1924C56.7677 49.316 57.0253 49.283 57.1121 49.283C57.2503 49.283 57.3912 49.2911 57.5291 49.283C57.6189 49.2777 57.6977 49.138 57.801 49.138C57.8841 49.138 58.0366 49.0728 58.1011 49.0212C58.1851 48.9539 58.3979 48.993 58.5079 48.993C59.2841 48.993 60.034 48.9093 60.792 49.1199C61.3077 49.2631 61.8538 49.2051 62.3671 49.3918C62.5576 49.461 62.7442 49.5544 62.931 49.6375C63.0276 49.6804 63.1484 49.7906 63.2573 49.7906" stroke="black" stroke-width="2" stroke-linecap="round"/>
<path d="M32.3633 69.0521C32.5203 69.0455 32.6622 68.9598 32.8132 68.9262C32.9593 68.8938 33.1264 68.8267 33.263 68.7659C33.5591 68.6343 33.8523 68.5006 34.1473 68.3695C34.3422 68.2829 34.5566 68.2519 34.7523 68.1592C34.9128 68.0832 35.059 67.9903 35.2177 67.911C35.5606 67.7395 35.8947 67.531 36.195 67.2974C36.5654 67.0092 36.7974 66.6036 37.1258 66.2753C37.1835 66.2175 37.2679 66.0761 37.2964 65.9977C37.3286 65.9093 37.4302 65.8452 37.4757 65.7633C37.5481 65.6329 37.6407 65.5228 37.7066 65.391C37.7941 65.216 37.877 65.04 37.9652 64.8636C38.0635 64.667 38.1539 64.4459 38.272 64.2603C38.3728 64.102 38.428 63.8863 38.5133 63.7156C38.5848 63.5727 38.6247 63.417 38.6926 63.2812" stroke="black" stroke-linecap="round"/>
<path d="M60.0254 65.6641C60.0254 65.7933 60.0248 66.0781 60.0889 66.1936C60.1497 66.3031 60.0897 66.5388 60.1619 66.629C60.2848 66.7826 60.2926 67.2131 60.3196 67.4152C60.3449 67.6052 60.3749 67.7875 60.409 67.9753C60.472 68.3217 60.466 68.7314 60.6091 69.0533C60.6792 69.2111 60.6805 69.3851 60.7668 69.5405C60.8434 69.6784 60.9369 69.8227 60.9998 69.9641C61.1234 70.2423 61.3398 70.4855 61.4658 70.7691C61.5415 70.9394 61.6872 71.0277 61.7718 71.1715C61.8574 71.3171 62.0351 71.5019 62.186 71.5858C62.382 71.6947 62.6343 71.9438 62.7791 72.1247C62.9029 72.2794 63.1577 72.4972 63.3299 72.6119" stroke="black" stroke-linecap="round"/>
<path d="M42.8248 67.1496C42.573 67.2204 42.3458 67.4356 42.1658 67.6156C42.0087 67.7727 41.7279 67.8959 41.5962 68.0604C41.4816 68.2037 41.1666 68.3294 41.0031 68.4111C40.847 68.4892 40.561 68.6025 40.4524 68.7383C40.3236 68.8992 40.1406 69.0476 39.9957 69.1925C39.8842 69.3041 39.7776 69.5643 39.7345 69.715C39.5794 70.2578 39.9941 70.668 40.3888 70.9413C40.7533 71.1936 41.2554 71.2016 41.6292 71.4285C41.7988 71.5315 42.0047 71.5794 42.187 71.6591C42.3624 71.7359 42.4931 71.8231 42.6577 71.9157C43.4366 72.3538 44.2679 72.6836 45.049 73.1042C45.3385 73.2602 45.6368 73.4436 45.908 73.6315C46.0782 73.7492 46.2967 73.9547 46.4917 74.0104C46.7258 74.0773 47.0266 74.0551 47.2731 74.0551C47.6795 74.0551 48.1261 74.0855 48.5206 73.9916C48.9658 73.8855 49.4572 73.9597 49.8974 73.8221C50.3195 73.6902 50.7494 73.5306 51.1707 73.4102C51.3414 73.3614 51.4811 73.238 51.6603 73.2054C51.7956 73.1808 52.0573 73.0572 52.1663 72.9724C52.3196 72.8532 52.5252 72.7987 52.6959 72.7088C52.8436 72.6311 53.0188 72.5133 53.1713 72.4546C53.7067 72.2487 54.2222 71.9268 54.7294 71.6732C54.974 71.551 55.1598 71.3897 55.3884 71.259C55.6215 71.1258 55.7401 70.7832 55.8733 70.5717C56.2713 69.9395 56.0894 69.1629 56.3816 68.5053C56.5537 68.1182 56.6801 67.6625 56.8053 67.2555C56.9292 66.8528 57.0721 66.4566 57.1772 66.0481C57.2831 65.6362 57.4221 65.2309 57.5255 64.8171C57.5787 64.6044 57.6324 64.3965 57.6856 64.184C57.7316 63.9997 57.7379 63.759 57.8126 63.5909C57.8712 63.4592 57.8525 63.2226 57.8668 63.0802C57.8936 62.812 57.9091 62.5414 57.9468 62.2776C57.9847 62.0121 57.9915 61.7432 57.9915 61.4727" stroke="black" stroke-width="2" stroke-linecap="round"/>
<path d="M71.6699 68.5357C71.8792 68.5125 72.066 68.4632 72.2863 68.4632C72.5186 68.4632 72.7509 68.4632 72.9832 68.4632C73.3741 68.4632 73.9328 68.5454 74.2521 68.29C74.317 68.2381 74.4399 68.2335 74.5159 68.1913C74.6005 68.1444 74.6688 68.0688 74.7516 68.0201C74.9287 67.9159 75.139 67.7044 75.231 67.5206C75.3626 67.2573 75.5737 67.0002 75.7305 66.7512C75.9078 66.4696 76.1392 66.156 76.238 65.8348C76.2871 65.6754 76.3956 65.5328 76.4636 65.3816C76.5262 65.2426 76.58 65.1 76.653 64.9646C76.8556 64.5883 77.0053 64.1733 77.1988 63.7864C77.3737 63.4364 77.513 63.0766 77.7064 62.7329C77.888 62.41 78.0908 62.0742 78.224 61.7279C78.3573 61.3813 78.6166 61.0783 78.7759 60.7409C78.97 60.3299 79.1884 59.916 79.3922 59.5083C79.5625 59.1678 79.7331 58.8281 79.936 58.5012C80.1452 58.1642 80.2728 57.7546 80.5161 57.4417C80.769 57.1166 80.9625 56.7236 81.1848 56.3742C81.3468 56.1197 81.4865 55.8233 81.6199 55.5565C81.8965 55.0032 82.0951 54.4096 82.3853 53.8706C82.7154 53.2576 82.9452 52.5577 82.9452 51.8585C82.9452 51.5995 83.0204 51.2035 82.8908 50.9702C82.7532 50.7225 82.5083 50.5972 82.2201 50.5251C81.9248 50.4513 81.5874 50.3493 81.2775 50.4164C80.9595 50.4851 80.6311 50.5648 80.3268 50.6701C80.0335 50.7717 79.7593 50.9105 79.4728 51.0166C79.3093 51.0771 78.9163 51.1664 78.8121 51.2965C78.737 51.3905 78.5348 51.5445 78.4294 51.6047C78.2444 51.7105 78.0973 51.9033 77.9219 52.0035C77.7509 52.1012 77.675 52.3186 77.5251 52.4386C77.4288 52.5156 77.271 52.6929 77.2169 52.8011" stroke="black" stroke-width="2" stroke-linecap="round"/>
<path d="M21.0097 66.8741C20.7268 66.3197 20.3909 65.8144 20.0971 65.2855C19.9142 64.9564 19.8719 64.4717 19.6427 64.1852C19.4111 63.8957 19.0182 63.5711 18.9104 63.1938C18.7887 62.7679 18.4543 62.3416 18.2532 61.9394C17.7441 60.9213 16.8185 60.1681 16.2628 59.1679C15.6957 58.1472 15.2455 57.0739 14.9409 55.9232C14.7561 55.2253 14.5663 54.5078 14.4564 53.7939C14.3644 53.1955 14.2661 52.4231 14.0321 51.8673C13.9222 51.6065 13.942 51.3099 13.8593 51.0411C13.7646 50.7332 13.703 50.3973 13.6452 50.0797C13.5472 49.5404 13.3711 48.9648 13.3711 48.4198C13.3711 47.9757 13.3728 47.6343 13.7429 47.3382C14.1278 47.0303 14.5164 47.0679 14.9934 47.0679C15.3741 47.0679 15.8821 47.1816 16.1426 47.5072C16.3939 47.8214 16.8385 47.9863 17.0214 48.3522" stroke="black" stroke-width="2" stroke-linecap="round"/>
<path d="M38.8555 79.2109C39.0172 79.2312 39.293 79.6265 39.411 79.7445C39.6031 79.9365 39.937 80.0801 40.0931 80.2753C40.2915 80.5232 40.6807 80.7859 40.9567 80.9436C41.2466 81.1093 41.524 81.3562 41.8258 81.4992C42.1731 81.6637 42.474 81.8233 42.8159 81.9942C43.2361 82.2044 43.6408 82.3202 44.0755 82.4783C44.5028 82.6336 45.1105 82.8248 45.5634 82.8248C46.047 82.8248 46.5462 83.0472 47.0238 83.0723C48.0329 83.1254 49.04 83.2209 50.0684 83.2209C50.5213 83.2209 51.1015 83.2992 51.5288 83.1466C51.908 83.0112 52.5242 83.078 52.8544 82.8138C52.9845 82.7097 53.2099 82.7131 53.3605 82.6378C53.5139 82.5611 53.6576 82.5184 53.806 82.4398C54.0605 82.3051 54.3585 82.1467 54.5486 81.909C54.711 81.706 55.002 81.5312 55.1702 81.3149C55.3872 81.0359 55.6276 80.7164 55.7862 80.3991" stroke="black" stroke-width="2" stroke-linecap="round"/>
<path d="M57.7681 92.0437C62.6852 92.0437 67.643 91.8964 72.5698 91.8964C73.8462 91.8964 75.1226 91.8964 76.399 91.8964C77.5959 91.8964 78.7103 91.6019 79.8601 91.6019C80.9823 91.6019 82.1007 91.0143 83.1658 90.71C83.6044 90.5847 84.1073 90.3038 84.5731 90.2764C85.0398 90.2489 85.4505 89.7433 85.8986 89.6872C86.1094 89.6609 86.9504 89.1826 87.0769 89.0245C87.4274 88.5864 88.0706 88.4283 88.3697 87.9199C88.6088 87.5134 89.0463 87.1209 89.147 86.668C89.2821 86.06 89.6457 85.299 89.9488 84.7534C91.1419 82.6058 90.1697 79.8055 90.1697 77.5366C90.1697 74.9825 89.5806 72.5355 89.5806 69.9517C89.5806 69.2399 89.4333 68.5484 89.4333 67.8161C89.4333 67.1614 89.5806 66.5203 89.5806 65.9015C89.5806 64.5745 90.1697 63.2067 90.1697 61.8513C90.1697 60.5984 90.317 59.394 90.317 58.1693C90.317 57.0896 90.0961 54.4136 90.0961 54.4136C90.0961 54.4136 89.5925 52.3195 89.4333 50.9526C89.2702 49.5517 89.2861 47.3442 89.2861 47.3442C89.2861 47.3442 89.1311 44.993 89.3597 43.5149C89.4632 42.846 89.7077 42.1642 89.7279 41.8212C89.7659 41.1752 90.0225 39.9066 90.0225 39.9066C90.0225 39.9066 90.1404 37.6184 90.1697 36.1509C90.2002 34.627 90.1697 32.248 90.1697 32.248C90.1697 32.248 89.8081 31.2183 89.5888 30.5543C89.3943 29.9651 89.1061 29.0406 89.1061 29.0406C89.1061 29.0406 88.0069 27.0862 87.2896 25.8413C85.4495 22.6476 85.2777 20.1 82.4457 17.7409C81.108 16.6266 78.6164 15.458 78.6164 15.458C78.6164 15.458 75.5869 14.2728 74.1162 13.5761C72.5844 12.8506 71.0109 12.2561 69.4687 11.5551C68.5913 11.1563 66.7849 10.4833 66.7849 10.4833L64.543 9.71412C63.7718 9.637 62.2602 9.125 62.2602 9.125L58.8645 8.56861L53.0551 7.6522C53.0551 7.6522 48.4387 7.21036 46.133 7.21036C44.3569 7.21036 40.389 7.13672 40.389 7.13672L36.8543 7.35764C36.8543 7.35764 35.2977 7.79948 34.5715 7.79948C33.8453 7.79948 32.4686 8.09404 32.4686 8.09404L30.6686 8.53588C29.9364 8.57895 28.5903 9.27228 28.5903 9.27228C27.7443 9.46028 26.0292 10.2296 26.0292 10.2296L22.4209 12.3652L18.5589 14.9835L14.8441 18.4691L11.4076 21.9384L9.08383 25.9149L7.10373 29.9651L5.5982 33.7208C5.5982 33.7208 5.04181 36.3353 5.04181 37.6237C5.04181 38.8489 4.89453 41.3794 4.89453 41.3794L5.33637 44.7668L5.63093 47.4178C5.63093 47.4178 5.7957 48.9102 5.99913 49.4798C6.63806 51.2687 8.24925 54.4218 8.24925 54.4218C8.24925 54.4218 8.59001 55.2841 8.90382 55.6328C9.10024 55.851 9.6075 56.181 9.6075 56.181C10.2009 56.9228 11.1208 57.388 11.5958 58.2429L12.4385 59.6094C12.4385 59.6094 12.8857 60.7587 13.1422 61.3358C13.8267 62.876 13.9265 64.7274 14.0259 66.417C14.1162 67.9519 14.0259 69.6064 14.0259 71.2036C14.0259 72.972 13.3841 74.7292 13.2895 76.432C13.2439 77.2537 12.3404 79.1567 12.3404 79.1567C12.3404 79.1567 11.5523 80.485 11.5221 80.9977C11.5221 80.9977 11.0803 82.0161 11.0803 82.5523C11.0803 83.4622 10.2784 85.6289 10.2784 85.6289C10.2784 85.6289 9.35752 87.899 9.78751 88.329C10.157 88.6985 10.6188 89.1156 11.0803 89.36C12.2136 89.96 13.0453 90.7733 14.2468 91.3073C15.9346 92.0575 17.8617 91.7755 19.6225 92.2646C20.4401 92.4917 21.457 92.3383 22.3063 92.3383C23.2664 92.3383 24.2264 92.3383 25.1865 92.3383C26.0278 92.3383 26.9768 92.1642 27.813 92.0355C29.0025 91.8525 30.1881 91.8964 31.3968 91.8964C32.9159 91.8964 34.5336 92.0437 35.9706 92.0437" stroke="black" stroke-width="2" stroke-linecap="round"/>
<path d="M21.2428 67.1542C21.2428 66.6283 21.273 66.0598 21.0219 65.6077C20.8503 65.2989 20.8066 64.3899 20.58 64.2086C20.446 64.1013 20.2118 62.9955 20.2118 62.8094C20.2118 62.3559 20.0405 61.6576 19.9091 61.1975C19.6146 60.167 19.4754 59.1503 19.4754 58.0228C19.4754 56.9636 19.0336 55.8722 19.0336 54.7826C19.0336 53.7832 18.8541 52.5712 18.5836 51.6243C18.4669 51.2159 18.1499 50.5689 18.1499 50.1433C18.1499 49.6456 17.6819 49.1786 17.569 48.6705C17.1002 46.5609 15.6461 44.3676 15.6461 42.1902C15.6461 40.9525 15.5986 39.7039 15.6461 38.4673C15.6973 37.1363 15.9759 36.3025 16.5625 35.1944C16.7678 34.8066 17.2662 34.2244 17.2662 33.7952C17.2662 33.5885 17.6315 32.5162 17.7817 32.3961C18.4914 31.8283 18.9589 30.4849 19.189 29.6796C19.7194 27.8233 21.9189 26.5452 22.8956 24.8848C23.2686 24.2507 24.0967 24.013 24.4502 23.412C24.675 23.0298 25.3325 22.5556 25.6939 22.2665C26.5267 21.6002 27.6126 21.0719 28.4595 20.3191C29.1652 19.6918 30.5821 19.4354 31.4788 19.4354C32.0561 19.4354 32.5357 19.1408 33.0988 19.1408C33.688 19.1408 34.2771 19.1408 34.8662 19.1408C35.2101 19.1408 36.263 18.9622 36.5272 19.1736C36.8529 19.4341 37.484 19.6661 37.8854 19.8445C38.7551 20.231 40.0364 20.6372 40.7165 21.3173C41.3675 21.9683 42.5512 22.5891 43.4084 22.9701C43.9907 23.2289 44.4111 23.5406 45.0203 23.7147C45.5125 23.8553 46.3268 23.9614 46.7959 24.222C47.6694 24.7073 49.3533 24.8848 50.3306 24.8848C51.0094 24.8848 51.7014 25.1793 52.3925 25.1793C53.2426 25.1793 54.1331 25.3462 54.9699 25.4657C56.0996 25.6271 57.3625 25.4739 58.5047 25.4739C59.9481 25.4739 61.3585 25.9843 62.7758 26.063C63.5391 26.1054 64.9315 26.975 65.4596 27.5031C66.2178 28.2613 67.4019 28.6926 68.1924 29.4832C69.7607 31.0515 72.8645 34.3107 72.8645 34.3107C72.8645 34.3107 73.4071 35.2138 73.6009 35.5626C73.8498 36.0106 74.2555 36.8963 74.2555 36.8963L75.1473 39.981L76.031 42.8529L76.7674 46.2404L77.062 47.6396L77.2092 49.5542C77.2092 49.5542 77.062 51.9078 77.062 52.9416C77.062 52.9416 76.6441 53.7857 76.6201 54.1935L76.2928 55.6336C76.014 55.9821 76.1196 56.6234 75.851 56.9591C75.6128 57.2568 75.2946 58.3174 75.2946 58.3174C75.2946 58.3174 74.3828 60.2498 74.2636 61.263L73.2654 63.7995C73.2654 63.7995 72.8064 66.0224 72.1281 66.5651C72.1281 66.5651 71.3893 67.8276 71.3262 68.1115C71.2028 68.6669 70.7311 69.0978 70.5898 69.5925C70.2545 70.7663 68.6343 72.7508 68.6343 72.7508L66.7851 75.5819L65.2059 79.0102L63.8722 81.514C63.8722 81.514 61.7991 84.0118 61.4585 85.2042C61.3362 85.632 60.9305 85.856 60.7139 86.2351C60.4652 86.6703 60.1197 87.1348 59.7565 87.4788C59.4572 87.7625 59.3196 88.2702 59.0201 88.5098C58.8717 88.6285 58.8884 88.9307 58.7665 89.0662C58.3902 89.4843 58.047 89.9612 57.7355 90.4572C57.3415 91.0846 56.9042 91.7572 56.41 92.3064C56.1269 92.6209 55.62 92.7027 55.2972 92.9609C55.0753 93.1385 54.3716 93.631 54.0863 93.6646C53.7409 93.7052 52.9729 94.3196 52.6871 94.5483C52.34 94.826 51.7843 95.0968 51.3616 95.2847C50.327 95.7445 49.4103 96.0211 48.2687 96.0211C47.115 96.0211 45.9613 96.0211 44.8076 96.0211C43.7811 96.0211 42.7306 95.4917 41.7147 95.432C40.8232 95.3795 39.6938 94.6326 38.9164 94.221C37.9616 93.7155 36.8727 93.1592 36.0854 92.3718C35.7423 92.0287 35.6822 91.6428 35.4553 91.2345C35.1613 90.7052 34.726 90.2307 34.3507 89.7617C33.6826 88.9265 33.1814 87.9775 32.7306 86.9634C32.3076 86.0115 31.7003 85.0941 31.1842 84.165C30.6266 83.1614 30.3003 81.9849 29.7114 80.9249C28.4682 78.6871 27.2255 76.3582 25.8085 74.1909C24.771 72.6042 23.4483 71.0579 22.601 69.3634C22.1143 68.3899 21.0955 67.5435 21.0955 66.4178" stroke="black" stroke-width="2" stroke-linecap="round"/>
<path d="M33.4355 86.2267C33.4563 86.0609 33.629 85.8894 33.6681 85.7133C33.7083 85.5326 33.6725 85.306 33.6725 85.1208C33.6725 84.7523 33.6112 84.2201 33.791 83.8965C33.9241 83.657 34.0347 83.109 34.0675 82.8301C34.1009 82.5463 34.3523 82.112 34.5019 81.8427C34.7006 81.485 34.8201 81.0724 34.9978 80.6973C35.103 80.4753 35.1713 80.2429 35.2918 80.0259C35.3734 79.8792 35.4097 79.5288 35.5288 79.4335C35.7716 79.2392 35.9157 78.751 36.1388 78.5032C36.3884 78.2258 36.5866 77.7658 36.8716 77.5377C38.0537 76.5921 39.5004 75.8789 41.0582 75.8789C41.4663 75.8789 41.8744 75.8789 42.2825 75.8789C42.6436 75.8789 42.9362 76.0262 43.2655 76.1203C43.621 76.2218 44.0015 76.4318 44.4153 76.4318C44.7642 76.4318 45.018 76.6548 45.328 76.7434C45.6882 76.8463 45.9695 76.9848 46.3505 76.9848C46.548 76.9848 46.7455 76.9848 46.943 76.9848C47.1158 76.9848 47.2572 76.8456 47.4169 76.8268C47.8016 76.7815 48.1465 76.5898 48.5623 76.5898C48.9343 76.5898 49.2658 76.373 49.6287 76.3529C50.0311 76.3305 50.4407 76.1949 50.853 76.1949C51.3665 76.1949 51.8799 76.1949 52.3933 76.1949C53.1666 76.1949 53.8526 76.545 54.5261 76.8443C55.7791 77.4012 57.1157 78.4193 57.2908 79.9074C57.3666 80.5524 58.0464 81.3852 58.4581 81.8998C58.6003 82.0775 58.8038 82.5766 58.8662 82.795C58.9515 83.0937 59.1076 83.4665 59.1076 83.778C59.1076 84.1264 59.1865 84.5009 59.1865 84.8839C59.1865 85.2075 59.3043 85.8252 59.1471 86.1082C58.9881 86.3943 58.8888 87.0838 58.8706 87.4116C58.8568 87.6598 58.2055 88.2631 58.0851 87.8416C58.0057 87.564 58.0377 87.0616 57.8613 86.8411C57.8066 86.7728 57.795 86.4313 57.7691 86.3408C57.7318 86.2104 57.6857 85.9102 57.6857 85.7923C57.6857 85.3867 57.6067 85.0596 57.6067 84.6469C57.6067 84.2595 57.3698 83.8585 57.3698 83.5015C57.3698 82.1221 56.4413 80.5501 55.3555 79.7056C55.0263 79.4495 54.7326 79.3281 54.3681 79.1351C54.0898 78.9877 53.5478 78.8623 53.3412 78.6041C53.1845 78.4082 52.5589 78.1832 52.3143 78.1696C51.9172 78.1476 51.5597 78.0117 51.169 78.0117C50.7455 78.0117 50.3575 78.0573 49.9797 78.1653C49.6635 78.2556 49.3432 78.4652 48.9967 78.4856C48.2691 78.5284 47.4429 78.7226 46.706 78.7226C45.9274 78.7226 44.9646 78.8175 44.2573 78.5032C43.9195 78.353 43.4514 78.3978 43.1119 78.2091C42.9654 78.1277 42.7832 78.1279 42.6599 78.0292C42.5364 77.9304 42.258 78.0079 42.1421 77.9151C42.0066 77.8067 41.7847 77.8186 41.6155 77.7703C41.5298 77.7458 41.1472 77.7182 41.0977 77.6562C40.9721 77.4993 40.1219 77.6167 39.9128 77.6167C39.511 77.6167 39.1326 77.6189 38.7674 77.7001C38.5236 77.7543 38.2071 78.0937 38.0346 78.2662C37.785 78.5158 37.4582 78.822 37.1876 79.0385C37.0426 79.1545 36.6971 79.6448 36.6742 79.8284C36.5856 80.5371 35.5747 81.0771 35.4893 81.8032C35.4458 82.1728 35.2523 82.5786 35.2523 82.9881C35.2523 83.3996 35.0944 83.7949 35.0944 84.2124C35.0944 85.1546 35.0621 85.7586 35.8448 86.3847C36.5376 86.9389 37.0504 87.5259 37.9775 87.7319C39.0601 87.9725 40.0837 88.5309 41.1328 88.9124C41.6625 89.105 42.2597 89.2284 42.8355 89.2284C43.3256 89.2284 43.6293 89.12 44.0642 88.9958C44.6324 88.8334 45.3198 88.1005 45.4465 87.53C45.5303 87.153 45.7375 86.7557 45.7581 86.3847C45.7733 86.1109 45.8842 85.3833 46.1136 85.1998C46.4871 84.901 46.3926 84.7259 46.943 84.7259C47.3166 84.7259 47.7667 84.6656 48.0883 84.8444C48.3826 85.0078 48.4438 85.4019 48.4438 85.7133C48.4438 86.1229 48.6582 86.5322 48.6808 86.9376C48.7016 87.312 48.5825 87.7982 48.6852 88.1576C48.7678 88.4467 48.9177 88.8433 48.9177 89.1494C48.9177 89.9583 49.6217 90.4479 50.4186 90.4922C50.8856 90.5181 51.3603 90.4132 51.8009 90.4132C52.3055 90.4132 52.8543 90.1361 53.3588 90.0972C54.3519 90.0209 55.0375 89.0223 56.0269 88.9124C56.361 88.8753 56.89 88.2337 57.2118 88.6359C57.4317 88.9108 57.3698 89.3456 57.3698 89.7023C57.3698 90.2374 56.1714 90.6526 55.7899 90.8433C55.5366 90.97 55.1935 91.0256 54.921 91.1066C54.3572 91.2742 53.9522 91.626 53.4992 91.9755C51.691 93.3704 49.6532 94.3043 47.3994 94.6963C45.2155 95.0761 42.5385 94.487 40.5052 93.6913C39.0288 93.1136 37.7154 91.8394 36.7137 90.6151C36.4055 90.2385 36.1217 89.8496 35.8228 89.4653C35.5676 89.1371 35.2472 88.9399 34.9539 88.6579C34.7511 88.4628 34.5431 88.2821 34.3439 88.083C34.2012 87.9403 33.7712 87.5956 34.2298 87.6529C35.2914 87.7856 36.1225 88.3441 37.0867 88.7544C38.2942 89.2683 39.4328 89.8687 40.6632 90.3342C43.6206 91.4532 46.8341 92.3076 49.9929 92.5416C50.6868 92.593 51.3803 92.625 52.0774 92.625C52.4722 92.625 53.4636 92.6559 52.4723 92.5284C51.499 92.4033 50.4871 92.4254 49.5058 92.3836C48.371 92.3353 47.257 92.23 46.118 92.23C45.4336 92.23 44.7015 92.0503 44.0203 91.9755C42.7275 91.8334 41.4964 91.4621 40.2288 91.2031C39.3228 91.018 38.4011 90.7897 37.5123 90.5317C37.2034 90.442 36.9028 90.3263 36.5996 90.2201C36.4974 90.1844 36.2434 90.045 36.2836 90.1455C36.3702 90.362 36.8348 90.4929 37.0252 90.5712C37.7186 90.8563 38.3716 91.0662 39.1053 91.2207C40.6646 91.5489 42.1633 92.1369 43.7219 92.467C44.6891 92.6718 45.6677 92.7522 46.6314 92.9804C47.722 93.2387 48.9427 93.3359 50.0631 93.3359C50.5232 93.3359 50.9711 93.3307 51.4279 93.2744C51.6128 93.2517 51.9898 93.3093 52.1388 93.1603C52.2111 93.0881 51.8489 93.0961 51.8316 93.0945C51.359 93.0515 50.8884 92.9716 50.4186 92.9058C48.5258 92.6408 46.7332 92.0101 44.7927 92.1686C43.8462 92.2458 42.9149 92.3547 41.9622 92.3046C41.3872 92.2743 40.4749 92.1931 39.9479 91.9535C39.8179 91.8944 39.6798 91.9909 39.8514 92.0545C40.1963 92.1822 40.5977 92.2393 40.9572 92.309C42.3315 92.5754 43.6213 92.7178 45.0296 92.7039C46.022 92.6942 47.0499 92.5632 48.0006 92.2739C48.3979 92.1529 48.7305 91.998 49.1503 91.914C49.7442 91.7953 49.3556 91.6844 48.9616 91.6771C48.142 91.6619 47.3542 91.6717 46.548 91.484C46.2728 91.4199 44.738 91.0806 44.8936 90.5361C44.9545 90.3231 45.465 90.3342 45.6177 90.3342C46.2138 90.3342 46.741 90.6062 47.1624 91.0276C47.5614 91.4266 46.8299 91.3611 46.6226 91.3611C45.9474 91.3611 45.2562 91.2775 44.6171 91.0451C44.2178 90.8999 44.2993 90.4142 44.6522 90.2377C45.559 89.7843 46.3722 90.0915 47.1799 90.6107C47.476 90.801 47.4169 90.7371 47.4169 90.4132C47.4169 90.1048 47.2589 89.8025 47.2589 89.4829C47.2589 88.8056 47.2589 88.1283 47.2589 87.4511C47.2589 87.1965 47.1783 86.7759 47.2765 86.5427C47.4341 86.1683 47.3379 86.3304 47.3379 86.7006C47.3379 87.6199 47.3682 88.552 47.2545 89.4609C47.2222 89.7195 47.0838 90.4613 46.864 90.5712" stroke="black" stroke-width="2" stroke-linecap="round"/>
<path d="M46.2324 88.043C45.9384 89.2372 45.7875 90.5232 44.8105 91.3606" stroke="black" stroke-width="2" stroke-linecap="round"/>
<path d="M34.6992 87.4101C34.3069 86.8563 33.8352 86.3602 33.2773 85.9883" stroke="black" stroke-width="2" stroke-linecap="round"/>
<path d="M55.5533 78.3277C54.5081 78.0743 53.5259 77.5641 52.4727 77.3008" stroke="black" stroke-width="2" stroke-linecap="round"/>
<path d="M33.7511 82.8315C33.5044 82.3278 33.458 81.7883 33.2157 81.3307C33.0618 81.0398 32.9531 80.4395 32.6847 80.2248C32.5504 80.1173 32.5643 79.8555 32.4522 79.7113C32.3389 79.5658 32.2467 79.3281 32.1713 79.1584C32.0023 78.7782 31.6069 78.5194 31.32 78.2325C30.8617 77.7742 30.4262 77.0086 30.1175 76.4683C29.6792 75.7012 29.1154 75.0383 28.6167 74.318C27.182 72.2457 25.4225 70.3163 23.6403 68.5341C22.8274 67.7213 22.1934 66.7713 21.3891 65.9669C21.0531 65.631 20.7892 65.1003 20.5597 64.6987C20.3739 64.3737 20.2901 63.8179 19.9277 63.6367" stroke="black" stroke-width="2" stroke-linecap="round"/>
<path d="M25.9316 72.4805C26.4936 73.203 27.0033 73.9866 27.5466 74.7273C27.9341 75.2558 28.1942 75.8332 28.5383 76.3686C29.3017 77.556 29.6538 78.9545 30.4341 80.125C30.5947 80.3658 30.7107 80.6269 30.8466 80.8886C31.0698 81.3184 31.4857 81.7298 31.619 82.1963C31.7168 82.5387 31.9394 83.0068 32.1895 83.2847C32.6552 83.8021 32.828 84.7175 33.0408 85.356" stroke="black" stroke-width="2" stroke-linecap="round"/>
<path d="M59.6602 85.4353C60.0066 85.0994 60.3597 84.8147 60.687 84.4874C61.0407 84.1337 61.1358 83.7047 61.4155 83.3201C61.6666 82.9748 61.7571 82.4351 61.9333 82.0387C62.1029 81.6572 62.4253 81.3268 62.5828 80.9723C62.7186 80.6669 62.9763 80.4571 63.1358 80.178C63.241 79.9938 63.4465 79.8724 63.5483 79.669C63.6214 79.5228 63.761 79.2951 63.8862 79.195C64.122 79.0063 64.4357 78.4819 64.5576 78.2076C64.8056 77.6495 65.2467 77.1409 65.523 76.5883C66.4265 74.7814 67.933 73.2129 69.3365 71.8094C69.6486 71.4972 70.0142 71.2697 70.2449 70.8659C70.3971 70.5996 70.5251 70.3493 70.6794 70.0716C70.8029 69.8492 71.0431 69.4725 71.2323 69.3212C71.4433 69.1523 71.5259 68.6412 71.7457 68.5312" stroke="black" stroke-width="2" stroke-linecap="round"/>
<path d="M59.502 84.0165C59.7745 83.4713 60.4136 83.1049 60.8404 82.678C61.0883 82.4301 61.2632 82.0952 61.5382 81.8837C61.9179 81.5916 61.9997 80.9313 62.4246 80.6813C62.58 80.5899 62.622 80.3128 62.7801 80.1898C62.9495 80.0581 63.0563 79.9092 63.2145 79.751C63.5849 79.3805 63.9604 78.7243 64.1975 78.2501C64.5489 77.5474 65.2125 77.0162 65.6018 76.3544C66.0156 75.6509 66.5562 74.975 67.05 74.3401C67.2636 74.0654 67.5515 73.7653 67.717 73.4756C67.8751 73.1989 68.186 73.0498 68.3489 72.7647C68.5255 72.4557 68.8717 72.1784 69.0949 71.8914C69.2993 71.6286 69.4702 71.3112 69.6918 71.062C70.1643 70.5303 70.3712 69.8177 70.7976 69.2847C71.1575 68.8349 71.5072 68.2987 71.9035 67.9023" stroke="black" stroke-width="2" stroke-linecap="round"/>
<path d="M57.4492 91.0444C57.618 90.9937 57.8095 90.632 57.9583 90.4914C58.2255 90.239 58.4903 90.0032 58.7526 89.741C59.0587 89.4348 59.4327 88.975 59.6434 88.5956C59.8245 88.2697 60.0999 88.0206 60.2315 87.6653C60.3453 87.358 60.6925 87.0539 60.7624 86.7394C60.8894 86.1679 61.3586 85.6393 61.6182 85.12C62.1687 84.0189 62.7377 82.9325 63.356 81.8814C63.6396 81.3993 63.9286 80.914 64.2029 80.4201C64.4926 79.8986 64.7022 79.296 65.0323 78.8008" stroke="black" stroke-width="2" stroke-linecap="round"/>
<path d="M45.4802 77.7248C44.8096 77.315 43.9189 77.1892 43.1931 76.9659C42.793 76.8428 42.3748 76.6172 41.9727 76.6172" stroke="black" stroke-width="2" stroke-linecap="round"/>
<path d="M43.3555 93.6016C44.1948 93.7036 45.0028 93.8785 45.8477 93.8785C46.2211 93.8785 46.5109 93.7862 46.863 93.7862" stroke="black" stroke-width="2" stroke-linecap="round"/>
<path d="M43.1719 89.9102H43.2642" stroke="black" stroke-width="2" stroke-linecap="round"/>
<path d="M46.7715 92.1238C47.9714 92.1238 49.1714 92.1238 50.3713 92.1238C50.8502 92.1238 51.3808 92.0348 51.802 91.8008C52.1843 91.5884 52.7214 91.2334 53.1609 91.2008C53.7931 91.154 54.1992 90.5547 54.8942 90.5547" stroke="black" stroke-width="2" stroke-linecap="round"/>
<path d="M48.3164 90.4336C48.4935 90.6375 48.6739 90.8559 48.8844 91.0244" stroke="black" stroke-width="2" stroke-linecap="round"/>
</svg>
