<svg width="100" height="101" viewBox="0 0 100 101" fill="none" xmlns="http://www.w3.org/2000/svg">
<path d="M35.0632 50.4281C35.0535 50.3507 34.7843 50.2742 34.7244 50.2203C34.6278 50.1334 34.5175 50.0643 34.4016 50.003C34.1667 49.8786 33.9826 49.6639 33.7975 49.4788C33.6707 49.352 33.5554 49.229 33.4523 49.0824C33.3165 48.8896 33.0976 48.7789 32.9345 48.6158C32.7274 48.4087 32.4362 48.2889 32.1929 48.1267C32.0713 48.0456 31.8892 48.0016 31.7902 47.8902C31.6859 47.7729 32.0968 47.9571 32.2504 47.9893C32.6371 48.0702 33.0273 48.2305 33.4235 48.2418C33.7619 48.2515 34.0896 48.4015 34.4239 48.4144C34.5964 48.421 34.7666 48.4719 34.9481 48.4719C35.1159 48.4719 35.2837 48.4719 35.4516 48.4719C35.7488 48.4719 36.0461 48.4719 36.3433 48.4719C36.6495 48.4719 36.9814 48.547 37.2926 48.4991C37.434 48.4773 37.5846 48.4432 37.7257 48.4432C37.8727 48.4432 38.1098 48.432 38.2435 48.3712C38.3851 48.3069 38.6351 48.2993 38.7885 48.2993C38.9504 48.2993 39.1135 48.2418 39.2791 48.2418C39.6081 48.2418 39.9484 48.213 40.2844 48.213C40.6496 48.213 41.0088 48.2418 41.3759 48.2418C42.1178 48.2418 42.846 48.4384 43.543 48.6797C43.8542 48.7874 44.1485 48.9233 44.4412 49.0696C44.6443 49.1712 44.9236 49.4266 45.0389 49.6226C45.1702 49.8458 45.4008 49.9979 45.5279 50.2267C45.5894 50.3373 45.7216 50.4735 45.7357 50.6007C45.7491 50.7212 45.7499 50.8038 45.7357 50.9171C45.7104 51.1195 45.4342 51.2557 45.2754 51.3262C45.0352 51.433 44.7382 51.4086 44.5275 51.6075C44.3023 51.8202 44.0195 51.7814 43.7444 51.86C43.6546 51.8857 43.5543 51.852 43.4631 51.8728C43.3715 51.8937 43.2689 51.919 43.1755 51.9239C43.022 51.932 42.8685 51.9815 42.7152 51.9815C42.5927 51.9815 42.4755 52.039 42.3556 52.039C42.24 52.039 42.1244 52.039 42.0088 52.039C41.6455 52.039 41.2747 51.9746 40.9316 51.852C40.6022 51.7344 40.2573 51.6831 39.9248 51.5644C39.5484 51.4299 39.1986 51.2452 38.8317 51.1025C38.6244 51.0219 38.3932 50.9249 38.2004 50.8164C38.0589 50.7368 37.8964 50.6948 37.7529 50.615C37.6077 50.5344 37.4584 50.451 37.3214 50.3561C37.208 50.2777 37.0194 50.2052 36.933 50.0972C36.8048 49.937 36.6023 49.7904 36.4296 49.6945C36.2743 49.6082 36.1852 49.3781 36.0413 49.3062" stroke="black" stroke-linecap="round"/>
<path d="M38.6298 48.8477C38.6298 48.9991 38.5669 49.1528 38.5211 49.3015C38.4776 49.4429 38.5147 49.6489 38.5147 49.797C38.5147 50.1576 38.784 50.3826 39.0182 50.6168C39.5856 51.1843 40.4763 51.3216 41.2476 51.3216C41.8273 51.3216 42.2483 50.8763 42.7275 50.6024C42.972 50.4627 43.0024 49.9816 43.0024 49.7394C43.0024 49.643 43.0544 49.3298 42.996 49.2568C42.8722 49.102 42.7226 49.0203 42.5117 49.0203C42.1237 49.0203 41.689 49.0152 41.58 49.4821C41.4949 49.8467 41.6791 50.9752 41.6791 50.6008C41.6791 50.3905 41.5887 50.1889 41.5928 49.9696C41.5976 49.7129 41.7915 49.4521 41.9524 49.2664C42.0011 49.2101 42.0666 49.168 42.125 49.1225C42.1914 49.0709 42.1687 49.234 42.1681 49.2632C42.1602 49.6894 41.844 50.1898 41.5864 50.5161C41.4278 50.717 41.0062 50.7908 40.7729 50.8022C40.4683 50.8171 39.9687 50.8816 39.7517 50.6088C39.5658 50.3751 39.5791 50.0213 39.5791 49.7394C39.5791 49.4418 39.6996 49.2643 39.8668 49.0266C40.1438 48.633 40.7361 49.5022 40.8161 49.7043C40.9034 49.9249 40.9103 50.1791 40.757 50.3707C40.6254 50.5352 40.3481 50.6053 40.1816 50.4554C39.8716 50.1764 39.2536 49.2683 39.9243 49.0075C40.1443 48.9219 40.6723 48.9468 40.6723 49.2664C40.6723 49.5962 39.9095 49.7771 39.7373 49.5093C39.6661 49.3985 39.465 48.9627 39.7293 48.9627C40.1372 48.9627 40.5346 48.9196 40.9376 48.9052C41.0652 48.9006 41.1904 48.8764 41.3211 48.8764C41.5131 48.8764 41.6778 48.9272 41.8645 48.9611C41.9952 48.9849 41.8374 49.2013 41.8006 49.2504C41.7363 49.3361 41.6772 49.4271 41.5864 49.4869C41.4955 49.5469 41.3636 49.6034 41.2907 49.6819C41.1787 49.8026 40.8449 49.9838 40.8449 50.1709" stroke="black" stroke-linecap="round"/>
<path d="M39.0891 49.0195C39.0722 49.3371 39.0645 49.5744 39.2041 49.8538C39.2692 49.9839 39.3266 50.1384 39.4119 50.2565C39.5766 50.4846 39.7653 50.5154 40.0384 50.5154" stroke="black" stroke-linecap="round"/>
<path d="M42.1387 50.2291C42.3076 49.9012 42.5769 49.6404 42.7428 49.3086" stroke="black" stroke-linecap="round"/>
<path d="M36.9316 53.4219C36.9482 53.5709 37.2908 53.6683 37.4015 53.7095C37.5999 53.7834 37.8433 53.7958 38.0535 53.7958C38.3988 53.7958 38.744 53.7958 39.0892 53.7958C39.2514 53.7958 39.4162 53.8044 39.5782 53.7958C39.7511 53.7867 39.9249 53.7095 40.096 53.7095C40.2376 53.7095 40.3634 53.5945 40.4987 53.5945C40.6564 53.5945 40.8291 53.5369 40.9878 53.5369" stroke="black" stroke-linecap="round"/>
<path d="M33.6523 46.0001C33.6635 45.7214 34.0829 45.5984 34.2564 45.4248C34.4165 45.2648 34.6385 45.1865 34.803 45.0221C34.9439 44.8812 35.1037 44.7629 35.2409 44.6257C35.3217 44.545 35.4349 44.418 35.551 44.418C35.8945 44.418 36.2355 44.4389 36.5802 44.4467C36.9825 44.4559 37.3854 44.5814 37.7884 44.5906C38.1014 44.5977 38.4596 44.6638 38.7665 44.728C39.1286 44.8038 39.5213 44.8177 39.866 44.9518C40.5718 45.2262 41.3548 45.286 42.0826 45.468C42.506 45.5738 42.9579 45.5668 43.3755 45.6997C43.7623 45.8228 44.1527 45.9236 44.5406 46.0417C44.8292 46.1295 45.1244 46.2436 45.4164 46.3166C45.6656 46.3789 45.872 46.5655 46.1084 46.633C46.2014 46.6596 46.3507 46.7426 46.4248 46.8056C46.5076 46.876 46.6586 46.9099 46.7556 46.9638C46.8469 47.0145 46.9182 47.0932 47.0002 47.1444C47.0687 47.1873 47.2096 47.2789 47.2527 47.3522C47.3175 47.4625 47.1572 47.3912 47.0881 47.3826C46.9401 47.3641 46.7959 47.3312 46.6486 47.301C46.1178 47.1925 45.5879 47.0349 45.0664 46.8919C44.3654 46.6997 43.6498 46.6173 42.944 46.4604C42.601 46.3842 42.2533 46.326 41.91 46.2447C41.575 46.1653 41.2221 46.0959 40.8952 45.9938C40.2308 45.7861 39.5341 45.6616 38.8591 45.4951C38.3148 45.3609 37.7524 45.2804 37.1971 45.2011C37.0816 45.1846 35.2921 44.8775 35.2921 45.0365C35.2921 45.3389 35.9266 45.4316 36.1551 45.4823C36.5641 45.5732 36.9843 45.5966 37.3904 45.6981C38.2164 45.9046 39.0643 46.0374 39.8932 46.2447C40.2626 46.337 40.6554 46.3712 41.0294 46.446C41.4513 46.5304 41.876 46.5983 42.2968 46.6762C42.4938 46.7127 42.6956 46.6771 42.8929 46.7129C43.0801 46.747 43.2991 46.7193 43.489 46.7193C43.762 46.7193 44.0308 46.8056 44.2961 46.8056" stroke="black" stroke-linecap="round"/>
<path d="M55.3145 50.9298C55.425 50.9298 55.6492 50.9872 55.7453 51.0406C55.9302 51.1433 56.1761 51.1272 56.3717 51.1883C56.4343 51.2079 56.5113 51.1814 56.57 51.2061C56.6357 51.2337 56.758 51.2498 56.8285 51.2498C56.9854 51.2498 57.1864 51.259 57.3331 51.3114C57.4583 51.3561 57.6424 51.3975 57.7762 51.3975C57.927 51.3975 58.0805 51.4714 58.233 51.4714C58.5507 51.4714 58.8782 51.5364 59.1904 51.5931C59.3561 51.6233 59.5297 51.5967 59.6964 51.6205C59.9441 51.6559 60.1951 51.7169 60.4459 51.7408C60.8731 51.7815 61.308 51.7914 61.7397 51.7914C62.382 51.7914 63.0327 51.7571 63.6476 51.6205C64.028 51.5359 64.4011 51.4553 64.7445 51.2621C65.2175 50.9961 65.6378 50.6552 66.0971 50.3745C66.2151 50.3024 66.3224 50.2193 66.4363 50.142C66.5472 50.0667 66.6804 50.0275 66.7864 49.9451C66.9898 49.7868 67.2422 49.6848 67.4524 49.5403C67.5722 49.4579 67.7383 49.4218 67.8696 49.3543C67.9779 49.2986 68.0965 49.2496 68.2019 49.1929C68.4145 49.0784 68.6507 49.0051 68.8543 48.8742C68.9474 48.8143 69.0384 48.751 69.1305 48.6896C69.2162 48.6324 69.342 48.5997 69.4068 48.5173C69.4974 48.402 69.6975 48.3801 69.8253 48.3436C69.8949 48.3237 70.157 48.3203 69.9498 48.3203C69.6555 48.3203 69.4262 48.4518 69.1497 48.5296C68.6624 48.6666 68.1829 49.0409 67.8326 49.3912C67.5656 49.6582 67.2697 49.9198 66.9833 50.1653C66.6445 50.4557 66.245 50.6199 65.87 50.856C65.7139 50.9543 65.5131 51.0228 65.3394 51.083C65.1643 51.1436 64.9344 51.1577 64.7732 51.2498C64.5783 51.3612 64.3218 51.4167 64.1085 51.4905C63.9347 51.5507 63.7238 51.6434 63.5669 51.7422C63.4343 51.8257 63.2858 51.8978 63.1429 51.9692C63.0216 52.0299 62.9206 52.1256 62.7791 52.1361C62.6178 52.148 62.4745 52.2099 62.3059 52.2099C62.128 52.2099 61.9477 52.2592 61.7643 52.2592C61.5856 52.2592 61.4069 52.2592 61.2282 52.2592C61.0948 52.2592 59.1217 51.5998 58.9948 51.5575C58.7205 51.466 60.2601 51.8491 60.0602 51.6492C59.8384 51.4274 59.7703 51.2192 59.7703 50.9052C59.7703 50.757 59.8983 50.5913 59.9918 50.4867C60.0472 50.4248 60.0986 50.3442 60.1505 50.2774C60.2071 50.2046 60.2841 50.1414 60.3365 50.0627C60.637 49.6119 60.9627 49.2558 61.5428 49.2558C61.9059 49.2558 62.259 49.3501 62.5959 49.4774C62.78 49.5469 62.9444 49.701 63.039 49.8712C63.0943 49.9708 63.1006 50.1164 63.1183 50.2268C63.137 50.3437 63.1855 50.4687 63.1922 50.5852C63.2093 50.8855 63.3224 51.2086 63.0198 51.4222C62.8176 51.5649 62.6017 51.604 62.3552 51.6177C61.95 51.6402 61.5491 51.6124 61.1708 51.455C60.8335 51.3146 60.5491 51.1298 60.3871 50.7958C60.2638 50.5414 60.2764 50.1064 60.4404 49.8767C60.7968 49.3778 61.5337 49.7082 61.8874 50.0135C62.2398 50.3176 62.4074 50.9296 62.005 51.2745C61.8713 51.3891 61.5762 51.5066 61.4087 51.3839C61.233 51.255 61.1965 50.9603 61.179 50.763C61.1629 50.581 61.3003 50.3509 61.4457 50.2419C61.5783 50.1424 61.6527 50.3336 61.696 50.4292C61.7338 50.513 61.9948 51.0433 61.7397 51.0283C61.6208 51.0213 61.5932 50.7329 61.4935 50.7329" stroke="black" stroke-linecap="round"/>
<path d="M56.9648 50.6562C57.2814 50.3396 57.7015 50.0964 58.0973 49.8985C58.2935 49.8004 58.5218 49.7209 58.6881 49.573C58.8469 49.4318 59.1124 49.3066 59.309 49.2338C59.4075 49.1974 59.5014 49.1498 59.599 49.1107C59.6869 49.0756 59.8005 49.0836 59.8944 49.0615C60.0063 49.0352 60.1428 49.056 60.2582 49.056C60.369 49.056 60.5315 49.0545 60.6384 49.0861C60.9351 49.174 61.2648 49.1453 61.5684 49.2092C61.8434 49.2671 62.1198 49.253 62.3999 49.253C62.6005 49.253 62.8011 49.253 63.0017 49.253C63.2714 49.253 63.5465 49.1899 63.8086 49.1244C64.3345 48.993 64.866 48.8892 65.4088 48.8591C65.8983 48.8319 66.3475 48.6375 66.8366 48.6375C66.9536 48.6375 67.0653 48.5883 67.1813 48.5883C67.3105 48.5883 67.4406 48.5931 67.5697 48.5883C67.6744 48.5844 67.7834 48.5637 67.8952 48.5637C68.0495 48.5637 68.276 48.6071 68.4122 48.5391" stroke="black" stroke-linecap="round"/>
<path d="M53.9863 47.2355C54.8642 47.1225 55.7209 47.1551 56.5712 46.8663C57.1985 46.6532 57.8466 46.5227 58.4914 46.3794C58.7285 46.3267 58.9793 46.335 59.2108 46.2508C59.4382 46.1681 59.7232 46.1512 59.963 46.1086C60.2572 46.0563 60.5597 46.0538 60.8547 46.0101C61.0253 45.9849 61.2101 45.9906 61.3826 45.9787C61.5747 45.9654 61.7637 45.9308 61.957 45.9308C62.9953 45.9308 64.044 45.6132 65.0835 45.8022C65.1598 45.8161 65.2286 45.8107 65.2996 45.831C65.3321 45.8403 65.4053 45.8553 65.4336 45.8569C65.5295 45.8626 65.6179 45.9422 65.7044 45.9855C65.8019 46.0342 65.8546 46.1428 65.9506 46.1961C66.0865 46.2716 66.2032 46.388 66.3445 46.4587C66.463 46.518 66.5682 46.5884 66.6782 46.6584C66.6887 46.6651 66.9554 46.8728 66.897 46.8895C66.7895 46.9202 66.5732 46.8192 66.4662 46.7924C66.1035 46.7017 65.7476 46.5805 65.3858 46.4847C64.2255 46.1776 62.9909 46.3984 61.8271 46.5709C61.4695 46.6238 61.1051 46.6473 60.7439 46.668C60.3154 46.6925 59.8769 46.7629 59.4515 46.8293C59.1175 46.8815 58.7774 46.9507 58.4422 46.988C58.1313 47.0225 57.8217 47.0878 57.5067 47.0878C57.0465 47.0878 56.5792 47.1125 56.1158 47.1125C55.9848 47.1125 55.4486 47.0437 55.3895 47.1617" stroke="black" stroke-linecap="round"/>
<path d="M58.6875 54.7941C58.9962 54.8375 59.2837 54.8926 59.5984 54.8926C59.8122 54.8926 60.0049 54.7941 60.2193 54.7941C60.6673 54.7941 61.1212 54.6886 61.5568 54.5849C61.9067 54.5016 62.3208 54.547 62.651 54.4002C62.8614 54.3067 63.0752 54.2302 63.2787 54.1171C63.4421 54.0264 63.6425 53.9812 63.7889 53.8641C63.8435 53.8204 63.9736 53.8042 64.0433 53.7725C64.1318 53.7322 64.2048 53.7109 64.3004 53.7109" stroke="black" stroke-linecap="round"/>
<path d="M37.666 68.3616C37.6684 68.3428 37.7497 68.3002 37.7706 68.2845C37.796 68.2655 37.8171 68.2329 37.8392 68.2108C37.8841 68.1659 37.9446 68.1407 37.978 68.0839C38.0542 67.9543 38.1712 67.8367 38.2609 67.7214C38.3664 67.5857 38.4785 67.4569 38.5849 67.3202C38.6462 67.2414 38.7351 67.1827 38.8 67.1034C38.8695 67.0184 38.9327 66.9382 38.9929 66.8462C39.0461 66.7648 39.1385 66.6932 39.1746 66.5994C39.2092 66.5093 39.261 66.4127 39.3049 66.3251C39.3942 66.1464 39.4277 65.9413 39.5243 65.7619C39.6625 65.5052 39.7971 65.2422 39.934 64.9828C40.0466 64.7694 40.1993 64.4986 40.39 64.3425C40.6121 64.1608 40.8187 63.9574 41.0371 63.7725C41.1291 63.6947 41.2218 63.617 41.3157 63.5402C41.4174 63.457 41.5366 63.4057 41.6431 63.3319C41.7614 63.2501 41.8886 63.1819 42.0169 63.1159C42.1358 63.0548 42.2776 63.0148 42.3906 62.9462C42.4895 62.8862 42.6088 62.862 42.7111 62.8108C42.7784 62.7772 42.8789 62.7288 42.9511 62.7157C43.2217 62.6665 43.4879 62.5451 43.768 62.5451C43.9009 62.5451 44.0342 62.5297 44.1691 62.5297C44.2367 62.5297 44.3109 62.5209 44.3766 62.5374C44.4268 62.5499 44.4817 62.5707 44.5317 62.5759C44.808 62.605 44.9856 62.6758 45.2534 62.7502" stroke="black" stroke-linecap="round"/>
<path d="M44.8878 60.7695C45.1513 60.9857 45.3688 61.2485 45.4423 61.5795C45.4533 61.6287 45.4432 61.6911 45.4432 61.7415C45.4432 61.7963 45.4586 61.8341 45.4586 61.8881C45.4586 62.0212 45.4547 62.1901 45.4003 62.3124C45.3471 62.4322 45.3517 62.5794 45.2923 62.6981C45.2431 62.7966 45.2188 62.9064 45.1655 62.9998C45.099 63.1161 45.0452 63.2504 44.9495 63.3461C44.8514 63.4442 44.744 63.5399 44.6255 63.6161C44.4974 63.6984 44.388 63.8236 44.2475 63.8861C44.1299 63.9383 44.0401 64.0346 43.9312 64.0987C43.8967 64.1189 43.8127 64.1676 43.7923 64.2032C43.7581 64.2631 43.6745 64.2856 43.6312 64.3412C43.5489 64.447 43.4137 64.5164 43.3295 64.6301C43.1683 64.8477 42.9703 65.0214 42.8743 65.2901C42.8285 65.4184 42.7432 65.5697 42.7432 65.7067C42.7432 65.7588 42.7225 65.8184 42.7132 65.8695C42.6976 65.9553 42.703 66.0567 42.6738 66.1387C42.6536 66.1951 42.6539 66.264 42.6506 66.3238C42.6475 66.3803 42.6198 66.443 42.6198 66.5012C42.6198 66.6278 42.6043 66.7501 42.6043 66.8792C42.6043 67.1226 42.5847 67.3853 42.6498 67.6129C42.6821 67.726 42.6934 67.8789 42.7509 67.9824C42.8045 68.0789 42.7922 68.2541 42.8632 68.3329C42.893 68.3661 42.9015 68.4479 42.9138 68.4907C42.9253 68.5312 42.9618 68.5739 42.9738 68.6158C43.0022 68.7154 43.0783 68.7805 43.1255 68.8695C43.2306 69.0681 43.4574 69.1893 43.6303 69.3238C43.6839 69.3655 43.7623 69.3855 43.8232 69.4129C43.9 69.4475 44.0334 69.4975 44.1163 69.5021C44.2076 69.5072 44.295 69.5329 44.3872 69.5329C44.4718 69.5329 44.5563 69.5329 44.6409 69.5329C44.8043 69.5329 44.9717 69.5638 45.1355 69.5638C45.315 69.5638 45.4942 69.6101 45.6712 69.6101C45.8182 69.6101 45.9709 69.6313 46.1135 69.6572C46.1719 69.6678 46.241 69.6792 46.2918 69.7061C46.3665 69.7456 46.5172 69.7243 46.6003 69.7335" stroke="black" stroke-linecap="round"/>
<path d="M46.3379 69.6555C46.4561 69.6988 46.5597 69.7229 46.6542 69.8029C46.7253 69.8631 46.787 69.928 46.8505 69.9915C46.9226 70.0636 46.9905 70.1384 47.063 70.2109C47.1318 70.2797 47.1919 70.362 47.2602 70.4303C47.3133 70.4834 47.3625 70.6073 47.4247 70.6429C47.4591 70.6625 47.4791 70.7264 47.507 70.7543C47.5294 70.7767 47.5774 70.8548 47.5876 70.8829C47.6116 70.9489 47.6942 71.0667 47.7453 71.1177C47.8204 71.1928 47.8982 71.2819 47.9579 71.3715C47.9918 71.4224 48.0373 71.4668 48.0745 71.5146C48.1103 71.5607 48.14 71.6118 48.1816 71.6535C48.2394 71.7113 48.3029 71.7973 48.3436 71.8686C48.3673 71.9101 48.4329 71.9375 48.467 71.9697C48.5232 72.0228 48.5905 72.0668 48.6556 72.1086C48.7833 72.1907 48.9178 72.2638 49.0533 72.328C49.1567 72.377 49.2717 72.3954 49.3705 72.4403C49.4855 72.4926 49.6343 72.4576 49.7562 72.4797C49.8166 72.4907 49.871 72.5079 49.9327 72.5097C50.0057 72.5119 50.1054 72.5162 50.1762 72.5372C50.2838 72.5691 50.4352 72.5406 50.5379 72.5063C50.6413 72.4718 50.8098 72.4301 50.897 72.3623C50.9946 72.2864 51.133 72.2651 51.2364 72.1935C51.351 72.1141 51.4812 72.0532 51.599 71.9775C51.832 71.8277 52.0369 71.6553 52.2316 71.4606C52.4122 71.28 52.5811 71.1015 52.8024 70.9592C52.9091 70.8906 53.026 70.8105 53.1427 70.7595C53.3091 70.6867 53.4839 70.6418 53.6544 70.5812C54.0454 70.4422 54.467 70.4269 54.8776 70.4269C55.2149 70.4269 55.5507 70.4423 55.8882 70.4423C55.9808 70.4423 56.0714 70.4301 56.1624 70.4269C56.232 70.4244 56.2985 70.3994 56.3664 70.396C56.4676 70.391 56.6155 70.3367 56.7059 70.2915C56.8092 70.2398 56.9619 70.2223 57.0367 70.126C57.0733 70.079 57.1282 70.0663 57.1687 70.0257C57.2259 69.9686 57.2743 69.9047 57.3307 69.8483C57.4039 69.7751 57.5213 69.6932 57.5544 69.5938" stroke="black" stroke-linecap="round"/>
<path d="M57.6006 69.642C57.6258 69.5933 57.6571 69.5513 57.6812 69.5032C57.6917 69.4822 57.7011 69.4228 57.7163 69.4106C57.7672 69.3699 57.7479 69.2066 57.7738 69.1483C57.8028 69.083 57.8019 68.9949 57.8175 68.9246C57.8316 68.8612 57.8552 68.7762 57.8818 68.7163C57.9071 68.6594 57.9388 68.5935 57.9546 68.538C57.9705 68.4826 57.9788 68.3863 58.0138 68.3426C58.058 68.2873 58.0372 68.1835 58.0712 68.1223C58.1043 68.0628 58.1252 67.9069 58.1252 67.8369C58.1252 67.6287 58.1176 67.4378 58.0669 67.2352C57.9986 66.9619 57.9311 66.6881 57.8595 66.4175C57.8046 66.2101 57.754 65.9604 57.6469 65.7729C57.5737 65.6448 57.5054 65.5019 57.4386 65.3683C57.3718 65.2347 57.2657 65.1325 57.1841 65.0101C57.0574 64.8201 56.8977 64.6581 56.7675 64.4701C56.6184 64.2548 56.5012 64.0167 56.3201 63.8255C56.2311 63.7316 56.1477 63.626 56.0655 63.5255C55.995 63.4394 55.9305 63.3377 55.8538 63.2581C55.7497 63.15 55.6818 62.993 55.6326 62.8526C55.5961 62.7482 55.5527 62.5974 55.5486 62.4866C55.5446 62.3785 55.5332 62.27 55.5332 62.1592C55.5332 62.0406 55.5658 61.9184 55.5983 61.8044C55.6365 61.6707 55.6884 61.5389 55.7261 61.4032C55.7565 61.2937 55.7917 61.1829 55.8383 61.0792C55.8883 60.9683 55.9179 60.8481 55.9721 60.7398C56.0158 60.6523 56.0218 60.5422 56.0732 60.4586C56.1016 60.4125 56.1074 60.3548 56.1229 60.3044C56.1308 60.2786 56.1568 60.1823 56.1735 60.1689C56.2219 60.1302 56.201 59.9662 56.2583 59.9375" stroke="black" stroke-linecap="round"/>
<path d="M55.9336 62.2969C56.0685 62.2987 56.1999 62.3277 56.3339 62.3277C56.4075 62.3277 56.5079 62.3412 56.5782 62.362C56.7171 62.4032 56.875 62.417 57.0059 62.4897C57.1205 62.5534 57.2585 62.5815 57.3762 62.6449C57.5708 62.7497 57.7727 62.8433 57.9702 62.9449C58.0617 62.9919 58.1662 63.0356 58.2479 63.0992C58.3243 63.1586 58.4216 63.1876 58.4947 63.2534C58.5552 63.3079 58.6415 63.3555 58.7107 63.4C58.7811 63.4453 58.8401 63.5085 58.9113 63.5543C59.0382 63.6359 59.1673 63.7409 59.2739 63.8474C59.3787 63.9523 59.4695 64.09 59.5867 64.1792C59.7251 64.2843 59.8267 64.4505 59.9484 64.5769C60.0832 64.7169 60.2048 64.8793 60.3539 65.0054C60.59 65.2052 60.7878 65.4411 60.9633 65.6946C61.0685 65.8466 61.1351 66.0155 61.241 66.166C61.321 66.2797 61.4308 66.3967 61.4724 66.532C61.5263 66.7072 61.6536 66.8575 61.7039 67.0334C61.7337 67.138 61.7955 67.2629 61.8427 67.3574" stroke="black" stroke-linecap="round"/>
<path d="M30.1543 72.4453C30.1806 72.6363 30.1723 72.8297 30.1723 73.0222C30.1723 73.1221 30.1723 73.2219 30.1723 73.3217C30.1723 73.4413 30.2084 73.5546 30.2084 73.6713C30.2084 73.7543 30.2444 73.8327 30.2444 73.9147C30.2444 73.9767 30.266 74.0758 30.2845 74.136C30.3478 74.3418 30.3228 74.5912 30.4107 74.7891C30.4774 74.9391 30.4992 75.1103 30.573 75.2578C30.6329 75.3777 30.6826 75.4999 30.7352 75.6184C30.7953 75.7536 30.886 75.8659 30.9516 75.997C31.0032 76.1002 31.0717 76.26 31.1639 76.3215" stroke="black" stroke-linecap="round"/>
<path d="M33.1465 79.8555C33.3118 80.1459 33.4853 80.4648 33.7234 80.7028C33.8321 80.8115 33.9425 80.9031 34.07 80.9913C34.1326 81.0347 34.215 81.1272 34.2462 81.1896" stroke="black" stroke-linecap="round"/>
<path d="M36.7522 70.8398C36.6935 70.8729 36.6664 70.9727 36.6351 71.0291C36.5699 71.1465 36.4893 71.2602 36.4177 71.3727C36.2965 71.5632 36.1525 71.728 35.995 71.8855C35.8462 72.0343 35.7416 72.1982 35.6074 72.3623C35.4757 72.5233 35.3921 72.7238 35.2559 72.8771C35.1906 72.9505 35.1647 73.0616 35.1026 73.1375C35.0458 73.2069 34.991 73.3037 34.9664 73.3899C34.9439 73.4687 34.8844 73.5934 34.8412 73.6664C34.7704 73.7858 34.7326 73.9339 34.6829 74.063C34.6131 74.2446 34.5527 74.4492 34.5527 74.6439C34.5527 74.8607 34.5708 75.0861 34.5708 75.297C34.5708 75.4991 34.6151 75.7488 34.697 75.933C34.8089 76.1848 34.8508 76.4842 35.0035 76.7132C35.2757 77.1216 35.6076 77.4702 35.8869 77.8671C35.9653 77.9785 36.0658 78.0793 36.1493 78.1866C36.2227 78.2809 36.2843 78.3766 36.3476 78.476C36.4224 78.5936 36.4957 78.7119 36.572 78.8306C36.6369 78.9316 36.6836 79.0562 36.7563 79.1471C36.8306 79.24 36.882 79.3548 36.9596 79.4496C37.0341 79.5407 37.1034 79.6271 37.1749 79.719C37.2761 79.8491 37.3504 80.023 37.4193 80.1607" stroke="black" stroke-linecap="round"/>
<path d="M68.9551 79.0078C68.5494 79.4927 68.2084 80.0319 67.8511 80.5515C67.7642 80.6779 67.6443 80.7843 67.5357 80.8901C67.3991 81.0231 67.2614 81.1639 67.1191 81.2904C67.0097 81.3877 66.8922 81.4958 66.7642 81.5689C66.6741 81.6205 66.6019 81.7362 66.502 81.7695" stroke="black" stroke-linecap="round"/>
<path d="M68.5692 75.1016C68.0724 76.2156 67.4046 77.2271 66.7409 78.2481C66.6493 78.3891 66.5412 78.5458 66.4247 78.6656C66.365 78.7268 66.3313 78.8052 66.2704 78.8661C66.2203 78.9162 66.1648 78.9766 66.1247 79.035C66.0507 79.1425 65.935 79.2424 65.8418 79.3324C65.721 79.4491 65.6093 79.5712 65.4835 79.683C65.3595 79.7932 65.2196 79.8903 65.1012 80.0044C65.0272 80.0758 64.9531 80.1508 64.8732 80.2161C64.7503 80.3167 64.6324 80.4643 64.4961 80.5324" stroke="black" stroke-linecap="round"/>
<path d="M63.7408 69.9648C63.8828 70.1413 63.9851 70.3547 64.1419 70.5203C64.2386 70.6224 64.3501 70.7778 64.405 70.906C64.4502 71.0114 64.5563 71.0954 64.6082 71.1991C64.7997 71.5823 65.1242 71.8934 65.299 72.2868C65.3822 72.4739 65.4834 72.6531 65.569 72.8414C65.6457 73.0101 65.7066 73.1937 65.7893 73.3591C65.8784 73.5373 65.8853 73.7986 65.8853 73.9951C65.8853 74.2315 65.9007 74.4707 65.9007 74.7091C65.9007 74.9097 65.7908 75.1306 65.7473 75.3263C65.707 75.5077 65.6055 75.675 65.4927 75.82C65.2171 76.1744 65.0149 76.5746 64.6973 76.8923C64.5365 77.0531 64.3797 77.2558 64.1916 77.386C64.1129 77.4405 64.0393 77.506 63.9645 77.5643C63.9237 77.5959 63.8865 77.6279 63.8488 77.6637C63.8052 77.7049 63.7362 77.7273 63.7013 77.7717C63.6209 77.874 63.4773 77.9272 63.3859 78.0185C63.3241 78.0804 63.2717 78.1481 63.2085 78.2114C63.1507 78.2692 63.0651 78.3368 63.0276 78.4043C63.0077 78.4401 62.9009 78.5431 62.8613 78.5431" stroke="black" stroke-linecap="round"/>
<path d="M62.6758 73.0664C62.7864 73.125 62.838 73.2927 62.9106 73.3904C63.0174 73.5341 63.1321 73.72 63.1849 73.8918C63.2305 74.0401 63.2899 74.1789 63.3238 74.3315C63.3493 74.4462 63.3967 74.5728 63.4009 74.6898C63.4064 74.8431 63.4472 74.9951 63.4472 75.1493C63.4472 75.2838 63.4318 75.4036 63.4172 75.535C63.4059 75.6371 63.3819 75.7605 63.3315 75.8513C63.2967 75.9138 63.2441 76.0763 63.1849 76.1058" stroke="black" stroke-linecap="round"/>
<path d="M38.3558 72.6641C38.2707 72.718 38.2305 72.764 38.1755 72.8403C38.1455 72.882 38.0792 72.9085 38.0533 72.9525C37.9969 73.0484 37.9461 73.1395 37.901 73.241C37.8642 73.3239 37.8329 73.4574 37.8329 73.5475C37.8329 73.6474 37.7969 73.7481 37.7969 73.854C37.7969 73.9523 37.8031 74.0546 37.847 74.1424C37.8859 74.2202 37.9501 74.3627 37.9591 74.4489C37.9706 74.5579 38.0405 74.7118 38.0893 74.8095C38.1267 74.8842 38.1423 75.0157 38.2115 75.0619" stroke="black" stroke-linecap="round"/>
<path d="M38.2988 73.543C38.4477 73.543 38.5277 73.5723 38.6537 73.6083C38.7602 73.6388 38.927 73.6354 39.0122 73.7036C39.1774 73.8357 39.4606 73.839 39.6434 73.9202C39.783 73.9822 39.9488 74.0072 40.0954 74.0491C40.1681 74.0698 40.3505 74.1086 40.4091 74.1555C40.592 74.3018 40.9129 74.2627 41.0964 74.4095C41.4883 74.723 42.1217 74.5626 42.4746 74.8801C42.6565 75.0439 42.9878 74.9882 43.1655 75.1303C43.2335 75.1847 43.3454 75.2322 43.427 75.2555C43.5415 75.2882 43.696 75.3854 43.8117 75.3918C44.301 75.419 44.7539 75.6607 45.2572 75.6607C45.5282 75.6607 45.7896 75.7279 46.0639 75.7279C46.315 75.7279 46.5445 75.7616 46.8034 75.7616C47.8858 75.7616 48.9315 75.9633 50.0137 75.9633C50.2711 75.9633 50.5236 76.0305 50.7868 76.0305C50.93 76.0305 51.079 76.0149 51.2145 76.0566C51.3639 76.1026 51.5178 76.0305 51.6608 76.0305C52.1866 76.0305 52.7375 75.9969 53.2744 75.9969C53.5549 75.9969 53.8413 75.9633 54.1147 75.9633C54.3838 75.9633 54.637 75.8624 54.9215 75.8624C55.4956 75.8624 56.0866 75.8288 56.6695 75.8288C57.0233 75.8288 57.3856 75.7616 57.747 75.7616C58.1163 75.7616 58.521 75.6954 58.8862 75.629C59.2611 75.5608 59.6288 75.5054 59.9974 75.4235C60.2651 75.364 60.5023 75.2373 60.7724 75.1882C61.0372 75.1401 61.3758 75.0014 61.6109 74.8708C61.8801 74.7212 62.2125 74.6523 62.4849 74.501C62.7259 74.3671 62.9745 74.3448 63.2226 74.2321" stroke="black" stroke-width="1.5" stroke-linecap="round"/>
<path d="M25.7783 67.2205C25.766 67.1227 25.5633 67.1458 25.5448 67.0809C25.5256 67.0138 25.4366 66.9898 25.3855 66.9259C25.2746 66.7874 25.0677 66.6982 24.9446 66.5615C24.8167 66.4193 24.6719 66.2757 24.5387 66.1425C24.4149 66.0187 24.3888 65.852 24.3162 65.6886C23.964 64.8961 24.2702 63.875 24.5126 63.0874C24.8934 61.8498 25.0712 60.5466 25.0712 59.2466C25.0712 58.6571 25.1105 58.0652 25.1105 57.4703C25.1105 56.6639 24.9534 55.8692 24.9141 55.0829C24.8815 54.4301 24.6187 53.7791 24.5999 53.1189C24.5815 52.476 24.2542 51.8614 24.207 51.2247C24.1828 50.8972 24.04 50.5299 23.9517 50.2121C23.8413 49.8148 23.816 49.3953 23.727 48.9944C23.595 48.4007 23.5 47.8016 23.5 47.1875C23.5 46.8019 23.5045 46.5088 23.7139 46.1662C23.9327 45.8082 24.1663 45.5311 24.53 45.3021C25.2014 44.8793 25.8331 45.2535 26.446 45.577C26.7613 45.7434 27.0751 45.8918 27.3298 46.1466C27.6104 46.4271 27.8008 46.7761 28.0653 47.0609C28.2824 47.2948 28.3802 47.6064 28.5497 47.8727C28.6996 48.1083 28.8331 48.3781 28.9207 48.6409" stroke="black" stroke-linecap="round"/>
<path d="M28.9219 48.5388C29.0475 48.7055 29.1299 48.7994 29.3058 48.9017C29.3597 48.933 29.5008 49.0321 29.5703 48.9766C29.7597 48.825 29.8228 48.5758 29.8746 48.3492C29.9598 47.9765 29.9735 47.5844 30.0642 47.2116C30.1751 46.7555 30.3132 46.3058 30.413 45.8469C30.6125 44.9292 30.6711 43.9872 30.8226 43.0614C30.918 42.4782 31.011 41.8959 31.1082 41.3128C31.1817 40.8715 31.2538 40.4209 31.2826 39.975C31.2991 39.7189 31.3025 39.4646 31.3025 39.2072C31.3025 39.1017 31.3188 39.0063 31.3458 39.1545C31.3696 39.2858 31.4787 39.4667 31.5448 39.5841C31.6227 39.7227 31.7394 39.8601 31.7964 40.0066C31.8947 40.2593 32.0659 40.496 32.1978 40.7334C32.2829 40.8866 32.5717 40.4175 32.5981 40.3647C32.6666 40.2278 32.7867 40.0665 32.8825 39.9434C33.0058 39.7849 33.0509 39.5692 33.147 39.3945C33.2592 39.1905 33.3388 38.9253 33.3987 38.6993C33.4657 38.4459 33.5787 38.1901 33.6199 37.9326C33.6988 37.4397 33.9274 36.9774 34.1138 36.52C34.2828 36.105 34.5167 35.7059 34.7154 35.3086" stroke="black" stroke-linecap="round"/>
<path d="M34.8203 35.2865C34.8512 35.1147 34.9261 34.9279 35.0521 34.802C35.1139 34.7402 35.1487 34.6199 35.2206 34.5749C35.2811 34.5371 35.2583 34.5371 35.2943 34.6019C35.4591 34.8985 35.5424 35.224 35.6373 35.544C35.6756 35.6734 35.7051 35.8628 35.7051 35.9982C35.7051 36.0742 35.7236 36.1453 35.7262 36.2182C35.7298 36.3191 35.7095 36.4314 35.7367 36.5295C35.7925 36.7301 35.7473 36.9959 35.7473 37.2037C35.7473 37.4439 35.639 37.6795 35.6209 37.9153C35.6147 37.9954 35.5887 38.0875 35.5741 38.1681C35.5537 38.2801 35.5556 38.4002 35.5319 38.5098C35.5222 38.5546 35.4763 38.8453 35.5682 38.7942C35.9697 38.5712 36.2211 38.2006 36.4589 37.8099C36.8229 37.2119 37.2351 36.6471 37.5169 36.0028C37.6406 35.7201 37.8153 35.4593 37.9383 35.1765C38.0535 34.9115 38.172 34.6448 38.2871 34.3818C38.3454 34.2485 38.3441 34.1241 38.3819 33.9921C38.4025 33.9198 38.4018 34.0717 38.4018 34.0845C38.4018 34.1973 38.4018 34.31 38.4018 34.4228C38.4018 34.9803 38.4142 35.5354 38.328 36.0871C38.3027 36.2494 38.3065 36.4174 38.2952 36.581C38.2842 36.7419 38.2543 36.9039 38.2543 37.0656C38.2543 37.348 38.2121 37.6335 38.2121 37.9153C38.2121 38.1286 38.174 38.3478 38.17 38.5613C38.1679 38.673 38.1489 38.7842 38.1489 38.8937C38.1489 38.9992 38.2317 38.8949 38.2859 38.8575C38.6719 38.5902 39.1088 38.3807 39.413 38.0089C39.6173 37.7591 39.8624 37.5416 40.0661 37.2926C40.3099 36.9946 40.5773 36.7117 40.835 36.4254C41.2721 35.9397 41.7022 35.4423 42.1096 34.9331C42.3323 34.6547 42.5203 34.3388 42.6784 34.0225" stroke="black" stroke-linecap="round"/>
<path d="M42.8047 34.0883C42.8299 34.3721 42.8822 34.6506 42.9966 34.9123C43.0582 35.0529 43.1377 35.1885 43.1933 35.3313C43.2269 35.4177 43.2847 35.5105 43.3056 35.6005C43.3369 35.7349 43.4193 35.8492 43.4531 35.9844C43.4758 36.0752 43.4983 36.1662 43.521 36.2571C43.5574 36.4026 43.5939 36.5655 43.6684 36.696C43.7896 36.9079 43.9489 37.2484 44.2419 37.2484C44.3867 37.2484 44.4682 37.2395 44.5954 37.1758C44.709 37.119 44.7902 37.0125 44.8646 36.9113C44.9872 36.7446 45.1147 36.5759 45.2169 36.3952C45.3542 36.1523 45.4583 35.8971 45.5809 35.6473C45.8248 35.1502 45.9806 34.6624 46.0537 34.1141C46.1016 33.7553 46.1755 32.673 46.1755 33.0349C46.1755 33.306 46.106 33.5836 46.09 33.8554C46.0726 34.1521 46.049 34.4431 46.049 34.7414C46.049 35.0453 46.0625 35.3645 46.145 35.659C46.2052 35.8739 46.2815 36.0864 46.3393 36.3004C46.3901 36.4884 46.4508 36.7085 46.543 36.8797C46.6111 37.0064 46.7366 36.9163 46.8449 36.8481C47.2107 36.6178 47.4991 36.2275 47.718 35.8626C48.0499 35.3096 48.4739 34.8132 48.7667 34.2358C48.9345 33.9048 49.1063 33.5753 49.2723 33.2433C49.4677 32.8525 49.5883 32.43 49.7569 32.0284C50.0105 31.4242 50.2297 30.8042 50.4732 30.1955C50.6682 29.708 51.0069 29.2875 51.2105 28.8051C51.2882 28.6211 51.4201 28.426 51.4633 28.2316C51.4866 28.1271 51.5422 27.9896 51.5897 27.8945" stroke="black" stroke-linecap="round"/>
<path d="M51.4648 26.8828C51.526 27.2546 51.594 27.6327 51.6755 27.9994C51.7251 28.2223 51.8056 28.464 51.823 28.6899C51.8365 28.8658 51.9104 29.0458 51.9494 29.2213C52.0065 29.4783 52.0846 29.7529 52.1718 30.0019C52.2681 30.2771 52.3403 30.5441 52.4761 30.8013C52.6196 31.0733 52.7605 31.3477 52.9173 31.6124C53.0721 31.8736 53.2042 32.1382 53.3866 32.3814C53.5039 32.5378 53.6531 32.7129 53.7401 32.887" stroke="black" stroke-linecap="round"/>
<path d="M53.5488 30.9062C53.6082 31.192 53.671 31.4714 53.7338 31.7536C53.79 32.0069 53.9032 32.2551 53.9491 32.5074C53.9746 32.6478 54.0233 32.7864 54.0544 32.9264C54.0781 33.0327 54.0778 33.1655 54.1223 33.2658C54.1619 33.3548 54.1473 33.4623 54.1762 33.556C54.2021 33.6404 54.2271 33.7361 54.2429 33.8229C54.2759 34.0048 54.3334 34.2147 54.4079 34.3824C54.4842 34.554 54.5145 34.7576 54.5905 34.9313C54.7027 35.1877 54.8197 35.4633 54.9135 35.726C55.0133 36.0053 55.2168 36.2595 55.37 36.5101C55.532 36.7752 55.767 37.025 56.0137 37.21C56.1695 37.3269 56.2848 37.4832 56.4514 37.5893C56.5337 37.6416 56.5873 37.7272 56.6715 37.7789C56.7647 37.8361 56.8522 37.9011 56.9418 37.9638C57.2463 38.1769 57.5691 38.3765 57.884 38.5747C57.9356 38.6073 58.0441 38.7137 58.0572 38.5958C58.0695 38.485 58.0783 38.3741 58.0783 38.2576C58.0783 37.919 58.0572 37.5859 58.0572 37.2475C58.0572 36.8593 58.1617 36.4728 58.2585 36.0993C58.3651 35.6881 58.5681 35.3173 58.6307 34.8926C58.6823 34.5429 58.8021 34.1948 58.8355 33.844C58.861 33.5769 58.921 33.3018 58.921 33.034" stroke="black" stroke-linecap="round"/>
<path d="M58.9643 32.9492C58.9219 33.3591 58.8379 33.7417 58.8379 34.1559C58.8379 34.3521 58.8379 34.5484 58.8379 34.7446C58.8379 34.8751 58.88 35.0092 58.88 35.1402C58.88 35.3848 58.9645 35.6103 59.0076 35.8471C59.0628 36.151 59.289 36.3796 59.4793 36.6044C59.7247 36.8944 60.0414 37.1498 60.343 37.378C60.6477 37.6086 60.9398 37.8729 61.2606 38.0791C61.5534 38.2673 61.8153 38.5164 62.1244 38.6795C62.3106 38.7778 62.4829 38.9009 62.6721 38.9955C62.8125 39.0657 62.9541 39.2322 63.0513 39.0377" stroke="black" stroke-linecap="round"/>
<path d="M62.9883 34.5508C62.9883 34.9698 63.0486 35.3691 63.1147 35.782C63.1295 35.8748 63.1728 35.9658 63.1779 36.0583C63.1816 36.1251 63.1916 36.2138 63.2095 36.2783C63.2521 36.4317 63.2559 36.5916 63.2938 36.7429C63.3971 37.1562 63.4647 37.6022 63.4728 38.0269C63.4768 38.2348 63.4937 38.4562 63.5196 38.6636C63.5379 38.8096 63.5449 38.9556 63.5676 39.1013C63.5777 39.166 63.5758 39.2885 63.6203 39.3331" stroke="black" stroke-linecap="round"/>
<path d="M63.1348 34.6141C63.2958 34.3219 63.4893 34.0387 63.6837 33.7679C63.7356 33.6955 63.7368 33.7188 63.7715 33.776C63.8227 33.8608 63.8659 33.9495 63.9143 34.0359C64.0308 34.2439 64.0657 34.4917 64.1249 34.7194C64.2546 35.2175 64.3218 35.7169 64.4093 36.2245C64.4516 36.4698 64.4742 36.7189 64.5205 36.9642C64.5677 37.2142 64.6599 37.4486 64.7359 37.6899C64.8705 38.1174 65.0888 38.5053 65.252 38.9223C65.3957 39.2896 65.6122 39.658 65.9203 39.9113C66.1044 40.0626 66.2714 40.2452 66.4763 40.3666C66.7199 40.5109 66.9447 40.7141 67.2113 40.8184C67.3429 40.8699 67.475 40.9368 67.601 40.9928C67.6915 41.033 67.6853 40.767 67.6853 40.7282C67.6853 40.4755 67.5747 40.2402 67.4852 40.0061C67.424 39.8463 67.3605 39.6866 67.3108 39.5227C67.2587 39.3511 67.1774 39.1759 67.1586 38.9972C67.0918 38.3621 67.0954 37.7204 67.0954 37.0813C67.0954 36.805 67.0584 36.533 67.0533 36.2573C67.0498 36.0672 67.0583 35.8323 67.0158 35.6464C66.9913 35.539 66.9901 35.409 66.9901 35.2987C66.9901 35.2419 67.0834 35.4404 67.0954 35.4614C67.1864 35.6207 67.3021 35.7655 67.4009 35.9202C67.5989 36.2301 67.7376 36.58 67.896 36.9104C68.0293 37.1885 68.082 37.4611 68.1488 37.7578C68.2944 38.405 68.3169 39.0741 68.4964 39.7123C68.6263 40.1741 68.7779 40.6035 68.9657 41.0443C69.1689 41.521 69.4026 41.9849 69.6118 42.4604C69.6906 42.6395 69.7791 42.8138 69.8552 42.9942C69.9038 43.1092 69.9858 43.2093 70.0331 43.3254C70.0694 43.4145 70.092 43.5112 70.1502 43.5887" stroke="black" stroke-linecap="round"/>
<path d="M69.957 43.2656C70.2089 43.8185 70.451 44.3814 70.7913 44.883C71.0621 45.2821 71.3725 45.6593 71.568 46.0992C71.6485 46.2804 71.7833 46.4531 71.8493 46.6377C71.9342 46.8756 72.0745 47.1446 72.2232 47.3505C72.5005 47.7344 72.6456 48.1621 72.8049 48.6003C73.1312 49.4975 73.4507 50.3394 74.0196 51.119C74.1856 51.3466 74.3712 51.5976 74.5182 51.8381C74.6456 52.0466 74.8351 52.2078 74.9912 52.3863C75.1392 52.5554 75.2831 52.6854 75.4803 52.7938C75.6031 52.8614 75.7057 52.9594 75.8367 53.0176C75.9152 53.0525 75.9909 53.0464 76.0844 53.0464" stroke="black" stroke-linecap="round"/>
<path d="M71.5957 47.2656C71.6961 47.4391 71.7624 47.7719 71.7683 47.9848C71.7754 48.2389 71.8573 48.486 71.9121 48.7327C71.975 49.0158 72.1281 49.2859 72.2062 49.567C72.2475 49.7158 72.2866 49.8677 72.3293 50.0129C72.3738 50.1643 72.4012 50.3719 72.4012 50.5291C72.4012 50.721 72.4533 50.9017 72.4587 51.0916C72.4632 51.2486 72.4982 51.425 72.5178 51.5823C72.5407 51.7653 72.5671 51.9343 72.5738 52.1208C72.5799 52.2931 72.6266 52.4725 72.6313 52.645C72.6366 52.8414 72.6311 53.0287 72.6585 53.2204C72.7071 53.5605 72.6601 53.9417 72.6601 54.2847C72.6601 54.6152 72.6313 54.9366 72.6313 55.2628C72.6313 55.6353 72.545 56.0074 72.545 56.3783C72.545 56.7154 72.4587 57.0527 72.4587 57.3916C72.4587 57.81 72.4299 58.2349 72.4299 58.6573C72.4299 59.6865 72.5738 60.709 72.5738 61.7354C72.5738 62.1483 72.6453 62.5656 72.6904 62.9723C72.7499 63.5075 72.8517 64.0451 72.919 64.5833C72.9759 65.0384 73.0628 65.4923 73.1427 65.9417C73.1922 66.2199 73.2194 66.5057 73.2642 66.7855C73.2962 66.9858 73.2913 67.2274 73.408 67.4024" stroke="black" stroke-linecap="round"/>
<path d="M73.208 66.9141C73.2828 67.2178 73.3274 67.5195 73.403 67.8218C73.4842 68.1468 73.599 68.4631 73.6906 68.7839C73.8879 69.4744 73.8519 70.2145 74.0071 70.9127C74.059 71.1466 74.0998 71.4508 74.0998 71.6894C74.0998 71.8208 74.1573 71.956 74.1573 72.0921C74.1573 72.2906 74.1861 72.4937 74.1861 72.6962C74.1861 73.453 74.2436 74.2121 74.2436 74.9688C74.2436 75.3332 74.2436 75.6975 74.2436 76.0619C74.2436 76.5339 74.1861 77.0011 74.1861 77.4715C74.1861 77.7305 74.1573 77.9954 74.1573 78.2482C74.1573 78.4811 74.0877 78.6902 74.071 78.9162C74.0458 79.2559 73.8453 79.5886 73.7609 79.9167C73.7294 80.0393 73.6768 80.1491 73.6267 80.2635C73.5592 80.4178 73.5375 80.5965 73.4669 80.7509C73.1537 81.436 72.8507 82.1559 72.5176 82.8221" stroke="black" stroke-linecap="round"/>
<path d="M72.4028 82.6758C72.3963 82.8385 72.2774 82.9584 72.2014 83.0913C72.1613 83.1614 72.0836 83.2465 72.0304 83.3087C71.9423 83.4114 71.8811 83.5625 71.821 83.6826C71.6466 84.0315 71.3997 84.4196 71.137 84.7198C70.9548 84.9281 70.8055 85.1875 70.648 85.415C70.5068 85.6189 70.3275 85.7897 70.1749 85.984C69.807 86.4523 69.3076 86.8513 68.8868 87.2721C68.4222 87.7366 67.8734 88.1526 67.3622 88.573C66.8323 89.0086 66.3414 89.4918 65.8008 89.9122C65.5893 90.0767 65.389 90.2651 65.1599 90.4077C64.7889 90.6385 64.4633 90.9305 64.0955 91.162C63.9457 91.2563 63.7883 91.3556 63.6289 91.4353C63.3562 91.5716 63.0575 91.7978 62.7659 91.8812C62.578 91.9348 62.4027 92.0487 62.2129 92.1049C61.9285 92.1892 61.6152 92.1896 61.3275 92.2695C60.9885 92.3637 60.6296 92.4036 60.2919 92.514C59.9921 92.6121 59.6618 92.6731 59.3714 92.7953C59.2311 92.8544 58.9869 92.8592 58.8376 92.8592C58.4059 92.8592 57.9811 92.9455 57.5527 92.9455C56.5445 92.9455 55.5365 93.1757 54.5258 93.1757C54.1722 93.1757 53.8303 93.223 53.4742 93.1693C53.273 93.1389 53.0714 93.1538 52.8701 93.1245C52.648 93.0922 52.4044 93.0763 52.1797 93.0622C51.7174 93.0333 51.2538 92.9705 50.7925 92.9232C50.2108 92.8635 49.6234 92.8667 49.0441 92.7953C48.8043 92.7658 48.5638 92.7572 48.3249 92.7218C48.1462 92.6953 47.9534 92.712 47.7783 92.6723C47.56 92.6226 47.3119 92.6323 47.0879 92.6067C46.8819 92.5832 46.6472 92.5716 46.4407 92.5716C46.1185 92.5716 45.7983 92.514 45.477 92.514C45.2541 92.514 44.9142 92.5554 44.7578 92.399" stroke="black" stroke-linecap="round"/>
<path d="M44.786 92.5719C44.2862 92.3826 43.7662 92.2893 43.2582 92.126C42.8621 91.9987 42.4666 91.8637 42.0835 91.6961C41.8766 91.6056 41.6449 91.5626 41.4219 91.5347C41.3491 91.5256 41.1668 91.4889 41.1103 91.4436C40.8992 91.2747 40.5607 91.2581 40.3559 91.076C40.2267 90.9611 40.0463 90.8845 39.9021 90.7884C39.7367 90.6781 39.5826 90.5556 39.4082 90.4575C39.0081 90.2324 38.6082 90.0008 38.1984 89.7959C37.9463 89.6698 37.6812 89.4832 37.4793 89.2925C37.2322 89.0592 36.9485 88.8632 36.7025 88.6308C36.3893 88.335 36.0305 88.0929 35.6941 87.8238C35.3458 87.5451 34.998 87.2571 34.6297 87.0039C34.1316 86.6615 33.6604 86.2483 33.1866 85.8692C32.6563 85.445 32.0919 85.0558 31.6108 84.5747C31.1081 84.072 30.653 83.5193 30.1741 82.9925C29.9457 82.7414 29.7182 82.4778 29.5108 82.2094C29.3416 81.9904 29.2034 81.7315 29.0202 81.5254C28.8692 81.3556 28.6779 81.1253 28.5759 80.9213C28.5216 80.8127 28.4379 80.7297 28.3666 80.6337C28.2906 80.5314 28.2391 80.4042 28.1524 80.3108C27.8868 80.0248 27.6311 79.5776 27.5547 79.1953" stroke="black" stroke-linecap="round"/>
<path d="M27.6414 79.3692C27.4383 78.8867 27.1353 78.4743 26.8791 78.0188C26.66 77.6292 26.6351 77.1498 26.4764 76.7371C26.4 76.5386 26.3659 76.3154 26.2958 76.1122C26.2008 75.8368 26.1267 75.5277 26.0736 75.2412C25.9168 74.3945 25.8767 73.5242 25.7988 72.6665C25.6979 71.5569 25.5415 70.4264 25.5415 69.3072C25.5415 68.6718 25.528 68.02 25.6501 67.3958C25.7278 66.9987 25.8752 66.6236 25.9873 66.2372C26.1127 65.8055 26.2371 65.3754 26.4045 64.957" stroke="black" stroke-linecap="round"/>
<path d="M26.375 64.899C26.4584 64.7714 26.4722 64.6432 26.5332 64.509C26.6035 64.3544 26.5613 64.1561 26.6275 64.0072C26.6629 63.9275 26.6442 63.816 26.6771 63.7307C26.752 63.5358 26.811 63.2917 26.8369 63.085C26.8686 62.8309 26.9559 62.5869 27.0302 62.3451C27.1182 62.0593 27.1452 61.7404 27.1821 61.4453C27.2233 61.1151 27.272 60.7842 27.3227 60.4545C27.363 60.1926 27.4681 59.8941 27.4681 59.6346C27.4681 59.4214 27.5544 59.2049 27.5544 58.9874C27.5544 58.5819 27.6603 58.1761 27.6695 57.7712C27.6844 57.1149 27.7558 56.4693 27.7558 55.8102C27.7558 55.0636 27.8133 54.3091 27.8133 53.5632C27.8133 53.1721 27.8955 52.7869 27.9572 52.4014C28.0279 51.9596 28.165 51.471 28.3311 51.0557C28.5263 50.5677 28.6915 50.0794 28.9352 49.6094C29.072 49.3457 29.2349 49.0801 29.3604 48.8119C29.4516 48.6168 29.5912 48.4532 29.7056 48.2717C29.8168 48.0951 29.9104 47.9007 30.0572 47.7539" stroke="black" stroke-linecap="round"/>
<path d="M26.2047 77.0834C26.2248 77.2892 26.2679 77.4777 26.2679 77.6838C26.2679 77.8965 26.2679 78.1091 26.2679 78.3217C26.2679 78.4988 26.2679 78.676 26.2679 78.8531C26.2679 79.1299 26.1667 79.4096 26.1427 79.6852C26.0654 80.5739 25.7483 81.4319 25.4884 82.2765C25.4267 82.4772 25.35 82.6761 25.2942 82.8769C25.2643 82.9842 25.2062 83.0855 25.1771 83.1929C25.1454 83.3104 25.1111 83.442 25.0566 83.5511C25.0067 83.6509 24.9892 83.7709 24.9512 83.8765C24.8994 84.0205 24.8431 84.1652 24.7932 84.3095C24.7269 84.5015 24.66 84.6915 24.5825 84.8795C24.5203 85.0308 24.4448 85.1867 24.4093 85.3465C24.3638 85.5514 24.2699 85.7785 24.194 85.9738C24.1225 86.1576 24.0968 86.3592 24.0254 86.5426C23.9304 86.7871 23.8404 87.0319 23.7399 87.2753C23.6261 87.5508 23.5014 87.8274 23.3981 88.1063C23.3332 88.2816 23.2688 88.4746 23.1804 88.6388C23.1649 88.6676 23.1289 88.7861 23.1289 88.7442C23.1289 88.6858 23.15 88.6369 23.15 88.5815C23.15 88.3482 23.1921 88.1156 23.1921 87.8804C23.1921 87.7154 23.1921 87.5503 23.1921 87.3853C23.1921 87.2261 23.2342 87.0701 23.2342 86.9113C23.2342 86.5739 23.35 86.2425 23.3606 85.9059C23.3707 85.5889 23.4735 85.2754 23.487 84.9579C23.5007 84.6368 23.5734 84.3154 23.5936 83.9935C23.6057 83.7986 23.6218 83.5965 23.6509 83.4036C23.6707 83.2724 23.6577 83.133 23.6872 83.0033C23.7524 82.7164 23.7444 82.4094 23.7867 82.1185C23.8313 81.8119 23.8343 81.4978 23.8651 81.1904C23.8926 80.9151 23.9045 80.6253 23.9084 80.3489C23.9138 79.9622 23.9716 79.5777 23.9716 79.1902C23.9716 78.4004 24.0782 77.6119 24.0149 76.8213C23.9691 76.2491 24.0137 75.6566 24.0137 75.082" stroke="black" stroke-linecap="round"/>
<path d="M23.9926 75.3592C23.8807 74.9206 23.7432 74.4891 23.666 74.0414C23.6271 73.8158 23.6348 73.5832 23.6122 73.3567C23.5965 73.2002 23.528 73.0538 23.4858 72.9061C23.4856 72.9055 23.4079 73.1247 23.391 73.1682C23.3147 73.3644 23.2422 73.5574 23.1499 73.7488C22.961 74.1399 22.7791 74.525 22.5389 74.8852C22.4823 74.9702 22.4151 75.046 22.354 75.1275C22.347 75.1368 22.2671 75.2465 22.265 75.2118C22.2576 75.0848 22.265 74.9551 22.265 74.8279C22.265 74.5892 22.3108 74.3364 22.3446 74.0999C22.3772 73.8719 22.4004 73.6445 22.4289 73.4164C22.4669 73.1124 22.4608 72.8055 22.5178 72.5035C22.5873 72.1355 22.5959 71.7502 22.6279 71.3775C22.6586 71.0191 22.6677 70.6366 22.6396 70.2774C22.6231 70.068 22.6063 69.8553 22.6021 69.6453C22.5981 69.441 22.5525 69.2423 22.5389 69.0391" stroke="black" stroke-linecap="round"/>
<path d="M22.6026 69.2072C22.5602 69.0164 22.5014 68.8505 22.4773 68.6582C22.4518 68.4539 22.428 68.2524 22.379 68.0508C22.2467 67.5068 22.2233 66.9429 22.2233 66.3841C22.2233 66.1124 22.1812 65.8453 22.1812 65.5719C22.1812 65.2317 22.1812 64.8915 22.1812 64.5513C22.1812 63.9385 22.1075 63.3044 22.0232 62.6974C21.9741 62.344 21.9575 61.991 21.8863 61.6393C21.8519 61.4694 21.8235 61.2891 21.802 61.1173C21.7825 60.9616 21.7262 60.8127 21.7013 60.6585C21.6614 60.4107 21.5862 60.1668 21.5188 59.9259C21.4416 59.6504 21.394 59.3613 21.3268 59.0832C21.2457 58.7473 21.1704 58.4084 21.0857 58.0743C20.9925 57.7064 20.8479 57.3444 20.7955 56.9671C20.7414 56.5779 20.6389 56.1939 20.5473 55.8131C20.4819 55.5412 20.4102 55.258 20.2852 55.0078" stroke="black" stroke-linecap="round"/>
<path d="M20.4104 55.3446C20.3209 54.9149 20.1329 54.5323 19.9422 54.1437C19.7011 53.6522 19.5172 53.1236 19.4155 52.5848C19.3533 52.2548 19.2855 51.9247 19.2213 51.5946C19.1528 51.2426 19.1504 50.8727 19.0621 50.5248C19.0226 50.3695 19.0107 50.1965 19.0001 50.0368C18.989 49.8703 18.9476 49.7067 18.9369 49.5405C18.9149 49.2001 18.8633 48.8579 18.8257 48.5188C18.6297 46.7549 18.6407 44.9676 18.6407 43.1934C18.6407 42.5027 18.6877 41.7982 18.8514 41.1242C19.0069 40.484 19.1232 39.8011 19.4202 39.207" stroke="black" stroke-linecap="round"/>
<path d="M19.5684 39.1645C19.7084 38.8928 19.8657 38.6247 19.9265 38.3206C20.0401 37.7525 20.2056 37.1977 20.3478 36.6364C20.6691 35.3691 21.0317 34.1075 21.5288 32.8958C21.7787 32.2867 22.0833 31.6909 22.4124 31.1215C22.6086 30.7822 22.8602 30.4765 23.0866 30.1582C23.3822 29.7426 23.7021 29.3465 24.0323 28.9586C24.3448 28.5914 24.6183 28.192 24.9358 27.8303C25.2596 27.4614 25.561 27.0757 25.8675 26.6927C26.1504 26.339 26.4401 25.9916 26.6891 25.6136C26.9108 25.2768 27.0977 24.9211 27.3211 24.5859" stroke="black" stroke-linecap="round"/>
<path d="M27.3848 24.6686C27.7074 24.159 28.0487 23.6623 28.3316 23.1318C28.4991 22.8178 28.6163 22.4793 28.7752 22.1616C29.1179 21.4762 29.4573 20.7822 29.7654 20.0806C30.0262 19.4865 30.3545 18.9326 30.6713 18.3695C30.8158 18.1126 30.9919 17.8674 31.1558 17.6216C31.3224 17.3717 31.5229 17.1068 31.7469 16.9053C31.9867 16.6894 32.2319 16.4675 32.462 16.2417C32.7277 15.9808 33.0279 15.7689 33.3211 15.5418C34.1819 14.8746 35.1283 14.3349 36.0914 13.8318C36.5542 13.5901 37.0216 13.3589 37.4877 13.1237C37.7099 13.0116 37.9242 12.8854 38.149 12.7773C38.3605 12.6756 38.5861 12.6059 38.8032 12.5174C39.2765 12.3246 39.7629 12.1631 40.2358 11.9697C40.6482 11.801 41.0666 11.5888 41.4998 11.4805" stroke="black" stroke-linecap="round"/>
<path d="M41.541 11.6069C42.2255 11.3911 42.9036 11.1119 43.6103 10.9749C44.5298 10.7967 45.4563 10.6346 46.3748 10.4482C46.7826 10.3655 47.1926 10.3014 47.6037 10.2376C47.9838 10.1786 48.356 10.1062 48.7343 10.0386C49.4664 9.90788 50.197 9.8346 50.9359 9.76355C52.3021 9.63218 53.7008 9.6574 55.0662 9.77877C55.655 9.8311 56.2482 9.81622 56.8394 9.81622C57.1331 9.81622 57.4269 9.81622 57.7207 9.81622C57.9 9.81622 58.0936 9.83885 58.2684 9.79515" stroke="black" stroke-linecap="round"/>
<path d="M58.2695 9.92188C59.2703 10.1121 60.282 10.2677 61.2728 10.5071C62.0689 10.6994 62.8679 10.8753 63.6628 11.0759C64.7602 11.3528 65.8321 11.7259 66.9024 12.0871C67.4629 12.2763 67.9943 12.5302 68.534 12.7706C69.0272 12.9904 69.4817 13.2316 69.9244 13.5408C70.3224 13.8187 70.6766 14.1553 71.1042 14.3928C71.2998 14.5015 71.5037 14.5949 71.6988 14.7041C71.7844 14.7521 71.8683 14.8195 71.9001 14.9148" stroke="black" stroke-linecap="round"/>
<path d="M72.0039 14.7461C72.6671 15.4093 73.5457 15.8034 74.2113 16.4689C74.4208 16.6784 74.6436 16.8731 74.8644 17.0705C75.081 17.2642 75.2638 17.4611 75.4578 17.6744C75.6769 17.9155 75.9129 18.1953 76.0863 18.4703C76.267 18.757 76.4525 19.0298 76.6165 19.3271C76.7894 19.6405 76.9217 19.9659 77.0764 20.2868C77.1653 20.4712 77.2161 20.6799 77.2707 20.8767C77.324 21.0686 77.4012 21.2511 77.4498 21.4455C77.5063 21.6714 77.5943 21.8933 77.6663 22.115C77.7395 22.3402 77.7997 22.5701 77.8817 22.7926C78.0055 23.1288 78.1246 23.4655 78.2398 23.805C78.4225 24.3434 78.5255 24.9184 78.6085 25.481C78.6534 25.7855 78.7216 26.0814 78.777 26.3834C78.8176 26.6045 78.8419 26.8305 78.8929 27.0494C78.9754 27.4034 79.0275 27.7674 79.1352 28.1145C79.4071 28.9905 79.5613 29.9074 79.704 30.8111C79.7764 31.2698 79.8285 31.7319 79.9088 32.1898C79.9432 32.386 79.9609 32.5987 80.02 32.789C80.0494 32.8837 80.0727 32.996 80.0727 33.0957" stroke="black" stroke-linecap="round"/>
<path d="M80.2211 32.8242C80.2436 33.1456 80.2868 33.455 80.3265 33.7722C80.3443 33.9149 80.3959 34.0507 80.4154 34.1936C80.4575 34.5008 80.4624 34.8159 80.5114 35.1206C80.5522 35.3742 80.5912 35.6271 80.6378 35.879C80.6858 36.1382 80.665 36.3898 80.6858 36.6491C80.7771 37.7907 80.6802 38.9516 80.6202 40.0913C80.5861 40.7397 80.6004 41.3921 80.6004 42.0423C80.6004 42.8248 80.5096 43.5963 80.4482 44.3738C80.3842 45.1838 80.2754 45.9912 80.2001 46.8012C80.1447 47.3961 79.9473 47.9829 79.9473 48.5825" stroke="black" stroke-linecap="round"/>
<path d="M80.0518 48.2656C80.021 48.6556 79.9835 49.0214 79.8996 49.3986C79.8516 49.6149 79.791 49.8337 79.7264 50.0458C79.6005 50.4596 79.5602 50.9036 79.4303 51.3192C79.336 51.6208 79.287 51.9382 79.2138 52.2473C79.1686 52.4381 79.1448 52.637 79.0921 52.8255C79.0224 53.0742 78.9395 53.3199 78.872 53.5699C78.7737 53.9343 78.6724 54.2999 78.5981 54.6712C78.5724 54.7999 78.5164 54.926 78.4671 55.0469C78.3969 55.219 78.3474 55.3991 78.2775 55.5713C78.1602 55.8599 78.0954 56.1572 77.9977 56.4503C77.9212 56.6799 77.8715 56.912 77.8081 57.1443C77.7308 57.4279 77.6183 57.7012 77.5448 57.987C77.4719 58.2704 77.3841 58.5498 77.3025 58.8309C77.211 59.1459 77.0776 59.4507 76.997 59.7684C76.8355 60.4057 76.5337 61.0086 76.2807 61.6129C76.0332 62.2044 75.7415 62.7774 75.5223 63.3802C75.5017 63.4369 75.5216 63.3531 75.5434 63.3287C75.601 63.2644 75.6383 63.1856 75.6909 63.1181C75.8375 62.9295 75.9584 62.6982 76.0701 62.486C76.1898 62.2585 76.3697 62.0722 76.5137 61.8634C76.7606 61.5053 77.0573 61.1795 77.313 60.8264C77.5442 60.5074 77.7734 60.1844 78.0083 59.869C78.0786 59.7746 78.1315 59.6653 78.199 59.5682C78.2798 59.4522 78.3994 59.3595 78.4928 59.2534C78.6627 59.0603 78.8651 58.8991 79.078 58.7571C79.2147 58.666 79.3312 58.7722 79.4198 58.8952C79.5835 59.1226 79.7314 59.3564 79.8528 59.6104C79.929 59.7697 79.9465 59.8662 79.9465 60.0469C79.9465 60.3433 79.8925 60.6255 79.799 60.906" stroke="black" stroke-linecap="round"/>
<path d="M79.6314 60.8828C79.662 61.1964 79.6524 61.5113 79.6524 61.8262C79.6524 62.2284 79.4941 62.6023 79.3528 62.9685C79.2121 63.3333 79.0375 63.6839 78.901 64.0499C78.7562 64.4383 78.6018 64.8218 78.4633 65.2121C78.2443 65.8292 78.1777 66.5427 78.1777 67.1925C78.1777 67.5362 78.1777 67.8799 78.1777 68.2236C78.1777 68.2475 78.2218 68.116 78.2573 68.0668C78.3371 67.9563 78.3921 67.826 78.4727 67.7133C78.5756 67.5691 78.7151 67.396 78.873 67.3083C79.0166 67.2285 79.1448 67.0555 79.3154 67.0555C79.5267 67.0555 79.7071 67.3071 79.7952 67.4769C79.9424 67.7603 80.0106 68.0634 80.0106 68.3816C80.0106 68.8312 79.8078 69.275 79.7367 69.7194C79.6123 70.4971 79.189 71.2275 79.189 72.0274" stroke="black" stroke-linecap="round"/>
<path d="M79.0621 71.8828C78.9405 72.1945 78.8308 72.5044 78.704 72.8145C78.5533 73.1828 78.3855 73.5415 78.2358 73.91C78.0695 74.3194 77.9009 74.7537 77.8028 75.1857C77.7283 75.5135 77.6295 75.8628 77.6295 76.2016C77.6295 76.9812 77.5453 77.7585 77.5453 78.5389C77.5453 79.0732 77.4036 79.5739 77.2398 80.078C77.1512 80.3507 77.0357 80.6155 76.9449 80.8879C76.8739 81.1008 76.7692 81.2944 76.719 81.5152C76.6535 81.8034 76.5385 82.0851 76.4662 82.3743C76.4398 82.4797 76.4337 82.5911 76.403 82.695C76.3937 82.7262 76.3688 82.8996 76.3655 82.812C76.3606 82.6787 76.2836 82.5008 76.2391 82.3743C76.1645 82.1624 76.0667 81.957 75.9863 81.747C75.905 81.5346 75.8279 81.3244 75.7382 81.115C75.6467 80.9015 75.6319 80.6407 75.5755 80.4151C75.518 80.1851 75.4956 79.9504 75.4479 79.7187C75.4019 79.4951 75.3247 79.283 75.2911 79.0562C75.2613 78.855 75.2051 78.6578 75.1752 78.4546C75.1372 78.196 75.0838 77.9425 75.0277 77.6868C74.9242 77.2152 74.7581 76.7504 74.6275 76.2859C74.5273 75.9296 74.4062 75.5411 74.4062 75.1693" stroke="black" stroke-linecap="round"/>
<path d="M66.5911 81.4219C66.5211 81.4558 66.4518 81.5272 66.3961 81.5797C66.3677 81.6066 66.3395 81.6347 66.3126 81.6633C66.2809 81.6969 66.2387 81.7497 66.2011 81.7727C66.1442 81.8074 66.1104 81.8799 66.0526 81.9161C66.027 81.9321 65.9916 81.9715 65.9762 81.9976C65.9665 82.0142 65.9335 82.0271 65.9184 82.0394C65.8986 82.0556 65.8853 82.0812 65.8668 82.0997C65.8 82.1666 65.7213 82.2567 65.6791 82.3412C65.6757 82.3478 65.6543 82.368 65.6543 82.3737C65.6543 82.3874 65.7137 82.3681 65.7183 82.367C65.808 82.3451 65.8983 82.3302 65.9876 82.3061C66.3857 82.1985 66.6345 81.8683 66.944 81.6169" stroke="black" stroke-width="0.5" stroke-linecap="round"/>
<path d="M64.6964 80.0664C64.6226 80.1114 64.5441 80.1653 64.4777 80.2196C64.3942 80.2879 64.286 80.3268 64.2321 80.4286C64.1893 80.5094 64.1032 80.5986 64.033 80.6561C63.9549 80.7199 63.8853 80.7898 63.8143 80.8609C63.7865 80.8886 63.7723 80.8849 63.8101 80.8975C63.8722 80.9182 63.9625 80.9021 64.0278 80.9021C64.0886 80.9021 64.1545 80.9097 64.2135 80.8949C64.2717 80.8804 64.33 80.8619 64.3879 80.8485C64.5188 80.818 64.6279 80.7032 64.7387 80.6323C64.834 80.5713 64.9217 80.506 65.0121 80.4378C65.1548 80.3303 65.2806 80.2043 65.4207 80.0943" stroke="black" stroke-width="0.5" stroke-linecap="round"/>
<path d="M69.2322 79.0531C69.2383 79.0199 69.2586 78.977 69.2702 78.9446C69.2798 78.9177 69.2756 78.8862 69.2756 78.8578C69.2756 78.7702 69.2973 78.6846 69.2973 78.5974C69.2973 78.485 69.3082 78.3748 69.3082 78.2616C69.3082 78.2149 69.319 78.1683 69.319 78.12C69.319 78.0738 69.3217 78.0598 69.2997 78.1091C69.2396 78.2444 69.1463 78.3714 69.0966 78.5106C69.0777 78.5633 69.0505 78.6141 69.0194 78.6625C68.9801 78.7236 68.8959 78.76 68.8633 78.8253" stroke="black" stroke-width="0.5" stroke-linecap="round"/>
<path d="M68.7346 75.1995C68.8273 74.9831 68.9702 74.8184 68.9733 74.5774C68.9741 74.5172 68.9807 74.4502 68.9679 74.3911C68.9548 74.3308 68.929 74.2749 68.9166 74.2145C68.9008 74.1371 68.8757 74.0524 68.8757 73.9734C68.8757 73.9107 68.7988 74.0474 68.7888 74.0626C68.6924 74.21 68.5959 74.3605 68.5417 74.5292C68.4966 74.6693 68.44 74.8012 68.3705 74.9318C68.3119 75.0421 68.2246 75.18 68.2246 75.308" stroke="black" stroke-width="0.5" stroke-linecap="round"/>
<path d="M68.8311 78.8147C68.8278 78.7527 68.8072 78.6857 68.8335 78.6302C68.8505 78.5943 68.8655 78.5565 68.8829 78.5217C68.9135 78.4605 68.9638 78.4043 68.983 78.3372C68.9949 78.2956 69.0395 78.1814 69.0752 78.1528C69.0959 78.1363 69.1256 78.089 69.1403 78.066C69.1719 78.0169 69.2367 77.9391 69.2868 77.9141" stroke="black" stroke-width="0.5" stroke-linecap="round"/>
<path d="M63.106 78.5669C63.0642 78.5716 63.0024 78.6673 62.9694 78.697C62.9298 78.7326 62.822 78.8087 62.7726 78.8196C62.7467 78.8254 62.7104 78.8716 62.6878 78.8896C62.6598 78.912 62.614 78.9222 62.58 78.9374C62.5088 78.969 62.4342 78.984 62.3652 79.0147C62.3442 79.0241 62.2736 79.0306 62.2623 79.0477C62.2426 79.0772 62.2933 78.9839 62.3092 78.9522C62.3449 78.8808 62.4016 78.8321 62.4393 78.7661C62.4899 78.6775 62.6164 78.6565 62.6837 78.5892C62.7453 78.5276 62.861 78.4541 62.943 78.4336" stroke="black" stroke-width="0.5" stroke-linecap="round"/>
<path d="M62.7518 78.4023C62.6479 78.4478 62.616 78.5556 62.5296 78.6065C62.4842 78.6332 62.4716 78.6977 62.4333 78.7283C62.3909 78.7622 62.3894 78.8291 62.3583 78.8691C62.3093 78.9322 62.2842 79.0264 62.248 79.0987" stroke="black" stroke-width="0.5" stroke-linecap="round"/>
<path d="M64.1595 70.4173C63.9829 70.1372 63.7719 69.8815 63.5372 69.6468C63.4505 69.5601 63.3763 69.4579 63.2919 69.3735C63.2563 69.3379 63.1816 69.2779 63.1816 69.2246C63.1816 69.1549 63.3388 69.248 63.3561 69.2764C63.4296 69.3965 63.5939 69.4401 63.6854 69.5431C63.742 69.6068 63.8034 69.6755 63.8451 69.7505C63.8728 69.8004 63.9018 69.8496 63.9299 69.8995C63.9621 69.9568 63.9688 70.021 63.9965 70.0765" stroke="black" stroke-width="0.5" stroke-linecap="round"/>
<path d="M63.1816 69.2773C63.2188 69.4756 63.3831 69.5772 63.478 69.7432C63.5135 69.8054 63.5628 69.8627 63.5998 69.9293C63.6478 70.0158 63.7421 70.094 63.8187 70.1515" stroke="black" stroke-width="0.5" stroke-linecap="round"/>
<path d="M37.1582 80.1912C37.2271 80.2601 37.2783 80.3449 37.3423 80.4196C37.4091 80.4976 37.5021 80.555 37.5664 80.636C37.6159 80.6983 37.6947 80.7579 37.7658 80.7911C37.8402 80.8258 37.9068 80.8745 37.9823 80.9083C38.0143 80.9227 38.0441 80.9416 38.0769 80.9547C38.0922 80.9609 38.1214 80.9638 38.1323 80.9773C38.1398 80.9868 38.1409 80.9221 38.1382 80.9138C38.1226 80.8651 38.0903 80.8136 38.0628 80.7707C38.0009 80.6739 37.9428 80.5761 37.8753 80.4826C37.8429 80.4378 37.8059 80.3982 37.7777 80.3505C37.7517 80.3065 37.7299 80.2621 37.7062 80.218C37.686 80.1807 37.676 80.1377 37.6567 80.0991C37.6324 80.0504 37.5947 79.999 37.5494 79.9688" stroke="black" stroke-width="0.5" stroke-linecap="round"/>
<path d="M62.6621 49.8984C62.6703 50.2249 62.6595 50.5612 62.7008 50.8864C62.7128 50.9811 62.7205 51.0874 62.7491 51.1784C62.7941 51.3212 62.8187 51.4709 62.8187 51.6211" stroke="black" stroke-width="0.5" stroke-linecap="round"/>
</svg>
