<svg width="100" height="101" viewBox="0 0 100 101" fill="none" xmlns="http://www.w3.org/2000/svg">
<path d="M43.2673 53.2485C43.1729 53.1646 42.7839 53.2308 42.6609 53.2497C42.4066 53.2888 42.142 53.3089 41.8831 53.3146C41.6676 53.3194 41.4532 53.3808 41.2376 53.3808C40.9777 53.3808 40.723 53.469 40.4671 53.469C40.0158 53.469 39.5397 53.5591 39.1001 53.6625C38.9331 53.7018 38.7701 53.764 38.604 53.8009C38.541 53.8149 38.261 53.9126 38.2402 53.954" stroke="black" stroke-linecap="round"/>
<path d="M39.7188 53.7566C39.75 53.8378 39.8362 53.8978 39.878 53.9771C39.9042 54.0269 39.9582 54.0755 39.9931 54.1204C40.0786 54.2303 40.1393 54.3668 40.2148 54.4842C40.3875 54.7528 40.7801 54.9455 41.0857 55.0134C41.2952 55.0599 41.523 55.1039 41.7153 54.9815C41.8123 54.9198 41.9584 54.8798 42.0118 54.7598C42.0747 54.6182 42.2055 54.5217 42.2543 54.363C42.2982 54.2204 42.3166 54.0698 42.3817 53.933C42.4244 53.8434 42.4748 53.7236 42.4748 53.6243C42.4748 53.4406 42.3088 53.5432 42.2004 53.5974C41.9441 53.7255 41.6432 53.8059 41.4116 53.9771C41.2594 54.0896 41.0583 54.1324 40.9192 54.2637C40.7474 54.426 41.1142 54.2832 41.1788 54.2637C41.2314 54.2479 41.7103 54.0942 41.5218 54.0384C41.4329 54.012 41.2621 54.0687 41.2621 53.9771" stroke="black" stroke-linecap="round"/>
<path d="M62.1191 51.7932C62.1553 51.9401 62.1694 52.0033 62.2735 52.1019C62.3469 52.1714 62.4693 52.2133 62.5601 52.2562C62.861 52.3984 63.3022 52.4529 63.6233 52.4057C63.8315 52.3751 64.1354 52.1582 64.2627 51.9917C64.3211 51.9154 64.5146 51.7253 64.4122 51.6168C64.2355 51.4298 63.8474 51.4442 63.6135 51.4405C63.4326 51.4376 63.2544 51.4145 63.0721 51.4184C62.9394 51.4212 62.8069 51.4991 62.6875 51.5507C62.598 51.5894 62.5145 51.6596 62.4768 51.7491C62.4445 51.8259 62.6411 51.7934 62.6752 51.7883C62.8257 51.7661 62.9792 51.7314 63.1285 51.7001C63.2445 51.6758 63.1979 51.683 63.1113 51.683" stroke="black" stroke-linecap="round"/>
<path d="M61.8242 52.041C61.8805 52.4541 62.1169 52.6529 62.4841 52.8025C62.6735 52.8797 62.9291 52.9428 63.1382 52.9428C63.3378 52.9428 63.4898 52.8956 63.6792 52.8455C63.8104 52.8107 63.932 52.7325 64.0457 52.6594C64.1847 52.57 64.3927 52.4575 64.4908 52.3216C64.6048 52.1638 64.6267 51.9686 64.7241 51.8092C64.7791 51.7191 64.8902 51.6135 64.8902 51.5" stroke="black" stroke-linecap="round"/>
<path d="M56.9657 49.7093C57.3639 49.5061 57.7238 49.185 58.0041 48.8423C58.3045 48.4752 58.652 48.1841 59.0177 47.8849C59.2409 47.7023 59.5792 47.573 59.841 47.4639C60.1095 47.352 60.342 47.1794 60.6269 47.1146C61.1141 47.0039 61.539 46.6863 62.0177 46.5533C62.8188 46.3308 63.5183 46.0044 64.3723 46.0044C65.3639 46.0044 66.3491 45.9896 67.3255 46.1198C67.6174 46.1587 69.8703 46.8277 69.4711 47.2269C69.0527 47.6453 68.3256 47.52 67.7684 47.52C66.6791 47.52 65.6346 47.2394 64.5438 47.2394C63.9992 47.2394 63.4659 47.2716 62.9284 47.2955C62.3072 47.3231 61.6452 47.5993 61.0635 47.8007C60.526 47.9868 60.0451 48.2786 59.5229 48.5024C59.0624 48.6997 58.6755 49.0443 58.2006 49.229C57.8193 49.3773 57.546 49.6218 57.1902 49.8091C56.89 49.9671 56.8139 50.1699 57.2027 49.9338C57.8412 49.5461 58.6622 49.5596 59.3233 49.229C59.7128 49.0342 60.0639 48.7717 60.4429 48.5585C60.6454 48.4446 60.8124 48.2878 61.0073 48.1687C61.24 48.0265 61.5076 47.9467 61.7371 47.8007C62.2729 47.4597 62.9332 47.4012 63.5458 47.3392C64.4953 47.243 65.5018 47.1789 66.4523 47.283C67.1657 47.3612 67.9843 47.343 68.6634 47.6042C68.995 47.7318 68.0326 47.2529 67.6842 47.1832C66.4873 46.9439 65.3256 46.6219 64.0947 46.6219C63.3435 46.6219 62.4013 46.671 61.7932 47.1271" stroke="black" stroke-linecap="round"/>
<path d="M48.9957 54.0343C48.9529 53.3493 48.5526 53.0316 48.1537 52.5187C47.673 51.9007 47.1934 51.284 46.638 50.7286C45.8318 49.9224 45.0635 48.9935 43.8843 48.7577C43.3063 48.6421 42.7125 48.6233 42.1348 48.5207C41.4691 48.4023 40.8155 48.3086 40.1389 48.3086C38.759 48.3086 37.335 48.4905 36.0411 48.9697C35.6802 49.1034 35.2974 49.2527 35.0494 49.5716C34.9136 49.7462 34.7927 50.1933 34.9933 50.3575C35.4421 50.7247 36.1691 50.8346 36.7303 50.8346C37.1043 50.8346 37.4414 50.765 37.7938 50.6382C38.1318 50.5165 38.5047 50.4928 38.8354 50.3575C39.4976 50.0866 40.2356 50.0488 40.9404 50.0488C42.0484 50.0488 43.1532 50.138 44.2554 50.214C44.9108 50.2592 45.7906 50.2649 46.3854 50.5851C46.441 50.6151 46.7472 50.7143 46.663 50.6662C46.3606 50.4934 46.0273 50.4158 45.7118 50.2733C44.0797 49.5362 42.1758 49.319 40.4071 49.319C39.9489 49.319 39.4716 49.2809 39.0163 49.3315C38.3307 49.4077 37.6666 49.6409 36.983 49.7244C36.4932 49.7843 36.0191 49.9739 35.5235 49.9926C35.3719 49.9983 35.0039 50.0382 34.8935 50.1485C34.7229 50.3191 35.37 50.0665 35.6108 50.0519C36.0595 50.0247 36.5049 49.9754 36.9518 49.9396C37.4904 49.8965 38.0111 49.7029 38.5578 49.7712C38.9341 49.8182 39.218 50.2172 38.7761 50.4105C38.3482 50.5977 37.5299 50.5957 37.1794 50.2452C37.0087 50.0745 36.8256 49.369 37.0952 49.2192C37.3197 49.0945 37.656 49.0945 37.906 49.0945C38.4521 49.0945 39.0223 49.0475 39.5651 49.1069C40.0318 49.1581 40.5118 49.1993 40.981 49.2067C41.463 49.2144 41.9346 49.3596 42.4155 49.3751C43.2034 49.4006 43.9637 49.751 44.7295 49.8928C45.0646 49.9549 45.4102 50.0946 45.7274 50.2172C45.8964 50.2825 46.126 50.2977 46.2576 50.4292C46.5059 50.6776 46.6891 50.9055 46.8501 51.2276C46.9879 51.5031 47.1869 51.739 47.3241 52.0134C47.4661 52.2974 47.6945 52.8708 47.9852 52.9677" stroke="black" stroke-linecap="round"/>
<path d="M46.4258 50.8711C46.9501 51.3115 47.528 51.6074 48.0884 51.9811C48.2511 52.0895 48.3656 52.1941 48.4584 52.3533C48.5735 52.5506 48.6402 52.8209 48.7188 53.0408C48.7772 53.2043 48.8254 53.4574 48.9243 53.5935C49.0055 53.7051 49.0278 53.9767 49.0751 54.1119C49.1575 54.3474 49.1742 54.6153 49.2418 54.8587C49.3165 55.1277 49.3377 55.4254 49.3857 55.7015C49.4203 55.9005 49.4679 56.1171 49.4679 56.3158C49.4679 56.5532 49.4733 56.7912 49.4679 57.0284C49.4613 57.3207 49.3446 57.6104 49.3446 57.9008C49.3446 58.2139 49.2375 58.5365 49.2212 58.8464C49.1789 59.6511 49.0277 60.4675 48.8535 61.2513C48.7023 61.9319 48.8101 62.7831 48.8101 63.4917C48.8101 63.8138 48.8101 64.1358 48.8101 64.4578C48.8101 64.8749 48.7279 65.2811 48.7279 65.6911C48.7279 66.4147 48.4504 67.1399 48.399 67.8585C48.3653 68.3306 48.1935 68.7951 48.1935 69.2676C48.1935 69.5347 48.1208 69.7839 48.1958 70.0464C48.3328 70.5261 48.8925 70.8253 49.3651 70.9303C49.6957 71.0038 50.0166 71.0559 50.3632 71.0559C50.6494 71.0559 50.9783 71.2338 51.1945 71.4259C51.4127 71.6198 51.6832 71.7626 51.9139 71.9421C52.1754 72.1454 52.374 72.4754 52.695 72.6181C53.0911 72.7941 53.5377 73.0292 53.9808 73.0292C54.4782 73.0292 54.9717 72.8968 55.4288 72.6912C55.6094 72.6099 55.7551 72.5405 55.9221 72.4331C56.0109 72.376 56.0911 72.2958 56.1482 72.207C56.2151 72.103 56.3295 72.062 56.3949 71.9603C56.5798 71.6726 56.7683 71.3562 57.0092 71.1153C57.2105 70.914 57.3897 70.6974 57.699 70.6859C58.2022 70.6673 58.6954 70.8093 59.2017 70.8093C60.2799 70.8093 60.1867 68.8004 60.113 68.1371C60.0481 67.5526 59.8819 66.9895 59.6631 66.4425C59.5277 66.104 59.3335 65.7887 59.2109 65.4467C59.0606 65.0277 58.8292 64.5901 58.512 64.2728" stroke="black" stroke-linecap="round"/>
<path d="M49.4459 77.5908C50.7672 77.7731 52.0624 78.1193 53.4064 78.1193C54.687 78.1193 55.8865 78.0867 57.132 77.7937C57.5943 77.6849 58.0658 77.5983 58.5251 77.4707C59.0639 77.3211 59.6495 77.4126 60.1958 77.3133C60.9485 77.1764 61.8774 77.6277 61.9812 78.4582C62.0589 79.0798 62.1542 79.6335 61.8878 80.2329C61.759 80.5227 61.6479 80.8088 61.5035 81.0976C61.3636 81.3773 61.164 81.6007 61.0017 81.8662C60.8713 82.0796 60.6506 82.2714 60.4466 82.4187C60.1744 82.6153 59.9599 82.8734 59.6887 83.0672C59.3171 83.3326 58.9553 83.7419 58.5144 83.8945C55.8988 84.7999 53.6027 82.8292 51.5116 81.5513C50.601 80.9949 49.9413 80.2463 49.4219 79.3229C49.2515 79.0199 48.9594 78.6675 48.9175 78.3114C48.9072 78.224 48.8266 78.1104 48.8214 78.0232C48.8186 77.976 48.8418 77.8806 48.8107 77.8417C48.7527 77.7691 48.7625 77.8576 48.8001 77.8791C49.2612 78.1425 49.7045 78.3587 50.2038 78.5516C50.8736 78.8104 51.6109 78.8092 52.3042 78.9599C52.5749 79.0188 52.9148 79.032 53.1929 79.032C53.5102 79.032 53.8313 79.08 54.1536 79.08C54.6197 79.08 55.011 79.0654 55.4613 78.9733C56.1109 78.8404 56.7719 78.6957 57.4362 78.6957C57.9328 78.6957 58.4324 78.5697 58.9201 78.5516C59.2131 78.5407 59.538 78.4549 59.8008 78.3354C59.9853 78.2516 60.3741 78.0712 60.5667 78.0712C60.631 78.0712 61.2695 77.8586 61.2046 77.7937C61.1391 77.7282 60.7836 77.783 60.6975 77.783C60.4664 77.783 60.2257 77.8601 60.0116 77.9538C59.6559 78.1094 59.3059 78.1902 58.9468 78.3007C58.7129 78.3727 58.0702 78.2605 57.9486 78.5036" stroke="black" stroke-linecap="round"/>
<path d="M30.6574 46.0402C30.9998 49.2074 32.2274 52.1521 32.2274 55.3552C32.2274 58.0529 32.8455 60.711 33.588 63.3097C33.8323 64.1648 34.2452 64.9325 34.4311 65.7692C34.7195 67.0669 35.1469 68.4931 35.6289 69.7465C36.1657 71.1422 36.7319 72.5281 37.4082 73.8807C37.7269 74.518 38.1119 75.3687 38.5595 75.9158C38.767 76.1694 38.8317 76.4761 38.984 76.7589C39.2019 77.1636 39.5235 77.512 39.6817 77.9393C40.1371 79.1687 41.1104 80.3156 41.8564 81.3932C42.4229 82.2114 43.1707 82.8962 43.7403 83.719C44.3637 84.6194 45.1966 85.7201 46.0429 86.417C46.6704 86.9338 47.1478 87.6498 47.7176 88.2196C48.3641 88.8661 49.0993 89.3814 49.9155 89.7895C50.6756 90.1696 51.3892 90.792 52.2181 91.0222C53.2375 91.3054 54.244 91.7244 55.2533 92.0456C56.9939 92.5994 58.7008 92.9664 60.5446 92.8189C61.7078 92.7259 62.8693 92.4515 63.9869 92.1386C64.5452 91.9823 65.0971 91.7656 65.6732 91.6734C66.3656 91.5627 66.5705 91.16 67.1036 90.8129C68.1133 90.1554 68.9452 89.4789 69.7783 88.615C70.465 87.9028 70.8571 87.0267 71.3948 86.2309C71.6873 85.798 71.7099 85.2674 71.8948 84.7889C72.0479 84.3926 72.2025 84.0101 72.2902 83.5911C72.5043 82.5685 72.6343 81.5164 72.7379 80.4803C73.08 77.0599 72.4683 73.5812 73.3078 70.2233C73.8402 68.0934 74.4645 66.0757 75.2964 64.0423C76.3967 61.3526 76.9825 58.4665 77.0233 55.5646C77.0722 52.0925 77.2232 48.6042 76.7907 45.1447C76.5731 43.4038 76.4132 41.565 75.9767 39.865C75.5115 38.0533 74.8014 36.3248 74.3021 34.5272C73.8834 33.0201 73.5402 31.4474 72.9182 30.0034C72.3978 28.7953 71.7663 27.2416 70.5342 26.5728C68.5812 25.5125 66.5296 24.2081 64.3009 23.8515C62.7628 23.6054 61.2972 23.6063 59.7539 23.7992C58.2808 23.9833 56.4987 24.0772 55.2068 24.904C53.9589 25.7026 52.8295 26.5608 51.8518 27.6834C50.6349 29.0806 49.4548 30.5071 48.3048 31.9571C47.4611 33.0209 46.8007 34.2057 45.9383 35.2598C44.9263 36.4967 43.7837 37.646 42.589 38.7079C42.0928 39.1491 41.7108 39.4464 41.0714 39.4464C40.3279 39.4464 39.4266 39.3471 38.6932 39.2138C36.3846 38.794 34.0097 38.9741 31.7854 39.6557C30.3668 40.0904 28.8781 41.6014 28.8781 43.1677C28.8781 43.6514 28.6371 44.2283 28.7793 44.7261C28.9029 45.1588 29.3094 45.4976 29.6631 45.7727C30.1761 46.1717 30.7563 46.4472 31.0761 47.0868" stroke="black" stroke-linecap="round"/>
<path d="M69.8304 74.4883C69.8304 74.7299 69.8076 75.4195 69.8304 75.4081" stroke="black" stroke-linecap="round"/>
<path d="M70.752 74.7192C70.7659 74.6079 71.0481 74.423 71.1352 74.3359" stroke="black" stroke-linecap="round"/>
<path d="M70.752 73.49C70.752 73.004 71.1314 72.4284 71.2885 71.957" stroke="black" stroke-linecap="round"/>
<path d="M71.5176 73.1845C71.8197 72.9704 71.9554 72.67 72.2074 72.418" stroke="black" stroke-linecap="round"/>
<path d="M72.207 70.6565C72.4219 70.1125 72.638 69.5936 72.8202 69.0469" stroke="black" stroke-linecap="round"/>
<path d="M73.2812 67.5903C73.2922 67.4594 73.3295 67.3348 73.3579 67.207" stroke="black" stroke-linecap="round"/>
<path d="M72.0537 72.8789L71.9004 73.7221" stroke="black" stroke-linecap="round"/>
<path d="M72.1308 76.4023C72.0452 76.6943 71.9175 76.9655 71.8242 77.2455" stroke="black" stroke-linecap="round"/>
<path d="M71.2885 77.8594C71.201 78.117 71.103 78.3595 71.0586 78.6259" stroke="black" stroke-linecap="round"/>
<path d="M71.1342 80.1602C71.1342 80.711 70.9321 81.3239 70.5977 81.7698" stroke="black" stroke-linecap="round"/>
<path d="M71.7475 81.4609C71.6982 82.2255 71.5176 82.9974 71.5176 83.7604" stroke="black" stroke-linecap="round"/>
<path d="M71.3637 85.832C71.2424 86.0086 71.125 86.1474 70.9805 86.2919" stroke="black" stroke-linecap="round"/>
<path d="M70.5212 86.2148C69.7888 86.7142 69.2117 87.501 68.6816 88.2077" stroke="black" stroke-linecap="round"/>
<path d="M70.6745 84.7578C69.9645 85.5087 69.148 86.2013 68.6816 87.134" stroke="black" stroke-linecap="round"/>
<path d="M66.7661 89.9727C66.6374 90.037 66.5208 90.0915 66.3828 90.126" stroke="black" stroke-linecap="round"/>
<path d="M64.466 90.8906C63.1478 91.0279 61.875 91.2739 60.5483 91.2739C59.8121 91.2739 59.0582 91.2189 58.334 91.3505" stroke="black" stroke-linecap="round"/>
<path d="M61.6294 91.5039C61.6227 91.6102 61.6109 91.5991 61.5527 91.6572" stroke="black" stroke-linecap="round"/>
<path d="M58.2575 91.7348C57.5337 91.6471 56.8232 91.4989 56.1113 91.3516" stroke="black" stroke-linecap="round"/>
<path d="M55.7285 91.1191C56.491 91.0223 57.2799 90.9788 58.028 90.8125" stroke="black" stroke-linecap="round"/>
<path d="M63.0098 90.8124C63.5584 90.6753 64.1131 90.4524 64.6194 90.1992" stroke="black" stroke-linecap="round"/>
<path d="M66.0762 89.5887C66.2668 89.2274 66.4031 88.8923 66.5361 88.5156" stroke="black" stroke-linecap="round"/>
<path d="M66.7656 87.4398C67.1456 87.0218 67.4929 86.5814 67.8387 86.1367" stroke="black" stroke-linecap="round"/>
<path d="M63.7753 74.7929C63.4963 74.5511 63.1853 74.3446 62.8555 74.1797" stroke="black" stroke-linecap="round"/>
<path d="M60.0193 73.3384C59.406 73.3148 58.7937 73.2617 58.1797 73.2617" stroke="black" stroke-linecap="round"/>
<path d="M59.0996 72.4961C59.834 72.5919 60.5272 72.8362 61.2458 72.956" stroke="black" stroke-linecap="round"/>
<path d="M64.9258 73.875C65.1971 74.1162 65.4869 74.3365 65.7689 74.5648" stroke="black" stroke-linecap="round"/>
<path d="M61.0938 72.418C61.4037 72.424 61.7059 72.4946 62.0135 72.4946" stroke="black" stroke-linecap="round"/>
<path d="M64.543 73.2617C65.0591 73.9499 65.8879 74.2764 66.5359 74.7947" stroke="black" stroke-linecap="round"/>
<path d="M61.3223 72.0352C61.9487 72.4185 62.5825 72.7802 63.2385 73.1083" stroke="black" stroke-linecap="round"/>
<path d="M67.4551 74.7188C67.9962 75.0359 68.4559 75.4726 68.9881 75.7918" stroke="black" stroke-linecap="round"/>
<path d="M70.0605 76.6328L70.2138 76.7861" stroke="black" stroke-linecap="round"/>
<path d="M65.0797 75.6366C64.157 75.4474 63.2423 75.2126 62.3203 75.0234" stroke="black" stroke-linecap="round"/>
<path d="M59.9438 74.7939C59.6931 74.7783 59.4752 74.7236 59.2539 74.6406" stroke="black" stroke-linecap="round"/>
<path d="M57.9501 72.7261C57.7293 72.6643 57.6782 72.7401 57.4902 72.8027" stroke="black" stroke-linecap="round"/>
<path d="M57.0307 73.2617C56.8383 73.6128 56.6427 73.9633 56.4941 74.3348" stroke="black" stroke-linecap="round"/>
<path d="M55.9574 74.9492C55.7242 75.0634 55.5281 75.1792 55.2676 75.1792" stroke="black" stroke-linecap="round"/>
<path d="M53.4282 75.2539C53.2626 75.2677 53.1643 75.3177 53.0449 75.4072" stroke="black" stroke-linecap="round"/>
<path d="M58.5639 75.3291C58.8495 75.3291 57.9996 75.2377 57.7207 75.1758" stroke="black" stroke-linecap="round"/>
<path d="M54.8073 74.7192C54.1407 74.6384 53.4687 74.4668 52.8145 74.3359" stroke="black" stroke-linecap="round"/>
<path d="M51.5882 73.8746C51.124 73.8013 50.7329 73.5721 50.2852 73.7213" stroke="black" stroke-linecap="round"/>
<path d="M49.5955 73.9492C49.1878 74.3129 48.7102 74.6726 48.3691 75.099" stroke="black" stroke-linecap="round"/>
<path d="M47.527 75.9453C46.762 76.4553 45.9775 76.732 45.0742 76.7885" stroke="black" stroke-linecap="round"/>
<path d="M43.7705 77.0156C43.7488 77.1025 43.6889 77.0744 43.6172 77.0923" stroke="black" stroke-linecap="round"/>
<path d="M49.9023 75.9424C49.9913 75.8633 50.0998 75.8254 50.2089 75.7891" stroke="black" stroke-linecap="round"/>
<path d="M51.1283 74.87C50.8875 74.3933 50.787 73.9642 50.2852 73.7969" stroke="black" stroke-linecap="round"/>
<path d="M48.5232 73.7227C47.9119 74.2285 46.8875 74.6698 46.6836 75.4856" stroke="black" stroke-linecap="round"/>
<path d="M46.0707 76.5586C45.7591 77.0845 45.5797 77.6732 45.3809 78.2449" stroke="black" stroke-linecap="round"/>
<path d="M45.1498 79.5469C44.7827 80.0808 44.8557 80.9336 44.6133 81.5398" stroke="black" stroke-linecap="round"/>
<path d="M46.4531 77.3242C46.644 77.8073 46.8193 78.2908 46.9897 78.7806" stroke="black" stroke-linecap="round"/>
<path d="M47.372 80.2344L47.2188 80.3877" stroke="black" stroke-linecap="round"/>
<path d="M46.8359 75.6366C46.8887 75.1797 46.9968 74.6919 47.3725 74.4102" stroke="black" stroke-linecap="round"/>
<path d="M48.6758 73.4922C48.9543 73.5682 49.1923 74.7796 49.289 75.1018" stroke="black" stroke-linecap="round"/>
<path d="M49.5195 75.8672C49.5319 75.9665 49.7414 75.9866 49.8261 76.0205" stroke="black" stroke-linecap="round"/>
<path d="M52.5859 76.4794C53.0088 76.3989 53.5296 76.2592 53.889 76.0195" stroke="black" stroke-linecap="round"/>
<path d="M55.0371 75.7915C55.6259 75.7635 56.2102 75.7148 56.8001 75.7148" stroke="black" stroke-linecap="round"/>
<path d="M59.0996 75.8672H60.6326" stroke="black" stroke-linecap="round"/>
<path d="M61.247 75.7142C61.5176 75.5452 61.2531 75.0304 61.0938 74.8711" stroke="black" stroke-linecap="round"/>
<path d="M59.9434 73.7983C59.9621 73.5355 59.9547 73.2617 60.25 73.2617" stroke="black" stroke-linecap="round"/>
<path d="M61.3223 72.9531C62.0128 73.1159 62.7264 73.2402 63.3918 73.4897" stroke="black" stroke-linecap="round"/>
<path d="M65.1562 74.1055C65.8006 74.541 66.511 74.8298 67.1491 75.2552" stroke="black" stroke-linecap="round"/>
<path d="M69.0645 76.3281C69.6088 76.4642 70.1564 76.7195 70.6741 76.9413" stroke="black" stroke-linecap="round"/>
<path d="M63.6992 76.0977C63.8759 76.2289 64.0555 76.3547 64.2358 76.4809" stroke="black" stroke-linecap="round"/>
<path d="M67.3789 76.8633C67.9481 76.929 68.5056 77.0533 69.0652 77.1699" stroke="black" stroke-linecap="round"/>
<path d="M70.9043 77.3998V76.8633" stroke="black" stroke-linecap="round"/>
<path d="M59.2539 74.9492H61.2468" stroke="black" stroke-linecap="round"/>
<path d="M54.2716 75.0239C53.3207 74.9507 52.3788 74.7754 51.4355 74.6406" stroke="black" stroke-linecap="round"/>
<path d="M50.2095 73.4145C50.1986 73.2836 50.1612 73.159 50.1328 73.0312" stroke="black" stroke-linecap="round"/>
<path d="M50.1326 72.9531C49.556 73.4741 48.9636 74.1604 48.293 74.5628" stroke="black" stroke-linecap="round"/>
<path d="M46.7602 75.7891C46.6031 76.0858 46.2966 76.3167 46.0703 76.5556" stroke="black" stroke-linecap="round"/>
<path d="M45.1498 78.625C45.01 79.3241 44.7528 79.9971 44.6133 80.6945" stroke="black" stroke-linecap="round"/>
<path d="M43.4642 82.4593C43.2535 81.991 42.7456 81.6541 42.6211 81.1562" stroke="black" stroke-linecap="round"/>
<path d="M41.9311 80.2373C41.3271 78.6669 40.1954 77.3542 39.2313 76.0045C38.9036 75.5457 38.6351 75.0547 38.4435 74.5226C38.237 73.9491 37.8866 73.4367 37.6387 72.8789" stroke="black" stroke-linecap="round"/>
<path d="M36.3362 68.4318C37.5147 71.3544 39.4323 73.8425 41.1651 76.4417C42.3266 78.1839 42.8101 80.279 44.1545 81.9222C44.7779 82.6841 45.3436 83.485 45.9983 84.2217C46.3008 84.562 46.4578 84.9443 46.6882 85.3331C46.9834 85.8312 47.346 86.2526 47.6804 86.717C48.5842 87.9723 49.4079 89.3778 50.823 90.0854C51.1084 90.2281 51.399 90.413 51.7045 90.507C51.8301 90.5456 52.2319 90.8466 52.1985 90.5793C52.1372 90.0889 51.3671 89.7085 51.0104 89.4679C50.1868 88.9125 49.2684 88.444 48.4937 87.8242C47.838 87.2996 47.2837 86.7478 46.7989 86.0655C46.3859 85.4842 45.8827 84.9815 45.4618 84.4133C44.8736 83.6192 44.4019 82.7601 43.7329 82.0329C42.9648 81.198 42.3044 80.239 41.591 79.3544C40.8601 78.4481 40.3075 77.4079 39.9004 76.3225C39.0841 74.1456 38.2595 71.9789 37.5243 69.7732C37.2858 69.0576 36.9999 68.3495 36.7195 67.6483C36.5417 67.2038 36.3315 66.7558 36.1829 66.3026C36.0305 65.8377 35.68 65.4521 35.4931 64.9996C35.2754 64.4725 34.8674 63.8738 34.8032 63.2963C34.7812 63.0977 34.7266 63.8157 34.7266 63.9095C34.7266 64.4624 34.8107 64.959 34.8969 65.5021C35.0752 66.6253 35.5644 67.6497 36.0126 68.6788C36.3986 69.5653 36.6114 70.5088 36.8728 71.4382C37.2552 72.798 37.877 74.0365 38.789 75.1174C39.8157 76.3342 41.0271 77.3424 42.0849 78.5325C44.2146 80.9285 46.1769 83.5014 48.1233 86.0442C48.8049 86.9348 49.613 88.0375 50.576 88.6503C51.3967 89.1725 52.2898 89.5309 53.1992 89.8767C54.3612 90.3186 55.5278 90.7169 56.6484 91.2564C56.7078 91.285 57.3602 91.5974 57.0146 91.4864C56.3707 91.2794 55.7344 91.0448 55.0984 90.8136C53.4466 90.2129 51.741 89.5818 50.3631 88.4544C49.3547 87.6293 48.4586 86.6312 47.3738 85.908" stroke="black" stroke-linecap="round"/>
<path d="M44.9203 83.0705C44.6354 82.3938 44.2305 81.5941 44.2305 80.8477" stroke="black" stroke-linecap="round"/>
<path d="M44.2309 79.01C44.2103 78.3711 44.1798 77.7325 44.1543 77.0938" stroke="black" stroke-linecap="round"/>
<path d="M44.1533 77.1719C44.1111 77.6472 44 78.1516 44 78.6282" stroke="black" stroke-linecap="round"/>
<path d="M43.6172 79.8516C43.6316 80.1117 43.7634 80.2723 43.9238 80.4648" stroke="black" stroke-linecap="round"/>
<path d="M46.1465 82.6875C46.3956 82.7654 46.6142 82.9401 46.8363 83.0707" stroke="black" stroke-linecap="round"/>
<path d="M46.9887 80.8485C46.9087 80.5765 46.7362 80.3305 46.6055 80.082" stroke="black" stroke-linecap="round"/>
<path d="M46.4531 79.625V79.7783" stroke="black" stroke-linecap="round"/>
<path d="M45.8393 80.8477C45.6763 81.1387 45.4844 81.4113 45.3027 81.6908" stroke="black" stroke-linecap="round"/>
<path d="M45.6875 81.3089C45.8616 80.7618 46.1532 80.229 46.3773 79.6992" stroke="black" stroke-linecap="round"/>
<path d="M46.9121 77.7846C46.9655 77.4999 47.1421 77.2338 47.1421 76.9414" stroke="black" stroke-linecap="round"/>
<path d="M35.0327 65.5954C34.8997 63.9983 34.685 62.5694 33.7127 61.2604C33.2293 60.6098 32.7135 59.9882 32.2904 59.2931C31.6585 58.2549 31.6602 57.1157 31.6602 55.9375" stroke="black" stroke-linecap="round"/>
<path d="M31.074 57.5013C30.2342 55.9618 28.5345 54.7496 27.377 53.4141C26.6496 52.5747 26.1293 51.5802 25.5665 50.6278C24.2788 48.4487 23.7325 45.9738 22.7802 43.6459C21.3246 40.0877 19.8693 36.4495 20.7203 32.62C20.9726 31.4845 20.9263 30.3635 20.9263 29.1941C20.9263 27.4881 20.2101 25.8493 20.1457 24.1745C20.1014 23.0235 20.2587 21.9371 20.8287 20.9112C21.4261 19.836 21.2107 18.3825 22.0972 17.4961" stroke="black" stroke-linecap="round"/>
<path d="M22.6836 17.4953C23.8818 14.38 26.1728 13.531 29.1235 12.3239C30.5135 11.7553 31.8022 10.9431 33.2216 10.47C34.5993 10.0108 35.8859 9.10465 37.2763 8.75705C39.1072 8.29933 40.5507 7.34766 42.4911 7.34766C44.4751 7.34766 46.4591 7.34766 48.4431 7.34766C50.1655 7.34766 52.074 8.23882 53.8096 8.61611C55.2892 8.93777 56.6271 9.47102 58.0486 9.92794C60.3123 10.6555 62.462 11.6204 64.7379 12.3131C66.843 12.9538 68.022 14.5883 69.519 16.1293C71.0701 17.7261 72.5087 19.5774 73.9098 21.2899C74.9342 22.5419 76.0315 23.7948 76.9346 25.1494C78.9254 28.1356 79.1518 31.8108 79.2764 35.2971C79.326 36.6873 79.8618 38.0422 79.8618 39.4494C79.8618 40.9624 79.5601 41.9965 79.0378 43.4066C78.6149 44.5486 78.1055 45.2529 78.1055 46.4747C78.1055 48.0034 78.1055 49.532 78.1055 51.0607" stroke="black" stroke-linecap="round"/>
<path d="M59.4844 52.1043C60.9101 51.711 62.2743 51.1079 63.7768 51.1079C64.6088 51.1079 65.4291 51.0312 66.2679 51.0312C67.0329 51.0312 67.2548 51.437 67.6093 52.0277" stroke="black" stroke-linecap="round"/>
<path d="M38.3284 54.1758C37.8536 54.1758 37.6862 54.3329 37.7961 54.8273C37.8347 55.0011 37.8175 55.6449 37.9451 55.7088" stroke="black" stroke-linecap="round"/>
<path d="M50.1934 79.0889C51.1969 79.0889 52.0096 79.3719 52.9489 79.5806C53.4837 79.6994 53.9237 80.1312 54.4519 80.2486C55.2967 80.4364 56.4197 80.5387 57.2074 80.8888C58.5699 81.4943 60.0177 78.9219 61.3825 78.9219" stroke="black" stroke-linecap="round"/>
<path d="M54.5566 79.7296C54.9688 79.7296 55.3109 79.8007 55.71 79.8506C56.0285 79.8904 56.3395 80.003 56.6624 80.0173C57.0226 80.0333 57.384 80.1407 57.7426 80.1407C57.8422 80.1407 57.8015 79.9981 57.8043 79.926C57.8099 79.7805 57.9054 79.6332 58.0144 79.5423C58.311 79.2952 58.6896 79.1681 59.0696 79.154C59.2454 79.1475 58.9593 79.1594 58.9143 79.1769C58.7008 79.2599 58.503 79.383 58.2976 79.4829C58.1236 79.5676 57.8218 79.7393 57.6193 79.6268C57.3868 79.4976 57.1895 79.3205 56.9638 79.1769C56.7753 79.0569 56.4517 79.3698 56.3746 79.524C56.1954 79.8823 56.9135 79.8383 57.0803 79.8506C57.387 79.8733 57.7019 79.8529 58.0098 79.8529C58.2191 79.8529 58.4391 79.6288 58.6356 79.556C59.1496 79.3656 59.6084 79.054 60.1247 78.8663C60.3401 78.788 60.559 78.7131 60.7642 78.6105C60.822 78.5816 61.2547 78.4141 61.0931 78.4141" stroke="black" stroke-linecap="round"/>
<path d="M58.2988 48.1306C59.3421 47.5932 60.3179 46.9082 61.3648 46.3847C61.7413 46.1964 62.0517 45.9978 62.4762 45.9035C62.7333 45.8464 62.9843 45.731 63.2427 45.6736C63.4398 45.6298 63.7588 45.5828 63.9326 45.4862C64.3758 45.24 65.075 45.2946 65.5806 45.2946C66.1427 45.2946 66.7048 45.2946 67.2669 45.2946C67.771 45.2946 68.2752 45.2317 68.7232 45.4308C68.9234 45.5198 69.1834 45.5247 69.3534 45.6608C69.4095 45.7057 69.8682 45.8311 69.9496 45.8311" stroke="black" stroke-linecap="round"/>
<path d="M66.8066 45.8281C67.586 45.8281 68.3209 45.8368 69.0295 46.1518C69.2681 46.2578 70.082 46.3234 70.1792 46.518" stroke="black" stroke-linecap="round"/>
<path d="M69.4121 47.4404C69.5537 47.1886 69.9852 47.214 70.102 46.9805" stroke="black" stroke-linecap="round"/>
<path d="M76.5794 55.4922C76.4916 55.6788 76.4853 55.9211 76.4235 56.1221C76.3245 56.4438 76.1303 56.8662 76.1303 57.2012C76.1303 57.7503 75.9448 58.3871 75.7935 58.9164C75.4985 59.9492 74.8048 60.854 74.6116 61.9164C74.4981 62.5409 74.1856 63.154 73.9848 63.7564C73.7193 64.5529 73.2544 65.2954 73.0305 66.1015C72.9669 66.3306 72.798 66.5807 72.6812 66.7876C72.4652 67.1702 72.2871 67.5757 72.1168 67.982C71.9326 68.4211 71.6338 68.9915 71.5835 69.4696C71.5743 69.5564 71.5273 69.7253 71.5273 69.7253C71.5273 69.7253 71.6184 69.4802 71.6708 69.3604C71.7634 69.1488 71.8494 68.9526 71.9203 68.7399" stroke="black" stroke-linecap="round"/>
<path d="M73.2129 66.8326C73.5261 66.4567 73.7825 65.9262 74.111 65.5977" stroke="black" stroke-linecap="round"/>
<path d="M74.5586 64.3601C74.6841 64.1029 74.8055 63.8439 74.8954 63.5742" stroke="black" stroke-linecap="round"/>
<path d="M75.0078 62.9596C75.039 62.7624 75.1136 62.0647 75.3446 61.9492" stroke="black" stroke-linecap="round"/>
<path d="M72.9882 66.6641C72.5163 67.8143 72.0352 69.1193 71.8125 70.344C71.7187 70.8598 71.5786 71.3877 71.248 71.8284" stroke="black" stroke-linecap="round"/>
<path d="M71.0233 72.332C70.8721 72.7423 70.9921 73.3551 71.0794 73.7915" stroke="black" stroke-linecap="round"/>
<path d="M71.4727 74.9727C71.5445 75.3316 71.6602 75.6853 71.7533 76.0392" stroke="black" stroke-linecap="round"/>
<path d="M71.752 76.9922C71.7769 77.5037 71.8402 78.007 71.9204 78.5078" stroke="black" stroke-linecap="round"/>
<path d="M71.9766 79.3477C71.9872 79.666 72.0128 79.9841 72.0327 80.3019" stroke="black" stroke-linecap="round"/>
<path d="M72.0326 81.1445C71.9652 81.4681 71.8476 81.7832 71.752 82.0988" stroke="black" stroke-linecap="round"/>
<path d="M70.7983 84.8516C70.7898 84.9456 70.7607 85.0398 70.7422 85.1322" stroke="black" stroke-linecap="round"/>
<path d="M68.6659 88.1641C68.5408 88.1641 68.4945 88.1702 68.4414 88.2763" stroke="black" stroke-linecap="round"/>
<path d="M67.9925 89.0586C67.7507 89.448 67.5756 89.8829 67.375 90.2935" stroke="black" stroke-linecap="round"/>
<path d="M66.757 90.2383C66.3824 90.3001 66.1031 90.3187 65.8027 90.519" stroke="black" stroke-linecap="round"/>
<path d="M65.5791 90.5742L65.4668 90.6304" stroke="black" stroke-linecap="round"/>
<path d="M68.498 88.61C68.7259 88.2502 69.0195 87.6261 69.3962 87.375" stroke="black" stroke-linecap="round"/>
<path d="M70.293 85.9734C70.5206 85.6957 70.6814 85.1875 71.0788 85.1875" stroke="black" stroke-linecap="round"/>
<path d="M69.3945 88.443C69.4134 87.6314 69.7348 86.7349 70.1523 86.0853C70.5729 85.4312 71.247 84.9471 71.247 84.1175C71.247 83.6486 71.2691 83.1888 71.3031 82.7298C71.3188 82.5173 71.4139 82.3084 71.459 82.0998C71.5144 81.8438 71.4678 81.5545 71.5401 81.3015C71.8211 80.3181 71.9206 79.2457 71.9206 78.2266" stroke="black" stroke-linecap="round"/>
<path d="M68.7778 88.7227C68.4352 89.5221 68.0754 89.975 67.3183 90.2695C66.9646 90.407 66.5801 90.4865 66.2081 90.5626C65.9052 90.6245 65.5208 90.6806 65.2725 90.8838C65.0944 91.0295 64.9562 91.1409 64.7922 91.3048C64.2711 91.8259 63.2892 91.7434 62.6155 91.7539C61.9007 91.7651 61.203 91.9936 60.5572 92.2872C60.0845 92.5021 59.4778 92.5534 58.9823 92.4026C58.6255 92.294 58.249 92.232 57.8877 92.1344C57.6539 92.0712 57.4437 91.9321 57.2203 91.8412C56.9209 91.7194 56.6088 91.6622 56.3128 91.5512C55.4903 91.2428 54.603 90.8454 53.7338 90.6874C53.165 90.5839 52.4533 90.3278 51.9375 90.0699" stroke="black" stroke-linecap="round"/>
<path d="M69.4512 88.1045L69.5634 87.9922" stroke="black" stroke-linecap="round"/>
<path d="M67.2612 88.1055L67.2051 88.1616" stroke="black" stroke-linecap="round"/>
<path d="M64.4555 90.0703C63.8936 90.0959 63.3326 90.1439 62.7715 90.1826" stroke="black" stroke-linecap="round"/>
<path d="M61.2559 90.5742C60.8533 90.7036 60.3843 90.669 59.9648 90.6865" stroke="black" stroke-linecap="round"/>
<path d="M58.6173 90.6332C58.2601 90.592 57.9055 90.5224 57.5508 90.4648" stroke="black" stroke-linecap="round"/>
<path d="M56.0348 90.1816C55.6727 90.0609 55.2877 90.0163 54.9121 89.957" stroke="black" stroke-linecap="round"/>
<path d="M53.5088 89.5091L52.1055 89.0039" stroke="black" stroke-linecap="round"/>
<path d="M50.142 88.2727C49.5697 87.9792 48.9418 87.7795 48.3457 87.543" stroke="black" stroke-linecap="round"/>
<path d="M63.6133 88.5C63.7133 88.7126 63.9137 88.8848 64.0624 89.0613" stroke="black" stroke-linecap="round"/>
<path d="M60.582 90.0703H60.6382" stroke="black" stroke-linecap="round"/>
<path d="M64.5684 89.623L64.849 89.3984" stroke="black" stroke-linecap="round"/>
<path d="M66.252 88.4433L66.5888 88.2188" stroke="black" stroke-linecap="round"/>
<path d="M69.3398 85.6937C69.4039 85.563 69.4578 85.4354 69.5082 85.3008" stroke="black" stroke-linecap="round"/>
<path d="M70.0684 84.1752L70.1806 83.8945" stroke="black" stroke-linecap="round"/>
<path d="M70.3496 83.4476L70.4619 83.0547" stroke="black" stroke-linecap="round"/>
<path d="M41.4473 53.494C41.8869 53.4584 42.3634 53.4492 42.7922 53.3286C43.0801 53.2477 43.3913 53.2471 43.6741 53.1633C43.8208 53.1198 43.9715 53.0966 44.1151 53.0408C44.2094 53.0041 44.3001 52.9648 44.4017 52.9648" stroke="black" stroke-linecap="round"/>
</svg>
