<svg width="100" height="101" viewBox="0 0 100 101" fill="none" xmlns="http://www.w3.org/2000/svg">
<path d="M30.4336 51.0519C30.5545 50.995 30.6342 50.895 30.751 50.8263C30.8868 50.7464 31.0449 50.6496 31.1715 50.5512C31.3005 50.4509 31.4658 50.3815 31.6079 50.3026C31.8067 50.1921 32.0378 50.1373 32.2585 50.076C32.6166 49.9766 33.0019 49.9888 33.3763 49.9888C33.5889 49.9888 33.7941 50.0143 34.004 50.0205C34.1166 50.0238 34.2251 50.0776 34.3373 50.084C34.4423 50.09 34.5798 50.1174 34.6784 50.1554C34.7675 50.1896 34.8728 50.1778 34.9632 50.2188C35.0609 50.2633 35.1842 50.2536 35.2823 50.2982C35.3881 50.3463 35.5244 50.373 35.6376 50.4013C35.7757 50.4359 35.8996 50.4901 36.0317 50.5442C36.5351 50.7501 36.9542 51.0828 37.4316 51.3341C37.5099 51.3752 37.576 51.4309 37.6503 51.4804C37.7508 51.5474 37.8733 51.6141 37.9482 51.7105C38.0014 51.7789 38.0611 51.8401 38.1219 51.9009C38.1818 51.9608 38.263 52.0236 38.3009 52.0993C38.3721 52.2417 38.5242 52.3502 38.6218 52.4722C38.7086 52.5808 38.7977 52.6892 38.8598 52.8134" stroke="black" stroke-linecap="round"/>
<path d="M34.7345 50.8164C34.7259 50.8858 34.6193 50.9667 34.5838 51.0306C34.5633 51.0675 34.525 51.0889 34.5044 51.1258C34.4818 51.1667 34.4518 51.2138 34.4207 51.2484C34.3568 51.3193 34.2987 51.4491 34.2735 51.5375C34.2545 51.604 34.227 51.7325 34.1827 51.7879C34.1662 51.8085 34.1633 51.8994 34.1633 51.9272C34.1633 51.9753 34.1572 52.0457 34.1465 52.0938C34.1222 52.2034 34.1353 52.31 34.1474 52.4191C34.1508 52.4495 34.18 52.5352 34.1985 52.5584C34.2236 52.5897 34.2208 52.6809 34.2506 52.7048C34.3101 52.7524 34.3168 52.8784 34.3775 52.9269C34.4332 52.9715 34.4704 53.0507 34.5247 53.105C34.5779 53.1582 34.6394 53.2386 34.7116 53.2593C34.7548 53.2716 34.7938 53.283 34.8377 53.2928C34.8902 53.3045 34.932 53.3522 34.9884 53.3554C35.0821 53.3606 35.1906 53.3994 35.282 53.4197C35.3761 53.4406 35.4987 53.4665 35.5914 53.4665C35.6966 53.4665 35.8093 53.5141 35.9167 53.5141C36.0207 53.5141 36.1306 53.5038 36.2262 53.4982C36.2813 53.495 36.3376 53.4982 36.3928 53.4982C36.4531 53.4982 36.5028 53.4696 36.5594 53.4665C36.6557 53.4611 36.746 53.403 36.8371 53.403C36.8553 53.403 36.9454 53.3767 36.9561 53.3633C36.9697 53.3463 37.047 53.2944 37.0672 53.2919C37.121 53.2852 37.1909 53.1676 37.2338 53.1332C37.3075 53.0743 37.3547 52.9552 37.4199 52.8828C37.4828 52.8129 37.5433 52.7275 37.5433 52.6334C37.5433 52.5004 37.5853 52.3579 37.5309 52.2287C37.5077 52.1736 37.515 52.1012 37.4921 52.0418C37.4545 51.944 37.3476 51.9348 37.2656 51.9669C37.093 52.0344 36.9294 52.1444 36.7975 52.2763C36.7431 52.3307 36.6965 52.4287 36.63 52.4667C36.5581 52.5078 36.5135 52.592 36.4563 52.6492C36.3779 52.7276 36.3101 52.774 36.2068 52.8035C36.0875 52.8376 35.9298 52.8048 35.8136 52.7682C35.6362 52.7124 35.49 52.6447 35.3296 52.554C35.0752 52.4102 34.9567 52.117 34.9567 51.832C34.9567 51.7078 34.9445 51.5534 35.0396 51.4547C35.1244 51.3666 35.2415 51.3037 35.3375 51.229C35.4498 51.1417 35.6287 51.1518 35.7581 51.1893C35.8468 51.2151 35.9341 51.2211 36.019 51.2607C36.1178 51.3068 36.1853 51.3785 36.2615 51.4547C36.4285 51.6217 36.5157 51.8047 36.5118 52.0418C36.5087 52.2313 36.3108 52.2763 36.1548 52.2763C35.9942 52.2763 35.8423 52.2197 35.751 52.0771C35.6946 51.9889 35.5695 51.7764 35.6867 51.6927C35.7287 51.6627 35.8945 51.6493 35.9317 51.6971C35.9616 51.7355 36.0011 51.8435 35.9406 51.8637" stroke="black" stroke-linecap="round"/>
<path d="M30.6562 53.7812C30.6877 53.7852 30.7441 53.8833 30.7753 53.9082C30.8287 53.9509 30.8632 54.0142 30.926 54.0475C31.0632 54.1201 31.1665 54.2456 31.298 54.3208C31.3484 54.3495 31.3797 54.4013 31.4338 54.4283C31.4911 54.457 31.5597 54.5013 31.6048 54.5465C31.6392 54.5808 31.7137 54.6209 31.7591 54.6461C31.8209 54.6804 31.9298 54.7345 31.9733 54.7889C31.9949 54.8158 32.1152 54.8723 32.1479 54.8762C32.2056 54.883 32.2725 54.9341 32.3224 54.959C32.3798 54.9877 32.4274 55.0342 32.4882 55.0516C32.5568 55.0712 32.6108 55.1298 32.6795 55.1451C32.7363 55.1577 32.786 55.2027 32.8461 55.2094C32.9219 55.2178 32.9916 55.2845 33.0683 55.2888C33.1414 55.2928 33.2101 55.3522 33.2825 55.3522C33.3625 55.3522 33.4435 55.3977 33.5205 55.4148C33.8599 55.4903 34.2041 55.4792 34.5564 55.4792C34.7374 55.4792 34.9184 55.4792 35.0994 55.4792C35.2094 55.4792 35.3193 55.4792 35.4292 55.4792C35.5444 55.4792 35.6498 55.4516 35.7624 55.4474C35.8453 55.4444 35.9466 55.3931 36.0278 55.3681C36.1277 55.3374 36.2403 55.3313 36.3372 55.2967C36.4078 55.2715 36.4894 55.2673 36.5629 55.2447C36.641 55.2207 36.722 55.2147 36.7974 55.1812C36.8609 55.153 36.9592 55.1303 37.0275 55.1151C37.1048 55.0979 37.1925 55.0673 37.2655 55.0349C37.3325 55.0051 37.4247 54.9485 37.4956 54.9397C37.553 54.9325 37.6511 54.8941 37.7019 54.8603" stroke="black" stroke-linecap="round"/>
<path d="M27.4824 47.4658C27.5547 47.4015 27.6108 47.3598 27.6605 47.2754C27.7043 47.201 27.8168 47.1002 27.895 47.0567C27.9604 47.0204 28.0126 46.9662 28.0854 46.9298C28.1698 46.8876 28.2408 46.8259 28.3235 46.7799C28.4245 46.7238 28.5205 46.6576 28.625 46.6054C28.7507 46.5425 28.8868 46.4458 29.0217 46.4061C29.1593 46.3657 29.277 46.2619 29.4184 46.2245C29.5437 46.1914 29.7107 46.1545 29.823 46.094C29.8884 46.0589 29.9813 46.0536 30.0531 46.0376C30.1297 46.0206 30.2061 45.9869 30.2832 45.975C30.462 45.9475 30.6375 45.8875 30.8148 45.8622C30.9326 45.8454 31.046 45.7997 31.1639 45.7828C31.3296 45.7592 31.5062 45.7182 31.6717 45.6806C32.4562 45.5023 33.2657 45.4399 34.0679 45.4188C34.1688 45.4161 34.269 45.3898 34.3694 45.387C34.436 45.3852 34.5241 45.3873 34.588 45.3676C34.7316 45.3234 34.8905 45.3673 35.0359 45.3359C35.1349 45.3145 35.2397 45.3235 35.3409 45.3235C35.4414 45.3235 35.5395 45.3077 35.6389 45.3077C35.73 45.3077 35.8211 45.3077 35.9122 45.3077C35.9893 45.3077 36.092 45.29 36.166 45.3112C36.291 45.3469 36.4448 45.3553 36.5751 45.3553C36.7305 45.3553 36.9113 45.4056 37.0635 45.3588C37.1081 45.3451 37.1877 45.3407 37.2328 45.3394C37.3094 45.3372 37.3853 45.3235 37.4602 45.3235C37.6042 45.3235 37.7482 45.3235 37.8922 45.3235C38.1726 45.3235 38.4363 45.4462 38.7085 45.4981C38.8607 45.5271 39.0109 45.5594 39.1617 45.6012C39.3249 45.6466 39.4756 45.7204 39.6342 45.7714C40.0651 45.9099 40.4004 46.217 40.6137 46.601C40.699 46.7545 40.7327 46.9282 40.7327 47.1079C40.7327 47.1689 40.712 47.2824 40.6613 47.323C40.5685 47.3972 40.5109 47.5247 40.4153 47.5998C40.2509 47.729 40.09 47.8628 39.8987 47.9498C39.772 48.0074 39.6174 48.0371 39.4799 48.0371C39.308 48.0371 39.1374 48.0847 38.9677 48.0847C38.8404 48.0847 38.6989 48.1011 38.5745 48.1287C38.5025 48.1448 38.4193 48.1316 38.3489 48.1517C38.2813 48.171 38.1972 48.1958 38.1267 48.1958C37.9852 48.1958 37.8431 48.2275 37.6982 48.2275C37.5285 48.2275 37.3613 48.2116 37.194 48.2116C37.0294 48.2116 36.8659 48.1684 36.7021 48.164C36.5374 48.1596 36.3742 48.1164 36.2101 48.1164C36.0482 48.1164 35.876 48.0598 35.7182 48.0247C35.5346 47.9839 35.3473 47.9593 35.1628 47.9189C35.0182 47.8873 34.8727 47.874 34.7273 47.8475C34.6225 47.8285 34.5342 47.7963 34.4329 47.7673C34.1795 47.6949 33.9339 47.6037 33.695 47.4975C33.5721 47.4429 33.4426 47.3784 33.3141 47.3388C33.2311 47.3133 33.139 47.2871 33.0611 47.2507C33.0079 47.2259 32.9486 47.1783 32.8927 47.1643C32.5764 47.0852 32.2961 46.8566 31.9574 46.8469C31.8586 46.8441 31.7147 46.8361 31.6241 46.7958C31.5394 46.7581 31.4392 46.7744 31.3508 46.7482C31.2013 46.7039 31.0148 46.7041 30.8589 46.7041C30.6667 46.7041 30.4745 46.7041 30.2823 46.7041C30.1035 46.7041 29.9041 46.6544 29.7287 46.6962C29.6404 46.7172 29.5339 46.7118 29.4431 46.7191C29.3278 46.7283 29.2086 46.7517 29.0931 46.7517C28.9286 46.7517 28.7665 46.7676 28.6012 46.7676C28.5029 46.7676 28.3777 46.7881 28.2917 46.8311" stroke="black" stroke-linecap="round"/>
<path d="M31.4805 46.2585C31.839 46.2714 32.1989 46.2736 32.556 46.3097C32.8031 46.3346 33.0497 46.4027 33.2912 46.4569C33.7856 46.5677 34.2584 46.7626 34.7494 46.8853C35.3803 47.0431 36.0047 47.2523 36.6536 47.3253C37.4121 47.4105 38.177 47.4487 38.9405 47.4487C39.1711 47.4487 39.3656 47.4256 39.5734 47.3217C39.6535 47.2817 39.7209 47.2348 39.7956 47.1868C39.8536 47.1496 39.9395 47.1134 39.9737 47.052C39.997 47.01 40.0608 46.9675 40.0301 46.9091C39.9665 46.7883 39.7232 46.7319 39.6052 46.6958C39.3632 46.6219 39.1046 46.5731 38.8558 46.5283C38.5844 46.4794 38.3194 46.42 38.0501 46.3608C37.4991 46.2396 36.9415 46.0847 36.3768 46.0399C35.757 45.9907 35.1365 45.9729 34.5149 45.9729C34.2488 45.9729 33.9833 45.957 33.7179 45.957C33.6556 45.957 33.5933 45.957 33.531 45.957C33.5124 45.957 33.6321 45.9907 33.6562 45.9967C34.5507 46.2203 35.4529 46.4091 36.3495 46.6235C36.9603 46.7696 37.5773 46.8654 38.1929 46.9885C38.3589 47.0217 38.5263 47.048 38.691 47.0846C38.7128 47.0894 38.6086 47.0996 38.5896 47.0996" stroke="black" stroke-linecap="round"/>
<path d="M65.4388 54.6802C65.4388 54.5595 65.277 54.4766 65.2018 54.4165C65.1241 54.3543 65.0477 54.274 64.9793 54.2125C64.8113 54.0613 64.6284 53.904 64.4292 53.7902C64.3404 53.7394 64.3007 53.6288 64.2242 53.5676C64.1357 53.4968 64.0626 53.3947 63.9883 53.3122C63.8299 53.1361 63.6125 53.0023 63.4454 52.8352C63.3538 52.7436 63.259 52.6673 63.1673 52.5756C63.0574 52.4657 62.9067 52.3464 62.7686 52.2738C62.6011 52.1856 62.4556 52.0625 62.2865 51.973C62.1509 51.9012 62.0321 51.7654 61.8888 51.7133C61.8217 51.689 61.7588 51.6308 61.6931 51.598C61.603 51.5529 61.5058 51.527 61.415 51.4816C61.3499 51.449 61.2772 51.448 61.211 51.4167C61.1394 51.3828 61.0655 51.3435 60.9926 51.3136C60.8951 51.2738 60.7957 51.2328 60.6959 51.1983C60.2371 51.0395 59.7481 50.8575 59.264 50.8037C58.7569 50.7474 58.2557 50.5775 57.7435 50.5637C57.4954 50.557 57.2491 50.4662 57.0017 50.4524C56.7891 50.4406 56.5764 50.3783 56.362 50.3783C55.3551 50.3783 54.3633 50.3041 53.357 50.3041C53.1198 50.3041 52.8953 50.3349 52.6627 50.3607C52.4769 50.3814 52.2703 50.3892 52.0878 50.4298C51.9657 50.4569 51.7954 50.4524 51.6706 50.4524C51.5427 50.4524 51.4162 50.471 51.2905 50.471C51.0244 50.471 50.757 50.4524 50.4931 50.4524C50.1703 50.4524 49.9194 50.2761 49.6587 50.1228C49.5599 50.0647 49.5107 49.9243 49.4362 49.8405C49.3685 49.7643 49.2555 49.6344 49.2333 49.5345C49.2052 49.4085 49.1576 49.2426 49.0932 49.1266C49.0381 49.0275 49.0653 48.8768 49.0653 48.765C49.0653 48.4517 49.3258 48.3449 49.5289 48.1531C49.7168 47.9757 50.0022 47.8564 50.2603 47.8564C50.3751 47.8564 50.491 47.8193 50.6085 47.8193C50.7812 47.8193 50.9513 47.8008 51.1246 47.8008C51.3915 47.8008 51.6583 47.8008 51.9251 47.8008C52.5382 47.8008 53.1292 47.8134 53.7371 47.9028C54.4298 48.0046 55.1173 48.1523 55.815 48.1716C55.9848 48.1764 56.1502 48.2395 56.3198 48.2458C56.6024 48.2563 56.8932 48.3607 57.1686 48.4209C57.6337 48.5227 58.0815 48.6543 58.5408 48.7691C58.8058 48.8354 59.0735 48.9304 59.3423 48.9731C59.72 49.0331 60.0781 49.191 60.4415 49.3028C60.9157 49.4487 61.3917 49.6089 61.8414 49.822C62.2349 50.0083 62.6269 50.1719 62.9911 50.4061C63.0458 50.4413 63.1282 50.4689 63.1621 50.5266C63.1958 50.5838 63.3338 50.6996 63.3888 50.7295C63.4807 50.7797 63.6481 50.9207 63.6999 51.0087C63.7401 51.077 63.8211 51.1403 63.8719 51.2024C63.9351 51.2796 63.9771 51.3716 64.0295 51.4579C64.0783 51.5382 64.0933 51.6385 64.1408 51.7216C64.173 51.778 64.2064 51.847 64.2335 51.9081C64.3117 52.0839 64.3594 52.2701 64.4375 52.4458C64.5053 52.5984 64.5901 52.7335 64.6641 52.8816C64.6974 52.9482 64.7145 53.0181 64.7445 53.0866C64.7757 53.1579 64.7997 53.2856 64.8495 53.341C64.8982 53.3951 64.97 53.516 64.9938 53.5872C65.0298 53.6955 65.1109 53.7876 65.1411 53.8932C65.1554 53.9435 65.2387 54.1908 65.2163 54.1796" stroke="black" stroke-linecap="round"/>
<path d="M64.3447 53.0638C64.1008 52.7549 63.8497 52.4541 63.604 52.147C63.4939 52.0093 63.4069 51.8701 63.2785 51.7473C63.1604 51.6344 63.0473 51.5115 62.9231 51.4053C62.5846 51.1159 62.1831 50.9282 61.8053 50.6996C61.4503 50.4847 61.0691 50.3312 60.6876 50.1711C59.8451 49.8174 58.9599 49.5965 58.0916 49.314C57.2602 49.0436 56.4217 48.8427 55.5636 48.6784C54.9941 48.5694 54.4175 48.4805 53.8453 48.391C53.4079 48.3225 52.9734 48.2125 52.5328 48.1685C51.9329 48.1085 51.3229 48.0121 50.7197 48.117C50.4208 48.169 49.9758 48.2932 49.84 48.595C49.6752 48.9612 49.9381 49.2909 50.2325 49.4933C50.4487 49.6419 50.7318 49.7373 50.9896 49.7776C51.4159 49.8442 51.8504 49.9115 52.2825 49.9115C52.8189 49.9115 53.3549 49.9301 53.8906 49.9301C54.3687 49.9301 54.8447 49.9115 55.3225 49.9115C56.2692 49.9115 57.2059 49.9285 58.1431 50.0681C58.4226 50.1097 58.6996 50.1467 58.9765 50.2082C59.2795 50.2755 59.5894 50.2994 59.8903 50.3792C60.0313 50.4166 60.4554 50.5049 60.3095 50.5049C60.1837 50.5049 60.0551 50.4731 59.9315 50.4493C59.1919 50.3064 58.4469 50.1572 57.7135 49.9847C57.0166 49.8207 56.3074 49.742 55.6151 49.5551C55.1121 49.4193 54.6106 49.2812 54.0997 49.1791C53.8416 49.1275 53.5697 49.1199 53.3075 49.0997C53.0218 49.0778 52.7352 49.0364 52.4494 49.0225C52.0342 49.0022 51.6167 48.9376 51.2019 48.9287C50.9091 48.9225 50.5792 48.857 50.3005 48.7721C50.204 48.7428 50.3025 48.7306 50.3448 48.7155C50.4373 48.6824 50.5458 48.6857 50.6414 48.665C50.8469 48.6206 51.0537 48.6563 51.2534 48.7062" stroke="black" stroke-linecap="round"/>
<path d="M61.6314 54.7817C61.5906 54.7817 61.5737 54.8215 61.5442 54.8451C61.517 54.8669 61.4615 54.875 61.441 54.9007C61.3859 54.9696 61.2297 54.9863 61.1712 55.0594C61.1187 55.125 61.0133 55.1689 60.9491 55.226C60.8649 55.3008 60.7444 55.3399 60.6634 55.4164C60.4892 55.5809 60.2556 55.6604 60.0684 55.8061C59.9763 55.8777 59.8742 55.9717 59.7669 56.0194C59.6495 56.0716 59.5378 56.1506 59.4186 56.194C59.3639 56.2139 59.3166 56.2565 59.267 56.2856C59.226 56.3098 59.1648 56.3228 59.1277 56.3562C59.0988 56.3822 59.0558 56.3883 59.0255 56.4126C58.9876 56.4429 58.9161 56.4761 58.8703 56.499C58.6718 56.5982 58.5112 56.6913 58.3078 56.7652C58.1096 56.8373 57.8839 56.8922 57.6643 56.8922C57.5476 56.8922 57.4351 56.9239 57.3152 56.9239C57.2204 56.9239 57.0529 56.9395 56.9784 56.8798C56.9373 56.8469 56.8502 56.8434 56.8003 56.8208C56.7521 56.7988 56.6939 56.762 56.6408 56.7502C56.5574 56.7317 56.4667 56.6738 56.3869 56.6383C56.1827 56.5475 56.0373 56.4325 55.887 56.2733C55.8272 56.21 55.788 56.1211 55.7204 56.067C55.6601 56.0188 55.5927 55.9219 55.5538 55.8537C55.4535 55.6782 55.336 55.5176 55.2523 55.3291C55.2077 55.2289 55.1769 55.1318 55.1447 55.0232C55.1212 54.944 55.124 54.8608 55.1059 54.7817C55.0864 54.6964 55.1059 54.6075 55.0812 54.5242C55.0656 54.4715 55.0618 54.3684 55.0618 54.3135C55.0618 54.2606 55.0618 54.2077 55.0618 54.1548C55.0618 54.0208 55.0301 53.8873 55.0301 53.7581C55.0301 53.5004 54.9872 53.2521 55.0742 53.0009C55.1134 52.8877 55.1702 52.7849 55.2523 52.7029C55.316 52.6392 55.3839 52.5238 55.4586 52.4772C55.5021 52.45 55.6018 52.3533 55.6331 52.3141C55.6736 52.2635 55.8622 52.2744 55.9267 52.2744C56.0525 52.2744 56.1792 52.3062 56.2996 52.3062C56.4087 52.3062 56.5637 52.3118 56.6646 52.3502C56.7193 52.3711 56.7777 52.3528 56.8321 52.3776C56.8803 52.3995 56.9537 52.4048 57.0057 52.4164C57.1211 52.442 57.233 52.448 57.3469 52.4886C57.4806 52.5364 57.6344 52.5725 57.7754 52.5927C57.8564 52.6042 57.9753 52.6333 58.0531 52.6632C58.1121 52.6859 58.1899 52.681 58.2435 52.7108C58.2981 52.7411 58.3842 52.744 58.4454 52.7628C58.5149 52.7842 58.6071 52.8103 58.6799 52.814C58.7792 52.8189 58.8892 52.8614 58.9849 52.8898C59.0727 52.9158 59.1603 52.94 59.2476 52.9691C59.5917 53.0838 59.9089 53.2416 60.2191 53.4249C60.3489 53.5016 60.5114 53.5764 60.6158 53.6867C60.678 53.7524 60.7259 53.8285 60.7904 53.893C60.8481 53.9507 60.8886 54.0337 60.9526 54.0834C61.0287 54.1426 61.1712 54.2995 61.1712 54.4008C61.1712 54.4828 61.0585 54.5207 60.9896 54.5436C60.8895 54.577 60.784 54.593 60.6828 54.623C60.6 54.6476 60.5232 54.6904 60.4413 54.7182C60.2984 54.7667 60.1631 54.8374 60.0208 54.8848C59.8265 54.9495 59.6779 55.0988 59.4953 55.1872C59.2687 55.2969 59.0591 55.4425 58.8456 55.5751C58.6364 55.705 58.415 55.819 58.1959 55.9312C58.1071 55.9767 58.0114 56.0047 57.9182 56.0388C57.8362 56.0688 57.746 56.1129 57.6572 56.1146C57.4348 56.1188 57.2684 56.0458 57.0736 55.9365C56.8334 55.8018 56.6604 55.5453 56.5218 55.3141C56.375 55.0696 56.256 54.8056 56.1286 54.5507C55.9683 54.2301 55.8477 53.7927 56.0307 53.4496C56.0651 53.3852 56.1246 53.3281 56.1726 53.2733C56.2082 53.2326 56.2206 53.1855 56.2679 53.1551C56.3892 53.0771 56.5472 53.1253 56.676 53.1569C57.1538 53.2741 57.6204 53.4551 58.091 53.5986C58.3863 53.6886 58.6887 53.7592 58.9823 53.8542C59.1472 53.9076 59.3079 53.9644 59.4742 54.0129C59.6204 54.0556 59.7923 54.1196 59.9159 54.2095C59.982 54.2576 60.1116 54.3467 59.9934 54.4202C59.8557 54.5059 59.6961 54.5528 59.5456 54.6106C59.2191 54.736 58.8809 54.8026 58.5441 54.8927C58.2399 54.9742 57.9449 55.0862 57.6396 55.1625C57.3663 55.2308 57.1602 55.1412 56.8938 55.0708C56.6444 55.0049 56.3994 54.9132 56.215 54.7288C56.1128 54.6266 56.0696 54.4934 55.9981 54.37C55.9488 54.2849 55.8965 54.1616 55.8244 54.094C55.7802 54.0526 55.7687 54.0534 55.7601 54.1178C55.7464 54.2202 55.7313 54.3234 55.7609 54.4246C55.8165 54.6143 55.862 54.8355 55.999 54.9862C56.1487 55.1509 56.385 55.0912 56.5341 54.965C56.7681 54.767 57.0691 54.5162 57.1212 54.1945C57.13 54.1407 57.1202 54.0148 57.1847 53.9918C57.293 53.9531 57.4874 54.0723 57.5885 54.1028C57.8053 54.1685 58.0343 54.2269 58.2408 54.3215C58.2511 54.3262 58.4022 54.4227 58.3555 54.4449C58.2719 54.4845 58.0883 54.4427 58.0046 54.4325C57.7765 54.4048 57.5539 54.4008 57.324 54.4008C56.9903 54.4008 56.4639 54.4017 56.4301 53.9618C56.4178 53.8023 56.4569 53.4804 56.6804 53.4804C56.8726 53.4804 56.9816 53.821 57.0613 53.9565" stroke="black" stroke-linecap="round"/>
<path d="M57.3154 56.129C57.0572 56.0525 56.8932 55.9479 56.7088 55.7676C56.575 55.6366 56.4462 55.5124 56.328 55.3673C56.2174 55.2316 56.1468 55.0887 56.0935 54.923C56.0348 54.7404 56.0312 54.5712 56.0106 54.3835C55.99 54.1955 55.9507 54.0016 55.9507 53.8122C55.9507 53.6293 55.9221 53.4485 55.8784 53.2709C55.854 53.1721 55.8205 53.0796 55.7885 52.9835C55.7704 52.9294 55.7285 52.8669 55.7285 52.8125" stroke="black" stroke-linecap="round"/>
<path d="M47.9531 56.306C48.0348 56.306 48.136 56.2434 48.215 56.2258C48.3101 56.2047 48.4052 56.1835 48.5006 56.1623C48.7438 56.1083 48.9936 56.1223 49.242 56.1315C49.5177 56.1417 49.7957 56.1315 50.0716 56.1315C50.2859 56.1315 50.4428 56.1093 50.6261 56.0045C50.692 55.9669 50.7254 55.8484 50.6508 55.8018C50.5789 55.7568 50.5179 55.7171 50.4321 55.6907C50.3324 55.66 50.2273 55.6264 50.1201 55.6069C50.0686 55.5976 50.0214 55.5828 49.9684 55.5752C49.9175 55.5679 49.83 55.5568 49.7851 55.5364C49.6933 55.4947 49.5141 55.4967 49.413 55.4967C49.3072 55.4967 49.2015 55.4967 49.0957 55.4967C48.9669 55.4967 48.8418 55.5126 48.7148 55.5126C48.6555 55.5126 48.5973 55.5262 48.5367 55.5285C48.5145 55.5293 48.4021 55.5355 48.3851 55.5479C48.3633 55.5637 48.2754 55.5761 48.2467 55.5761C48.1984 55.5761 48.1504 55.6125 48.1039 55.6228C48.0918 55.6255 48.0025 55.6637 48.0025 55.6475C48.0025 55.6239 48.1006 55.5687 48.1197 55.5602C48.2062 55.5218 48.3294 55.4377 48.401 55.3733C48.4812 55.3011 48.5728 55.2497 48.6513 55.1794C48.7541 55.0875 48.8854 55.0249 48.9925 54.9343C49.0535 54.8826 49.1259 54.8477 49.1829 54.7906C49.2201 54.7535 49.2625 54.7085 49.3099 54.6874C49.4173 54.6397 49.5239 54.5624 49.6273 54.505C49.7309 54.4474 49.8529 54.4296 49.9684 54.4168C50.2944 54.3806 50.6325 54.2927 50.9523 54.2149C51.299 54.1306 51.6415 54.0601 51.9688 53.9169C52.2274 53.8038 52.4906 53.6657 52.6978 53.4814C52.8115 53.3804 52.907 53.2722 53.0152 53.1641" stroke="black" stroke-width="0.5" stroke-linecap="round"/>
<path d="M49.0625 55.1774C49.2807 54.9592 49.6135 54.8507 49.8877 54.7208C49.9491 54.6917 50.0056 54.6672 50.0702 54.6529C50.1298 54.6396 50.2127 54.6433 50.2685 54.6185C50.4436 54.5407 50.6636 54.5489 50.8318 54.4554C50.9652 54.3813 51.1393 54.3728 51.2762 54.2967C51.4101 54.2223 51.5529 54.1659 51.6887 54.0904C51.8691 53.9903 52.0704 53.9074 52.2362 53.7969" stroke="black" stroke-width="0.5" stroke-linecap="round"/>
<path d="M50.5234 53.2574C50.6047 53.1851 50.7435 53.1581 50.8373 53.0987C50.9437 53.0313 51.0831 52.9687 51.1987 52.9162C51.4106 52.8199 51.6165 52.7365 51.8158 52.6226C51.9854 52.5257 52.188 52.4383 52.373 52.3855C52.5521 52.3343 52.7063 52.2213 52.8958 52.1792C53.3906 52.0692 53.8971 52.0196 54.4148 52.0196C54.4921 52.0196 54.6196 52.0171 54.6933 52.039C54.7618 52.0593 54.8359 52.038 54.904 52.0593C54.9802 52.0831 55.0769 52.0741 55.1562 52.084C55.2256 52.0927 55.3005 52.1068 55.3669 52.1272C55.5478 52.1828 55.7497 52.2324 55.9346 52.2735C56.0736 52.3044 56.1803 52.4241 56.2996 52.4957" stroke="black" stroke-width="0.5" stroke-linecap="round"/>
<path d="M51.0938 56.7656C51.1537 56.7881 51.181 56.8386 51.2286 56.8767C51.2754 56.9141 51.344 56.9507 51.4023 56.9719C51.5318 57.019 51.6187 57.1207 51.7364 57.1861C51.9891 57.3265 52.2465 57.553 52.5466 57.6075C52.7014 57.6357 52.8397 57.7032 52.9945 57.753C53.1706 57.8096 53.3445 57.8633 53.5181 57.9276C53.7071 57.9975 53.8727 58.0968 54.0647 58.1585C54.2612 58.2217 54.5021 58.2896 54.7083 58.3049C54.9047 58.3194 55.0955 58.4477 55.291 58.4477C55.4742 58.4477 55.6622 58.4953 55.8464 58.4953C56.0702 58.4953 56.2888 58.527 56.5129 58.527C56.7461 58.527 56.9799 58.5322 57.2111 58.512C57.7112 58.4686 58.2149 58.3573 58.6948 58.2097C59.0234 58.1086 59.3064 57.9714 59.6028 57.7936C59.7646 57.6965 59.939 57.6139 60.0877 57.4956C60.2285 57.3836 60.3545 57.246 60.5038 57.1465" stroke="black" stroke-linecap="round"/>
<path d="M28.6406 66.7558C28.6741 66.7085 28.7199 66.6724 28.7553 66.6268C28.7864 66.5869 28.8322 66.5237 28.8775 66.4978C28.9544 66.4539 29.0071 66.3587 29.0888 66.3107C29.1631 66.267 29.2253 66.201 29.3 66.1583C29.3874 66.1084 29.4614 66.0395 29.5505 65.9923C29.9309 65.7909 30.4141 65.7917 30.8474 65.7917C31.1543 65.7917 31.4727 65.7781 31.7844 65.7781C32.0516 65.7781 32.3316 65.7823 32.5788 65.6724C32.6322 65.6487 32.7037 65.6384 32.7614 65.6279C32.8149 65.6182 32.862 65.5846 32.9115 65.5736C33.012 65.5513 33.114 65.4999 33.2035 65.4552C33.276 65.4189 33.4057 65.3691 33.4479 65.2952C33.4776 65.2433 33.5472 65.2094 33.4554 65.2356C33.4159 65.2469 33.3726 65.3015 33.3528 65.336C33.3328 65.371 33.2904 65.412 33.2608 65.4416C33.2285 65.4739 33.2119 65.5176 33.1793 65.5502C33.1506 65.5789 33.1344 65.616 33.1016 65.6423C33.068 65.6691 33.0268 65.6967 32.9998 65.7305C32.9757 65.7606 32.9201 65.787 32.8881 65.8158C32.852 65.8483 32.8128 65.8876 32.7689 65.9109C32.6812 65.9573 32.5985 66.0625 32.5033 66.0897C32.4578 66.1027 32.4114 66.1173 32.3645 66.1342C32.3316 66.146 32.2523 66.1561 32.2287 66.1749C32.157 66.2323 32.0137 66.175 31.9337 66.2194C31.8922 66.2425 31.8116 66.2262 31.764 66.2262C31.7124 66.2262 31.6598 66.2398 31.6146 66.2398C31.4951 66.2398 31.3823 66.2534 31.2615 66.2534C31.0343 66.2534 30.8025 66.2669 30.5795 66.2669C30.3669 66.2669 30.1454 66.2669 29.9239 66.2669C29.725 66.2669 29.5344 66.2977 29.3543 66.3492C29.2845 66.3691 29.1584 66.3932 29.0993 66.4405C29.0255 66.4996 28.9064 66.4822 28.8579 66.5793" stroke="black" stroke-width="0.5" stroke-linecap="round"/>
<path d="M55.9258 85.2211C56.0326 85.1944 56.1676 85.0472 56.2225 84.9512C56.28 84.8505 56.3633 84.7279 56.445 84.6463C56.6924 84.3989 56.9891 84.1926 57.2279 83.9272C57.3152 83.8302 57.4088 83.726 57.5205 83.6542C57.6727 83.5563 57.7979 83.3675 57.9284 83.237C58.3102 82.8552 58.6867 82.4727 59.041 82.0677C59.4365 81.6157 59.8818 81.1712 60.1629 80.6307C60.2459 80.471 60.3383 80.3198 60.4173 80.1589C60.5021 79.986 60.5839 79.8125 60.6687 79.6397C60.8212 79.3286 60.9081 78.9888 61.0344 78.6661C61.1438 78.3866 61.2571 78.0917 61.3074 77.7957C61.3604 77.4834 61.3641 77.1574 61.4804 76.8582C61.5883 76.5808 61.6389 76.28 61.7297 75.997C61.7771 75.8492 61.8149 75.6914 61.8554 75.5417C61.9034 75.3642 61.8989 75.1816 61.9522 75.0039" stroke="black" stroke-linecap="round"/>
<path d="M52.8873 66.9727C52.8491 67.1804 52.8223 67.3592 52.8223 67.5685C52.8223 67.7045 52.8573 67.8073 52.8861 67.9369C52.9085 68.0377 52.9496 68.1989 53.0125 68.2776C53.0475 68.3214 53.0723 68.4141 53.0991 68.4678C53.1224 68.5144 53.1847 68.5938 53.1906 68.6411C53.2033 68.7425 53.3367 68.8218 53.3628 68.9132C53.3815 68.9787 53.4464 69.0053 53.4723 69.0636C53.4896 69.1026 53.5569 69.1985 53.5915 69.2261C53.6676 69.2871 53.7241 69.4149 53.7925 69.491C53.8713 69.5785 53.9361 69.6803 54.0188 69.763C54.2251 69.9693 54.489 70.132 54.6978 70.3408C54.7384 70.3814 54.7929 70.3975 54.8374 70.4396C54.8842 70.4837 54.9776 70.5635 55.0372 70.5864C55.1774 70.6403 55.2853 70.7892 55.4441 70.8079C55.5501 70.8204 55.6537 70.9264 55.7366 70.9909C55.8562 71.0839 55.999 71.1982 56.0942 71.3171C56.287 71.5582 56.5077 71.7871 56.6359 72.0755C56.699 72.2176 56.7751 72.3601 56.8477 72.498C56.9159 72.6276 56.9401 72.7764 56.9994 72.9097C57.1266 73.1959 57.2642 73.5253 57.2642 73.8427C57.2642 74.2884 57.3813 74.723 57.3942 75.1632C57.4059 75.5582 57.3726 75.9521 57.3726 76.3441C57.3726 76.5108 57.2947 76.6799 57.2594 76.8485C57.225 77.0129 57.1433 77.1881 57.1342 77.3517C57.1233 77.5476 57.0055 77.7407 56.9837 77.9367C56.9565 78.1822 56.8846 78.4316 56.8309 78.6734C56.7812 78.8969 56.7521 79.1541 56.6575 79.3668C56.5986 79.4994 56.5589 79.6594 56.5227 79.8002C56.5062 79.8645 56.466 79.9571 56.4625 80.0169C56.4544 80.1548 56.3905 80.3214 56.3494 80.455C56.3285 80.5228 56.2753 80.793 56.2242 80.8186" stroke="black" stroke-linecap="round"/>
<path d="M39.6721 90.5518C39.5695 90.5118 39.4152 90.4859 39.3096 90.5334C39.2514 90.5596 39.1888 90.5818 39.129 90.6036C39.0749 90.6233 39.0355 90.6737 38.9834 90.6968C38.9181 90.7258 38.8617 90.8222 38.8183 90.8781C38.7883 90.9166 38.7565 90.953 38.732 90.9971C38.7093 91.0379 38.6876 91.099 38.6595 91.1341C38.6431 91.1546 38.6469 91.2239 38.6469 91.2509C38.6469 91.2948 38.6469 91.3387 38.6469 91.3826C38.6469 91.4282 38.6691 91.4777 38.6785 91.5201C38.6879 91.5626 38.697 91.6048 38.7193 91.6438C38.7635 91.7211 38.88 91.8237 38.9575 91.8648C39.0028 91.8887 39.0344 91.9307 39.0922 91.939C39.1833 91.952 39.2666 91.9706 39.3608 91.9706C39.4924 91.9706 39.601 91.9549 39.7135 91.8826C39.8348 91.8046 39.9372 91.7009 40.0346 91.5978C40.1213 91.5059 40.1628 91.396 40.2313 91.2894C40.2947 91.1909 40.3373 91.0063 40.2877 90.893C40.2613 90.8326 40.2137 90.7563 40.1669 90.7095C40.1275 90.6701 40.0754 90.6551 40.0294 90.6295C39.9747 90.5991 39.8854 90.6392 39.8355 90.6577C39.7926 90.6736 39.7572 90.7184 39.7239 90.748C39.6773 90.7895 39.6245 90.8182 39.5789 90.8625C39.5033 90.936 39.39 91.0006 39.3465 91.1001C39.2948 91.2182 39.359 91.3125 39.4598 91.3751C39.4988 91.3994 39.7285 91.5291 39.7526 91.4505C39.7828 91.3524 39.6774 91.225 39.5789 91.225" stroke="black" stroke-linecap="round"/>
<path d="M47.8897 65.1211C47.9258 65.1493 48.0153 65.197 48.0219 65.2533C48.0252 65.2814 48.0686 65.3472 48.088 65.369C48.1286 65.4146 48.1966 65.507 48.2036 65.5672C48.212 65.6379 48.2654 65.7047 48.2697 65.7821C48.2718 65.819 48.2841 66.0083 48.311 66.0299C48.3273 66.0429 48.3297 66.1303 48.3349 66.1539C48.3429 66.1896 48.3588 66.2219 48.368 66.2539C48.3863 66.318 48.4157 66.3879 48.4341 66.4522C48.4732 66.5891 48.5341 66.7431 48.5341 66.8892C48.5341 66.9585 48.5672 67.0314 48.5672 67.1003C48.5672 67.1945 48.5837 67.291 48.5837 67.3886C48.5837 67.4361 48.6093 67.5925 48.58 67.6291C48.5452 67.6726 48.515 67.7973 48.502 67.8558C48.4654 68.0206 48.3643 68.1818 48.3202 68.336C48.3024 68.3985 48.2489 68.4577 48.2358 68.5168C48.2213 68.5818 48.1455 68.6865 48.1008 68.7362C47.9079 68.9506 47.7475 69.2131 47.5179 69.3917C47.4031 69.4809 47.2813 69.5534 47.1544 69.6239C47.111 69.648 46.9861 69.6818 46.9395 69.6818C46.8756 69.6818 46.8203 69.7313 46.7495 69.7313C46.5567 69.7313 46.364 69.7313 46.1712 69.7313C45.9939 69.7313 45.8543 69.6805 45.6846 69.6496C45.5106 69.618 45.3433 69.4488 45.221 69.3265C45.1409 69.2464 45.0282 69.2141 44.9401 69.1456C44.8824 69.1008 44.8211 69.0514 44.7703 69.0006C44.7095 68.9398 44.6334 68.8969 44.5683 68.839C44.4893 68.7688 44.3811 68.7267 44.3039 68.6573C44.2153 68.5775 44.1072 68.5237 44.0102 68.459C43.9036 68.3879 43.7674 68.3455 43.6678 68.268C43.509 68.1445 43.2927 68.1322 43.1225 68.0376C43.0065 67.9732 42.845 67.9297 42.7195 67.8898C42.6086 67.8545 42.5024 67.8311 42.3871 67.8311C42.189 67.8311 42.0199 67.8863 41.8253 67.8972C41.7736 67.9 41.6383 67.9344 41.5977 67.9669C41.539 68.0138 41.4103 68.0276 41.3626 68.0872C41.324 68.1355 41.2282 68.1719 41.1726 68.2028C41.1044 68.2407 41.0357 68.2882 40.9743 68.336C40.8511 68.4318 40.7347 68.5724 40.7347 68.7399C40.7347 68.8168 40.7167 68.9189 40.7549 68.9877C40.8269 69.1172 40.965 69.2055 41.0689 69.3054C41.2088 69.4399 41.4206 69.4657 41.5866 69.4183C41.7391 69.3747 41.9068 69.369 42.0649 69.3338C42.2779 69.2865 42.4909 69.2365 42.7048 69.1732C43.0416 69.0734 43.433 69.0753 43.7752 69.1493C43.825 69.1601 44.2495 69.2437 44.2544 69.2026C44.2688 69.0797 44.0421 68.9333 43.9569 68.8813C43.5016 68.603 42.9356 68.5251 42.4119 68.5251C42.3034 68.5251 42.1958 68.518 42.0897 68.5416C42.0183 68.5575 41.9466 68.58 41.8749 68.5902C41.8138 68.599 41.6347 68.6584 41.6105 68.7068" stroke="black" stroke-linecap="round"/>
<path d="M41.1976 69.6495C41.1245 69.5845 40.901 69.6495 40.8093 69.6495C40.6798 69.6495 40.5504 69.6495 40.4209 69.6495C40.1657 69.6495 39.8607 69.6173 39.636 69.4925C39.5363 69.4371 39.4036 69.418 39.3175 69.3319C39.249 69.2634 39.1019 69.1954 39.0081 69.1538C38.7298 69.0301 38.5937 68.7477 38.3885 68.5424C37.9998 68.1538 37.8011 67.6098 37.4209 67.2296C37.3299 67.1386 37.1974 67.0456 37.0831 66.9854C36.9442 66.9123 36.8102 66.8014 36.6608 66.7587C36.3833 66.6794 36.1378 66.543 35.8438 66.543" stroke="black" stroke-linecap="round"/>
<path d="M36.3398 66.2921C36.3599 66.1893 36.3978 66.0772 36.3978 65.9735C36.3978 65.8807 36.3946 65.7779 36.4321 65.6936C36.4843 65.576 36.4959 65.4231 36.5866 65.3224C36.6772 65.2217 36.7389 65.0414 36.799 64.9212C36.8802 64.7588 36.9719 64.6092 37.0822 64.4674C37.2045 64.3102 37.3578 64.1322 37.4405 63.9461C37.4877 63.8398 37.5686 63.74 37.6336 63.6425C37.6769 63.5775 37.7209 63.5129 37.758 63.444C37.7907 63.3832 37.8442 63.3186 37.8695 63.2563C37.9123 63.1515 38.0016 63.0633 38.039 62.9603C38.0746 62.8624 38.165 62.7024 38.2321 62.6234C38.3049 62.5378 38.3367 62.4012 38.3973 62.3059C38.4548 62.2156 38.549 62.0957 38.5797 61.9959C38.6098 61.898 38.7025 61.8092 38.7492 61.7159C38.7864 61.6415 38.8461 61.5394 38.8983 61.4756C39.0768 61.2574 39.2409 61.0006 39.381 60.7515C39.5241 60.4972 39.6497 60.2481 39.7683 59.977C39.8881 59.7032 39.9761 59.3974 40.0708 59.1135C40.1967 58.7356 40.3971 58.3665 40.4537 57.9699C40.4856 57.7471 40.5331 57.5272 40.5675 57.3038C40.5945 57.1278 40.6432 56.8635 40.7423 56.7148" stroke="black" stroke-linecap="round"/>
<path d="M40.7617 56.7341C40.8566 56.5945 40.8925 56.4164 40.9366 56.2621C40.9752 56.127 41.0657 55.9778 41.1243 55.8459C41.2768 55.5028 41.4224 55.1404 41.5384 54.7796C41.6014 54.5836 41.6325 54.3816 41.6886 54.1853C41.7605 53.9334 41.8277 53.6734 41.8859 53.4172C42.0074 52.883 42.1922 52.3628 42.3022 51.8253C42.4229 51.2352 42.6054 50.6535 42.7548 50.0725C42.8626 49.6535 42.9506 49.2121 43.0745 48.7938C43.1773 48.4469 43.1947 48.0788 43.1947 47.7168C43.1947 47.4218 43.3105 47.1588 43.3105 46.8672" stroke="black" stroke-linecap="round"/>
<path d="M40.6016 29.9492C41.006 30.5053 41.4837 31.0772 41.7617 31.7026C41.8281 31.8521 41.941 31.9631 42.0195 32.1112C42.0915 32.2473 42.1558 32.3906 42.2158 32.5331C42.2794 32.6842 42.3086 32.8389 42.3432 32.9945C42.3822 33.1701 42.494 33.3376 42.5277 33.5233C42.5577 33.6882 42.5887 33.9114 42.6523 34.0623C42.6927 34.1585 42.6599 34.2965 42.6903 34.3992C42.7189 34.4957 42.7172 34.6039 42.7577 34.6951C42.8244 34.845 42.8124 35.0306 42.8822 35.1843C42.9663 35.3693 43.0272 35.6928 43.0272 35.8933C43.0272 36.3259 43.1327 36.7652 43.1327 37.1999C43.1327 37.3656 43.1591 37.5194 43.1591 37.6877C43.1591 37.8685 43.2382 38.0452 43.2382 38.2282C43.2382 38.4394 43.2909 38.6479 43.2909 38.8609C43.2909 39.046 43.2909 39.231 43.2909 39.4161C43.2909 39.6353 43.2909 39.8545 43.2909 40.0738C43.2909 40.289 43.2382 40.4935 43.2382 40.7066C43.2382 40.9042 43.1823 41.1139 43.1576 41.3115C43.1265 41.5606 43.1001 41.8185 43.0551 42.0659C43.0235 42.2395 43.0536 42.4487 43.0536 42.6254C43.0536 42.8295 43.0536 43.0336 43.0536 43.2377C43.0536 43.4297 43.1063 43.6073 43.1063 43.7929C43.1063 43.915 43.1407 44.042 43.1576 44.1605C43.1712 44.2556 43.1394 44.3586 43.1723 44.4505C43.2 44.5282 43.1854 44.6267 43.1854 44.7083C43.1854 44.8365 43.2118 44.9591 43.2118 45.0892C43.2118 45.2565 43.2241 45.4808 43.2704 45.6429C43.3632 45.9676 43.323 46.3492 43.4359 46.6653C43.5138 46.8833 43.5314 47.1279 43.5941 47.3537C43.6328 47.4931 43.6528 47.6404 43.6922 47.7785C43.7243 47.8908 43.7251 48.0377 43.7713 48.1418C43.8088 48.226 43.8479 48.473 43.9237 48.5109" stroke="black" stroke-linecap="round"/>
<path d="M43.9492 48.4842C44.0233 48.6416 44.0995 48.8056 44.1807 48.9588C44.2255 49.0434 44.3452 49.1517 44.3696 49.2371C44.4032 49.3548 44.5303 49.4621 44.582 49.5784C44.6321 49.691 44.6901 49.837 44.7724 49.9285C44.9558 50.1323 45.1429 50.4113 45.2807 50.6594C45.4134 50.8983 45.6041 51.1202 45.7157 51.3713C45.764 51.4799 45.8641 51.6031 45.9267 51.7126C45.987 51.8181 46.0561 51.9525 46.1376 52.0436C46.2563 52.1763 46.3329 52.3373 46.454 52.4655C46.5386 52.5551 46.625 52.7469 46.7323 52.8082C46.8601 52.8812 46.9471 53.0455 47.0721 53.1349C47.1172 53.1671 47.1131 52.8442 47.1131 52.8082C47.1131 52.547 47.1395 52.3086 47.1395 52.0436C47.1395 51.8982 47.1659 51.7648 47.1659 51.6218C47.1659 51.4832 47.245 51.3481 47.245 51.2131C47.245 50.9505 47.4295 50.6676 47.4295 50.4089C47.4295 50.1279 47.565 49.8558 47.6405 49.5916C47.6814 49.4484 47.7073 49.2764 47.7664 49.1434C47.8186 49.026 47.8032 48.8716 47.8646 48.761C47.9319 48.6399 47.9111 48.4674 47.97 48.3377C48.028 48.2102 48.0817 47.9917 48.0887 47.8514C48.0982 47.661 48.1958 47.3665 48.2732 47.1923C48.3553 47.0078 48.3722 46.7917 48.4314 46.599C48.5394 46.2481 48.6089 45.894 48.7273 45.5517C48.7876 45.3776 48.8694 45.2096 48.9456 45.042C48.9874 44.9499 49.0197 44.6175 49.0906 44.582" stroke="black" stroke-linecap="round"/>
<path d="M45.8203 31.1875C45.8886 31.4911 46.0552 31.7835 46.1572 32.0781C46.2468 32.337 46.3572 32.6028 46.4736 32.8486C46.6076 33.1313 46.7357 33.4437 46.9013 33.7128C47.048 33.9512 47.1245 34.2312 47.2573 34.4701C47.3949 34.7178 47.4886 34.9867 47.6264 35.2347C47.7501 35.4574 47.9122 35.7406 47.9823 35.9861C48.0412 36.1923 48.1649 36.4103 48.246 36.613C48.3403 36.8489 48.4496 37.0784 48.536 37.3161C48.6454 37.617 48.7905 37.916 48.8729 38.2272C48.9143 38.3836 49.0031 38.5297 49.0384 38.6886C49.0744 38.8506 49.1829 39.0168 49.1952 39.1823C49.2064 39.3336 49.3006 39.4908 49.3006 39.6393C49.3006 39.7711 49.3251 39.9773 49.3739 40.0992C49.4048 40.1767 49.3633 40.2763 49.3856 40.357C49.4114 40.4505 49.4061 40.543 49.4061 40.6397C49.4061 40.7515 49.4325 40.8356 49.4325 40.9488C49.4325 41.2769 49.4325 41.605 49.4325 41.9331C49.4325 42.2061 49.4061 42.4951 49.4061 42.7754C49.4061 43.0636 49.327 43.3586 49.327 43.644C49.327 43.781 49.2479 43.9198 49.2479 44.0541C49.2479 44.1637 49.1952 44.2518 49.1952 44.3573C49.1952 44.4679 49.1395 44.5617 49.0956 44.6605C49.0532 44.7558 49.0711 44.8715 48.9315 44.8715" stroke="black" stroke-linecap="round"/>
<path d="M29.0918 68.0195C29.292 68.2322 29.334 68.5674 29.53 68.7829C29.6557 68.9212 29.7317 69.1693 29.8244 69.3443C30.0223 69.7182 30.1331 70.1423 30.3088 70.5288C30.4101 70.7517 30.4474 71.0545 30.4474 71.299C30.4474 71.4374 30.4782 71.563 30.4782 71.6996C30.4782 71.7579 30.4478 71.9573 30.4936 71.994C30.5425 72.0331 30.5198 72.2228 30.5553 72.2867C30.5914 72.3518 30.6323 72.5203 30.6323 72.5948C30.6323 72.779 30.7451 72.9472 30.7555 73.1339C30.7585 73.187 30.8122 73.3511 30.8411 73.3873C30.885 73.4422 30.8731 73.5873 30.9027 73.6577C30.9517 73.7739 30.9712 73.9933 30.9712 74.1198C30.9712 74.2322 31.002 74.3416 31.002 74.4587C31.002 74.6687 31.051 74.8907 31.0636 75.1058C31.076 75.3169 31.1869 75.5419 31.1869 75.7664C31.1869 76.0112 31.2584 76.3289 31.3118 76.5692C31.3554 76.7653 31.4333 76.9993 31.4333 77.2008C31.4333 77.4055 31.5151 77.6141 31.5258 77.817C31.5382 78.0536 31.6182 78.2807 31.6182 78.5102C31.6182 78.8651 31.7612 79.2232 31.8356 79.5577C31.8729 79.7257 31.9188 79.9603 32.0033 80.1123C32.1043 80.294 32.1166 80.5009 32.2583 80.6583C32.3286 80.7364 32.3755 80.8234 32.45 80.898C32.5105 80.9584 32.611 81.044 32.6589 81.1136C32.7847 81.2967 33.1412 81.3949 33.3281 81.4988C33.5576 81.6262 33.7995 81.7784 34.0367 81.8839C34.232 81.9707 34.3822 82.1525 34.5828 82.2296C34.7205 82.2826 34.9294 82.372 35.0381 82.4693C35.0825 82.509 35.2564 82.5856 35.3153 82.5925C35.5402 82.6189 35.8203 82.7861 36.024 82.8766C36.2866 82.9934 36.6111 83.0693 36.8627 83.2155C37.0482 83.3234 37.2496 83.3927 37.4412 83.486C37.618 83.572 37.8483 83.726 38.0437 83.7616C38.3827 83.8232 38.7209 83.9688 39.0741 84.008C39.3179 84.0351 39.5648 84.133 39.8136 84.133C40.0266 84.133 40.2743 84.1902 40.4845 84.2323C40.7699 84.2893 41.0655 84.3074 41.354 84.3555C41.601 84.3967 41.8673 84.4719 42.1174 84.4719C42.4997 84.4719 42.882 84.4719 43.2642 84.4719C43.727 84.4719 44.1872 84.4103 44.649 84.4103C45.0883 84.4103 45.5063 84.2708 45.943 84.2271C46.3553 84.1859 46.7751 83.9172 47.1599 83.7787C47.6953 83.5859 48.1828 83.3182 48.6867 83.0615C49.0978 82.8521 49.4898 82.6005 49.8507 82.3152C50.0893 82.1265 50.3401 81.9515 50.5832 81.7675C50.7371 81.651 50.8622 81.5011 51.0214 81.3909C51.1343 81.3128 51.2663 81.1529 51.3672 81.052C51.4972 80.922 51.6324 80.8034 51.7677 80.6823C51.9821 80.4905 52.2113 80.3235 52.4318 80.1431C52.8281 79.8189 53.1615 79.4117 53.5239 79.0494C53.806 78.7672 53.9893 78.3456 54.0493 77.9556C54.1443 77.3386 54.1709 76.7267 54.1709 76.0917C54.1709 75.8469 54.0596 75.5607 53.9792 75.3283C53.9277 75.1796 53.8342 74.6949 53.6608 74.6453C53.4599 74.5879 53.2626 74.4241 53.0617 74.3954C52.6807 74.341 52.2813 74.3355 51.8909 74.3355C50.8437 74.3355 49.7562 74.4683 48.7175 74.3115C48.4109 74.2653 48.0945 74.276 47.7864 74.2362C47.5107 74.2007 47.1997 74.2669 46.9306 74.2054C46.6764 74.1473 46.3895 74.1815 46.1295 74.1815C45.8625 74.1815 45.5955 74.1815 45.3285 74.1815C44.3002 74.1815 43.2509 74.2319 42.2407 74.0343C41.9486 73.9771 41.6532 73.9137 41.3609 73.8665C41.0264 73.8126 40.7102 73.6561 40.375 73.6029C40.0457 73.5507 39.7401 73.4149 39.413 73.3564C38.9969 73.2821 38.5875 73.1652 38.1687 73.1031C37.2611 72.9687 36.3817 72.6466 35.531 72.3158C35.0345 72.1227 34.5519 71.8367 34.0847 71.5798C33.6527 71.3421 33.2297 71.0675 32.789 70.8472C32.6312 70.7683 32.4732 70.6893 32.32 70.6007C32.0311 70.4338 31.7038 70.3051 31.4333 70.1077C31.24 69.9667 31.0204 69.8158 30.8479 69.6524C30.7519 69.5614 30.5834 69.4287 30.4628 69.3752C30.2978 69.3018 30.168 69.1185 30.0161 69.0208C29.8915 68.9407 29.7808 68.8418 29.708 68.7145C29.6646 68.6384 29.5749 68.5476 29.5077 68.4954C29.4321 68.4366 29.3456 68.3005 29.2767 68.266" stroke="black" stroke-linecap="round"/>
<path d="M31.4316 75.8125C31.5005 76.0053 31.7448 76.1565 31.8801 76.2918C32.0384 76.4501 32.2412 76.5954 32.4347 76.706C32.8898 76.966 33.3902 77.1437 33.8502 77.3992C34.2168 77.6028 34.7003 77.6885 35.098 77.8305C35.3558 77.9226 35.6128 78.0068 35.8682 78.1061C36.1246 78.2058 36.4012 78.3339 36.6676 78.4005C36.8877 78.4555 37.1712 78.5422 37.3779 78.6401C37.5454 78.7195 37.7794 78.821 37.9633 78.8318C38.0431 78.8365 38.1807 78.9042 38.2645 78.9311C38.376 78.9669 38.5051 78.9768 38.6103 79.0236C38.8469 79.1287 39.1272 79.1427 39.3737 79.2324C39.9361 79.4369 40.5707 79.37 41.1435 79.5336C41.657 79.6803 42.2106 79.7347 42.7388 79.8554C43.8013 80.0983 44.8937 80.0026 45.9755 80.0026C47.2333 80.0026 48.4888 80.0582 49.7172 79.7852C49.8982 79.745 50.1033 79.6734 50.2871 79.6637C50.5901 79.6478 50.8836 79.5245 51.1806 79.5097C51.3877 79.4993 51.5683 79.3776 51.766 79.3556C51.8375 79.3477 51.9464 79.2857 52.0125 79.2563C52.0807 79.226 52.1814 79.2205 52.235 79.1776C52.3474 79.0877 52.5572 79.0519 52.6903 78.9927C52.8202 78.935 53.0034 78.9449 53.1148 78.8558C53.2848 78.7198 53.6959 78.6693 53.7994 78.4621" stroke="black" stroke-linecap="round"/>
<path d="M47.2656 32.1289C47.4578 32.2122 47.6986 32.394 47.8977 32.4509C48.0284 32.4883 48.1333 32.619 48.2557 32.6869C48.5027 32.8242 48.7203 33.0595 48.9757 33.173C49.0865 33.2222 49.1431 33.3399 49.2457 33.397C49.3303 33.444 49.4589 33.5462 49.5258 33.613C49.6925 33.7798 49.9429 33.9817 50.1458 34.101C50.3615 34.2279 50.4952 34.3504 50.6678 34.5231C50.7722 34.6274 50.8536 34.7448 50.9558 34.8471C51.0706 34.9618 51.1516 35.1413 51.2799 35.2411C51.6126 35.4999 51.8025 35.9679 51.9999 36.3232C52.2467 36.7675 52.3203 37.2861 52.5499 37.7452C52.6439 37.9332 52.687 38.1504 52.792 38.3393C52.9027 38.5387 53.0111 38.7675 53.06 38.9873C53.142 39.3566 53.382 39.7343 53.538 40.0854C53.7147 40.4829 53.8983 40.9099 54.098 41.3095C54.2181 41.5495 54.2838 41.8217 54.3241 42.0835C54.3671 42.3632 54.5141 42.6146 54.5721 42.8756C54.6092 43.0427 54.7822 43.3752 54.8981 43.5056C55.0588 43.6863 55.1548 43.9853 55.3661 44.1096C55.5229 44.2018 55.6341 44.38 55.7801 44.4937C55.9266 44.6075 56.1102 44.7417 56.2302 44.8917C56.3903 45.0919 56.647 45.1888 56.8622 45.3257C57.1058 45.4807 57.3542 45.6139 57.5802 45.7897C58.0932 46.1887 58.6407 46.629 59.2183 46.9178C59.7323 47.1748 60.2913 47.3746 60.8204 47.6098C61.094 47.7314 61.4686 47.8758 61.7665 47.8979C62.0169 47.9164 62.2433 48.0779 62.4945 48.0779C62.8209 48.0779 63.162 48.2219 63.4946 48.2219C63.7133 48.2219 65.2901 48.952 65.5088 48.952" stroke="black" stroke-linecap="round"/>
<path d="M50.2891 32.5273C51.0315 32.8873 51.8466 33.1075 52.6472 33.2854C53.0619 33.3775 53.4163 33.6042 53.8333 33.7154C54.095 33.7852 54.4205 33.8961 54.6533 34.0394C54.8539 34.1629 55.0872 34.3187 55.3094 34.3995C55.825 34.587 56.2788 34.9532 56.7335 35.2455C57.195 35.5422 57.5757 35.9256 57.8675 36.3796C58.0345 36.6393 58.1793 36.912 58.3536 37.1636C58.4737 37.3372 58.632 37.5145 58.7316 37.6937C58.8332 37.8766 58.9806 38.034 59.0816 38.2157C59.2145 38.4549 59.3378 38.7013 59.4516 38.9517C59.6483 39.3845 59.8318 39.8209 60.0277 40.2518C60.1031 40.4177 60.1441 40.6274 60.1897 40.8098C60.2323 40.9802 60.2901 41.2575 60.3977 41.3919C60.5044 41.5253 60.5694 41.8079 60.6217 41.9779C60.7042 42.2462 60.787 42.5331 60.9017 42.788C61.0749 43.1729 61.2208 43.5259 61.4497 43.876C61.7012 44.2607 61.8723 44.7386 62.1978 45.0641C62.2656 45.1319 62.3274 45.2594 62.3698 45.3441C62.4289 45.4623 62.5964 45.6228 62.6918 45.7181C62.8558 45.8821 63.0698 46.0829 63.1858 46.2802C63.3025 46.4785 63.5316 46.6002 63.6459 46.8002C63.7373 46.9603 63.91 47.1204 64.0419 47.2522C64.1973 47.4077 64.3215 47.6077 64.4919 47.7403C64.5882 47.8151 64.6477 47.9501 64.7339 48.0363C64.7935 48.0959 64.8891 48.1525 64.9339 48.2243C65.1061 48.4997 65.3773 48.7153 65.554 48.9803" stroke="black" stroke-linecap="round"/>
<path d="M28.1173 42.8203C28.1173 42.9667 27.96 45.2883 27.9169 45.4281C27.8794 45.5503 27.8663 45.6804 27.8389 45.8036C27.7612 46.1533 27.5929 46.4883 27.4781 46.8327C27.4474 46.9248 27.3796 47.0071 27.3588 47.1008C27.3375 47.1964 27.248 47.2762 27.2137 47.3688C27.1404 47.5669 27.0162 47.7548 26.9218 47.9435C26.8291 48.1288 26.7487 48.3191 26.6556 48.5053C26.6132 48.5901 26.566 48.6756 26.5161 48.7568C26.489 48.8008 26.4627 48.8854 26.4004 48.8854" stroke="black" stroke-linecap="round"/>
<path d="M26.4417 49.2891C26.4775 49.437 26.5314 49.5972 26.5941 49.7389C26.637 49.836 26.7061 49.94 26.7061 50.0492C26.7061 50.1062 26.7197 50.1886 26.7354 50.2438C26.7617 50.3358 26.7556 50.448 26.7556 50.5449C26.7556 50.687 26.7722 50.8303 26.7722 50.9745C26.7722 51.0902 26.7722 51.2059 26.7722 51.3215C26.7722 51.4249 26.7791 51.55 26.752 51.6483C26.7223 51.756 26.7122 51.9047 26.7061 52.0155C26.7008 52.1094 26.673 52.2029 26.673 52.2974C26.673 52.4734 26.64 52.6425 26.64 52.817C26.64 52.9002 26.6158 52.968 26.639 53.0492C26.6588 53.1185 26.6442 53.2322 26.64 53.3044C26.6357 53.3775 26.5934 53.4612 26.5904 53.5394C26.5874 53.6169 26.5424 53.747 26.5114 53.8167C26.4731 53.903 26.4539 54.0105 26.4215 54.1013C26.3956 54.1737 26.3601 54.2401 26.3343 54.3124C26.3224 54.3455 26.3121 54.4227 26.2847 54.4446C26.2307 54.4878 26.2056 54.6371 26.1773 54.7007C26.1523 54.7569 26.132 54.8873 26.0864 54.9238C26.061 54.9442 26.048 55.0431 26.0286 55.0762C25.9725 55.1718 25.9383 55.2862 25.8881 55.3865C25.8162 55.5302 25.7842 55.7007 25.7063 55.8409C25.6423 55.9561 25.6002 56.0889 25.5163 56.2053C25.3838 56.3894 25.3139 56.6106 25.1932 56.8002C24.9658 57.1575 24.7481 57.5342 24.5579 57.9147C24.4805 58.0694 24.403 58.2251 24.3229 58.3773C24.283 58.4531 24.2316 58.5578 24.1742 58.6215C23.989 58.8273 23.8294 59.12 23.7152 59.3771C23.5701 59.7035 23.4084 60.03 23.2525 60.3529C23.1937 60.4747 23.1437 60.6009 23.0873 60.7238C23.0568 60.7901 23.0487 60.8659 23.0129 60.9303C22.9832 60.9838 22.9551 61.0927 22.9551 61.1534" stroke="black" stroke-linecap="round"/>
<path d="M23.0213 60.957C23.0097 61.2471 22.8621 61.5103 22.7863 61.7832C22.7535 61.9013 22.6879 62.0205 22.633 62.1302C22.6016 62.1931 22.5475 62.3116 22.5421 62.3818C22.5372 62.4465 22.4929 62.5489 22.4669 62.6085C22.4207 62.714 22.3785 62.8286 22.3475 62.9399C22.336 62.9812 22.3317 63.1479 22.3025 63.1713C22.272 63.1957 22.3022 63.3024 22.2906 63.3402C22.2628 63.4306 22.2746 63.5325 22.2603 63.6257C22.245 63.7252 22.2167 63.831 22.2117 63.9314C22.2033 64.0977 22.1786 64.2597 22.1786 64.4271C22.1786 64.6876 22.1091 64.9456 22.0804 65.2037C22.0413 65.5551 21.9803 65.8806 21.9803 66.2356C21.9803 66.6213 21.9473 67.0152 21.9473 67.4024C21.9473 67.6141 21.9473 67.8259 21.9473 68.0376C21.9473 68.1092 21.9563 68.1957 21.9766 68.2644C22.0012 68.3471 21.9856 68.4533 22.0216 68.5324C22.0783 68.6572 22.0842 68.8152 22.1134 68.9465C22.1404 69.0679 22.1951 69.1958 22.1951 69.3182" stroke="black" stroke-linecap="round"/>
<path d="M22.1934 69.2031C22.3064 69.5 22.4507 69.831 22.4743 70.1487C22.4849 70.2919 22.551 70.4502 22.5863 70.5912C22.6374 70.7955 22.6963 71.0292 22.7056 71.2393C22.7144 71.4379 22.7571 71.679 22.8176 71.8672C22.842 71.943 22.8554 72.02 22.8791 72.0958C22.9016 72.1678 22.9476 72.2463 22.9535 72.3225C22.9662 72.4884 23.0563 72.6615 23.0985 72.8219C23.1586 73.0503 23.2252 73.2835 23.2674 73.5159C23.3471 73.954 23.4795 74.381 23.631 74.7975C23.6861 74.949 23.7748 75.0926 23.854 75.2335C23.9468 75.3984 24.0186 75.5933 24.1267 75.7476C24.2156 75.8746 24.265 76.0223 24.3415 76.1561C24.4398 76.3281 24.5228 76.5088 24.6224 76.6803C24.893 77.1464 25.0508 77.6757 25.2916 78.1574C25.4263 78.4267 25.5549 78.6983 25.68 78.9726C25.7917 79.2176 25.9192 79.4801 25.9691 79.7464C26.0152 79.9924 26.0598 80.238 26.0967 80.4854C26.1192 80.6361 26.1757 80.7994 26.1757 80.9518" stroke="black" stroke-linecap="round"/>
<path d="M26.1602 80.3398C26.2093 80.5691 26.3835 80.7627 26.4255 80.9935C26.4579 81.172 26.4834 81.3757 26.5402 81.5461" stroke="black" stroke-linecap="round"/>
<path d="M26.4902 81.2148C26.5375 81.3921 26.6832 81.5385 26.7381 81.717C26.7547 81.7709 26.7768 81.8223 26.7959 81.8758C26.8091 81.9126 26.8538 81.9817 26.8538 82.0163C26.8538 82.0976 26.9495 82.195 26.9685 82.2807C26.9888 82.372 27.0313 82.4962 27.0768 82.5781C27.1747 82.7543 27.2105 82.9805 27.3082 83.1564C27.3956 83.3138 27.4646 83.481 27.5138 83.6531C27.5672 83.8401 27.709 84.0162 27.7452 84.2149C27.7549 84.2688 27.7774 84.348 27.8039 84.3957C27.8234 84.4309 27.8225 84.5115 27.8535 84.5362C27.8722 84.5512 27.8908 84.6507 27.8957 84.6776C27.9113 84.7634 27.9413 84.8515 27.9701 84.9337C28.0717 85.224 28.1673 85.5045 28.2914 85.7838C28.3575 85.9325 28.451 86.077 28.53 86.2207C28.5952 86.3393 28.6574 86.4709 28.7127 86.5944C28.7932 86.7738 28.9012 86.9411 28.9771 87.1222C29.129 87.4844 29.3153 87.8139 29.5839 88.0926C29.6569 88.1682 29.7023 88.2712 29.7749 88.3496C29.8221 88.4006 29.872 88.4785 29.9107 88.5387C30.0426 88.7439 30.201 88.9322 30.3404 89.1336C30.5813 89.4816 30.912 89.7433 31.2161 90.0387C31.3684 90.1866 31.559 90.3178 31.6917 90.4849C31.8845 90.7277 32.1348 90.9447 32.3526 91.1661C32.5793 91.3964 32.8069 91.6314 33.0209 91.8692C33.0642 91.9173 33.1326 91.9522 33.1862 91.9886C33.2995 92.0654 33.4342 92.112 33.546 92.1905C33.7322 92.3214 33.9564 92.4145 34.1281 92.5633C34.2321 92.6534 34.375 92.713 34.4879 92.7946C34.5567 92.8443 34.6444 92.8802 34.7193 92.9176C34.8006 92.9583 34.8777 93.0043 34.9506 93.059C35.0751 93.1524 35.2196 93.2189 35.3435 93.3105C35.5405 93.4561 35.7746 93.5406 35.9751 93.6777C36.1213 93.7778 36.2871 93.8668 36.4414 93.955C36.5792 94.0337 36.7238 94.1413 36.8711 94.1992C36.9626 94.2351 37.0709 94.3681 37.1648 94.3681" stroke="black" stroke-linecap="round"/>
<path d="M37.1152 94.384C37.2796 94.4366 37.4347 94.5209 37.5816 94.6153C37.7343 94.7135 37.9622 94.8446 38.1397 94.8925C38.2231 94.9151 38.3434 94.9674 38.4124 95.0211C38.5054 95.0934 38.6383 95.1325 38.7475 95.1771C38.8441 95.2166 38.9363 95.2647 39.032 95.302C39.1608 95.3521 39.3058 95.3884 39.4286 95.4498C39.6325 95.5517 39.8832 95.6398 40.1061 95.6894C40.4022 95.7552 40.6867 95.8539 40.9782 95.9372C41.248 96.0143 41.525 96.1136 41.8081 96.119C41.9731 96.1222 42.1375 96.152 42.3038 96.152C42.4302 96.152 42.5678 96.1363 42.6931 96.153C43.0091 96.1951 43.3393 96.2016 43.6588 96.2016C44.0274 96.2016 44.369 96.1378 44.7246 96.0456C45.336 95.8871 45.9669 95.7903 46.567 95.5902C46.7631 95.5249 46.9383 95.4115 47.1289 95.3341C47.3121 95.2597 47.4976 95.1578 47.6705 95.0615C47.832 94.9714 47.9866 94.868 48.1607 94.8053C48.2891 94.7591 48.4054 94.689 48.5252 94.6245C48.7378 94.51 48.976 94.4353 49.1944 94.3261C49.3601 94.2433 49.5664 94.1646 49.6736 94.0039" stroke="black" stroke-linecap="round"/>
<path d="M49.7227 94.0453C49.9616 93.9593 50.156 93.8339 50.3686 93.7157C50.562 93.6083 50.7741 93.5162 50.9414 93.3656C51.1616 93.1674 51.4769 93.0821 51.6869 92.872C51.7857 92.7732 51.9205 92.6948 52.0297 92.6098C52.1456 92.5197 52.2841 92.4084 52.412 92.3374C52.7005 92.1771 52.9712 91.9291 53.2835 91.7925C53.659 91.6282 53.9801 91.3552 54.3162 91.1187C54.6507 90.8833 54.9516 90.5995 55.2874 90.3687C55.5504 90.1879 55.7903 89.9751 56.0505 89.7872C56.2554 89.6392 56.4382 89.4217 56.6569 89.2994C56.8549 89.1888 57.0049 88.9837 57.1842 88.8453C57.4431 88.6456 57.7162 88.4247 57.9474 88.1935C58.3076 87.8333 58.6764 87.4908 59.0357 87.1315C59.7755 86.3918 60.5997 85.7055 61.4292 85.0603C61.6877 84.8593 61.9329 84.6496 62.1938 84.4539C62.4709 84.2461 62.7421 84.0331 63.0126 83.8167C63.6013 83.3458 64.269 82.953 64.804 82.4179C65.1665 82.0554 65.5652 81.7358 65.9261 81.375C66.1058 81.1952 66.2973 81.0301 66.4783 80.8491C66.6506 80.6768 66.795 80.4797 66.966 80.3086" stroke="black" stroke-linecap="round"/>
<path d="M66.8867 80.4402C66.9039 80.383 66.9752 80.3705 67.0127 80.3288C67.0541 80.2828 67.081 80.222 67.124 80.1765C67.1716 80.1263 67.2878 80.0186 67.3071 79.9509C67.3652 79.7474 67.6754 79.5715 67.789 79.3855C67.8233 79.3294 67.9001 79.2918 67.9414 79.2332C67.9931 79.1597 68.0724 79.1091 68.1259 79.0369C68.2251 78.903 68.3632 78.7791 68.4819 78.6604C68.6948 78.4475 68.9029 78.2046 69.0751 77.9559C69.6096 77.1838 70.1204 76.3863 70.5516 75.5478C70.7832 75.0974 71.0514 74.6695 71.2107 74.1914" stroke="black" stroke-linecap="round"/>
<path d="M36.3199 31.7695C36.1582 31.7695 36.0308 31.9102 35.9159 32.0135C35.7813 32.1346 35.5771 32.2981 35.4038 32.3476C35.2919 32.3795 34.971 32.5325 34.9078 32.6336C34.7852 32.8297 34.4109 32.8687 34.2678 33.0476C34.201 33.1311 34.0465 33.1441 33.9798 33.2276C33.9236 33.2978 33.8054 33.3719 33.7277 33.4176C33.5512 33.5215 33.2772 33.6827 33.1517 33.8397C33.0424 33.9763 32.7971 34.1378 32.6477 34.2257C32.5384 34.29 32.4161 34.3982 32.3237 34.4857C32.2516 34.5539 31.9919 34.7218 31.9656 34.8137C31.9197 34.9746 31.7642 35.1587 31.6756 35.3137C31.6353 35.3844 31.5882 35.4507 31.5656 35.5298C31.543 35.6091 31.3968 35.6873 31.3876 35.7658C31.378 35.8472 31.2839 35.9854 31.2356 36.0458C31.1677 36.1307 31.1299 36.2395 31.0456 36.3238C30.8794 36.49 30.789 36.7804 30.6236 36.9458C30.5882 36.9812 30.4939 37.155 30.4875 37.2059C30.4827 37.2443 30.4257 37.4353 30.3975 37.4579C30.3341 37.5086 30.355 37.6575 30.2895 37.7099C30.2453 37.7453 30.1889 37.9344 30.1555 37.9979C29.9992 38.2948 29.8403 38.5869 29.6775 38.88C29.5777 39.0596 29.5181 39.3177 29.3995 39.466C29.2758 39.6206 29.0115 39.9559 29.0115 40.158C29.0115 40.2777 28.9111 40.656 28.8134 40.7341C28.6928 40.8306 28.6046 41.1075 28.5354 41.2381C28.4342 41.4293 28.3421 41.6437 28.2374 41.8321C28.1168 42.0493 27.9655 42.372 27.7954 42.5422C27.6563 42.6813 27.6099 42.8897 27.5174 43.0562C27.3153 43.4199 27.2405 43.8365 26.9793 44.1723C26.8866 44.2915 26.8562 44.4489 26.7633 44.5683C26.7085 44.6387 26.6361 44.7374 26.5993 44.8203C26.4999 45.0439 26.2891 45.2354 26.1753 45.4504C25.8382 46.0871 25.2527 46.6162 24.9352 47.2865C24.7524 47.6724 24.4082 48.0218 24.1232 48.3385C23.9727 48.5058 23.7891 48.675 23.6471 48.8526C23.555 48.9678 23.346 49.0769 23.2871 49.1946" stroke="black" stroke-linecap="round"/>
<path d="M15.125 59.5841C15.4968 59.439 15.6689 59.0486 16.0175 58.8549C16.1636 58.7738 18.2543 57.1857 18.4104 57.099C18.5491 57.0219 18.7115 56.8792 18.8624 56.8289C19.2216 56.7092 19.4101 56.3275 19.7244 56.1529C19.9251 56.0414 20.0741 55.8043 20.2285 55.6409C20.4148 55.4435 20.6178 55.2619 20.8045 55.0648C21.1704 54.6786 21.4501 54.2179 21.7246 53.7688C22.0523 53.2325 22.1672 52.6235 22.4406 52.0767C22.5113 51.9352 22.5666 51.7588 22.6046 51.6066C22.6417 51.4584 22.7371 51.2983 22.7486 51.1486C22.7645 50.9425 22.8906 50.6986 22.9566 50.5006C23.0499 50.2207 23.1843 49.9509 23.2807 49.6725C23.3347 49.5164 23.4332 49.0522 23.5767 48.9805" stroke="black" stroke-linecap="round"/>
<path d="M15.043 59.6351C15.1714 59.6065 15.3964 59.3193 15.475 59.221C15.6028 59.0613 15.7321 58.9352 15.835 58.755C16.0678 58.3477 16.3252 57.9651 16.5191 57.5289C16.625 57.2907 16.7399 57.0616 16.8511 56.8269C17.0004 56.5117 17.0974 56.1709 17.2471 55.8548C17.4063 55.5187 17.4089 55.1456 17.5191 54.8028C17.5777 54.6206 17.5054 54.3853 17.5811 54.2187C17.6272 54.1175 17.6311 53.8717 17.6351 53.7587C17.6517 53.2937 17.7791 52.8304 17.7791 52.3646C17.7791 51.9979 17.7791 51.6312 17.7791 51.2646C17.7791 50.6258 17.8151 49.9954 17.8151 49.3544C17.8151 48.7241 17.7791 48.0928 17.7791 47.4683C17.7791 46.7625 17.6527 46.0449 17.5651 45.3442C17.5105 44.907 17.4318 44.4894 17.4191 44.0461C17.4133 43.8419 17.3471 43.638 17.3471 43.4341C17.3471 43.3288 17.3452 43.0968 17.3031 43.0021C17.2608 42.907 17.2391 42.6921 17.2391 42.586C17.2391 42.4845 17.2364 42.2669 17.1951 42.174C17.1137 41.9908 17.1311 41.7299 17.1311 41.526C17.1311 41.1059 17.1311 40.6859 17.1311 40.2659C17.1311 40.0371 17.159 39.8179 17.1671 39.5899C17.1717 39.4623 17.1677 39.1794 17.2211 39.0618C17.2642 38.967 17.2713 38.7431 17.2751 38.6378C17.2817 38.4539 17.2743 38.2112 17.3291 38.0358C17.3831 37.863 17.3391 37.6614 17.3911 37.4857C17.4479 37.2942 17.447 37.0804 17.4911 36.8817C17.6495 36.1691 17.8133 35.5024 18.0752 34.8216C18.1807 34.5471 18.3702 34.3562 18.5072 34.1095C18.6032 33.9366 18.7454 33.7853 18.8432 33.6075C18.9487 33.4157 19.0657 33.2372 19.1832 33.0575C19.3951 32.7335 19.6256 32.4239 19.8593 32.1094C20.0816 31.8101 20.3409 31.5253 20.5513 31.2213C20.7344 30.9568 21.0409 30.7597 21.2633 30.5373C21.3783 30.4223 21.6102 30.1133 21.7754 30.1133" stroke="black" stroke-linecap="round"/>
<path d="M21.377 30.4063C21.4889 30.3068 22.1063 29.9541 22.2268 29.8774C22.3755 29.7828 22.4597 29.7604 22.631 29.6454C23.0712 29.3499 23.8269 28.8814 23.8269 28.8814C23.8269 28.8814 24.458 28.2787 24.817 28.0793C25.127 27.9071 25.4021 27.7164 25.743 27.5853C26.2261 27.3995 27.1931 26.9812 27.1931 26.9812L28.5792 26.4772L31.3514 26.1172L34.5556 26.1532C34.5556 26.1532 35.4396 26.4014 35.8676 26.4792C36.1105 26.5234 36.6077 26.6852 36.6077 26.6852C36.6077 26.6852 36.9585 26.8562 37.1117 26.8732C37.3311 26.8976 37.8318 27.1072 37.8318 27.1072C37.8318 27.1072 38.4061 27.2664 38.6418 27.3933C39.0743 27.6262 39.58 27.7344 39.9999 27.9893C40.239 28.1344 40.4903 28.2501 40.7279 28.4013C40.927 28.528 41.0533 28.7219 41.236 28.8714C41.4079 29.012 41.6058 29.1263 41.756 29.2854C41.8549 29.3901 41.9227 29.5847 42.044 29.6454" stroke="black" stroke-linecap="round"/>
<path d="M28.6875 25.253C29.2543 25.0839 29.7938 24.7265 30.2536 24.3689C30.4895 24.1854 30.7774 24.0815 31.0096 23.9009C31.1323 23.8055 31.3399 23.7296 31.4877 23.6769C31.6633 23.6141 31.8211 23.5039 31.9997 23.4529C32.2029 23.3948 32.3809 23.2566 32.5757 23.1808C32.7566 23.1105 33.1158 22.9408 33.1158 22.9408C33.1158 22.9408 33.8625 22.7509 34.2318 22.6688C34.6347 22.5793 35.4559 22.5088 35.4559 22.5088L36.924 22.3368L38.1921 22.3008L39.5082 22.5188C39.5082 22.5188 40.5451 22.6995 41.0382 22.8228C41.5314 22.9461 42.0519 23.0561 42.6543 23.3288C43.1242 23.5415 43.4295 23.7573 43.8004 23.9849C43.8004 23.9849 44.4087 24.2711 44.6285 24.4689C44.8233 24.6443 45.0218 24.8102 45.2125 25.0009C45.3968 25.1853 45.8245 25.613 45.8245 25.613" stroke="black" stroke-linecap="round"/>
<path d="M51.7363 32.0038C52.2599 31.9527 52.7755 32.0777 53.2785 32.2349C53.6125 32.3392 54.0068 32.3454 54.3175 32.5276C54.6743 32.7367 55.155 32.8388 55.5567 32.9281C56.0052 33.0277 56.4816 33.2168 56.9055 33.3902C57.3817 33.585 57.8786 33.7364 58.3313 33.991C58.7215 34.2105 59.0803 34.4556 59.4387 34.7219C59.6103 34.8494 59.8049 34.9704 59.9865 35.0848C60.1716 35.2013 60.3901 35.2652 60.565 35.4083C60.8764 35.663 61.1675 35.9664 61.4961 36.1939C61.6463 36.2979 61.7392 36.4868 61.8659 36.6184C62.0158 36.7741 62.1835 36.9052 62.3366 37.0583C62.7299 37.4517 63.0819 37.8795 63.4817 38.265C63.802 38.5739 64.093 38.8871 64.382 39.2287C64.6802 39.5811 64.9019 39.9809 65.2241 40.3155C65.5794 40.6845 66.0098 41.0663 66.1997 41.5548C66.3732 42.0007 66.5003 42.4589 66.6414 42.9173C66.7354 43.2228 66.8251 43.5214 66.8947 43.8347C66.9695 44.1715 67.1103 44.4722 67.1103 44.8206" stroke="black" stroke-linecap="round"/>
<path d="M67.0488 44.3555C67.0695 44.6653 67.241 44.9398 67.3022 45.2387C67.364 45.541 67.4745 45.8383 67.5127 46.1441C67.5769 46.6581 67.8499 47.1412 67.8499 47.6675C67.8499 48.1145 67.8807 48.5816 67.8807 49.0385C67.8807 49.4947 67.8191 49.9383 67.8191 50.3942C67.8191 50.6899 67.7822 51.0392 67.7284 51.3356C67.6568 51.7291 67.7266 52.1965 67.7266 52.5971C67.7266 53.0274 67.7883 53.4622 67.7883 53.8996C67.7883 54.3187 67.8191 54.744 67.8191 55.1697" stroke="black" stroke-linecap="round"/>
<path d="M67.7871 54.7383C67.7994 54.8522 67.7707 55.1031 67.8333 55.2158C67.8609 55.2654 67.8775 55.3984 67.8795 55.4537C67.8856 55.6183 67.9412 55.7915 67.9412 55.9553C67.9412 56.1679 67.9948 56.3735 68.0028 56.58C68.0069 56.6879 68.0275 56.9086 68.0798 57.0028C68.1561 57.1402 68.1833 57.4774 68.1876 57.6344C68.1953 57.9113 68.2493 58.1911 68.2493 58.4662C68.2493 58.6766 68.2801 58.8738 68.2801 59.0824C68.2801 59.2373 68.3417 59.3927 68.3417 59.5446C68.3417 59.919 68.4851 60.2805 68.4957 60.6537C68.5101 61.1561 68.6316 61.6624 68.6498 62.1703C68.6572 62.379 68.7422 62.5891 68.7422 62.795C68.7422 63.0285 68.805 63.2911 68.8586 63.519C68.9019 63.703 68.9362 63.8883 68.9596 64.0753C68.971 64.1663 69.0086 64.6227 69.0811 64.659" stroke="black" stroke-linecap="round"/>
<path d="M69.0508 64.5078C69.1578 65.163 69.5187 65.785 69.7354 66.4112C69.8409 66.716 69.9311 67.0533 69.9768 67.3731C69.9908 67.4713 70.0359 67.6736 70.0829 67.7582C70.1344 67.8508 70.124 67.9854 70.1668 68.0817C70.3066 68.3963 70.2454 68.777 70.3602 69.0985C70.4057 69.2258 70.4372 69.4392 70.4372 69.5743C70.4372 69.7496 70.4912 69.9652 70.5228 70.1391C70.5561 70.3223 70.5453 70.5154 70.5981 70.6937C70.6369 70.8248 70.6121 70.9912 70.6683 71.1148C70.7327 71.2564 70.7082 71.4643 70.7522 71.618C70.8032 71.7968 70.8462 71.9941 70.8668 72.1794C70.8965 72.4462 70.8886 72.7337 70.9456 72.9959C70.9876 73.1892 71.0459 73.4248 71.0534 73.6206C71.0661 73.9502 71.2658 74.256 71.3615 74.5672C71.4492 74.8521 71.6723 75.0808 71.7689 75.3597C71.8519 75.5994 72.014 75.832 72.0684 76.0768C72.1349 76.3759 72.3354 76.6553 72.433 76.9481C72.5432 77.2787 72.7269 77.6752 72.9174 77.9716C73.0194 78.1303 73.1053 78.3005 73.2255 78.4475C73.3192 78.562 73.3586 78.718 73.4566 78.8343C73.5516 78.9471 73.6096 79.1232 73.6893 79.2485C73.737 79.3234 73.8155 79.5067 73.8879 79.5429" stroke="black" stroke-linecap="round"/>
<path d="M74.2353 79.5746C74.2495 79.4716 74.2603 79.3765 74.2567 79.2718C74.2549 79.2179 74.2401 79.1619 74.2329 79.1084C74.2274 79.0676 74.2232 79.0051 74.2114 78.9654C74.1898 78.8926 74.1943 78.809 74.1923 78.7329C74.1883 78.5775 74.1602 78.4238 74.1602 78.268C74.1602 77.9204 74.2048 77.5801 74.2436 77.2355C74.288 76.8418 74.3272 76.4462 74.3771 76.0529C74.4016 75.8604 74.4368 75.6686 74.4582 75.4758C74.4872 75.2152 74.5656 74.9611 74.5977 74.7009C74.6109 74.5937 74.6389 74.4864 74.6645 74.3814C74.6864 74.291 74.7043 74.2008 74.7288 74.1108C74.7838 73.9092 74.8284 73.7043 74.879 73.5016C74.9805 73.0959 75.1144 72.6875 75.2975 72.3106C75.3723 72.1565 75.4437 71.9887 75.5014 71.8277C75.5275 71.7548 75.5691 71.6877 75.5979 71.6155C75.6158 71.571 75.6479 71.5275 75.6623 71.4844" stroke="black" stroke-linecap="round"/>
<path d="M75.7695 71.5057C75.7929 71.4241 75.8683 71.3464 75.9066 71.2697C75.9389 71.2051 75.9599 71.1287 75.9847 71.0604C76.0196 70.9647 76.0859 70.8716 76.1022 70.7701C76.1218 70.6474 76.1857 70.5221 76.2309 70.4065C76.3087 70.2075 76.3877 70.0057 76.4539 69.8021C76.4857 69.7042 76.5024 69.6007 76.5313 69.5017C76.5547 69.4216 76.5843 69.3401 76.5957 69.2573C76.6154 69.1147 76.6786 68.9736 76.7292 68.84C76.7861 68.6902 76.83 68.5289 76.8747 68.375C76.9586 68.0862 77.0857 67.809 77.1698 67.5196C77.2803 67.1388 77.4234 66.7592 77.5829 66.396C77.6668 66.2049 77.7366 66.009 77.8165 65.8166C77.875 65.6759 77.8998 65.5217 77.953 65.3796C77.9782 65.3126 77.9874 65.2436 78.0067 65.1752C78.0255 65.1084 78.0531 65.0438 78.0705 64.9767C78.0969 64.8747 78.1151 64.7544 78.1623 64.6602" stroke="black" stroke-linecap="round"/>
<path d="M78.121 64.6088C78.2516 64.3395 78.1538 64.0074 78.2416 63.7221C78.3159 63.4808 78.2423 63.1865 78.3374 62.9489C78.3975 62.7987 78.3805 62.6031 78.4332 62.4452C78.4831 62.2953 78.5427 62.1487 78.5928 61.9983C78.715 61.6316 78.8552 61.23 78.8552 60.8421C78.8552 60.6208 78.9546 60.3469 78.9989 60.1256C79.0621 59.8094 79.1274 59.4841 79.1744 59.1662C79.2673 58.5393 79.366 57.9002 79.366 57.2669C79.366 56.1476 79.4937 55.0264 79.4937 53.908C79.4937 53.376 79.4937 52.844 79.4937 52.312C79.4937 52.0805 79.5003 51.8481 79.4937 51.6168C79.4888 51.4482 79.4914 51.2076 79.4546 51.0422C79.4058 50.8223 79.4226 50.5945 79.3731 50.3718C79.3275 50.1666 79.3524 49.9271 79.295 49.7263C79.1622 49.2615 79.134 48.7556 79.0308 48.281C78.921 47.776 78.8005 47.276 78.614 46.7966C78.4284 46.3193 78.2245 45.8307 78.1068 45.3265C77.9839 44.7994 77.7913 44.3135 77.5305 43.8439C77.4153 43.6366 77.1953 43.3356 77.1953 43.0938" stroke="black" stroke-linecap="round"/>
<path d="M77.2348 43.4415C77.1079 42.7221 76.6897 41.7628 76.2161 41.2004C75.9647 40.9018 75.8221 40.4744 75.6304 40.1336C75.4598 39.8304 75.317 39.4635 75.1974 39.1347C74.9264 38.3895 74.4024 37.7175 74.0373 37.0238C73.9004 36.7638 73.6342 36.5499 73.5166 36.2852C73.3931 36.0073 73.1714 35.7501 72.9818 35.5184C72.7061 35.1814 72.4436 34.8229 72.1923 34.4658C71.9328 34.097 71.5842 33.7912 71.3264 33.4188C71.0921 33.0803 70.7503 32.7808 70.4832 32.4652C70.2579 32.1989 70.0373 31.9027 69.7758 31.6785C69.5371 31.4739 69.3273 31.1957 69.0967 30.9739C68.8829 30.7685 68.6376 30.6167 68.4232 30.4024C67.9753 29.9545 67.54 29.5127 67.0225 29.1545C66.8733 29.0512 66.7215 28.948 66.5896 28.8234C66.5037 28.7423 66.3292 28.5704 66.2217 28.5291C65.9722 28.4331 65.7152 28.2617 65.469 28.1386C65.1953 28.0018 64.8957 27.8794 64.6031 27.7934C64.2045 27.6761 63.834 27.4185 63.4317 27.3067C62.6028 27.0765 61.8269 26.6898 60.9896 26.4804C60.2293 26.2903 59.4253 25.9711 58.6325 25.9711C57.558 25.9711 56.5071 25.8183 55.435 25.8183C54.3426 25.8183 53.2349 25.7674 52.1356 25.7674C51.7121 25.7674 51.2917 25.7516 50.8764 25.8155C50.5106 25.8717 50.1956 25.9828 49.8351 26.073C49.5248 26.1505 49.1604 26.3925 48.8645 26.4295C48.7077 26.4491 48.6122 26.8103 48.457 26.8879" stroke="black" stroke-linecap="round"/>
<path d="M60.2754 22.091C61.1401 22.091 61.9929 22.0156 62.8395 22.0156C63.8632 22.0156 65.0107 22.288 65.9692 22.6566C66.6609 22.9227 67.4016 23.104 68.0766 23.4108C68.4149 23.5646 69.0893 23.7193 69.3251 24.0141C69.4142 24.1254 69.7266 24.3419 69.853 24.4121C70.0316 24.5113 70.1934 24.6938 70.3432 24.8437C70.5992 25.0996 71.1295 25.3226 71.2859 25.6355" stroke="black" stroke-linecap="round"/>
<path d="M73.1387 28.0547C73.7896 28.3801 75.5256 29.4817 75.5256 29.4817L76.5479 30.0263L77.2601 30.6129C77.6068 30.8569 78.2824 31.3671 78.2824 31.3671C78.2824 31.3671 78.6393 31.7998 78.8857 31.9704C78.8857 31.9704 79.3422 32.4958 79.5058 32.7413L80.4862 33.7636L81.3912 35.0624C81.3912 35.0624 82.1823 35.5005 82.4217 36.0058" stroke="black" stroke-linecap="round"/>
<path d="M77.0234 68.6429C77.0234 68.5045 78.367 67.4877 78.4657 67.3643C78.527 67.2876 78.6036 67.0488 78.6442 66.9442C78.7916 66.5651 79.0059 66.1097 79.2534 65.7915C79.4773 65.5036 79.6707 65.1144 79.8731 64.7963C80.0613 64.5006 80.2935 64.1352 80.414 63.8038C80.5567 63.4115 80.8624 62.967 81.0993 62.6248C81.3893 62.206 81.6017 61.7532 81.8083 61.2988C82.0668 60.7301 82.1765 60.097 82.3728 59.508C82.598 58.8326 82.7567 58.061 82.8271 57.3575C82.8781 56.8478 83.0419 56.342 83.0608 55.8319C83.0709 55.5601 83.1584 55.2855 83.2 55.0153C83.239 54.7613 83.2602 54.4249 83.3549 54.1882C83.4456 53.9614 83.4207 53.6873 83.5098 53.4556C83.6001 53.2207 83.6487 52.9481 83.712 52.702C83.9032 51.9584 84.1281 51.2199 84.2792 50.4648C84.6246 48.7376 84.9041 47.0085 84.9041 45.2448C84.9041 43.7674 84.9041 42.2899 84.9041 40.8125" stroke="black" stroke-linecap="round"/>
<path d="M84.9244 40.8463C84.9361 40.8048 84.9992 40.6101 84.9622 40.5638C84.9023 40.489 84.8703 40.3575 84.836 40.2685C84.7804 40.1238 84.7876 39.9561 84.7605 39.807C84.727 39.6227 84.7036 39.4094 84.6389 39.2314C84.5856 39.085 84.5567 38.9124 84.5301 38.7594C84.5065 38.6233 84.4579 38.4894 84.4078 38.3613C84.3524 38.2199 84.3003 38.076 84.2446 37.9338C84.1845 37.7801 84.1148 37.6371 84.0475 37.4874C83.9118 37.1858 83.6388 36.9912 83.4357 36.7412C83.3543 36.641 83.2361 36.5471 83.1306 36.4746C83.0203 36.3988 82.9165 36.3066 82.8005 36.2344C82.6704 36.1535 82.5606 36.0478 82.45 35.9451C82.3856 35.8853 82.285 35.8121 82.2461 35.7344" stroke="black" stroke-linecap="round"/>
<path d="M72.8711 25.0054C73.3188 24.9651 73.7644 24.9708 74.2133 24.9708C74.4995 24.9708 74.7652 24.8828 75.0517 24.8669C75.734 24.829 76.3618 24.5543 77.042 24.4496C77.4661 24.3844 77.8745 24.1956 78.3035 24.142C78.78 24.0824 79.2621 23.9147 79.7246 23.7862C80.0952 23.6833 80.6013 23.5298 80.9014 23.2747C81.1975 23.023 81.6547 22.6978 81.7668 22.3055C81.8278 22.0918 82.0192 21.9153 82.0437 21.6825C82.0596 21.5314 82.1475 21.3932 82.1475 21.2344C82.1475 20.8107 82.2419 20.418 82.1802 19.9864C82.1262 19.6082 81.9866 19.3023 81.7514 18.9999C81.5503 18.7414 81.3805 18.4143 81.1014 18.2211C80.6703 17.9226 80.2705 17.5846 79.7669 17.3981C79.4353 17.2753 78.666 16.88 78.3186 16.8365M78.3186 16.8365C77.9561 16.7912 78.6854 16.8365 78.3186 16.8365Z" stroke="black" stroke-linecap="round"/>
<path d="M68.3718 21.822C68.6258 21.8061 68.8114 21.7031 69.0468 21.6508C69.2536 21.6048 69.4921 21.5605 69.6871 21.4681C70.0949 21.275 70.6332 21.2722 71.0717 21.172C71.4422 21.0873 71.8045 21.0135 72.1793 20.9143C72.6269 20.7958 73.0488 20.6194 73.4946 20.499C74.4797 20.2327 75.2466 19.4801 76.0637 18.9144C76.4294 18.6612 76.7538 18.3359 77.0675 18.0222C77.2235 17.8662 77.3711 17.7031 77.5271 17.5472C77.6514 17.4228 77.8383 17.2665 77.9251 17.1145C78.0077 16.9701 78.1876 16.7548 78.3059 16.6299C78.4248 16.5044 78.498 16.3657 78.602 16.2319C78.8175 15.9548 79.0629 15.619 79.2058 15.2973C79.5209 14.5884 79.7943 13.8122 79.7943 13.032C79.7943 12.2596 79.7597 11.4986 79.7597 10.7264C79.7597 10.0008 79.7182 9.33894 79.3443 8.56498C79.1772 8.21906 79.0719 8.022 78.8174 7.73425C78.6667 7.56393 78.5565 7.49359 78.3924 7.3362C78.246 7.19579 78.0213 6.97276 78.0213 6.97276C78.0213 6.97276 77.6983 6.72061 77.579 6.64393C77.4194 6.54135 77.2902 6.45744 77.0944 6.35741C76.481 6.04397 75.9706 5.99998 75.3983 5.87282C74.4363 5.65904 73.4778 5.48438 72.4831 5.48438C71.584 5.48438 70.5751 5.61024 69.7737 6.0555C69.4297 6.2466 69.0864 6.42929 68.7526 6.64393C68.4066 6.8663 68.1173 7.16429 67.7834 7.40543C66.9623 7.99843 66.1765 8.68474 65.6912 9.58608C65.2201 10.461 64.9734 11.4266 64.6162 12.3552C64.4987 12.6607 64.4837 12.9496 64.4278 13.257C64.3795 13.5227 64.4283 13.8377 64.3489 14.0955C64.3165 14.201 64.2651 14.4764 64.3912 14.5185" stroke="black" stroke-linecap="round"/>
<path d="M69.0995 6.24553C68.9562 5.89736 68.5851 5.55694 68.3534 5.25905C68.1331 4.97575 67.857 4.727 67.6458 4.43794C67.4333 4.14721 67.1076 3.92824 66.8304 3.70144C66.6899 3.58649 66.5317 3.4933 66.3824 3.38992C66.1725 3.2446 65.9303 3.20094 65.7074 3.0957C65.3974 2.94928 64.9574 2.88802 64.6171 2.88802C64.1482 2.88802 63.6788 2.86628 63.2152 2.85341C62.7494 2.84047 62.2813 2.85341 61.8153 2.85341C61.4306 2.85341 61.0861 2.989 60.7077 3.06109C60.2525 3.14779 59.7675 3.30426 59.3539 3.51106C59.0201 3.67799 58.699 3.938 58.3501 4.06488C58.1441 4.1398 57.9716 4.28753 57.7828 4.39371C57.6424 4.47268 57.5349 4.60539 57.4002 4.68023C57.2801 4.74696 57.186 4.86749 57.0886 4.96483C56.9649 5.08861 56.8122 5.17999 56.6906 5.31097C56.4785 5.53939 56.2685 5.78503 56.0502 6.00324C55.8362 6.21728 55.712 6.53145 55.5657 6.79166C55.4765 6.95013 55.3234 7.18988 55.3234 7.37047C55.3234 7.54404 55.1605 7.78008 55.0888 7.9416C55.0164 8.10446 54.8146 8.35288 54.8042 8.53003C54.7921 8.7347 54.6441 8.92992 54.5984 9.13576C54.5459 9.37192 54.4857 9.59985 54.4311 9.84534C54.356 10.1834 54.3136 10.5309 54.2523 10.8684C54.1993 11.1595 54.1207 11.4853 54.1119 11.7837C54.1029 12.0878 54.0427 12.3883 54.0427 12.701C54.0427 12.9589 54.0283 13.2222 54.0427 13.4798C54.0545 13.6923 54.126 13.9694 54.1984 14.172C54.256 14.3332 54.3249 14.4865 54.3811 14.6489C54.4246 14.7746 54.4462 14.94 54.5099 15.0547C54.6018 15.2201 54.6282 15.4059 54.7426 15.5489C54.8462 15.6784 54.9789 15.7923 55.0811 15.92C55.1926 16.0594 55.4755 16.1511 55.6349 16.2219C55.8421 16.314 56.0369 16.2785 56.2579 16.2469C56.7274 16.1799 57.0022 15.9584 57.3156 15.645C57.6125 15.3481 57.7142 14.929 57.8925 14.5528C58.0176 14.2885 58.0199 14.0353 58.0597 13.7567C58.1142 13.3755 58.1271 12.9765 58.1271 12.5875C58.1271 12.2196 58.1617 11.8558 58.1617 11.4914C58.1617 11.3119 58.1617 11.1324 58.1617 10.953C58.1617 10.8024 58.0924 10.6511 58.0924 10.503C58.0924 10.3067 57.9534 9.91136 57.8348 9.75881C57.7669 9.67158 57.6883 9.48122 57.6425 9.37806C57.576 9.22856 57.4536 9.11887 57.3732 8.98C57.0229 8.37488 56.1844 8.06762 55.531 7.97429C54.9529 7.8917 54.3922 7.73391 53.8004 7.73391C53.0465 7.73391 52.2794 7.6993 51.5159 7.6993C51.0912 7.6993 50.6793 7.87718 50.2621 7.90698C49.7084 7.94653 49.1367 8.1059 48.6103 8.27042C47.76 8.53613 46.8982 8.85299 46.1162 9.2646C45.2183 9.73715 44.4297 10.2538 43.7971 11.0491C43.6098 11.2846 43.3345 11.5087 43.1913 11.7664C43.0505 12.0198 42.9641 12.3402 42.8702 12.6221C42.7699 12.9228 42.7148 13.3392 42.5337 13.6009C42.3899 13.8085 42.3006 14.133 42.2394 14.3778C42.209 14.4994 42.1424 14.6373 42.1356 14.7605C42.114 15.1497 42.1257 15.5539 42.1683 15.9373C42.1845 16.0832 42.1515 16.2346 42.1779 16.3796C42.2216 16.6201 42.1758 16.9221 42.2568 17.1488C42.354 17.4211 42.3938 17.7392 42.524 18.0141C42.5588 18.0875 42.6111 18.2095 42.6202 18.291C42.6285 18.366 42.7063 18.4191 42.724 18.4987C42.7489 18.6106 42.8309 18.6997 42.8625 18.8102C42.9533 19.128 43.233 19.4128 43.3817 19.7102C43.5381 20.0231 43.7706 20.3068 44.0201 20.5563C44.2311 20.7672 44.4539 20.9529 44.7047 21.1293C45.003 21.3392 45.2236 21.5521 45.4758 21.8043C45.6936 22.0221 45.9423 22.2097 46.22 22.3485C46.3261 22.4016 46.4104 22.4903 46.5123 22.5485C46.5648 22.5785 46.7046 22.7617 46.7046 22.6177" stroke="black" stroke-linecap="round"/>
<path d="M29.1406 25.0664C28.9987 25.1925 28.8513 25.2921 28.6539 25.368C28.4495 25.4466 28.3327 25.7065 28.169 25.8375C28.0941 25.8974 27.9921 26.0034 27.9445 26.0843C27.914 26.136 27.7877 26.3012 27.7354 26.3311C27.566 26.4279 27.431 26.7273 27.3516 26.8863" stroke="black" stroke-linecap="round"/>
<path d="M82.4029 35.9096C82.1367 35.6434 81.9022 35.2802 81.5605 35.1094" stroke="black" stroke-linecap="round"/>
<path d="M71.0957 25.5273C71.5032 25.7431 72.0038 26.3872 72.2126 26.7838C72.4219 27.1815 72.8155 27.8401 73.216 28.0403" stroke="black" stroke-linecap="round"/>
<path d="M72.9808 24.9766C72.448 24.9766 71.9635 25.0551 71.4102 25.0551" stroke="black" stroke-linecap="round"/>
<path d="M60.2069 22.0977C59.6618 22.0977 58.5245 22.1608 58.5245 22.1608C58.5245 22.1608 56.8128 22.3504 55.9529 22.3504C55.1813 22.3504 53.6364 22.3925 53.6364 22.3925L52.5648 22.5282L51.2872 22.6031L50.0798 22.6452L48.9613 22.7294L48.0675 22.8558L47.2345 22.9915L45.8656 23.4454C45.8656 23.4454 45.4576 23.6371 45.2877 23.773C45.2239 23.824 44.9969 23.9509 44.918 23.9509" stroke="black" stroke-linecap="round"/>
<path d="M51.8893 31.8984C51.7705 31.8984 51.6485 31.922 51.5364 31.922C51.4563 31.922 51.3761 31.922 51.296 31.922C51.1304 31.922 50.9741 31.9925 50.8086 31.9925C50.5769 31.9925 50.3562 32.0396 50.1251 32.0396C50.013 32.0396 49.8543 32.0383 50.0206 32.1441C50.2012 32.259 50.4029 32.3784 50.5955 32.4747C50.6873 32.5206 50.7776 32.6029 50.8765 32.6276C50.9109 32.6362 51.0878 32.6747 50.9902 32.6747C50.784 32.6747 50.5556 32.6621 50.3603 32.5924C50.2139 32.54 50.0127 32.5165 49.8951 32.4107C49.8196 32.3427 49.7339 32.2892 49.6599 32.2225C49.622 32.1884 49.58 32.1624 49.5423 32.1284C49.4758 32.0686 49.5288 32.0866 49.5972 32.0866C50.003 32.0866 50.4004 32.1807 50.8073 32.1807C50.9991 32.1807 51.2101 32.1849 51.4005 32.2095C51.4731 32.2188 51.6917 32.2997 51.7573 32.2735C51.8311 32.244 51.6148 32.2 51.5378 32.1807C51.4415 32.1566 51.3557 32.1572 51.2542 32.1572C51.1284 32.1572 50.8523 32.1429 50.7654 32.0343C50.6556 31.897 50.9898 31.922 51.0307 31.922C51.2122 31.922 51.4128 31.9121 51.5835 31.969" stroke="black" stroke-width="0.5" stroke-linecap="round"/>
<path d="M47.9148 32.2744C47.6987 32.1775 47.4498 32.0415 47.268 31.8876C47.218 31.8453 47.1636 31.829 47.1151 31.7805C47.0532 31.7186 47.0344 31.65 46.9844 31.5818C46.9066 31.4757 46.8278 31.4561 46.7152 31.4159C46.554 31.3583 46.8532 31.7538 46.9034 31.804C47.0144 31.915 47.0859 32.0689 47.1569 32.2039C47.1831 32.2536 47.2045 32.3062 47.2327 32.3555C47.2634 32.4092 47.2688 32.3445 47.251 32.3267C47.1494 32.2251 46.9497 32.248 46.8511 32.1385C46.8106 32.0935 46.7842 31.9914 46.7387 31.9686" stroke="black" stroke-width="0.5" stroke-linecap="round"/>
<path d="M46.3383 31.5679C46.1902 31.2021 45.9284 30.9242 45.7398 30.5812C45.6764 30.466 45.6546 30.3532 45.6143 30.2323C45.5855 30.1459 45.5927 30.0859 45.4915 30.0859C45.3987 30.0859 45.3809 30.2386 45.3752 30.3107C45.3585 30.5191 45.4433 30.7844 45.5385 30.968C45.6284 31.1415 45.7692 31.3624 45.7737 31.5626C45.7768 31.6963 45.7726 31.9307 45.8443 32.0383" stroke="black" stroke-width="0.5" stroke-linecap="round"/>
<path d="M40.9752 30.0146C40.8074 29.8187 40.6166 29.7046 40.4107 29.5559C40.2334 29.4279 40.005 29.2997 39.7939 29.2384C39.5304 29.1618 39.2597 29.0964 38.9993 29.0136C38.8717 28.973 38.7467 28.9434 38.6178 28.909C38.4558 28.8658 38.5562 28.8915 38.6374 28.9339C38.873 29.0568 39.1379 29.1108 39.3705 29.2384C39.6268 29.3789 39.9511 29.4843 40.1506 29.7088C40.3136 29.8921 40.4967 30.0073 40.693 30.1505C40.8505 30.2655 40.9913 30.3847 41.1399 30.5086" stroke="black" stroke-width="0.5" stroke-linecap="round"/>
<path d="M41.3516 28.9102C41.6562 29.1224 42.0142 29.314 42.2794 29.5792C42.3537 29.6535 42.4185 29.7364 42.4989 29.804C42.6576 29.9375 42.853 30.1522 42.9459 30.3346C43.0221 30.4842 43.0528 30.6678 43.0975 30.8285C43.1208 30.9128 43.1958 30.987 43.104 30.8952C42.996 30.7872 42.9081 30.6549 42.7982 30.545C42.574 30.3208 42.304 30.1335 42.0572 29.9347C41.6388 29.5977 41.231 29.2465 40.8105 28.9102" stroke="black" stroke-width="0.5" stroke-linecap="round"/>
<path d="M45.5392 25.2394C46.0075 25.5812 46.6469 25.8259 46.7858 26.4469C46.8051 26.5331 46.8094 26.6102 46.8094 26.6978C46.8094 26.7941 46.7734 26.7324 46.7257 26.6847C46.4801 26.439 46.1923 26.2386 45.926 26.0156C45.4523 25.619 44.9681 25.2454 44.4336 24.9336" stroke="black" stroke-width="0.5" stroke-linecap="round"/>
<path d="M49.2791 26.3948C48.7611 26.6921 48.3712 27.05 47.9841 27.5016C47.8454 27.6634 47.7015 27.8312 47.5972 28.0165C47.5344 28.1282 47.5657 28.0857 47.6208 28.0061C47.8558 27.6666 48.0438 27.2906 48.2912 26.9593C48.4306 26.7726 48.6126 26.6114 48.827 26.5176C49.0053 26.4396 49.1953 26.4004 49.3732 26.3242" stroke="black" stroke-width="0.5" stroke-linecap="round"/>
<path d="M49.748 26.3011C49.5547 26.446 49.4048 26.6797 49.2488 26.8656C49.1253 27.0128 48.9742 27.1363 48.8437 27.2772C48.6508 27.4856 48.4523 27.6917 48.1956 27.8248C47.8749 27.9911 47.5177 28.1622 47.2913 28.4534C47.2006 28.5699 47.2289 28.4706 47.2494 28.3658C47.3103 28.0549 47.4312 27.6989 47.5853 27.4197C47.7639 27.0959 47.9764 26.7603 48.2766 26.5363C48.6977 26.2219 49.1234 26.2305 49.6304 26.2305" stroke="black" stroke-width="0.5" stroke-linecap="round"/>
<path d="M35.8423 31.7891C36.2896 31.5413 36.734 31.4697 37.2166 31.3356C37.2401 31.3291 37.5072 31.3031 37.4487 31.3616C37.3932 31.4171 37.2826 31.4815 37.2105 31.5082C37.0885 31.5533 36.9809 31.6492 36.8593 31.7067C36.7084 31.778 36.522 31.8007 36.363 31.8563C36.1842 31.9189 36.0077 31.9507 35.8423 32.0518C35.6498 32.1694 35.5322 32.4016 35.375 32.5588" stroke="black" stroke-width="0.5" stroke-linecap="round"/>
<path d="M60.7188 53.3438C60.7767 53.3953 60.8694 53.4265 60.9347 53.4649C60.9763 53.4894 61.0295 53.5268 61.0642 53.5597C61.1002 53.5936 61.1476 53.6107 61.183 53.646C61.2258 53.6888 61.2772 53.7203 61.3209 53.7624C61.372 53.8116 61.4215 53.863 61.4721 53.9136C61.5182 53.9596 61.5513 54.014 61.5849 54.0695C61.6255 54.1367 61.6708 54.1984 61.712 54.2638C61.7725 54.3599 61.8758 54.4634 61.9687 54.5313C62.0524 54.5925 62.1286 54.7084 62.187 54.7928C62.2565 54.8932 62.3294 54.9949 62.3838 55.1035C62.4007 55.1374 62.4522 55.1738 62.4569 55.2115C62.4589 55.2274 62.4889 55.2815 62.5001 55.2871" stroke="black" stroke-width="0.5" stroke-linecap="round"/>
<path d="M60.9548 53.6466C60.9195 53.5628 60.848 53.5098 60.7953 53.4415C60.768 53.4061 60.7466 53.3749 60.7065 53.3527C60.6787 53.3372 60.6551 53.3087 60.6285 53.2903C60.5881 53.2623 60.5415 53.245 60.502 53.2153C60.4297 53.1611 60.3443 53.1269 60.2585 53.1008C59.9863 53.0179 59.7174 52.9259 59.4434 52.8477" stroke="black" stroke-width="0.5" stroke-linecap="round"/>
<path d="M56.363 79.9232C56.297 80.0693 56.2447 80.2075 56.1946 80.3577C56.1486 80.4959 56.0843 80.6262 56.0357 80.7597C55.971 80.9378 55.9314 81.1024 55.8817 81.2765C55.8692 81.32 55.895 81.3721 55.8721 81.4133C55.8537 81.4465 55.8463 81.5358 55.8463 81.5732C55.8463 81.663 55.8356 81.791 55.8108 81.8775C55.7953 81.9319 55.8258 81.8687 55.8539 81.8526C55.8874 81.8335 55.9171 81.7885 55.9458 81.7627C55.9892 81.7236 56.0629 81.6408 56.0874 81.5856C56.1207 81.5107 56.2034 81.4597 56.2262 81.3798C56.2524 81.2882 56.3332 81.1811 56.3764 81.0947C56.4229 81.0018 56.4826 80.9069 56.5181 80.8095C56.5453 80.7347 56.5817 80.6521 56.6138 80.5788C56.6455 80.5063 56.6574 80.4239 56.6904 80.3539C56.8568 80.0002 56.8644 79.5798 56.9277 79.1997C56.966 78.9699 57.0091 78.738 57.0607 78.5107C57.1271 78.2187 57.121 77.8955 57.121 77.5977" stroke="black" stroke-width="0.5" stroke-linecap="round"/>
<path d="M52.7807 68.0384C52.8035 67.9446 52.811 67.8329 52.7673 67.7456C52.7342 67.6793 52.6946 67.5781 52.6946 67.5044C52.6946 67.4349 52.6602 67.3549 52.6602 67.2805C52.6602 67.1915 52.6602 67.1025 52.6602 67.0135C52.6602 66.8271 52.7647 66.6563 52.8535 66.5053C52.8972 66.4309 52.9822 66.3589 53.0391 66.2986C53.1067 66.2271 53.203 66.1404 53.288 66.0918C53.3066 66.0812 53.3363 66.0504 53.3483 66.0325C53.3672 66.0041 53.3492 66.1008 53.3492 66.1349C53.3492 66.2486 53.3399 66.3532 53.3157 66.4622C53.3013 66.527 53.2631 66.6205 53.2631 66.6862C53.2631 66.771 53.2114 66.8523 53.2114 66.9359C53.2114 67.1253 53.108 67.3154 53.108 67.5044C53.108 67.6294 53.0219 67.7555 53.0219 67.8844C53.0219 67.9788 53.0219 68.0732 53.0219 68.1676C53.0219 68.2265 53.015 68.2904 53.0257 68.3485C53.0375 68.4119 53.0847 68.4624 53.108 68.5208" stroke="black" stroke-width="0.5" stroke-linecap="round"/>
<path d="M62.1536 75.3583C62.1536 75.2416 62.1546 75.1386 62.1746 75.0285C62.1856 74.9683 62.1841 74.8974 62.2022 74.8395C62.2319 74.7445 62.2082 74.6009 62.1962 74.5048C62.1818 74.3893 62.1578 74.2745 62.1536 74.1576C62.1495 74.0426 62.1228 73.926 62.1104 73.8145C62.1063 73.7775 62.0458 73.767 62.0187 73.7881C61.9807 73.8176 61.9504 73.8803 61.9317 73.923C61.8842 74.0317 61.8405 74.1811 61.8405 74.2997C61.8405 74.6869 61.7539 75.0753 61.7973 75.4663" stroke="black" stroke-width="0.5" stroke-linecap="round"/>
<path d="M56.4525 84.6094C56.3209 84.6607 56.1897 84.7138 56.0638 84.7767C56.0268 84.7952 55.9905 84.8134 55.9558 84.8361C55.9216 84.8585 55.891 84.8942 55.8545 84.9111C55.7537 84.9576 55.6838 85.0498 55.6104 85.1276C55.5838 85.1558 55.5653 85.2009 55.5504 85.235C55.5259 85.2908 55.4763 85.3457 55.443 85.3975C55.3773 85.4998 55.3053 85.6006 55.2193 85.6866C55.1881 85.7178 55.1612 85.7495 55.1299 85.7808C55.1003 85.8104 55.0521 85.8414 55.1305 85.8132C55.2354 85.7754 55.3515 85.7734 55.4568 85.7322C55.5199 85.7075 55.5827 85.6767 55.6428 85.6458C55.7072 85.6127 55.7703 85.5717 55.8269 85.5265C55.8665 85.4948 55.8946 85.4524 55.9343 85.4215C55.9691 85.3944 56.0094 85.3721 56.0422 85.3429C56.1339 85.2614 56.2205 85.1761 56.3073 85.0892C56.4532 84.9434 56.6211 84.8186 56.7656 84.6742" stroke="black" stroke-width="0.5" stroke-linecap="round"/>
<path d="M32.7433 50.2227C32.6578 50.3189 32.5619 50.4009 32.4454 50.4622C32.2042 50.5892 32.0023 50.7619 31.783 50.9203C31.6032 51.0501 31.4976 51.2658 31.3662 51.4347C31.3043 51.5143 31.2894 51.5963 31.2485 51.6873C31.2172 51.7568 31.1715 51.8242 31.1448 51.8937C31.1251 51.9448 31.0712 52.0078 31.1307 51.9219C31.1887 51.8381 31.2627 51.7592 31.334 51.6863C31.5546 51.4607 31.7134 51.1701 31.9722 50.9837C32.3636 50.7019 32.7909 50.2951 33.3051 50.2951" stroke="black" stroke-width="0.5" stroke-linecap="round"/>
<path d="M34.0769 50.3047C33.855 50.3047 33.6072 50.3142 33.3931 50.3753C33.2231 50.4239 33.0389 50.4187 32.8669 50.475C32.7584 50.5106 32.6663 50.5688 32.5666 50.6227C32.5074 50.6547 32.4491 50.7064 32.3969 50.7482C32.3417 50.7923 32.2881 50.8344 32.2373 50.8838C32.1448 50.9738 32.0427 51.067 31.942 51.1476C31.8555 51.2167 31.7715 51.2951 31.6922 51.3722C31.6076 51.4544 31.5093 51.5222 31.4259 51.6056C31.2789 51.7527 31.1481 51.9163 30.9995 52.0649C30.8708 52.1935 30.5541 52.6322 30.631 52.4674C30.6578 52.41 30.6686 52.3482 30.6929 52.2895C30.7233 52.2159 30.7587 52.1443 30.7887 52.0705C30.8514 51.9166 30.9533 51.7987 31.0335 51.6561C31.1288 51.4866 31.268 51.3291 31.3856 51.1741C31.5244 50.991 31.6632 50.8218 31.8625 50.7021" stroke="black" stroke-width="0.5" stroke-linecap="round"/>
</svg>
