<svg width="100" height="101" viewBox="0 0 100 101" fill="none" xmlns="http://www.w3.org/2000/svg">
<path d="M26.9041 67.4777C26.7245 67.4346 26.4924 67.4181 26.32 67.3548C26.1443 67.2902 25.9211 67.3632 25.7373 67.3396C25.4713 67.3054 25.1475 67.2515 24.901 67.1363C24.7302 67.0564 24.5503 67.0108 24.4142 66.8708C24.3432 66.7977 24.2641 66.7326 24.1959 66.6584C24.1212 66.577 24.0599 66.4912 23.9835 66.4126C23.6042 66.0225 23.1982 65.5189 23.1982 65.5189L22.5847 64.4055C22.5847 64.4055 22.1369 63.743 21.9485 63.2694C21.7635 62.8041 21.7796 62.6571 21.6005 62.1861C21.4302 61.7387 21.2243 61.346 21.0166 60.9188C20.9305 60.7416 20.642 59.8972 20.5542 59.7216C20.4348 59.4827 20.2703 59.0108 20.1579 58.7707C19.9449 58.3156 19.8914 57.8361 19.6822 57.3804C19.2259 56.3866 18.8426 55.2191 18.5287 54.1626C18.3208 53.4626 18.2751 52.5137 18.2484 51.7744C18.2314 51.3019 18.1503 50.85 18.2425 50.3755C18.343 49.8588 18.3723 49.3307 18.5287 48.8249C18.6605 48.3989 18.8722 47.9862 19.0848 47.5975C19.2417 47.3106 19.4361 47.2318 19.6822 47.0437C19.9649 46.8277 20.2683 46.6987 20.5849 46.5521C20.8125 46.4468 21.0525 46.4676 21.29 46.4232C21.5458 46.3753 21.8219 46.3944 22.0836 46.3944C22.3397 46.3944 22.6881 46.557 22.9008 46.6948C23.1434 46.8519 23.426 46.9521 23.6383 47.159C23.8297 47.3455 24.168 47.479 24.3021 47.7204C24.4571 47.9993 24.6877 48.2203 24.7933 48.5245C24.9933 49.1006 25.2026 49.6837 25.491 50.2177C25.7212 50.644 25.875 51.128 25.9763 51.5969C26.0617 51.992 26.2138 52.4067 26.2138 52.8122" stroke="black" stroke-linecap="round"/>
<path d="M21.1943 56.0075C21.1126 55.8338 21.104 55.5113 21.1619 55.323C21.2314 55.0973 21.1422 54.7376 21.0749 54.5221C21.0121 54.3212 20.9868 54.066 20.9569 53.8568C20.9168 53.5761 20.8328 53.2871 20.8226 53.0013C20.8116 52.6922 20.7695 52.382 20.7695 52.072C20.7695 51.9183 20.785 51.7145 20.8285 51.5675C20.8687 51.432 20.8416 51.2814 20.889 51.1486C20.9429 50.9978 20.9689 50.8039 21.0085 50.6456C21.0444 50.5021 21.1173 50.3699 21.1678 50.2311C21.2388 50.0359 21.3971 49.8935 21.4864 49.7148" stroke="black" stroke-linecap="round"/>
<path d="M22.5508 52.5586C22.7833 52.6784 23.1301 52.8162 23.247 53.0631C23.2962 53.1669 23.3873 53.2634 23.4004 53.3817C23.4066 53.437 23.4426 53.4983 23.455 53.5543C23.4663 53.605 23.4686 53.6957 23.4933 53.7401C23.554 53.8492 23.5066 54.0929 23.5066 54.218C23.5066 54.3331 23.5066 54.4481 23.5066 54.5632C23.5066 54.9111 23.427 55.2601 23.427 55.612C23.427 55.8589 23.3896 56.1521 23.4594 56.3879C23.5048 56.5408 23.5027 56.7051 23.5391 56.8599C23.5789 57.0291 23.6543 57.1857 23.691 57.3511C23.7175 57.4702 23.752 57.6149 23.812 57.7228C23.8662 57.8204 23.9585 57.9573 23.9831 58.068C24.0036 58.1604 24.084 58.2762 24.1306 58.36C24.1987 58.4826 24.1887 58.5387 24.3297 58.5857" stroke="black" stroke-linecap="round"/>
<path d="M68.1689 57.6935C68.1836 57.4589 68.5026 57.1832 68.6784 56.9859C68.991 56.635 69.3555 55.9911 69.3555 55.9911C69.3555 55.9911 70.2977 54.8269 70.7038 54.3193C70.9917 53.9594 70.9762 53.4906 71.1592 53.0789C71.3137 52.7313 71.4588 52.1152 71.4588 51.7307C71.4588 50.8813 71.9981 50.0784 71.9981 49.2499C71.9981 48.3382 72.2138 47.504 72.2138 46.5534C72.2138 45.6253 71.9981 44.7447 71.9981 43.8569C71.9981 43.4994 72.132 42.7569 71.9142 42.4847C71.6883 42.2023 71.9362 41.359 71.6206 41.1065C71.3281 40.8725 71.4871 40.279 71.2671 40.0039C71.0286 39.7058 71.1655 39.1332 70.9734 38.7875C70.7647 38.4118 70.7975 37.9467 70.6199 37.5471C70.5434 37.3749 70.4339 37.1148 70.3862 36.9479C70.2942 36.6258 70.5788 36.6787 70.7038 36.5224C70.8595 36.3278 71.8502 36.4685 72.106 36.4685C72.4999 36.4685 73.0024 36.3899 73.3464 36.1988C74.1437 35.7559 74.2275 35.0663 75.2878 35.0663C75.7732 35.0663 76.2586 35.0663 76.7439 35.0663C77.2482 35.0663 77.4693 34.7664 77.7686 34.527C78.4092 34.0145 78.2273 32.635 79.0689 32.1541C79.4327 31.9462 79.7395 31.5265 80.0636 31.2672C80.3922 31.0044 80.7515 30.7457 81.1183 30.5362C81.9617 30.0542 82.7775 29.4365 83.7009 29.0261C84.5094 28.6668 85.0935 27.9564 85.8641 27.5161C86.8176 26.9712 87.566 26.1039 88.4468 25.4188C88.8345 25.1172 89.0596 24.7765 89.3875 24.4121C89.6682 24.1003 90.165 23.7444 90.3343 23.3635C90.5952 22.7764 90.9321 22.1619 91.2212 21.5838C91.4352 21.1557 91.3464 20.6465 91.5747 20.2356C91.7334 19.9498 91.8259 19.2196 91.8443 18.8873C91.8706 18.4144 92.0601 18.0429 92.0601 17.5391C92.0601 15.5766 91.7235 14.0966 90.8197 12.4696C89.9685 10.9376 88.9433 9.51461 87.6917 8.2631C87.0286 7.59996 86.4333 7.36338 85.6484 6.91485C84.9649 6.5243 84.4754 5.51052 83.7069 5.29096C83.4988 5.2315 82.8722 4.7634 82.7002 4.62582C82.3345 4.33321 81.7326 4.30957 81.2681 4.16442C80.1821 3.82506 78.9901 3.35547 77.8705 3.35547C76.6113 3.35547 75.3286 3.46333 74.1014 3.46333C72.9517 3.46333 71.711 3.36815 70.6439 3.67306C70.1215 3.82232 69.48 3.8035 68.978 4.0266C68.5916 4.19836 68.0561 4.33334 67.6298 4.42808C67.0912 4.54776 66.0924 4.68166 65.6583 4.99734C65.2777 5.27419 64.6413 5.56218 64.1843 5.72839C63.766 5.88047 63.2342 6.27092 62.8839 6.54333C62.5689 6.78839 62.1871 7.23734 61.8593 7.43018C61.4189 7.68924 61.1755 8.38295 60.9425 8.8024C60.6841 9.26739 60.4821 9.77077 60.2653 10.2585C60.0334 10.7804 59.9365 11.4954 59.8159 12.0382C59.738 12.3889 59.7711 12.1515 59.6182 11.9603C59.4558 11.7573 59.3451 11.4595 59.1388 11.2532C58.1609 10.2753 56.7298 9.71315 55.4955 9.09602C55.057 8.87673 54.415 8.74847 53.9316 8.74847C53.2874 8.74847 53.6619 9.49331 53.6619 9.82707C53.6619 10.2283 53.8848 10.5802 53.9915 10.9536C54.044 11.1374 54.1894 11.2324 54.2012 11.445C54.2065 11.5408 54.2798 12.1094 54.333 12.176C54.8204 12.7852 53.89 12.3428 53.614 12.4217C53.2592 12.5231 53.2393 13.1388 52.9908 13.3625C52.0078 14.2472 51.0779 12.8865 50.3183 12.4397C49.8597 12.17 49.4833 11.7942 49.0239 11.4989C48.5182 11.1738 47.9985 10.9023 47.4899 10.5821C45.9144 9.59009 43.9622 9.71039 42.2527 9.20388C41.8072 9.07187 41.1832 9.17991 40.7187 9.17991C40.3285 9.17991 39.3861 9.01643 39.0768 9.2638C38.8468 9.4478 38.0662 9.53565 37.7526 9.60536C37.2754 9.7114 36.7851 9.90778 36.2965 9.93493C35.6294 9.97199 34.5794 10.5254 34.1153 10.9896C33.4669 11.6379 33.3202 12.5147 32.7371 13.1707C32.201 13.7738 31.9923 14.5442 31.6345 15.2201C31.5076 15.4597 31.1989 16.2164 30.9035 15.6994C30.6987 15.3411 30.1711 15.1038 29.8009 14.9804C28.6373 14.5925 27.4266 14.5729 26.2056 14.5729C25.2706 14.5729 24.2094 14.4587 23.2933 14.6568C22.0207 14.932 20.428 14.9537 19.3864 15.8912C19.0607 16.1843 18.642 16.5523 18.2419 16.7301C17.8589 16.9003 17.5799 17.3609 17.2052 17.569C16.3882 18.0229 15.7812 18.9982 15.1799 19.6663C14.9415 19.9312 14.6534 20.4493 14.5087 20.7749C14.3474 21.138 13.9018 21.6803 13.6219 21.9913C12.9689 22.7168 12.6403 23.547 12.2197 24.3882C11.7609 25.3057 11.5536 26.3722 11.1411 27.3004C10.735 28.2142 9.97627 28.8338 9.78687 29.9969C9.69546 30.5582 9.7629 31.453 9.7629 31.453L9.54718 33.3166L9.44531 35.0723L10.0026 36.6842C10.0026 36.6842 10.3062 38.4419 10.8175 39.0811L10.9494 39.6504C10.9494 39.6504 11.0992 39.9859 11.1591 40.1956C11.2904 40.6552 11.4887 41.6458 11.4887 41.6458L12.6991 43.5872L13.2683 44.6658L14.2091 45.6126C14.2091 45.6126 14.6595 46.6165 15.108 47.1466C15.5417 47.6593 16.1015 47.9027 16.4207 48.2574C16.4207 48.2574 17.0009 48.563 17.2052 48.8185C17.4572 49.1334 18.1452 49.2422 18.2838 49.5195" stroke="black" stroke-linecap="round"/>
<path d="M26.3739 52.1091C26.3739 50.1939 26.2661 48.1919 26.2661 46.3385C26.2661 45.9042 26.3739 45.4217 26.3739 45.0442C26.3739 44.6509 26.6753 44.2891 26.6975 43.9117C26.7493 43.0305 27.1908 42.2597 27.2368 41.4309C27.2603 41.0084 27.6231 40.6286 27.6682 40.2445C27.6895 40.0641 28.0415 39.0398 28.1536 38.9501C28.3208 38.8164 28.6131 37.8892 28.639 37.6558C28.6904 37.1927 28.9792 36.7451 29.0764 36.3076C29.4712 34.531 30.5816 32.8864 31.4673 31.2921C31.9039 30.5062 32.743 29.9516 33.4388 29.4105C33.7147 29.1959 34.0372 28.8959 34.3556 28.7274C34.6724 28.5596 34.847 28.1787 35.1645 28.0023C36.9059 27.0349 39.1059 26.2227 41.1507 26.2227C42.1643 26.2227 43.1865 26.3305 44.1708 26.3305C45.1563 26.3305 46.2242 26.6541 47.2448 26.6541C48.4054 26.6541 49.4913 26.9777 50.6484 26.9777C51.0275 26.9777 52.0089 26.9498 52.3682 27.1095C52.6807 27.2484 53.397 27.4091 53.7164 27.4091C54.6539 27.4091 55.5543 27.844 56.4429 28.1402C57.4353 28.471 58.3056 28.7075 59.1394 29.3746C59.4782 29.6456 59.9073 29.8189 60.218 30.1296C60.5375 30.4491 61.0541 30.6893 61.3206 31.0224C61.6199 31.3966 62.2381 31.5379 62.5909 31.8553C62.9432 32.1724 63.1964 32.5207 63.5317 32.856C64.2035 33.5279 64.5517 34.3936 65.1796 35.0911C65.4721 35.4162 65.6904 35.8646 65.9585 36.1997C66.1725 36.4672 66.4566 37.0899 66.4978 37.4401C66.5924 38.2439 67.5046 38.8694 67.6783 39.6512C67.7573 40.0065 67.9689 40.6272 68.1996 40.9156C68.2767 41.0119 68.307 41.4556 68.3374 41.5927C68.3914 41.8354 68.4852 42.1038 68.5532 42.3417C68.769 43.097 68.9786 44.0686 68.9786 44.8824C68.9786 45.8473 69.3022 46.729 69.3022 47.6868C69.3022 48.6575 69.3022 50.599 69.3022 50.599L68.8708 53.3494L68.655 54.6438C68.655 54.6438 68.6501 55.6796 68.4633 56.0999C68.3462 56.3633 68.2236 57.3403 68.2236 57.3403L67.924 58.6885L67.6304 60.0907C67.6304 60.0907 67.263 61.2026 67.2529 61.385L66.8753 62.4636L66.4739 63.6501C66.4739 63.6501 65.6367 65.2889 65.4132 66.0709C65.2146 66.7662 64.4545 68.1323 64.4545 68.1323L64.1189 69.3067L63.6935 70.5531L63.0463 72.8182L62.8066 73.9807L62.3452 75.1911L61.4284 77.7198C61.4093 77.7055 61.1048 78.6965 61.1048 78.6965L60.4816 79.5295C60.4816 79.5295 59.5493 81.1202 59.2952 81.8544C59.0756 82.4887 58.7749 83.1178 58.1327 83.76C57.5038 84.3888 57.0008 85.2048 56.3051 85.7614C55.6605 86.277 55.0208 86.843 54.4175 87.3793C53.709 88.009 52.9771 88.331 52.1525 88.6976C50.5092 89.4279 48.7794 90.34 47.0291 90.7289C46.0629 90.9436 45.1342 90.9386 44.1169 90.9386C43.0972 90.9386 42.3461 90.7189 41.4204 90.5132C40.7982 90.3749 39.7847 89.8949 39.2932 89.4526C38.6292 88.855 37.7014 88.6278 37.076 88.0025C36.7787 87.7052 36.2717 87.5494 36.0574 87.1635C35.9097 86.8978 35.4028 86.4913 35.1645 86.3007C34.6388 85.8801 34.1878 85.0757 33.7563 84.521C32.5389 82.9557 31.9593 81.034 31.0359 79.2898C30.8661 78.9691 30.6228 78.5918 30.5805 78.2112C30.5545 77.9778 30.2623 77.0506 30.0951 76.9169C29.8634 76.7315 29.7675 75.9236 29.6337 75.6225C29.4624 75.2371 29.3368 74.7246 29.2802 74.3282C29.2124 73.8538 28.9539 73.4531 28.8487 72.98C28.7536 72.552 28.6274 72.0372 28.4472 71.6317C28.2622 71.2154 28.3694 70.672 28.1536 70.2835C27.9552 69.9263 27.884 69.3396 27.884 68.9352C27.884 68.0592 27.6768 67.2125 27.4465 66.4065C27.2273 65.6391 26.9132 64.6168 26.9132 63.8119C26.9132 62.9416 26.6975 62.0774 26.6975 61.1693C26.6975 60.0286 26.3739 58.8551 26.3739 57.7178C26.3739 56.6805 26.1582 55.6586 26.1582 54.5898C26.1582 53.6191 26.1582 52.6484 26.1582 51.6776" stroke="black" stroke-linecap="round"/>
<path d="M32.3357 42.2546C32.5702 42.2546 32.8335 42.2122 33.0888 42.2122C33.1335 42.2122 33.3711 42.2461 33.3948 42.2758C33.4619 42.3597 33.6666 42.2343 33.7337 42.3181C33.8111 42.4149 34.3402 42.3393 34.4751 42.3393C34.5945 42.3393 34.7161 42.3463 34.8352 42.3393C34.9229 42.3342 35.002 42.2232 35.0894 42.2122C35.2499 42.1922 35.4816 41.9409 35.6072 41.8404C35.7797 41.7024 36.0447 41.5853 36.2545 41.492C36.8941 41.2078 37.5379 40.9282 38.2009 40.6871C38.5295 40.5676 38.8827 40.4631 39.22 40.3882C39.3199 40.366 39.4135 40.2566 39.5048 40.3388C39.6155 40.4383 39.8172 40.4259 39.952 40.4659C40.2093 40.5421 40.4699 40.5789 40.7028 40.7083C41.0524 40.9025 41.4219 41.0862 41.7925 41.2378C42.7156 41.6155 43.6761 41.9796 44.6239 42.2758C44.8344 42.3416 45.0414 42.4273 45.2476 42.5088C45.5123 42.6134 45.8012 42.6463 46.062 42.763C46.5225 42.969 47.0953 43.0209 47.5259 43.2949C47.9235 43.5479 48.4401 43.5785 48.8769 43.7374C49.2389 43.869 49.6682 43.9191 49.9925 44.1187C50.257 44.2814 50.6571 44.3937 50.9552 44.4599C51.0873 44.4893 51.0121 45.0589 51.0187 45.1778C51.0329 45.4323 51.1035 45.6884 51.1035 45.9498C51.1035 46.2777 51.1035 46.6057 51.1035 46.9336C51.1035 47.0634 51.0611 47.1699 51.0611 47.2961C51.0611 47.3515 50.9856 47.6739 50.9764 47.5079C50.9564 47.1485 50.7089 46.804 50.5315 46.4888C50.119 45.7554 49.3696 45.1907 48.571 44.9142C47.9053 44.6838 47.2402 44.627 46.528 44.627C46.2531 44.627 45.9789 44.5949 45.7137 44.5847C45.3154 44.5694 44.9159 44.4576 44.518 44.4576C44.2048 44.4576 43.9027 44.2694 43.5954 44.2458C43.3052 44.2234 42.9493 44.1115 42.6728 44.0128C41.9395 43.7509 41.068 43.4963 40.2909 43.4408C40.0506 43.4237 39.8218 43.3561 39.5778 43.3561C39.3855 43.3561 39.133 43.3462 38.9447 43.3043C38.5512 43.2169 38.135 43.2455 37.7372 43.1843C37.3428 43.1236 36.9089 43.0595 36.511 43.0595C36.2077 43.0595 35.8971 42.9834 35.5978 42.9748C35.1706 42.9626 34.6085 43.0806 34.2021 42.9536C34.0787 42.9151 33.9377 42.9324 33.8091 42.9324C33.6474 42.9324 33.4945 42.8901 33.343 42.8901C33.0282 42.8901 32.7351 42.8477 32.4204 42.8477C32.2978 42.8477 32.2051 42.8376 32.1003 42.8077C31.9048 42.7518 32.052 42.8053 32.1898 42.8053C33.0699 42.8053 33.9739 42.7206 34.8564 42.7206C35.7303 42.7206 36.6086 42.5935 37.4854 42.5935C38.5465 42.5935 39.5576 42.6649 40.6063 42.8148C41.3498 42.921 42.1248 43.0195 42.8422 43.2478C43.2552 43.3792 43.6956 43.4965 44.1132 43.6009C44.6012 43.7229 45.1099 43.8355 45.5866 43.9822C46.246 44.1851 46.9895 44.1676 47.6719 44.2434C48.1958 44.3016 48.8128 44.2266 49.2912 44.5C49.4631 44.5982 49.6907 44.6086 49.8537 44.7353C50.0012 44.85 50.1964 44.9799 50.3621 45.0719C50.4298 45.1095 50.6145 45.3049 50.5951 45.3049C50.4739 45.3049 50.2981 45.2576 50.1926 45.199C49.5346 44.8334 48.7903 44.6167 48.1144 44.2787C47.4003 43.9217 46.671 43.6554 45.9114 43.4196C45.0396 43.1491 44.1114 43.0948 43.2329 42.8477C42.4238 42.6201 41.5538 42.4845 40.724 42.3487C39.7219 42.1848 38.694 42.0004 37.6761 42.0004C37.1923 42.0004 36.6997 41.958 36.2097 41.958C36.064 41.958 35.7645 41.958 36.0874 41.958C36.4236 41.958 36.7493 41.9377 37.0829 41.918C38.0652 41.8603 38.9841 41.3226 39.9614 41.3226C40.132 41.3226 40.3012 41.4122 40.4698 41.4497C40.8077 41.5248 41.1632 41.6016 41.4866 41.7274C41.8289 41.8605 42.2224 41.9235 42.5457 42.0851" stroke="black" stroke-linecap="round"/>
<path d="M41.9102 75.7658C42.0501 75.7503 42.1884 75.6105 42.3244 75.5634C42.4942 75.5046 42.7037 75.4269 42.8846 75.4269C43.2682 75.4269 43.5053 75.1218 43.8378 75.048C44.4949 74.9019 45.227 74.7914 45.9348 74.7914C46.3402 74.7914 46.7365 74.7067 47.1423 74.7067C47.5684 74.7067 47.9401 74.6334 48.352 74.5819C49.0187 74.4986 49.5705 74.2629 50.1714 73.9959C50.2765 73.9492 50.4389 73.8594 50.5526 73.8594C50.7399 73.8594 50.7924 73.948 50.9551 73.9841C51.0973 74.0157 51.2648 74.148 51.3999 74.1559C51.5611 74.1654 51.7257 74.1559 51.8871 74.1559C52.0373 74.1559 52.1539 74.0712 52.3108 74.0712C52.4603 74.0712 52.5843 74.1927 52.7133 74.2501C53.0402 74.3954 53.4956 74.4606 53.7724 74.7067C54.0413 74.9457 54.4366 75.0515 54.7256 75.2763C55.0314 75.5141 55.3918 75.7023 55.7212 75.9141C56.0856 76.1483 56.434 76.4093 56.8227 76.6037C56.9845 76.6846 57.1518 76.7583 57.3099 76.8461C57.3965 76.8943 57.5307 77.0368 57.6276 77.0368" stroke="black" stroke-linecap="round"/>
<path d="M42.1641 75.9355C42.174 76.0151 42.7552 76.2223 42.8419 76.2532C43.1566 76.3656 43.4783 76.5778 43.8163 76.6133C44.0513 76.6381 44.2896 76.8484 44.513 76.9123C44.8107 76.9973 45.0391 77.2728 45.3603 77.3312C45.58 77.3711 45.8146 77.5002 46.0193 77.5972C46.2786 77.72 46.6631 77.8104 46.876 78.002C47.0388 78.1485 47.3314 78.2138 47.5209 78.2679C47.7388 78.3302 48.005 78.5621 48.2435 78.5621C48.3531 78.5621 48.5405 78.6458 48.6553 78.6798C48.8018 78.7232 48.9285 78.7019 49.0696 78.7646C49.3298 78.8802 49.7504 79.0172 50.0346 79.0282C50.3075 79.0387 50.5951 79.1881 50.8677 79.2376C51.1349 79.2862 51.4299 79.294 51.6774 79.3647C51.8871 79.4247 52.1974 79.3671 52.4164 79.3671C52.7199 79.3671 53.0161 79.2824 53.3061 79.2824C53.5411 79.2824 53.7746 79.1618 54.0051 79.1105C54.2375 79.0589 54.493 78.8587 54.7253 78.8587C54.9355 78.8587 55.3931 78.6615 55.5514 78.5198C55.6313 78.4483 55.8264 78.3198 55.9327 78.308C56.0559 78.2943 56.1615 78.1515 56.2717 78.1385C56.5194 78.1093 56.7983 77.813 57.013 77.6937C57.0391 77.6792 57.2413 77.527 57.2413 77.5242C57.2413 77.4766 56.9333 77.4606 56.886 77.4606C56.6055 77.4606 56.3385 77.5975 56.0598 77.6631C55.6818 77.752 55.4082 78.006 55.0525 78.1291C54.5169 78.3145 53.9925 78.3952 53.4332 78.4751C52.783 78.5679 52.1517 78.6045 51.4844 78.6045C51.2407 78.6045 50.9531 78.5388 50.7218 78.4562C50.2704 78.295 49.7686 78.2762 49.3214 78.0749C49.0962 77.9736 48.8014 77.8926 48.5612 77.8325C48.2493 77.7545 47.9479 77.6367 47.6386 77.5454C47.014 77.3611 46.4083 77.0445 45.7745 76.9005C45.4574 76.8284 45.1701 76.6399 44.8566 76.5522C44.6675 76.4992 44.4813 76.4382 44.3035 76.3592C44.0922 76.2652 43.8442 76.1644 43.628 76.1026C43.558 76.0826 43.47 75.9919 43.395 75.959C43.3723 75.9491 43.2101 75.8931 43.2656 75.8931C43.5906 75.8931 43.9646 76.0488 44.2917 76.0955C45.0463 76.2033 45.8085 76.3656 46.5677 76.4415C46.8665 76.4714 47.1726 76.55 47.4691 76.6039C47.7561 76.6561 48.036 76.6938 48.307 76.8158C48.7684 77.0234 49.2453 77.1597 49.738 77.2582C50.381 77.3868 51.0602 77.4906 51.715 77.543C52.3771 77.596 53.007 77.7996 53.6827 77.7996C54.3012 77.7996 54.8894 77.7754 55.4855 77.5877C55.8333 77.4783 56.5258 77.4533 56.5258 76.9946C56.5258 76.7149 55.6998 76.7828 55.5303 76.7828C54.7989 76.7828 54.0791 76.9099 53.3485 76.9099C52.4977 76.9099 51.6998 76.8605 50.8583 76.731C49.9778 76.5956 49.1034 76.4356 48.2317 76.265C47.5705 76.1356 46.8877 76.0355 46.2335 75.872C46.0039 75.8146 45.7104 75.8864 45.4921 75.7872C45.2908 75.6957 45.0079 75.7523 44.7907 75.7213C44.6816 75.7057 44.4706 75.6389 44.4706 75.6389C44.4706 75.6389 45.1077 75.6447 45.4262 75.6389C45.7139 75.6337 46.0652 75.5964 46.3488 75.5448C46.6284 75.494 46.9303 75.3908 47.2149 75.3848C47.5157 75.3784 47.851 75.3691 48.1399 75.2788C48.468 75.1763 48.8599 75.2864 49.192 75.1941C49.5537 75.0936 49.8928 75.054 50.237 74.8976C50.4921 74.7816 50.7916 74.7026 51.0702 74.7822C51.283 74.8431 51.6199 74.828 51.8421 74.834C52.1389 74.842 52.5522 74.9446 52.8307 75.0458C53.2974 75.2156 53.7022 75.4397 54.111 75.7025C54.2978 75.8226 54.4859 76.0174 54.683 76.105C54.9397 76.2191 54.799 76.2463 54.5723 76.2109C53.9843 76.119 53.3813 76.0765 52.7883 76.0296C52.0896 75.9745 51.391 75.817 50.6889 75.8084C50.182 75.8022 49.671 75.7842 49.1637 75.766C48.7699 75.752 49.9512 75.7237 50.3452 75.7237C50.7759 75.7237 51.2012 75.708 51.6303 75.6719C51.7996 75.6577 52.2973 75.6409 52.134 75.5942C51.6823 75.4652 51.166 75.5119 50.7006 75.5119C50.1945 75.5119 49.5884 75.4151 49.0931 75.533C48.9222 75.5737 48.8126 75.6717 48.7518 75.8296C48.4467 76.6229 49.3824 77.0703 49.9828 77.3006C50.4494 77.4796 50.9042 77.6933 51.3667 77.8843C51.6154 77.987 51.9327 78.2155 52.2046 78.2232C52.5822 78.234 52.2708 78.092 52.0752 78.0114C51.4505 77.7542 50.7382 77.6937 50.0863 77.5242C48.7751 77.1833 47.5514 76.558 46.2429 76.2109C45.7285 76.0744 45.1895 75.9615 44.6824 75.8084C44.4553 75.7398 44.2199 75.7175 43.9952 75.6484C43.9695 75.6404 43.821 75.6511 43.821 75.6178C43.821 75.586 44.0346 75.5552 44.0611 75.5542C44.205 75.5491 44.3501 75.5542 44.4941 75.5542" stroke="black" stroke-linecap="round"/>
<path d="M50.1712 67.7578C50.1503 67.9663 50.0865 68.1971 50.0865 68.4027C50.0865 68.6136 50.0017 68.7852 50.0017 68.9864C50.0017 69.1826 49.917 69.3789 49.917 69.5795C49.917 69.8196 49.917 70.0597 49.917 70.2997C49.917 70.4901 49.8781 70.7285 49.9193 70.914C49.9599 71.0965 50.0444 71.2438 50.0841 71.4224C50.1198 71.5831 50.2136 71.7635 50.2136 71.9308C50.2136 72.0166 50.272 72.3837 50.3406 72.418" stroke="black" stroke-linecap="round"/>
<path d="M52.9671 69.0703C52.8245 69.0881 52.7634 69.8643 52.7553 70.0023C52.7359 70.3317 52.7129 70.6434 52.7129 70.9767C52.7129 71.1391 52.7129 71.3015 52.7129 71.4639C52.7129 71.5403 52.7618 71.8428 52.807 71.8994C52.8651 71.9719 52.8824 72.2128 52.8824 72.3112C52.8824 72.4391 52.9546 72.5617 53.0094 72.6714" stroke="black" stroke-linecap="round"/>
<path d="M46.3155 62.3359C46.2278 62.3469 46.1696 62.6854 46.1366 62.7596C46.0954 62.8522 46.1048 63.1739 46.0401 63.2256C45.9816 63.2724 45.9766 63.6095 45.9766 63.6916C45.9766 63.8681 45.9766 64.0447 45.9766 64.2212C45.9766 64.8057 46.0849 65.47 46.4755 65.904C46.6667 66.1164 46.7384 66.3809 46.9086 66.5936C47.1158 66.8526 47.5301 66.7247 47.7747 66.6548C47.9021 66.6184 48.004 66.462 48.1372 66.4454C48.2066 66.4367 48.517 66.3519 48.5608 66.2971C48.6311 66.2093 48.8786 66.2165 48.9751 66.1394C49.0847 66.0516 49.3557 66.0767 49.4505 65.9582C49.4976 65.8992 49.8174 65.8522 49.8953 65.8522C50.0669 65.8522 50.2433 65.8099 50.4249 65.8099C50.771 65.8099 51.0626 66.1094 51.3052 66.3277C51.5061 66.5085 51.7291 66.7389 51.8653 66.9773C51.9444 67.1156 52.0551 67.2634 52.1713 67.368C52.2833 67.4688 52.4385 67.4558 52.5643 67.5257C52.874 67.6977 53.3248 67.6268 53.6447 67.5892C53.7965 67.5714 54.0405 67.3998 54.1719 67.3162C54.3227 67.2202 54.4635 67.0879 54.6191 67.0055C54.844 66.8865 55.118 66.7092 55.3181 66.5536C55.486 66.423 55.7015 66.3502 55.89 66.2665C56.1878 66.1341 56.623 66.0641 56.9491 66.0641" stroke="black" stroke-linecap="round"/>
<path d="M54.5781 68.9015C54.7159 68.9015 54.9188 68.7654 55.0441 68.699C55.2416 68.5945 55.4133 68.4229 55.6137 68.3083C55.9154 68.136 56.2097 67.9622 56.5481 67.8871C56.8958 67.8098 57.2358 67.6428 57.5672 67.5481C57.6827 67.5151 57.892 67.4281 57.9768 67.3434C58.0736 67.2465 58.2903 67.0492 58.4122 66.995C58.5718 66.9241 58.6938 66.6813 58.7958 66.5502C58.9888 66.3021 59.1077 66.0543 59.2289 65.7664C59.4085 65.3399 59.3654 64.7448 59.3654 64.2837C59.3654 63.8176 59.3654 63.3516 59.3654 62.8856C59.3654 62.3833 58.998 61.9661 58.9417 61.4876C58.9239 61.3358 58.7927 61.1236 58.7205 60.9792C58.6084 60.755 58.461 60.5041 58.391 60.259C58.2551 59.7833 57.9586 59.2716 57.7131 58.8421C57.6042 58.6514 57.4417 58.4485 57.3648 58.2349C57.2892 58.0248 57.0978 57.8192 57.0377 57.6088C56.9786 57.4022 56.8778 57.1933 56.7905 56.9969C56.6918 56.7746 56.6755 56.5146 56.5905 56.2766C56.4975 56.0164 56.4466 55.7181 56.3975 55.4482C56.3571 55.2259 56.3723 54.912 56.2821 54.7091C56.2014 54.5274 56.2304 54.21 56.2304 54.0101C56.2304 53.7971 56.188 53.5749 56.188 53.344C56.188 52.7746 56.0171 52.058 56.2727 51.5318C56.3882 51.2939 56.5222 51.0737 56.6328 50.8304C56.7655 50.5385 56.8088 50.2202 56.9082 49.9219" stroke="black" stroke-linecap="round"/>
<path d="M56.6953 50.3019C56.8244 49.7693 57.0814 49.3273 57.3402 48.8615C57.5712 48.4457 58.0305 48.181 58.2534 47.76C58.3147 47.6443 58.4567 47.578 58.517 47.4422C58.5531 47.361 58.7193 47.1676 58.7947 47.1245C58.9063 47.0607 58.9701 46.9444 59.0772 46.8703C59.2308 46.7639 59.3696 46.6507 59.5338 46.5643C59.7707 46.4396 59.9928 46.2623 60.2328 46.1289C60.4937 45.9839 60.7868 45.8992 61.0589 45.7782C61.6634 45.5096 62.3218 45.5546 62.9559 45.4393C63.6956 45.3048 64.4201 45.3939 65.126 45.5899C65.5268 45.7013 65.94 45.7749 66.3334 45.8959C66.7017 46.0092 67.1524 46.0038 67.4984 46.1595C67.7197 46.2591 68.0098 46.3839 68.2375 46.449C68.3266 46.4745 68.6488 46.6291 68.6846 46.7008" stroke="black" stroke-linecap="round"/>
<path d="M35.7852 48.773C35.9806 48.773 36.0923 49.0734 36.2522 49.1606C36.3833 49.2321 36.4714 49.3765 36.6031 49.4497C36.7051 49.5063 36.7942 49.5848 36.8808 49.6541C36.9796 49.7332 37.1259 49.7742 37.228 49.8536C37.3383 49.9394 37.4692 50.0116 37.5915 50.0795C37.6873 50.1328 37.8118 50.1937 37.9159 50.2323C38.0628 50.2867 38.1895 50.3892 38.33 50.4595C38.7128 50.6509 38.9384 50.9821 39.2666 51.2447C39.3069 51.2769 39.3937 51.2981 39.4434 51.3229C39.4864 51.3444 39.5983 51.3639 39.6251 51.3974C39.656 51.436 39.8313 51.4542 39.8801 51.4542C39.9757 51.4542 40.0644 51.5041 40.1578 51.5211C40.4906 51.5816 40.8209 51.6814 41.1702 51.6814C41.3145 51.6814 41.4589 51.6814 41.6032 51.6814C41.8142 51.6814 42.0215 51.6133 42.2255 51.6133C42.2603 51.6133 42.3521 51.5951 42.3871 51.5792C42.4711 51.541 42.5804 51.5651 42.6698 51.5274C42.7661 51.4869 42.9278 51.4315 43.0334 51.4315C43.1562 51.4315 43.2921 51.3406 43.4083 51.3406C43.5563 51.3406 43.769 51.2624 43.9094 51.2156C44.0795 51.1589 44.2446 51.109 44.4144 51.0503C44.5618 50.9992 44.706 50.9162 44.8562 50.8584C45.031 50.7911 45.1936 50.7021 45.3636 50.6249C45.4946 50.5653 45.6484 50.5218 45.7701 50.4444C46.1167 50.2238 46.526 50.0875 46.8683 49.8637C47.2067 49.6424 47.543 49.4198 47.8617 49.1719C47.9894 49.0726 48.144 48.9679 48.2821 48.8816C48.3646 48.83 48.4867 48.7273 48.532 48.6367" stroke="black" stroke-linecap="round"/>
<path d="M48.5789 48.5913C48.5789 48.4272 48.4406 48.2485 48.3289 48.1368C48.1621 47.97 47.9013 47.8725 47.6927 47.7682C47.5643 47.704 47.4456 47.6169 47.3191 47.5461C47.2254 47.4936 47.1334 47.4368 47.0451 47.3756C46.9737 47.3262 46.8708 47.3047 46.8066 47.2507C46.6859 47.1491 46.5153 47.1051 46.3749 47.0348C46.2082 46.9515 46.0295 46.8242 45.8523 46.7735C45.531 46.6817 45.2663 46.4113 44.9434 46.3191C44.6628 46.2389 44.4273 46.0353 44.1481 45.9555C43.7303 45.8362 43.3346 45.6602 42.8984 45.6602" stroke="black" stroke-linecap="round"/>
<path d="M42.8749 45.707C42.8295 45.8232 42.8149 45.9059 42.7284 45.9923C42.6762 46.0445 42.6163 46.1298 42.5795 46.1943C42.5325 46.2765 42.3999 46.4341 42.2955 46.4341C42.1403 46.4341 41.9458 46.4662 41.7956 46.4329C41.6935 46.4102 41.595 46.4219 41.4888 46.4101C41.406 46.4009 41.2325 46.4179 41.1594 46.3773C41.045 46.3138 40.7728 46.366 40.6431 46.366C40.3884 46.366 40.13 46.3787 39.8756 46.366C39.5183 46.3481 39.1648 46.2524 38.8077 46.2524C38.6136 46.2524 38.3731 46.2934 38.1828 46.2511C38.0337 46.218 37.8763 46.2344 37.7297 46.2763C37.3756 46.3775 36.9987 46.469 36.639 46.5717C36.3635 46.6504 36.1537 46.8259 35.9334 47.0022C35.7489 47.1497 35.8804 47.2067 36.047 47.2067C36.2121 47.2067 36.3668 47.1385 36.5241 47.1385C36.7524 47.1385 36.9704 47.0476 37.1944 47.0476C37.2739 47.0476 37.341 47.0249 37.4216 47.0249C37.5138 47.0249 37.6566 47.0223 37.7448 46.9971C37.9557 46.9369 38.2017 46.9567 38.4214 46.9567C38.6995 46.9567 38.98 46.934 39.2621 46.934C39.5664 46.934 39.8778 46.8886 40.1823 46.8886C40.2788 46.8886 40.382 46.8431 40.4777 46.8431C40.5626 46.8431 40.6551 46.8538 40.739 46.8419C41.0443 46.7982 41.3699 46.8204 41.682 46.8204C41.8583 46.8204 42.022 46.8247 42.1932 46.8608C42.3819 46.9005 42.594 46.8852 42.7436 47.0198C42.8143 47.0835 42.873 47.0888 42.9153 47.1839C42.9451 47.2511 42.943 47.3374 42.943 47.4112C42.943 47.5626 42.943 47.7141 42.943 47.8656C42.943 48.2132 43.0112 48.54 43.0112 48.8881C43.0112 49.0758 42.9915 49.2618 42.9153 49.4334C42.8784 49.5164 42.8334 49.6025 42.8016 49.6884C42.7653 49.7864 42.6751 49.9513 42.6022 50.0242" stroke="black" stroke-linecap="round"/>
<path d="M42.171 51.0436C42.2345 51.0171 42.3107 50.9039 42.3642 50.8504C42.4033 50.8113 42.4358 50.7701 42.4714 50.7305C42.5272 50.6686 42.6002 50.6166 42.6431 50.5437C42.6908 50.4626 42.7796 50.402 42.8249 50.3165C42.8575 50.2548 42.8836 50.1471 42.9259 50.0943C43.0247 49.9708 42.9953 49.74 43.0622 49.5894C43.1413 49.4115 43.1481 49.1266 43.1481 48.9304C43.1481 48.6995 43.2453 48.354 43.1531 48.1352C43.1068 48.0251 43.0955 47.8887 43.0117 47.7944C42.9402 47.7139 42.8664 47.6389 42.7896 47.5621C42.7382 47.5107 42.8477 47.6972 42.8931 47.754C42.9477 47.8222 42.9475 47.9266 43.0117 47.9988C43.1369 48.1397 43.2426 48.3051 43.2831 48.4874C43.3225 48.6646 43.3071 48.866 43.3071 49.0554C43.3071 49.2773 43.239 49.4586 43.1922 49.6689C43.164 49.7961 43.0504 49.9918 42.9663 50.088C42.8391 50.2334 42.7527 50.3937 42.6141 50.5323C42.3925 50.7539 42.1622 50.8091 41.8655 50.863C41.1877 50.9863 40.3785 51.0077 39.7512 50.6699C39.4989 50.5341 39.2497 50.3978 39.0253 50.2142C38.8722 50.089 38.6719 49.8443 38.6719 49.6348C38.6719 49.4448 38.6842 49.2602 38.7451 49.0844C38.8389 48.8134 38.9951 48.574 39.149 48.3346C39.286 48.1216 39.4286 47.9105 39.5757 47.7035C39.6383 47.6154 39.676 47.4946 39.7512 47.4194C39.8209 47.3497 39.7726 47.6013 39.7625 47.6353C39.6684 47.9529 39.6766 48.2967 39.5807 48.6123C39.5383 48.7521 39.5274 48.8996 39.5113 49.044C39.5038 49.112 39.4705 49.1808 39.4671 49.2485C39.4585 49.4216 39.3598 49.6894 39.4722 49.8393C39.5972 50.006 39.8103 50.0892 39.9986 50.1561C40.2264 50.2371 40.4625 50.3116 40.6992 50.3619C40.9181 50.4084 41.1431 50.4073 41.3657 50.4073C41.5007 50.4073 41.6951 50.4235 41.7797 50.2887C41.969 49.9872 41.9709 49.5623 41.9665 49.2208C41.9638 49.0075 41.8423 48.8176 41.7633 48.625C41.6935 48.4548 41.6036 48.2774 41.4389 48.1806C41.0557 47.9556 40.5559 47.8413 40.4038 48.3902C40.3121 48.7209 40.3439 49.1107 40.3545 49.4505C40.364 49.7546 40.4789 50.0286 40.7623 50.1751C40.9408 50.2674 41.1229 50.2881 41.2621 50.1334C41.4057 49.9739 41.4439 49.7841 41.4439 49.578C41.4439 49.1342 41.1051 48.9307 40.7295 48.8055C40.5646 48.7505 40.5734 48.6245 40.559 48.452C40.5478 48.3167 40.5351 48.1854 40.5351 48.0493C40.5351 47.9014 40.5297 47.8998 40.6032 48.0468C40.824 48.4883 40.9054 48.9934 40.9655 49.4745C40.9747 49.5482 40.8793 49.3328 40.8481 49.2889C40.6675 49.0344 40.4468 48.7983 40.3545 48.4937C40.2277 48.0752 40.1735 47.5686 40.5691 47.2755C40.8461 47.0704 41.2913 47.2039 41.579 47.3046C41.7986 47.3814 41.9034 47.7339 41.9779 47.9408C42.0628 48.1765 42.1766 48.4076 42.2493 48.6464C42.2879 48.7734 42.3335 49.1127 42.1369 49.1564C41.9338 49.2015 42.0499 48.5332 42.0688 48.4432C42.1348 48.1279 42.1483 47.8327 42.1483 47.5116C42.1483 47.4526 42.1901 47.4272 42.2392 47.4762C42.3122 47.5493 42.2917 47.7184 42.272 47.8057C42.1538 48.329 41.7575 48.7089 41.4439 49.1223C41.2943 49.3195 41.0624 49.5117 40.8532 49.6462C40.7445 49.716 40.6653 49.7939 40.5351 49.7939" stroke="black" stroke-linecap="round"/>
<path d="M38.7634 49.8651C38.6941 49.8559 38.5202 49.8251 38.463 49.7793C38.4245 49.7485 38.3297 49.7772 38.2913 49.7465C38.2064 49.6786 38.0717 49.6662 37.9858 49.5975C37.9046 49.5325 37.7542 49.5363 37.6778 49.4738C37.6232 49.4292 37.5609 49.4226 37.5086 49.3703C37.4733 49.335 37.4369 49.2865 37.39 49.2731C37.1825 49.2138 36.9842 49.0598 36.7765 49.0004C36.7278 48.9865 36.6859 48.9259 36.6376 48.9121C36.6 48.9013 36.4913 48.8598 36.4685 48.8313C36.4126 48.7614 36.2318 48.7243 36.1504 48.6836" stroke="black" stroke-linecap="round"/>
<path d="M42.7617 51.205C42.826 51.1738 42.9453 51.1808 42.994 51.1419C43.0162 51.1241 43.0755 51.1387 43.1025 51.1318C43.1636 51.1161 43.2211 51.079 43.2843 51.0699C43.3448 51.0613 43.4146 51.0035 43.4661 51.0005C43.5347 50.9965 43.5932 50.9912 43.6592 50.9765C43.8907 50.9251 44.0835 50.7812 44.3182 50.7291C44.5615 50.675 44.821 50.615 45.0667 50.5448C45.1502 50.5209 45.2434 50.453 45.3192 50.4097C45.4244 50.3496 45.5355 50.3179 45.636 50.262C45.8554 50.1401 46.1229 50.0975 46.3517 49.9831C46.595 49.8614 46.912 49.7732 47.1192 49.5867C47.2102 49.5048 47.3763 49.438 47.4878 49.3822C47.5996 49.3263 47.6777 49.2272 47.7832 49.1651C47.8795 49.1085 47.9854 48.999 48.0609 48.9151C48.1205 48.8489 48.1294 48.7029 48.2149 48.6602" stroke="black" stroke-linecap="round"/>
<path d="M43.1641 46.6758C43.2938 46.6968 43.5062 46.7182 43.6243 46.7924C43.7087 46.8456 43.8441 46.8348 43.9181 46.894C44.02 46.9756 44.232 47.0373 44.3599 47.0658C44.4647 47.089 44.5644 47.1566 44.671 47.1803C44.7625 47.2006 44.8639 47.2212 44.954 47.2494C45.1976 47.3255 45.4565 47.3499 45.6962 47.4298C46.1326 47.5753 46.5747 47.7152 47.013 47.8522C47.1807 47.9046 47.3431 47.9377 47.5089 47.998C47.5787 48.0234 47.6516 48.0641 47.7217 48.0952C47.7712 48.1172 47.8024 48.1686 47.8502 48.1925" stroke="black" stroke-linecap="round"/>
<path d="M58.3125 48.1212C58.3125 48.8282 60.0244 47.8137 60.3175 47.6509C60.5097 47.5441 60.7357 47.5174 60.9363 47.4171C61.1532 47.3086 61.368 47.1929 61.5798 47.0926C61.7638 47.0054 62.0755 46.856 62.2729 46.834C62.531 46.8053 62.7695 46.6055 63.0265 46.5865C63.3787 46.5604 63.8215 46.4685 64.1569 46.3637C64.4865 46.2607 64.989 46.3364 65.3147 46.3885C65.7521 46.4585 66.1743 46.5431 66.6046 46.6388C66.8869 46.7015 67.1095 46.954 67.3444 47.1036C67.5431 47.2299 67.7636 47.3522 67.9275 47.5161C68.097 47.6856 68.2298 47.931 68.3731 48.1102C68.5198 48.2936 68.5785 48.5691 68.7086 48.7757C68.7546 48.8489 69.1541 49.4531 69.1541 49.2103C69.1541 48.7032 69.364 47.8633 68.8819 47.4776C68.5872 47.2419 68.2545 47.1768 67.8945 47.0568C67.3309 46.8689 66.748 46.7618 66.1618 46.6608C65.0654 46.4717 63.9874 46.339 62.878 46.339C62.4196 46.339 61.9563 46.3423 61.5303 46.537C61.1819 46.6963 60.9231 46.9446 60.5897 47.1201C60.3357 47.2537 60.0986 47.4773 59.8719 47.6536C59.688 47.7967 59.4715 48.009 59.2751 48.1212C59.1606 48.1866 58.9226 48.4546 58.7855 48.4154C58.5967 48.3615 59.1817 47.8364 59.2063 47.7994C59.3557 47.5754 59.9117 47.4739 60.1332 47.3291C60.384 47.1651 60.7443 46.9716 61.0353 46.8945C61.8707 46.6734 62.8483 46.6855 63.7086 46.6855" stroke="black" stroke-linecap="round"/>
<path d="M57.7246 52.1868C57.7246 51.9593 57.8261 51.7561 57.8379 51.545C57.8452 51.4128 57.9291 51.2794 57.9532 51.1465C57.9747 51.0285 58.0255 50.8373 58.0833 50.7333C58.2647 50.4067 58.4857 50.0966 58.7733 49.8378C59.0915 49.5514 59.4402 49.2983 59.7821 49.0324C60.1927 48.713 60.7549 48.596 61.2545 48.4849C61.567 48.4155 61.8942 48.336 62.2172 48.336C62.5534 48.336 62.9337 48.2265 63.2743 48.3067C63.6164 48.3872 63.9457 48.4119 64.2852 48.5332C64.6758 48.6727 65.055 48.851 65.4262 49.0366C65.9538 49.3004 66.4782 49.7053 66.8692 50.1398C67.2419 50.5539 67.4157 51.1071 67.6536 51.5828" stroke="black" stroke-linecap="round"/>
<path d="M57.7988 52.1835C57.7988 52.5568 58.0316 52.8708 58.2519 53.1462C58.3302 53.244 58.5212 53.3538 58.6483 53.3538C58.8466 53.3538 59.0302 53.4935 59.2334 53.5048C59.3077 53.5089 59.4513 53.5629 59.5166 53.5992C59.595 53.6427 59.7124 53.6132 59.7997 53.6181C59.9514 53.6265 60.2121 53.6501 60.3492 53.7124C60.4609 53.7632 60.5916 53.7126 60.7058 53.7607C60.7838 53.7935 60.9979 53.8068 61.0833 53.8068C61.3728 53.8068 61.6622 53.8068 61.9516 53.8068C62.455 53.8068 62.9584 53.8068 63.4617 53.8068C63.6743 53.8068 63.8912 53.8186 64.1035 53.8068C64.3044 53.7957 64.4958 53.6966 64.6887 53.6537C65.0932 53.5638 65.4719 53.3306 65.8402 53.1357C66.1616 52.9655 67.3475 52.1079 67.6024 51.853C67.9469 51.5085 66.2931 52.1457 66.0856 52.1457C65.6798 52.1457 65.3036 52.3569 64.9047 52.3722C64.7221 52.3792 64.5469 52.4477 64.3678 52.4477C64.1886 52.4477 63.957 52.3816 63.7847 52.3324C63.601 52.2799 63.4626 52.2287 63.5666 51.9947C63.6146 51.8867 63.6893 51.6918 63.7826 51.6172C63.8568 51.5579 63.9525 51.2694 63.9525 51.183C63.9525 51.0073 63.9903 50.8266 63.9903 50.6356C63.9903 50.4501 63.9148 50.2532 63.9148 50.0693C63.9148 49.8823 63.8015 49.7206 63.8015 49.5596C63.8015 49.4682 63.678 49.2502 63.5918 49.201C63.4949 49.1456 63.414 49.0665 63.3107 49.0206C63.2128 48.9771 63.1055 48.9859 63.0087 48.9451C62.9025 48.9004 62.6625 48.9294 62.5578 48.9556C62.2732 49.0267 61.9866 49.1051 61.7041 49.1842C61.3946 49.2709 60.9805 49.4302 60.7435 49.654C60.1884 50.1784 59.5106 50.5373 59.0635 51.183C58.9754 51.3103 58.9679 51.4477 58.902 51.5794C58.901 51.5814 58.8937 51.3019 58.8937 51.2208C58.8937 50.7525 58.9893 50.3108 59.4306 50.0399C59.8528 49.7809 60.4565 49.7295 60.9407 49.7295C61.0471 49.7295 61.2563 49.6715 61.2322 49.8281C61.1916 50.0925 60.7426 50.3673 60.5338 50.4825C60.2609 50.633 59.9671 50.7634 59.6865 50.8999C59.533 50.9745 59.4157 51.0922 59.2712 51.1725C59.2061 51.2087 59.1121 51.3427 59.0824 51.4095C59.0262 51.5361 58.8768 51.6475 58.7993 51.7682C58.6595 51.9856 58.4488 52.2293 58.7657 52.3533C59.524 52.6501 60.348 52.9038 61.1504 53.0434C61.8188 53.1596 62.4898 53.165 63.1681 53.165C63.4883 53.165 63.8085 53.165 64.1287 53.165C64.2636 53.165 64.6684 53.165 64.5335 53.165C64.4457 53.165 64.3568 53.1606 64.2692 53.1671C63.1035 53.2535 61.8914 53.1682 60.7582 52.8609C60.3594 52.7527 59.6766 52.6769 59.3928 52.3345C59.2259 52.133 59.3263 51.8258 59.4306 51.6172C59.6002 51.2779 60.0143 51.078 60.3681 50.9942C60.6413 50.9296 61.1195 50.7395 61.3832 50.9208C61.6224 51.0852 61.6264 51.5776 61.5573 51.8227C61.4549 52.1865 60.9402 52.3667 60.6009 52.3722C60.2522 52.3778 60.1226 52.2437 59.9528 51.936C59.7258 51.5244 59.9493 51.1398 60.3283 50.946C60.7098 50.7509 61.147 50.6733 61.572 50.6733C61.9248 50.6733 61.789 51.4084 61.723 51.5941C61.6195 51.8853 61.3652 52.2439 61.0456 52.3261C60.8144 52.3855 60.9529 51.8792 60.991 51.7682C61.1233 51.3833 61.3399 51.0322 61.4608 50.644C61.5487 50.362 61.7828 50.1775 61.96 49.956C62.084 49.801 62.3062 49.6488 62.5137 49.7526C62.7624 49.8769 62.7067 50.4597 62.7067 50.6733C62.7067 50.8502 62.7319 51.0484 62.6668 51.2166C62.6039 51.3792 62.4987 51.5178 62.4235 51.6738C62.3572 51.8115 62.2654 51.9335 62.197 52.0702C62.1848 52.0947 62.1318 52.2925 62.1215 52.2925C62.1121 52.2925 62.3256 51.5934 62.3375 51.55C62.441 51.1744 62.5557 50.8385 62.5557 50.4468C62.5557 50.1317 62.7136 49.9349 63.0276 50.0316C63.3318 50.1252 63.2352 50.8051 63.2352 51.0509C63.2352 51.3149 63.3198 51.7475 63.122 51.9569C62.7987 52.2992 62.2219 52.5344 61.7587 52.5903C61.4529 52.6273 60.9606 52.2923 60.7079 52.1436C60.4653 52.0009 60.2201 51.8075 60.0829 51.5605C59.9992 51.41 60.0185 51.7578 60.0346 51.8143C60.11 52.078 60.2777 52.2281 60.5191 52.3701C61.2035 52.7727 62.0365 52.9841 62.8116 53.1189C63.2881 53.2018 63.7419 52.9385 64.2168 52.9385C64.3918 52.9385 64.9234 52.96 65.0096 52.7875" stroke="black" stroke-linecap="round"/>
<path d="M63.1223 49.4297C62.9946 49.5824 62.9247 49.7261 62.8203 49.8827" stroke="black" stroke-linecap="round"/>
<path d="M60.2474 50.6328C60.1296 50.9508 60.0586 51.2062 60.0586 51.5389" stroke="black" stroke-linecap="round"/>
<path d="M63.0469 52.5625C63.1075 52.7007 63.1708 52.8481 63.2356 52.9778" stroke="black" stroke-linecap="round"/>
<path d="M58.5857 47.9879C58.4736 48.1511 58.2972 48.3465 58.3613 48.571C58.3971 48.6964 58.6392 48.6493 58.699 48.7241C58.755 48.7941 59.0065 48.7807 59.0954 48.7807C59.2395 48.7807 59.4501 48.6525 59.5862 48.592C60.1646 48.3349 60.6314 47.8673 61.2096 47.6104C61.5464 47.4607 61.8697 47.2923 62.21 47.149C62.5537 47.0043 62.9302 46.9399 63.2671 46.7715C63.5883 46.6108 63.9136 46.4913 64.278 46.4778C64.4342 46.472 64.7079 46.4583 64.8527 46.3939C65.0045 46.3264 65.197 46.3623 65.3435 46.2891" stroke="black" stroke-linecap="round"/>
<path d="M58.3867 51.5263C58.3867 51.4228 58.4121 51.3444 58.5009 51.2852" stroke="black" stroke-linecap="round"/>
<path d="M60.4297 49.3212C60.4741 49.2478 60.5176 49.1843 60.5439 49.1055" stroke="black" stroke-linecap="round"/>
<path d="M60.5059 46.6434C60.5478 46.5343 60.5896 46.4965 60.6934 46.4531C60.7761 46.4185 60.865 46.4266 60.95 46.4023" stroke="black" stroke-linecap="round"/>
</svg>
