<svg width="100" height="101" viewBox="0 0 100 101" fill="none" xmlns="http://www.w3.org/2000/svg">
<path d="M58.2734 65.3551C58.2734 65.2779 58.3713 65.1646 58.4117 65.0939C58.4695 64.9928 58.5846 64.8968 58.6329 64.7883C58.6769 64.6891 58.8976 64.5014 58.9923 64.4488C59.1236 64.3759 59.2719 64.2736 59.3794 64.1662C59.5893 63.9562 59.8213 63.7534 60.0567 63.5702C60.3487 63.3432 60.6486 63.0768 60.9968 62.922C61.1465 62.8555 61.2765 62.73 61.4253 62.6517C61.684 62.5155 61.9498 62.3812 62.2087 62.2431C62.5062 62.0844 62.9127 62.0524 63.2363 61.9805C63.3308 61.9595 63.5161 61.935 63.588 61.8775C63.6592 61.8206 63.9554 61.8714 64.0457 61.8714C64.3292 61.8714 64.5966 61.8438 64.8813 61.8438" stroke="black" stroke-linecap="round"/>
<path d="M48.724 62.2886C48.3808 62.2886 47.8945 62.5502 47.8945 62.8269C47.8945 63.1029 48.1155 63.2479 48.3784 63.131C48.5612 63.0498 48.8433 62.6917 48.724 62.4828C48.6677 62.3843 48.4892 62.3723 48.3922 62.3584C48.2572 62.3391 48.1434 62.4815 48.1434 62.6057C48.1434 62.8556 48.1269 63.0316 48.3645 63.1372C48.6155 63.2487 48.9614 63.0729 49.1802 62.9513C49.4202 62.818 49.6821 62.6792 49.899 62.5105C49.9789 62.4483 50.1355 62.376 50.2323 62.3584C50.433 62.3219 50.6516 62.2022 50.8529 62.191C50.9625 62.1849 51.0663 62.1081 51.1846 62.1081C51.3151 62.1081 51.4323 62.0804 51.5656 62.0804C51.9227 62.0804 52.3282 61.9693 52.6746 61.8731C53.1011 61.7546 53.5636 61.7176 53.9925 61.6396C54.353 61.574 54.7162 61.5347 55.0769 61.466C55.5466 61.3765 56.0334 61.2636 56.4869 61.1066C56.8566 60.9786 57.225 60.8049 57.599 60.698C58.0591 60.5666 58.4872 60.3004 58.9246 60.1036C59.3314 59.9205 59.6945 59.6545 60.0873 59.4477C60.3913 59.2877 60.7475 59.0845 60.9997 58.8456C61.1255 58.7264 61.3187 58.6648 61.4421 58.5415C61.5497 58.4338 61.7005 58.3062 61.8291 58.2235C62.0201 58.1008 62.1789 57.9152 62.3391 57.755C62.4457 57.6484 62.528 57.4865 62.6448 57.3956C62.9157 57.1849 63.1333 56.8778 63.3774 56.6337C63.6495 56.3617 63.8979 56.0781 64.1639 55.8043C64.3468 55.616 64.5157 55.4125 64.6554 55.1899C64.7562 55.0293 64.9301 54.8696 64.9826 54.6861C65.0413 54.4805 65.2541 54.3164 65.3143 54.1055C65.3738 53.8974 65.5611 53.6606 65.706 53.5157C65.8742 53.3474 66.1097 53.3713 66.3358 53.3713C66.5172 53.3713 66.5644 53.3612 66.6184 53.5433C66.667 53.7075 66.419 53.7898 66.3358 53.9395C66.2805 54.039 65.5659 54.1157 65.4548 54.1316C65.2853 54.1558 65.9895 54.3222 65.9472 54.1316C65.9166 53.9942 65.6493 53.5151 65.9487 53.4819C66.0282 53.473 66.2168 53.3199 66.302 53.4051C66.3842 53.4873 66.1977 53.6875 66.1484 53.7368C65.9794 53.9059 65.7552 53.637 65.7552 53.468C65.7552 53.3868 65.857 53.4167 65.9487 53.3905C65.9986 53.3762 66.2715 53.3326 66.302 53.3707C66.3878 53.4779 66.4187 53.4031 66.4187 53.551C66.4187 53.6551 66.2936 53.7044 66.2528 53.786" stroke="black" stroke-linecap="round"/>
<path d="M48.6133 62.4144C48.8311 62.1069 49.2796 62.0973 49.5671 61.8737C49.9028 61.6126 50.3366 61.4582 50.7145 61.2593C51.0538 61.0808 51.3693 60.8749 51.6407 60.6034C51.8542 60.3899 52.0727 60.1712 52.2628 59.9322C52.4358 59.7148 52.5582 59.516 52.6914 59.2763C52.8766 58.943 53.0188 58.5777 53.1691 58.2395C53.2245 58.1148 53.3259 57.9335 53.3411 57.7972C53.3517 57.7019 53.4198 57.4377 53.5208 57.4377C53.8745 57.4377 54.2138 57.3462 54.5576 57.3271C54.7418 57.3169 54.926 57.269 55.1106 57.2427C55.2677 57.2202 55.4914 57.204 55.6359 57.1398C55.7867 57.0727 55.9772 57.0863 56.1335 57.0169C56.3617 56.9155 56.5375 56.8069 56.7295 56.6498C56.8032 56.5895 56.8858 56.4817 56.963 56.4363C57.0553 56.382 57.0817 56.2542 57.1704 56.1951C57.2548 56.1388 57.3304 56.0197 57.4054 55.9447C57.4773 55.8728 57.556 55.8217 57.6265 55.7512C57.7594 55.6184 57.9348 55.4531 58.0966 55.358C58.1384 55.3334 58.2569 55.2259 58.2901 55.1844C58.324 55.142 58.3721 55.0939 58.4145 55.06C58.4687 55.0167 58.4914 54.9432 58.5451 54.9003C58.5975 54.8584 58.7741 54.8941 58.8431 54.8941C59.0767 54.8941 59.2997 54.9218 59.5327 54.9218C60.0473 54.9218 60.5516 54.8861 61.061 54.8665C61.2054 54.8609 61.3536 54.7996 61.4988 54.7851C61.6724 54.7677 61.8523 54.7446 62.0226 54.7067C62.3683 54.6299 62.7466 54.5803 63.0993 54.5362C63.6927 54.4621 64.3342 54.2774 64.8703 54.0094C65.0655 53.9118 65.2971 53.8394 65.4648 53.7053C65.5543 53.6336 65.7549 53.5117 65.8657 53.5117" stroke="black" stroke-linecap="round"/>
<path d="M49.9688 62.1933C50.2555 62.1015 50.5476 62.0533 50.8243 61.9322C51.0597 61.8292 51.2866 61.6602 51.5309 61.5851C51.6742 61.541 51.7976 61.4373 51.9379 61.3854C52.0717 61.3358 52.1866 61.2081 52.3188 61.1703C52.4805 61.1242 52.6523 60.9863 52.7889 60.8877C52.9373 60.7805 53.1017 60.6919 53.2435 60.5759C53.5135 60.355 53.8071 60.16 54.076 59.94C54.3467 59.7185 54.6611 59.5518 54.93 59.3317C55.1709 59.1347 55.4451 58.9421 55.7195 58.8049C55.943 58.6932 56.1453 58.5051 56.3693 58.4055C56.4713 58.3602 56.5424 58.2501 56.6473 58.212C56.7355 58.1799 56.8868 58.0966 56.9576 58.04C57.0959 57.9293 57.2905 57.88 57.4675 57.8188C58.2475 57.5488 58.9736 57.1356 59.7009 56.7528C59.9947 56.5981 60.3053 56.4388 60.5795 56.249C60.8407 56.0681 61.149 55.9382 61.3874 55.7237C61.4701 55.6492 61.607 55.5709 61.7053 55.5163C61.8017 55.4628 61.8718 55.3839 61.968 55.3305C62.091 55.2621 62.191 55.1569 62.3121 55.0878C62.3802 55.0488 62.4198 54.9586 62.4933 54.9219" stroke="black" stroke-linecap="round"/>
<path d="M48.602 45.793C48.662 45.8005 48.428 46.2386 48.414 46.3017C48.3775 46.4661 48.2923 46.6199 48.2234 46.7749C48.157 46.9244 48.0431 47.0716 48.0092 47.2244C47.9903 47.3095 47.939 47.3857 47.9172 47.4623C47.8958 47.5372 47.8691 47.659 47.808 47.72C47.6972 47.8308 47.6213 48.0126 47.5189 48.1406C47.4267 48.2558 47.3468 48.4396 47.2823 48.5849C47.1209 48.948 46.9446 49.2921 46.9221 49.6969C46.9121 49.8775 46.8984 50.0656 46.8984 50.253C46.8984 50.3674 46.899 50.4742 46.9234 50.5842C46.9434 50.6741 46.9931 50.7753 46.9931 50.8681C46.9931 51.0766 47.1532 51.2687 47.2073 51.4583C47.2671 51.6675 47.4736 51.8574 47.6201 52.0038C47.8154 52.1992 48.1246 52.2964 48.3654 52.4231C48.4742 52.4804 48.6616 52.5503 48.786 52.5598C48.8546 52.5651 48.9141 52.6045 48.9858 52.6072C49.0457 52.6094 49.1385 52.6261 49.1935 52.6492C49.2433 52.6702 49.3104 52.6563 49.3644 52.6729C49.4112 52.6873 49.5003 52.6993 49.5484 52.7018C49.6457 52.7069 49.7373 52.7255 49.8323 52.7255C49.9204 52.7255 51.0883 52.4676 51.1105 52.4231" stroke="black" stroke-linecap="round"/>
<path d="M50.8145 51.5354C51.4148 51.5354 52.4822 51.0407 52.4822 51.9316C52.4822 52.0354 52.3572 52.2045 52.2692 52.2563C52.1602 52.3204 52.062 52.5043 51.9676 52.4309C51.7751 52.2811 52.0273 52.6795 51.3619 52.2563" stroke="black" stroke-linecap="round"/>
<path d="M55.8887 50.4549C55.8887 50.0561 55.9691 49.6491 56.1857 49.3087C56.3663 49.0249 56.6716 48.6094 57.0362 48.6094C57.255 48.6094 57.3887 48.9843 57.3793 49.1536C57.3609 49.4849 56.8907 49.3902 56.6695 49.3902" stroke="black" stroke-linecap="round"/>
<path d="M59.1295 49.6495C59.3458 49.4458 59.4955 49.2384 59.5843 48.9396C59.6805 48.6161 59.8156 48.2787 59.8156 47.9354C59.8156 47.688 59.8692 47.4474 59.8143 47.2006C59.7697 46.9996 59.6256 46.803 59.6027 46.5973C59.5789 46.3833 59.3774 46.2952 59.2767 46.124C59.2364 46.0556 59.1038 45.9464 59.0349 45.9058C58.9414 45.8509 58.8662 45.7328 58.7641 45.6745C58.6739 45.623 58.5983 45.5266 58.5025 45.4734C58.4125 45.4234 58.317 45.3943 58.2304 45.3485C58.1345 45.2978 58.0219 45.2215 57.9176 45.1829C57.7816 45.1325 57.6521 45.0215 57.5088 44.9897C57.4009 44.9657 57.2951 44.896 57.1893 44.8582C57.0599 44.812 56.9299 44.7752 56.8003 44.7281C56.4917 44.6159 56.1625 44.5299 55.8407 44.4494C55.7132 44.4176 55.5894 44.3779 55.4621 44.3443C55.3202 44.3067 55.1969 44.2046 55.0599 44.1655C54.7259 44.0701 54.4559 43.8015 54.1963 43.5819C54.0587 43.4655 53.9324 43.3391 53.8164 43.202C53.7309 43.1009 53.5787 42.9662 53.5456 42.8339C53.5253 42.7527 53.4554 42.7126 53.4273 42.6354C53.4075 42.5808 53.3578 42.4913 53.3209 42.4462C53.2333 42.3391 53.1941 42.1998 53.0961 42.1018C53.019 42.0247 52.9781 41.9217 52.9068 41.8415C52.8396 41.7659 52.755 41.6931 52.6939 41.6167C52.6049 41.5055 52.4953 41.3735 52.4336 41.25" stroke="black" stroke-linecap="round"/>
<path d="M32.5364 45.5808C32.5364 45.453 32.4875 45.2862 32.3826 45.2022C32.2834 45.1229 32.2838 44.9671 32.1933 44.8947C32.0957 44.8166 32.0853 44.6 31.9803 44.5161C31.9373 44.4817 31.951 44.3838 31.9094 44.3505C31.8534 44.3057 31.8468 44.2071 31.8147 44.1493C31.6677 43.8847 31.549 43.6314 31.4966 43.3436C31.4591 43.1372 31.4046 42.927 31.3783 42.7166C31.364 42.6019 31.3297 42.4767 31.3297 42.3617C31.3297 42.2634 31.311 42.0866 31.2705 41.9976C31.246 41.9436 31.235 41.8132 31.235 41.7531C31.235 41.6705 31.2114 41.597 31.2114 41.5112C31.2114 41.3515 31.1641 41.1936 31.1641 41.0327C31.1641 40.6419 31.1641 40.2511 31.1641 39.8602C31.1641 39.4567 31.211 39.0523 31.3349 38.6667C31.4631 38.2681 31.5204 37.8229 31.6898 37.4416C31.8535 37.0734 32.0053 36.704 32.2643 36.3874C32.5081 36.0894 32.7128 35.7837 33.0083 35.5251C33.2644 35.301 33.5451 35.1191 33.814 34.91C34.0908 34.6947 34.3712 34.4723 34.6658 34.283C34.7747 34.213 34.8612 34.1102 34.9747 34.0463C35.0921 33.9803 35.2112 33.9237 35.3296 33.8571C35.6202 33.6936 35.9436 33.6158 36.2405 33.4772C36.5006 33.3558 36.8451 33.3111 37.1265 33.259C37.3024 33.2264 37.477 33.1889 37.6523 33.1538C37.8008 33.1241 37.9719 33.1237 38.115 33.0828C38.3612 33.0125 38.655 33.0408 38.9115 33.0408C39.0479 33.0408 39.1854 33.0357 39.3217 33.0408C39.3975 33.0436 39.5321 33.0471 39.6056 33.0697C39.9096 33.1633 40.2231 33.3323 40.4574 33.5666C40.6344 33.7436 40.5136 34.0849 40.4205 34.2711C40.2934 34.5254 40.0447 34.7048 39.8711 34.9218C39.7794 35.0364 39.6172 35.0719 39.5044 35.1597C39.3474 35.2818 39.1795 35.417 38.9825 35.4528C38.7814 35.4894 38.5973 35.5488 38.3923 35.5488C38.1545 35.5488 37.912 35.5724 37.6707 35.5724C37.1537 35.5724 36.6366 35.5724 36.1196 35.5724C35.5584 35.5724 34.9977 35.64 34.4529 35.7801C34.2644 35.8286 34.0596 35.8821 33.885 35.9694C33.7677 36.0281 33.6183 36.0692 33.5117 36.1403C33.438 36.1894 33.3358 36.2237 33.2698 36.2823C33.214 36.3319 33.085 36.3788 33.0148 36.4058C32.9349 36.4366 32.8701 36.5069 32.7966 36.5478C32.6478 36.6305 32.4169 36.8185 32.3287 36.9684C32.2662 37.0747 32.1802 37.1605 32.1289 37.276C32.0836 37.3778 32.0447 37.5337 31.9738 37.6125C31.8926 37.7027 31.8527 37.8855 31.8029 37.9976C31.7502 38.1161 31.7173 38.2322 31.6833 38.3512C31.6141 38.5933 31.519 38.8624 31.519 39.1333C31.519 39.2789 31.4716 39.4178 31.4716 39.5592C31.4716 39.717 31.4716 39.8747 31.4716 40.0324C31.4716 40.3187 31.4716 40.6027 31.4716 40.8842C31.4716 41.0719 31.5828 41.2587 31.59 41.4455C31.5972 41.6348 31.6136 41.8174 31.6136 42.0081C31.6136 42.3013 31.716 42.5725 31.7319 42.8599C31.7388 42.983 31.7596 43.1527 31.8082 43.2621C31.8693 43.3997 31.8342 43.5603 31.8791 43.7064C31.917 43.8294 31.9373 43.9853 31.9449 44.1139C31.9516 44.2292 32.0158 44.3501 32.0158 44.4688" stroke="black" stroke-linecap="round"/>
<path d="M34.4766 35.2401C34.6764 35.1734 34.8798 35.1122 35.0733 35.0324C35.328 34.9273 35.6091 34.894 35.866 34.7892C36.4121 34.5663 36.9619 34.3663 37.5104 34.1517C37.9999 33.9601 38.5503 33.9812 39.0549 33.8691C39.1905 33.8389 39.3283 33.8441 39.4689 33.8441C39.6242 33.8441 39.6496 34.0607 39.6332 34.1753C39.6021 34.3933 39.4115 34.4979 39.2507 34.6012C39.0466 34.7324 38.8517 34.8521 38.5987 34.8615C38.5079 34.8648 38.4226 34.9088 38.3332 34.9088C38.2228 34.9088 38.1124 34.9088 38.002 34.9088C37.714 34.9088 37.4255 34.8456 37.137 34.8378C36.9941 34.834 36.8441 34.7693 36.7059 34.7379C36.5788 34.709 36.4338 34.6606 36.3102 34.6131C36.1762 34.5615 35.9435 34.5056 35.9435 34.3291C35.9435 34.2775 35.8774 34.1913 35.9553 34.174C36.0471 34.1536 36.1438 34.1443 36.2379 34.1228C36.3632 34.0941 36.4881 34.0797 36.6113 34.0386C36.7122 34.005 36.7511 33.9691 36.6283 34.0229C36.4649 34.0944 36.3053 34.1623 36.1328 34.2108C35.9452 34.2636 35.712 34.3292 35.5465 34.4356C35.4504 34.4974 35.3324 34.5408 35.2455 34.6144C35.2134 34.6415 35.0005 34.7905 35.1154 34.7905" stroke="black" stroke-linecap="round"/>
<path d="M37.8086 46.2577C37.9055 46.2577 37.9868 46.2453 38.0616 46.1854C38.0978 46.1565 38.1663 46.1506 38.2082 46.1297C38.2639 46.1018 38.3241 46.0836 38.3806 46.0579C38.4549 46.0241 38.5352 46.0018 38.6078 45.9655C38.6806 45.9291 38.7687 45.9193 38.8381 45.8767C38.8754 45.8537 38.9128 45.8357 38.9517 45.8163C38.993 45.7956 39.0568 45.7755 39.0911 45.7466C39.178 45.6734 39.3082 45.6582 39.3978 45.5886C39.4775 45.5266 39.5846 45.4986 39.6621 45.4352C39.7343 45.3762 39.8224 45.3328 39.9017 45.2819C39.9824 45.23 40.0628 45.1776 40.1433 45.1239C40.227 45.0681 40.2986 44.9969 40.3828 44.9427C40.4723 44.8852 40.55 44.8035 40.6338 44.7377C40.7225 44.668 40.8119 44.5885 40.8919 44.5085C40.9424 44.458 40.9978 44.4039 41.0561 44.3619C41.1102 44.3229 41.1482 44.2653 41.2007 44.2245C41.3042 44.144 41.3866 44.0402 41.4882 43.9576C41.5736 43.8882 41.6536 43.8134 41.7392 43.7439C41.8414 43.6607 41.9435 43.5778 42.0463 43.4955C42.1237 43.4337 42.1917 43.3514 42.2715 43.2931C42.3607 43.2279 42.4549 43.1476 42.525 43.0613C42.5977 42.9718 42.6822 42.891 42.748 42.7959C42.8011 42.7193 42.8893 42.6324 42.9643 42.5775C43.0296 42.5298 43.0745 42.457 43.1409 42.4103C43.2174 42.3564 43.2906 42.2663 43.3805 42.2337C43.5093 42.1868 43.6151 42.0664 43.7563 42.0664C43.7959 42.0664 43.8564 42.0671 43.8792 42.1036C43.8921 42.1243 43.9254 42.143 43.9422 42.164C43.9558 42.181 43.9673 42.211 43.984 42.2244C44.0539 42.2803 44.0511 42.3928 44.0836 42.466C44.1026 42.5087 44.1112 42.5698 44.0888 42.6147C44.0675 42.6574 44.0499 42.7119 44.0207 42.7495C44.0019 42.7736 43.995 42.8013 43.9814 42.8285C43.9655 42.8604 43.939 42.8845 43.9241 42.9167C43.8878 42.9954 43.8132 43.0626 43.7604 43.1305C43.6909 43.2199 43.6386 43.3319 43.5612 43.4139C43.5152 43.4626 43.4777 43.5273 43.4403 43.5833C43.3991 43.6452 43.3523 43.6966 43.3056 43.7537C43.2131 43.8667 43.1271 43.9848 43.0314 44.0923C42.9936 44.1349 42.9508 44.1827 42.922 44.2317C42.8917 44.2833 42.8424 44.323 42.813 44.3758C42.7806 44.4341 42.7297 44.4827 42.6917 44.5379C42.632 44.6247 42.558 44.7058 42.4883 44.7863C42.4253 44.8589 42.3464 44.9624 42.2601 45.0103C42.1867 45.0511 42.1142 45.1008 42.0412 45.1425C41.9916 45.1708 41.9341 45.1842 41.8837 45.2122C41.8095 45.2534 41.7314 45.2896 41.656 45.3284C41.4962 45.4106 41.319 45.459 41.163 45.5468C41.0618 45.6036 40.9371 45.657 40.8243 45.682C40.7785 45.6922 40.7276 45.7137 40.6875 45.7373C40.6398 45.7652 40.5728 45.7746 40.5202 45.791C40.4009 45.828 40.2715 45.8351 40.1505 45.8653C40.0271 45.8962 39.9031 45.9247 39.7793 45.9557C39.6729 45.9823 39.5644 45.9906 39.4587 46.0202C39.3925 46.0387 39.3252 46.0535 39.2584 46.0698C39.2203 46.079 39.1723 46.083 39.1375 46.0976C39.1088 46.1098 39.0572 46.109 39.026 46.109C38.9747 46.109 38.9255 46.1164 38.8753 46.1255C38.8133 46.1368 38.7487 46.1362 38.6873 46.1508C38.6419 46.1616 38.5955 46.1641 38.55 46.1741C38.5103 46.1827 38.4727 46.2019 38.4318 46.2019C38.4225 46.2019 38.3612 46.221 38.359 46.2185C38.3453 46.2029 38.5052 46.1236 38.5159 46.1188C38.9339 45.933 39.3979 45.8806 39.8345 45.7559C40.7358 45.4984 41.4855 44.8958 42.2317 44.3531C42.3654 44.2559 42.4923 44.1489 42.6267 44.0531C42.7238 43.9839 42.8276 43.9081 42.9153 43.827C42.9793 43.7677 43.046 43.7128 43.1006 43.6442C43.1446 43.5889 43.208 43.516 43.208 43.4418" stroke="black" stroke-width="0.5" stroke-linecap="round"/>
<path d="M41.8618 43.2187C41.8618 43.1673 41.855 43.1107 41.855 43.063C41.855 43.0225 41.851 42.9665 41.8314 42.9311C41.7952 42.8659 41.7387 42.8211 41.6844 42.7668C41.6518 42.7343 41.6161 42.7088 41.5829 42.6788C41.57 42.6672 41.5459 42.6625 41.5302 42.6555C41.5189 42.6505 41.4822 42.641 41.4761 42.6333C41.4654 42.6199 41.4205 42.627 41.4047 42.6198C41.3775 42.6075 41.3297 42.6164 41.3002 42.6164C41.2776 42.6164 41.2551 42.6164 41.2325 42.6164C41.2061 42.6164 41.198 42.6297 41.1746 42.6364C41.1146 42.6535 41.0363 42.7384 41.0077 42.7924C40.9664 42.8703 40.9551 42.9575 40.9551 43.0465C40.9551 43.0978 40.9718 43.1333 40.9825 43.1814C40.9872 43.2023 40.9991 43.225 41.0092 43.2427C41.0229 43.2668 41.0459 43.2847 41.0581 43.3066C41.0675 43.3236 41.1008 43.3495 41.1175 43.3593C41.1402 43.3726 41.1561 43.4035 41.1818 43.4149C41.2232 43.4333 41.2515 43.4821 41.2934 43.4961" stroke="black" stroke-width="0.917253" stroke-linecap="round"/>
<path d="M37.8974 43.0798C37.9447 43.0739 38.0652 42.9982 38.0902 42.9546C38.103 42.9322 38.195 42.8551 38.217 42.8425C38.252 42.8225 38.2858 42.7839 38.3159 42.7569C38.4051 42.6766 38.5012 42.6094 38.5869 42.5237C38.6652 42.4455 38.7623 42.393 38.8431 42.3202C38.916 42.2546 39.0339 42.1725 39.1282 42.1456C39.1925 42.1272 39.2498 42.0653 39.3143 42.0418C39.3718 42.0209 39.4219 41.9764 39.4725 41.9561C39.5688 41.9176 39.6423 41.8279 39.7435 41.8054C39.8637 41.7787 39.9865 41.6998 40.0986 41.6488C40.2301 41.5891 40.3665 41.5356 40.5039 41.4899C40.6351 41.4461 40.769 41.3584 40.9002 41.3292C40.9522 41.3177 40.9991 41.2741 41.0493 41.2559C41.1054 41.2355 41.1658 41.2264 41.219 41.1999C41.329 41.1448 41.4794 41.1138 41.5749 41.0335C41.6523 40.9683 41.7882 40.9281 41.8788 40.8778C41.9181 40.856 41.9831 40.8365 42.0271 40.8267C42.0774 40.8155 42.1322 40.787 42.1828 40.7814C42.2851 40.77 42.3843 40.6924 42.4868 40.6924C42.5816 40.6924 42.6839 40.6479 42.7834 40.6479C42.8897 40.6479 43.0398 40.5703 43.1137 40.4963C43.1526 40.4574 43.2142 40.3981 43.2389 40.3514C43.2639 40.3043 43.3247 40.2568 43.3394 40.2088C43.3786 40.0816 43.4136 39.9988 43.4136 39.862C43.4136 39.7326 43.3542 39.6098 43.2801 39.5028C43.181 39.3596 43.0315 39.2287 42.8789 39.1428C42.7939 39.095 42.7045 39.0393 42.6277 38.9789C42.5919 38.9508 42.5634 38.9134 42.5231 38.8908C42.4892 38.8717 42.4324 38.8496 42.4052 38.824C42.3033 38.7277 42.1989 38.6268 42.079 38.5497C41.9328 38.4557 41.773 38.3745 41.6276 38.282C41.5051 38.204 41.3674 38.1807 41.2305 38.1386C41.0461 38.0819 40.8417 38.0233 40.6481 38.0233C40.4763 38.0233 40.3098 37.9936 40.1365 37.9936C40.0426 37.9936 39.9487 37.9936 39.8547 37.9936C39.8053 37.9936 39.7559 37.9936 39.7065 37.9936C39.6356 37.9936 39.5802 38.0317 39.5137 38.0496C39.4339 38.0712 39.375 38.0974 39.2913 38.0974C39.2394 38.0974 39.1875 38.0974 39.1356 38.0974C39.1134 38.0974 39.0836 38.1027 39.0622 38.0966C39.0385 38.0898 39.0962 38.0678 39.1059 38.0678C39.1753 38.0678 39.2405 38.0381 39.3094 38.0381C39.4028 38.0381 39.4971 38.0106 39.5911 38.0085C39.6986 38.006 39.8316 38.0073 39.9371 37.9862C40.0398 37.9657 40.1535 37.9788 40.2576 37.9788C40.3772 37.9788 40.4949 37.964 40.6143 37.964C40.7087 37.964 40.8263 37.9848 40.9133 37.95C40.9369 37.9405 40.8645 37.936 40.8408 37.9269C40.8055 37.9133 40.7598 37.9096 40.7222 37.9038C40.6346 37.8903 40.5524 37.875 40.4627 37.875C40.2091 37.875 39.9655 37.9133 39.7139 37.9351C39.4817 37.9553 39.2166 37.9622 38.9914 38.0266C38.8544 38.0657 38.7009 38.0904 38.5713 38.1493C38.3949 38.2295 38.1733 38.247 38.0045 38.3495C37.9447 38.3858 37.8722 38.4136 37.8051 38.4352C37.717 38.4635 37.6357 38.5104 37.5481 38.5423C37.4222 38.5881 37.2958 38.6214 37.1675 38.6642C37.0811 38.693 36.9341 38.7427 36.8709 38.8059C36.7939 38.8829 36.6644 38.9359 36.5711 38.9954C36.4572 39.0678 36.3855 39.2024 36.2926 39.2952C36.1859 39.402 36.087 39.5406 35.9928 39.6618C35.9117 39.766 35.811 39.8619 35.7407 39.9724C35.6571 40.1037 35.5849 40.2648 35.4803 40.381C35.4017 40.4684 35.3658 40.6123 35.3106 40.7147C35.1818 40.954 35.0756 41.2138 34.9646 41.4635C34.9123 41.5814 34.8578 41.7162 34.8197 41.8416C34.7954 41.9215 34.7429 41.9978 34.7249 42.0789C34.7177 42.1111 34.703 42.1682 34.6829 42.1934C34.662 42.2195 34.669 42.3029 34.6532 42.3384C34.6298 42.391 34.6418 42.4569 34.6129 42.5089C34.5689 42.5881 34.561 42.7294 34.561 42.8203C34.561 42.857 34.556 42.9672 34.5387 42.9982C34.5137 43.0432 34.5412 43.1057 34.5198 43.1539C34.4949 43.2099 34.5165 43.3186 34.5165 43.3797C34.5165 43.4609 34.5028 43.5551 34.5173 43.635C34.5364 43.7401 34.5473 43.8396 34.5791 43.9431C34.6035 44.0224 34.6203 44.113 34.6203 44.1969C34.6203 44.2409 34.65 44.2923 34.65 44.3402C34.65 44.3716 34.6899 44.5688 34.7175 44.5766C34.7806 44.5947 34.853 44.5626 34.9169 44.5626C35.0058 44.5626 35.0948 44.5626 35.1838 44.5626C35.5335 44.5626 35.8796 44.5717 36.1839 44.3781C36.3136 44.2956 36.4495 44.2136 36.5777 44.1211C36.7717 43.9809 36.9494 43.817 37.1345 43.6655C37.2778 43.5483 37.4426 43.4332 37.5975 43.3319C37.6919 43.2702 37.9419 43.1368 37.9419 43.0057" stroke="black" stroke-linecap="round"/>
<path d="M41.0867 38.482C40.9856 38.4496 40.9071 38.4375 40.7976 38.4375C40.7015 38.4375 40.6151 38.4672 40.5158 38.4672C40.2928 38.4672 40.0723 38.6006 39.8444 38.6006C39.3296 38.6006 38.8275 38.6419 38.3657 38.8906C38.0912 39.0384 37.7931 39.1526 37.5312 39.3272C37.3902 39.4212 37.2306 39.4893 37.0838 39.5719C37.0063 39.6155 36.9236 39.681 36.8532 39.7358C36.8025 39.7752 36.7406 39.8003 36.6901 39.8396C36.4378 40.0359 36.1335 40.1821 35.9116 40.4163C35.8517 40.4795 35.8109 40.5776 35.7633 40.6502C35.7136 40.7261 35.6584 40.8279 35.6331 40.9139C35.6045 41.0112 35.5503 41.1042 35.5112 41.1989C35.4705 41.2975 35.4385 41.4151 35.3926 41.507" stroke="black" stroke-linecap="round"/>
<path d="M35.7472 41.0938C35.7885 41.0938 35.8603 41.1128 35.8922 41.1415C35.9208 41.1672 35.9784 41.1789 35.9993 41.205C36.0303 41.2437 36.1201 41.2746 36.1624 41.2981C36.214 41.3267 36.2545 41.3706 36.3033 41.3977C36.3855 41.4434 36.493 41.4868 36.5702 41.5468C36.6336 41.5961 36.6966 41.6782 36.7638 41.7165C36.8349 41.7572 36.8799 41.8409 36.9368 41.8978C36.9831 41.9441 37.0453 41.9968 37.0809 42.0502C37.1288 42.1219 37.2415 42.187 37.2605 42.2726C37.2766 42.3448 37.3418 42.4122 37.3668 42.4843C37.3942 42.5635 37.4216 42.6478 37.4368 42.7315C37.4766 42.9502 37.2822 43.1217 37.1485 43.2653C37.0326 43.3898 36.8895 43.5076 36.7325 43.5767C36.6546 43.611 36.5735 43.6292 36.496 43.6665C36.4035 43.711 36.3191 43.7682 36.225 43.8107C36.0585 43.8859 35.9022 44.0079 35.7472 44.1048C35.7077 44.1294 35.3459 44.4299 35.3205 44.3675C35.1332 43.9079 35.1985 43.4135 35.1985 42.9325C35.1985 42.6293 35.2797 42.1486 35.6286 42.0543C35.8215 42.0022 35.9828 42.1381 36.1187 42.2586C36.2339 42.3607 36.3337 42.4789 36.4211 42.6054C36.4876 42.7019 36.576 42.8092 36.6072 42.9242C36.6329 43.0188 36.7014 43.1475 36.5768 43.1912C36.4876 43.2224 36.381 43.2142 36.2884 43.2142C36.1492 43.2142 36.0043 43.2261 35.8658 43.2109C35.7544 43.1987 35.6434 43.1848 35.6434 43.0577C35.6434 42.8554 35.6448 42.6431 35.7357 42.458C35.7407 42.4476 35.8195 42.3054 35.8329 42.3426C35.8587 42.4143 35.851 42.5163 35.851 42.5914C35.851 42.6554 35.851 42.7194 35.851 42.7834C35.851 42.8334 35.8623 42.8287 35.9103 42.8287" stroke="black" stroke-linecap="round"/>
<path d="M37.6016 42.9304C37.779 42.8444 37.9252 42.7027 38.0975 42.6042C38.165 42.5656 38.2116 42.4744 38.2911 42.4567C38.3469 42.4443 38.3969 42.3979 38.4468 42.3702C38.5023 42.3394 38.5772 42.3203 38.6247 42.278C38.7039 42.2076 38.8233 42.1834 38.9032 42.1116C38.9704 42.0511 39.0719 42.0156 39.1289 41.9443C39.2021 41.8529 39.3554 41.8093 39.4477 41.7376C39.5356 41.6692 39.6405 41.6196 39.7369 41.5629C39.8305 41.5078 39.9187 41.4415 40.0186 41.3916C40.0785 41.3616 40.1402 41.337 40.2031 41.3141C40.235 41.3025 40.3417 41.2846 40.3597 41.2622C40.3719 41.2469 40.4576 41.2252 40.4783 41.2252C40.5251 41.2252 40.5946 41.19 40.6414 41.1733C40.799 41.117 40.9714 41.0677 41.1307 41.0209C41.4383 40.9304 41.7677 40.81 42.0872 40.81C42.2176 40.81 42.3615 40.7482 42.4875 40.7202C42.6021 40.6947 42.7121 40.6535 42.8212 40.6172" stroke="black" stroke-linecap="round"/>
<path d="M45.5977 30.769C45.79 30.769 45.7812 30.5973 45.8215 30.4563C45.8583 30.3274 45.8821 30.1847 45.9374 30.0604C45.9639 30.0008 45.9595 29.9219 45.9981 29.8736C46.0274 29.8371 46.0634 29.7139 46.0634 29.6655C46.0634 29.6017 46.1241 29.5317 46.1241 29.4631C46.1241 29.4147 46.1601 29.2915 46.1893 29.255C46.2332 29.2001 46.2496 29.1119 46.2816 29.048C46.3213 28.9686 46.3713 28.8968 46.4076 28.8151C46.4768 28.6594 46.599 28.5169 46.655 28.355C46.686 28.2655 46.7449 28.182 46.7878 28.0963C46.8245 28.0229 46.8544 27.9282 46.9048 27.8635C46.9555 27.7982 46.9805 27.7125 47.0353 27.6509C47.0982 27.5801 47.185 27.4681 47.2175 27.3786C47.25 27.2893 47.3297 27.1898 47.3885 27.1143C47.4517 27.0331 47.4878 26.9351 47.5617 26.8612C47.71 26.7129 47.8262 26.536 47.9768 26.3854C48.2866 26.0755 48.6847 25.8534 49.0803 25.6666C49.9659 25.2484 50.9367 25.0122 51.8543 24.6845C52.0787 24.6044 52.3338 24.6414 52.5674 24.5979C52.8365 24.5479 53.1408 24.5327 53.4145 24.5327C53.5517 24.5327 53.6911 24.4922 53.8284 24.4922C53.9885 24.4922 54.1487 24.4922 54.3088 24.4922C54.6373 24.4922 54.9726 24.5124 55.2964 24.5124C55.4979 24.5124 55.7152 24.5617 55.914 24.5923C56.045 24.6125 56.1973 24.6504 56.3291 24.6542C56.6501 24.6633 56.9715 24.7665 57.292 24.797C57.7824 24.8437 58.2868 25.0408 58.6936 25.3224C58.8921 25.4598 59.1026 25.5852 59.2751 25.7577C59.4489 25.9314 59.619 26.1015 59.7915 26.274C59.8792 26.3617 59.9669 26.4495 60.0547 26.5372C60.1615 26.6441 60.2274 26.79 60.337 26.8904C60.4797 27.0212 60.5542 27.2272 60.6711 27.3775C60.7682 27.5024 60.848 27.7018 60.9861 27.7881C61.0377 27.8204 61.0531 27.8708 61.0918 27.9096C61.1224 27.9401 61.047 27.7522 61.0165 27.7217C60.837 27.5423 60.7002 27.3244 60.5204 27.1447C60.3664 26.9907 60.1959 26.8219 60.0187 26.6992C59.9748 26.6688 59.8984 26.642 59.8634 26.607C59.8358 26.5793 59.8078 26.5408 59.7712 26.5215C59.6473 26.4563 59.5498 26.3226 59.427 26.2436C59.3509 26.1947 59.2834 26.1325 59.2043 26.0816C59.1077 26.0196 59.0029 25.9259 58.896 25.8848C58.7834 25.8415 58.6857 25.7459 58.5766 25.6913C58.4535 25.6298 58.3297 25.5841 58.202 25.535C57.9234 25.4278 57.5976 25.4245 57.3055 25.3673C56.7285 25.2545 56.0996 25.1686 55.5191 25.2976C55.2023 25.368 54.8521 25.3721 54.5281 25.4045C54.2152 25.4358 53.9062 25.5034 53.5967 25.5653C53.1937 25.6459 52.8005 25.7708 52.401 25.8735C52.1188 25.9461 51.8723 26.0321 51.6113 26.1626C51.2875 26.3245 50.9722 26.4735 50.6754 26.679C50.5262 26.7823 50.3882 26.918 50.2344 27.0119C50.0911 27.0995 49.9831 27.2407 49.8542 27.3471C49.723 27.4556 49.551 27.5838 49.4605 27.7319C49.429 27.7834 49.3549 27.8645 49.3143 27.9051C49.1573 28.062 49.0659 28.2812 48.9138 28.445C48.7096 28.6649 48.5524 28.9128 48.3817 29.1593C48.2947 29.2851 48.2148 29.414 48.1286 29.5384C48.0927 29.5903 48.048 29.6425 48.0173 29.697C47.9824 29.7591 47.9136 29.8052 47.8857 29.868C47.8302 29.9927 47.6959 30.0971 47.6134 30.2021C47.5379 30.2983 47.4532 30.4339 47.3547 30.5058C47.269 30.5685 47.2272 30.6647 47.141 30.7285C46.9903 30.8402 46.8683 31.0041 46.7225 31.1234C46.6144 31.2119 46.4501 31.0939 46.3468 31.048C46.2695 31.0137 46.1814 31.0015 46.1039 30.967C46.0416 30.9394 45.9391 30.8905 45.871 30.8905C45.8442 30.8905 45.7063 30.8392 45.7 30.8613C45.6776 30.9397 45.6982 31.0463 45.7551 31.0975C45.8834 31.213 46.1377 31.0554 46.2467 30.9805C46.4827 30.8183 46.6297 30.4906 46.7304 30.2325C46.8922 29.8179 47.0349 29.3982 47.3345 29.057C47.4892 28.8808 47.6473 28.7076 47.8036 28.5328C47.9749 28.3411 48.1748 28.1804 48.3514 27.994C48.6567 27.6717 48.9599 27.3461 49.2738 27.0322C49.5435 26.7625 49.8122 26.4859 50.1422 26.2898C50.3515 26.1654 50.5561 26.0323 50.7789 25.932C50.9166 25.8701 51.0652 25.8194 51.1973 25.7464C51.458 25.6026 51.7686 25.5321 52.0489 25.4326C52.4294 25.2976 52.8556 25.2203 53.2559 25.1649C53.3727 25.1487 53.4888 25.1332 53.6023 25.1008C53.6708 25.0812 53.4593 25.0951 53.3886 25.1041C53.1963 25.1285 53.0059 25.1574 52.8149 25.1919C52.4727 25.2536 52.1462 25.3902 51.8126 25.4855C51.581 25.5517 51.3883 25.6578 51.1748 25.7633C50.9509 25.874 50.7192 25.9698 50.4932 26.076C50.2854 26.1736 50.0821 26.2882 49.879 26.3955C49.6511 26.5159 49.4378 26.659 49.2119 26.7802C49.0524 26.8658 48.9066 26.9786 48.7631 27.0884C48.5695 27.2366 48.3639 27.3626 48.1736 27.5159C47.9397 27.7043 47.6797 27.9182 47.4852 28.1481C47.3266 28.3355 47.2087 28.5594 47.0758 28.7645C47.0123 28.8624 46.9405 28.9652 46.8845 29.0671C46.808 29.2063 46.9029 29.0697 46.9351 29.0153C47.1418 28.6666 47.3589 28.3522 47.6236 28.0434C47.962 27.6486 48.2445 27.2167 48.5539 26.8005C48.7423 26.547 48.9985 26.2062 49.303 26.0816C49.4213 26.0333 49.5596 26.004 49.6675 25.95" stroke="black" stroke-linecap="round"/>
<path d="M50.4717 35.4137C50.4901 35.3562 50.483 35.2202 50.4453 35.1731C50.4079 35.1264 50.4124 35.0049 50.4124 34.9466C50.4124 34.8008 50.3976 34.6448 50.3976 34.4943C50.3976 34.3489 50.3531 34.2156 50.3531 34.0717C50.3531 33.8958 50.3341 33.7182 50.3671 33.5371C50.441 33.1303 50.5499 32.7305 50.6645 32.3294C50.7345 32.0844 50.8532 31.8281 50.9907 31.6143C51.1265 31.403 51.2468 31.1755 51.424 30.9915C51.628 30.7796 51.8236 30.5547 52.0732 30.3942C52.2524 30.279 52.3906 30.1078 52.5658 29.9865C52.6569 29.9234 52.7352 29.8428 52.8261 29.7789C52.9558 29.6876 53.0899 29.5944 53.215 29.4971C53.4028 29.351 53.6268 29.2385 53.8378 29.133C54.0686 29.0176 54.3036 28.9082 54.5462 28.8183C54.7827 28.7307 55.0052 28.625 55.2531 28.5777C55.4999 28.5307 55.7683 28.5249 56.0027 28.4262C56.1174 28.3779 56.2556 28.3955 56.3734 28.3627C56.4498 28.3415 56.531 28.3664 56.6074 28.3438C56.6596 28.3283 56.731 28.3405 56.7853 28.3405C56.9158 28.3405 57.0418 28.3802 57.1709 28.385C57.2066 28.3863 57.25 28.3941 57.2862 28.4006C57.3304 28.4087 57.3925 28.4062 57.4337 28.422C57.5717 28.4752 57.7675 28.491 57.9156 28.5044C58.0468 28.5164 58.1628 28.5662 58.283 28.6107C58.4077 28.6569 58.5493 28.7666 58.6422 28.8595C58.714 28.9313 58.8146 29.0027 58.8646 29.0902C58.9017 29.1551 58.9536 29.2093 58.9536 29.2895C58.9536 29.3642 58.9239 29.439 58.9239 29.5045C58.9239 29.6506 58.7264 29.6836 58.6125 29.6899C58.5381 29.694 58.4694 29.7195 58.3901 29.7195C58.3151 29.7195 58.2441 29.7344 58.1751 29.7344C57.6479 29.7344 57.1231 29.7342 56.5959 29.7195C56.4489 29.7155 56.3002 29.7047 56.151 29.7047C55.9641 29.7047 55.7313 29.7219 55.5513 29.7723C55.4019 29.8141 55.2485 29.8374 55.0974 29.8752C54.9384 29.915 54.7818 29.9607 54.6237 30.0046C54.3475 30.0813 54.0884 30.2082 53.8155 30.2913C53.7065 30.3244 53.6062 30.3941 53.4967 30.4313C53.3805 30.4708 53.28 30.533 53.1672 30.5796C52.9772 30.658 52.8046 30.7795 52.6144 30.8539C52.5398 30.8831 52.4506 30.9504 52.3846 30.9981C52.3115 31.0509 52.2291 31.0842 52.1547 31.1357C52.086 31.1833 52.0077 31.2172 51.9397 31.265C51.8719 31.3127 51.8028 31.3724 51.7321 31.4133C51.6467 31.4627 51.5481 31.6003 51.4949 31.6802C51.4066 31.8125 51.3268 31.9707 51.2798 32.1209C51.2177 32.3199 51.1431 32.5265 51.125 32.7355C51.1069 32.9437 51.0435 33.1446 51.0088 33.3525C50.978 33.5373 50.9637 33.7258 50.924 33.9086C50.9065 33.9889 50.8934 34.0624 50.8688 34.1417C50.8543 34.1883 50.8485 34.2995 50.7979 34.3164" stroke="black" stroke-linecap="round"/>
<path d="M58.2731 29.2154C57.6309 29.1925 56.9881 29.2006 56.3454 29.2006C55.9007 29.2006 55.4512 29.2431 55.0223 29.3637C54.8308 29.4176 54.6276 29.4478 54.4407 29.5153C54.2548 29.5824 54.0335 29.6347 53.8698 29.7493C53.5709 29.9585 53.2739 30.165 52.9941 30.4017" stroke="black" stroke-linecap="round"/>
<path d="M59.7111 29.8672C59.7152 29.8997 59.7616 29.9339 59.782 29.9595C59.8068 29.9905 59.8069 30.0654 59.8372 30.0896C59.8656 30.1124 59.859 30.1782 59.8965 30.2082C59.9317 30.2364 59.9483 30.2971 59.9748 30.3302C60.0386 30.41 60.0374 30.5153 60.0374 30.616C60.0374 30.742 59.9838 30.794 59.9262 30.8978C59.8853 30.9714 59.8388 31.0533 59.7886 31.1161C59.7336 31.1849 59.7022 31.292 59.6296 31.35C59.4866 31.4644 59.3981 31.6439 59.2366 31.7389C59.1433 31.7938 59.0509 31.8977 58.9467 31.9275C58.909 31.9383 58.8516 31.958 58.814 31.958C58.7433 31.958 58.6822 31.9987 58.6138 32.0025C58.3049 32.0197 58.0035 32.1707 57.7011 32.2257C57.1218 32.3311 56.5516 32.5076 55.9859 32.6961C55.7986 32.7586 55.6181 32.8443 55.4265 32.8922C55.2776 32.9294 55.1421 33.0239 54.999 33.0734C54.8427 33.1275 54.6984 33.2418 54.5508 33.3156C54.4109 33.3856 54.2981 33.512 54.1579 33.5743C54.1031 33.5987 54.0272 33.6496 53.9799 33.6863C53.9333 33.7226 53.8762 33.7444 53.8242 33.7704C53.751 33.807 53.5587 33.8207 53.498 33.7448C53.4718 33.7121 53.389 33.7126 53.3646 33.6699C53.3316 33.6122 53.2734 33.5787 53.2278 33.5331C53.1369 33.4422 53.0031 33.3372 52.89 33.2744C52.8335 33.243 52.7632 33.1443 52.7154 33.0965C52.6623 33.0434 52.6092 32.9684 52.5786 32.8996C52.5276 32.7848 52.4406 32.685 52.3562 32.5956C52.2236 32.4553 51.9898 32.3749 51.8084 32.3295C51.7973 32.3268 51.5703 32.2472 51.5703 32.2842C51.5703 32.3271 51.7501 32.3722 51.7771 32.3806C51.9739 32.4421 52.1783 32.52 52.3645 32.6105C52.5411 32.6963 52.747 32.7354 52.9131 32.8411C53.1427 32.9872 53.3562 33.2145 53.4239 33.4853" stroke="black" stroke-linecap="round"/>
<path d="M51.6432 32.9531C51.6432 33.188 51.6236 33.4264 51.6135 33.6616C51.6065 33.827 51.5793 34.017 51.5097 34.1691C51.447 34.3062 51.4088 34.4713 51.3021 34.5843C51.2382 34.6519 51.1495 34.7561 51.1094 34.8363" stroke="black" stroke-linecap="round"/>
<path d="M50.9916 34.7182C50.9916 34.7965 50.9748 34.8985 50.9924 34.9777C51.0015 35.0184 51.0247 35.0601 51.0352 35.0971C51.0554 35.1675 51.0954 35.2172 51.0954 35.2965C51.0954 35.3686 51.2256 35.3789 51.2585 35.4365C51.2934 35.4976 51.409 35.5265 51.4661 35.5518C51.5458 35.5873 51.6423 35.6198 51.7256 35.6383M53.3134 35.2965C53.6939 34.9541 54.3182 34.5868 54.6995 34.2436C54.7912 34.1612 54.9113 34.1069 55.0101 34.0327C55.1032 33.963 55.2029 33.8928 55.3067 33.84C55.5302 33.7261 55.7355 33.6364 55.9651 33.536C56.3304 33.3762 56.7428 33.2925 57.124 33.1908C57.5606 33.0744 58.0181 33.0384 58.4503 32.9008C58.6346 32.8422 58.8141 32.7576 58.999 32.7048C59.1836 32.652 59.3477 32.5164 59.518 32.4313C59.5891 32.3957 59.6449 32.336 59.7107 32.2937C59.7811 32.2484 59.8462 32.2106 59.8969 32.1454C59.9977 32.0158 60.1153 31.9135 60.1737 31.7558C60.2363 31.5869 60.3429 31.3441 60.2882 31.1527C60.2517 31.025 60.1852 30.8736 60.1852 30.7367C60.1852 30.6587 60.1184 30.5965 60.0699 30.5481C60.0188 30.497 59.9776 30.418 59.9776 30.3438" stroke="black" stroke-linecap="round"/>
<path d="M54.1053 34.0656C53.7136 34.1879 53.3231 34.4162 53.1085 34.774C53.0384 34.8909 52.971 35.0233 52.8597 35.1068C52.5876 35.3109 52.1386 35.3027 51.97 34.9701C51.9082 34.8483 51.8702 34.7185 51.8208 34.592C51.7761 34.4772 51.7075 34.3687 51.647 34.2616C51.5694 34.1244 51.7345 34.082 51.8398 34.0804C52.1164 34.0761 52.4528 34.0685 52.6784 34.2583C52.8086 34.3679 52.8984 34.5154 52.8893 34.6884C52.8834 34.8002 52.596 34.6942 52.5598 34.6735C52.2933 34.5212 52.1617 34.2163 52.021 33.9585C51.9056 33.7469 51.6928 33.0169 52.1776 33.105C52.4174 33.1486 52.6008 33.4855 52.6636 33.6948C52.703 33.8263 52.7515 34.0859 52.5746 34.1364C52.4306 34.1776 52.2706 34.0126 52.1594 33.9469C52.0625 33.8897 51.9675 33.8135 51.8513 33.8135" stroke="black" stroke-linecap="round"/>
<path d="M62.5098 25.9297C62.6339 26.0935 62.7729 26.2352 62.9218 26.3841C63.0396 26.5019 63.0997 26.701 63.2549 26.7922C63.3021 26.82 63.3412 26.8747 63.38 26.9135C63.44 26.9736 63.4767 27.096 63.5494 27.1388C63.5829 27.1585 63.6092 27.2008 63.6361 27.2293C63.663 27.2578 63.7184 27.303 63.7362 27.3332C63.7962 27.4353 63.902 27.5251 63.9826 27.6105C64.0166 27.6464 64.0347 27.6952 64.0693 27.7318C64.0981 27.7623 64.1395 27.8012 64.1597 27.8357C64.2067 27.9156 64.2909 27.9845 64.3465 28.0648C64.4182 28.1685 64.5024 28.2814 64.5891 28.3729C64.6807 28.4696 64.7826 28.5868 64.8875 28.6674C65.0031 28.7564 65.0889 28.8775 65.209 28.962C65.3107 29.0336 65.4074 29.1315 65.494 29.2181C65.6562 29.3804 65.8073 29.5304 65.932 29.7244C66.2598 30.2344 66.7436 30.6336 67.1276 31.1029C67.204 31.1963 67.2864 31.2954 67.3702 31.3792C67.4523 31.4613 67.5573 31.5338 67.6301 31.6228C67.8453 31.8859 68.0893 32.1345 68.3145 32.3919C68.4007 32.4905 68.4669 32.5954 68.5484 32.6952C68.5995 32.7576 68.6605 32.8098 68.7044 32.8781C68.7435 32.9388 68.8104 32.9881 68.842 33.0513C68.8931 33.1535 68.9917 33.2396 69.0509 33.3449C69.1282 33.4823 69.2305 33.5828 69.3282 33.7021C69.5029 33.9156 69.6848 34.1359 69.822 34.3759C69.8625 34.4468 69.9147 34.5332 69.9683 34.6022C70.0139 34.6608 70.0373 34.8224 70.0993 34.8534" stroke="black" stroke-linecap="round"/>
<path d="M70.2383 35.0977C70.3083 35.0977 70.4478 35.2894 70.4645 35.3479C70.4768 35.3911 70.5567 35.4376 70.581 35.4789C70.6172 35.5405 70.6731 35.6191 70.7235 35.6695C70.9619 35.9079 71.0556 36.2634 71.2818 36.5147C71.4292 36.6785 71.4632 36.9315 71.5802 37.1154C71.6828 37.2766 71.6989 37.5022 71.7593 37.6833C71.8261 37.8837 71.8985 38.0788 71.971 38.2782C72.0382 38.4629 72.1371 38.6924 72.1443 38.8886C72.1494 39.0269 72.2061 39.1907 72.2396 39.3246C72.2694 39.4436 72.3003 39.6013 72.3003 39.7241C72.3003 39.8305 72.3182 39.965 72.3484 40.0668C72.3768 40.1627 72.361 40.2724 72.3908 40.3691C72.4135 40.443 72.4213 40.5245 72.4379 40.5992C72.4569 40.6844 72.4465 40.7988 72.4822 40.8774C72.502 40.9209 72.5082 40.9857 72.5082 41.0333C72.5082 41.0965 72.541 41.1586 72.5429 41.222C72.5466 41.3537 72.5775 41.4822 72.5775 41.6128C72.5775 41.8383 72.6122 42.0572 72.6122 42.2809C72.6122 42.5341 72.6303 42.821 72.6853 43.0684C72.7163 43.2077 72.7417 43.3521 72.7671 43.4919C72.7829 43.5784 72.8227 43.6627 72.8365 43.7451C72.8676 43.932 72.9414 44.1246 72.9414 44.3159" stroke="black" stroke-linecap="round"/>
<path d="M73.0117 44.3164C73.0117 44.4711 73.0602 44.6701 73.1243 44.8112C73.1664 44.9037 73.1578 45.0115 73.1937 45.1048C73.2285 45.1953 73.2515 45.3626 73.2543 45.46C73.2578 45.5841 73.2486 45.7203 73.2755 45.8412C73.2979 45.942 73.2802 46.0557 73.315 46.1531C73.3475 46.2443 73.3493 46.3522 73.3717 46.4477C73.4001 46.5682 73.4425 46.698 73.4613 46.8202C73.4958 47.0444 73.5489 47.2744 73.597 47.497C73.625 47.6266 73.6417 47.7567 73.674 47.8859C73.7098 48.0291 73.7628 48.1746 73.7915 48.3181C73.8834 48.7778 74.075 49.2138 74.1765 49.6706C74.2943 50.2005 74.3891 50.7283 74.498 51.2609C74.5551 51.5397 74.6318 51.8201 74.7012 52.0975C74.7794 52.4105 74.8224 52.7309 74.9178 53.0409C75.1017 53.6388 75.2229 54.261 75.4299 54.8526C75.5565 55.2142 75.7304 55.5519 75.8361 55.9221C75.898 56.1386 75.9518 56.3627 75.9921 56.5844C76.0014 56.6357 76.0167 56.8392 76.0614 56.8616" stroke="black" stroke-linecap="round"/>
<path d="M76.0943 56.8086C76.0943 56.9447 76.1045 57.0789 76.1116 57.2071C76.1189 57.3383 76.1703 57.4843 76.1992 57.6143C76.2688 57.9276 76.3542 58.2612 76.3542 58.5933C76.3542 58.8133 76.4292 59.035 76.3802 59.2605C76.3264 59.5077 76.3288 59.7579 76.2541 60.0007C76.2235 60.1 76.223 60.2261 76.1722 60.3174C76.1294 60.3945 76.0966 60.5323 76.0769 60.6207C76.0622 60.6871 76.0221 60.7453 76.0038 60.8113C75.9843 60.8812 75.9518 60.9713 75.921 61.0365C75.8696 61.1453 75.803 61.2671 75.7689 61.3831C75.7327 61.506 75.6492 61.6373 75.5821 61.747C75.4879 61.9012 75.3755 62.0524 75.2625 62.1936C75.12 62.3717 74.9967 62.5648 74.8457 62.7346C74.721 62.8749 74.6149 63.0357 74.4828 63.1678C74.2338 63.4168 74.035 63.7126 73.7897 63.9649C73.5139 64.2486 73.246 64.5432 72.9666 64.8226C72.7594 65.0299 72.531 65.2242 72.3515 65.4551C72.1779 65.6783 72.0269 65.9377 71.8355 66.1443C71.7648 66.2207 71.6957 66.3377 71.6324 66.4254C71.5357 66.5593 71.4131 66.6765 71.3118 66.8066C71.2314 66.91 71.1465 67.0205 71.0558 67.1147C71.0068 67.1656 70.9373 67.3265 70.8613 67.3265" stroke="black" stroke-linecap="round"/>
<path d="M70.8895 67.2773C70.8821 67.396 70.7741 67.5086 70.7186 67.6086C70.639 67.7519 70.4773 67.8496 70.3795 67.9753C70.3307 68.038 70.2382 68.0739 70.1797 68.1291C70.1131 68.192 70.0385 68.2651 69.9615 68.3184C69.8233 68.4141 69.6929 68.5213 69.5763 68.6378C69.3116 68.9026 69.0143 69.1288 68.7482 69.395C68.5902 69.5529 68.4182 69.7014 68.2632 69.8563C68.0836 70.0359 67.8946 70.2308 67.6953 70.3874C67.2832 70.7112 66.8837 71.037 66.4531 71.3351C66.2003 71.5101 65.9444 71.6817 65.6789 71.8385C65.5388 71.9213 65.4102 72.0188 65.2701 72.1041C65.1625 72.1696 65.0333 72.2746 64.9165 72.317C64.4703 72.4793 64.0701 72.7324 63.6494 72.9427C63.3436 73.0956 63.0349 73.2664 62.745 73.4527C62.4974 73.6119 62.206 73.7227 61.9813 73.9128C61.8272 74.0432 61.6006 74.1696 61.424 74.269C61.1414 74.428 60.8809 74.6237 60.5972 74.7777C60.1824 75.0028 59.8081 75.3098 59.3905 75.5296C58.8386 75.82 58.2724 76.1774 57.6633 76.334C57.4079 76.3997 57.1702 76.4586 56.9062 76.4826C56.726 76.4989 56.5447 76.5464 56.3672 76.5811C56.1932 76.6152 56.0107 76.5993 55.8414 76.6416C55.5439 76.716 55.2315 76.7033 54.9318 76.7757C54.6422 76.8456 54.3457 76.9071 54.0485 76.9071C53.5595 76.9071 53.0706 76.9071 52.5816 76.9071C52.4536 76.9071 52.3257 76.9071 52.1977 76.9071C52.0781 76.9071 51.843 76.9545 51.7364 76.8953C51.6032 76.8213 51.4355 76.8047 51.2986 76.7363C51.1249 76.6494 50.9011 76.6469 50.7085 76.6469C50.5611 76.6469 50.4254 76.6232 50.2812 76.6232" stroke="black" stroke-linecap="round"/>
<path d="M51.2518 76.8341C50.7705 76.8341 50.2491 76.8712 49.8204 76.633C49.3421 76.3673 48.8152 76.1352 48.431 75.751C48.2549 75.5749 48.0338 75.4394 47.8329 75.2831C47.6148 75.1134 47.4143 74.9102 47.1941 74.7389C46.9705 74.565 46.7214 74.3711 46.4606 74.2552C46.3278 74.1961 46.2 74.075 46.0584 74.0435C45.963 74.0223 45.8043 73.9235 45.7271 73.8634C45.533 73.7124 45.3014 73.5969 45.1185 73.4323C44.9238 73.257 44.7005 73.0982 44.5086 72.917C44.0981 72.5293 43.4321 71.6157 43.4321 71.6157C43.4321 71.6157 42.9655 70.8063 42.8576 70.3748C42.7454 69.9258 42.4554 69.0551 42.4554 69.0551C42.4554 69.0551 42.0816 68.2417 41.8823 67.8432C41.7765 67.6316 41.5984 67.1859 41.5984 67.1859C41.5984 67.1859 41.4005 66.8323 41.3145 66.6602" stroke="black" stroke-linecap="round"/>
<path d="M41.4324 66.8032C41.4324 66.8032 41.2437 66.5626 41.1669 66.4772C41.0867 66.3881 40.925 66.1788 40.925 66.1788C40.925 66.1788 40.5546 65.8632 40.4623 65.6557C40.4268 65.5756 40.3554 65.5069 40.3151 65.4309C40.2573 65.3217 40.1311 65.076 40.1311 65.076C40.1311 65.076 39.9651 64.7912 39.8945 64.679C39.799 64.5274 39.6954 64.3818 39.6342 64.2137C39.5899 64.0918 39.5193 63.9712 39.4581 63.8575C39.3872 63.7259 39.3297 63.5584 39.232 63.4434C39.1459 63.3421 39.0935 63.1718 39.0296 63.053C38.9881 62.976 38.9473 62.9124 38.8876 62.8269C38.8138 62.7212 38.7513 62.6182 38.6825 62.568C38.469 62.4119 38.1909 61.9291 38.1909 61.9291C38.1909 61.9291 37.7598 61.4162 37.5284 61.172C37.3932 61.0293 37.28 60.8507 37.1262 60.7277C37.0356 60.6552 36.9582 60.5518 36.8844 60.4622C36.8072 60.3685 36.7044 60.2985 36.6293 60.2019C36.3846 59.8872 36.1081 59.586 35.8249 59.3028C35.5546 59.0326 35.247 58.8195 34.9744 58.547C34.6807 58.2533 34.3902 57.9628 34.0977 57.6703C33.7972 57.3698 33.5283 57.052 33.2406 56.7422C33.0855 56.5752 32.9466 56.3974 32.7964 56.2257C32.6761 56.0882 32.5418 55.9599 32.4414 55.8063C32.3571 55.6774 32.2803 55.5367 32.193 55.4107C32.0817 55.25 32.008 55.0408 31.8789 54.8967C31.7547 54.7583 31.6698 54.5063 31.6028 54.3341C31.5226 54.1279 31.4705 53.9058 31.4004 53.6953" stroke="black" stroke-linecap="round"/>
<path d="M31.4008 53.8354C31.3361 53.3499 31.0459 52.9166 31.0459 52.4276C31.0459 52.1671 30.975 51.9087 30.975 51.6587C30.975 51.4935 30.9513 51.3299 30.9513 51.1618C30.9513 50.9666 30.8803 50.7864 30.8803 50.594C30.8803 50.312 30.8263 50.0409 30.787 49.7658C30.7515 49.5177 30.691 49.2594 30.691 49.0087C30.691 48.7176 30.5254 48.4415 30.5254 48.1556C30.5254 48.0226 30.4617 47.885 30.4544 47.7547C30.4488 47.6532 30.4239 47.5572 30.4058 47.4576C30.3513 47.1577 30.2866 46.8606 30.1994 46.5664C30.1518 46.4058 30.093 46.2393 30.0522 46.0761C30.0201 45.9476 29.9783 45.7543 29.9102 45.6437C29.8434 45.535 29.8565 45.3846 29.7919 45.2756C29.7231 45.1594 29.7097 45.0194 29.6368 44.9049C29.483 44.6632 29.3429 44.4092 29.1899 44.1688C29.007 43.8814 28.85 43.5169 28.7561 43.1882C28.6568 42.8406 28.4875 42.5134 28.3671 42.1761C28.2536 41.8583 28.1448 41.5563 28.0595 41.2244C27.9849 40.9344 27.9681 40.4991 28.0411 40.207" stroke="black" stroke-linecap="round"/>
<path d="M28.0176 40.1865C28.0176 40.021 28.0649 39.8724 28.0649 39.7014C28.0649 39.5159 28.0412 39.3432 28.0412 39.1572C28.0412 38.9567 28.0931 38.7732 28.1543 38.5828C28.2028 38.4318 28.2434 38.2832 28.2778 38.128C28.3032 38.0139 28.364 37.8936 28.3725 37.7783C28.3817 37.6545 28.455 37.5165 28.4855 37.3945C28.5286 37.2223 28.5815 37.0396 28.6459 36.874C28.7712 36.5517 28.8796 36.2327 29.0481 35.9263C29.2575 35.5457 29.4605 35.1625 29.687 34.7919C29.9006 34.4423 30.1806 34.1348 30.3955 33.7876C30.638 33.3958 30.9823 33.0575 31.3064 32.7334C31.6464 32.3934 32.0085 32.0715 32.3948 31.7817C32.5354 31.6763 32.6817 31.5773 32.8259 31.4794C32.9726 31.3799 33.1533 31.3285 33.2939 31.2192C33.4665 31.0848 33.7016 31.0197 33.8906 30.9063C34.0755 30.7954 34.3011 30.6974 34.5005 30.6158C34.9438 30.4345 35.3021 30.0963 35.6836 29.8179C35.9959 29.59 36.3084 29.363 36.6247 29.137C36.8891 28.9482 37.1499 28.7282 37.4344 28.5692C37.5086 28.5277 37.5762 28.4497 37.6474 28.3983C37.7376 28.3331 37.8199 28.2589 37.9076 28.1906C38.0666 28.0669 38.2651 27.934 38.4518 27.8594" stroke="black" stroke-linecap="round"/>
<path d="M38.6172 27.8345C38.8501 27.7215 39.0734 27.6302 39.3033 27.5085C39.4058 27.4542 39.4776 27.3734 39.5925 27.3324C39.8089 27.2551 39.9836 27.0873 40.2024 27.0248C40.4268 26.9607 40.6372 26.8284 40.8597 26.7514C41.0344 26.6909 41.1959 26.6108 41.3618 26.5279C41.4814 26.4681 41.5999 26.3946 41.7114 26.3202C41.8884 26.2022 42.0986 26.1288 42.2793 26.0126C42.4813 25.8828 42.6662 25.727 42.8761 25.6104C42.9834 25.5508 43.1003 25.454 43.1889 25.3686C43.281 25.2797 43.4113 25.2512 43.5149 25.1793C43.7065 25.0462 43.9191 24.9654 44.1353 24.8769C44.4003 24.7685 44.6533 24.6237 44.9109 24.4984C45.32 24.2993 45.7483 24.1185 46.1885 23.9962C46.455 23.9222 46.7161 23.8214 46.9877 23.7596C47.2302 23.7045 47.5002 23.6132 47.7501 23.5993C47.9245 23.5896 48.0874 23.5323 48.2654 23.5283C48.5736 23.5213 48.8895 23.4337 49.1934 23.3811C49.5021 23.3276 49.8037 23.2452 50.1109 23.1918C50.4079 23.1401 50.7137 23.1081 51.0152 23.1024C51.2691 23.0976 51.5484 23.0444 51.796 22.9894C52.0085 22.9422 52.239 22.9696 52.4533 22.9315C52.7502 22.8787 53.0901 22.8895 53.3918 22.8895C53.6959 22.8895 54 22.8895 54.304 22.8895C54.8234 22.8895 55.3432 22.8741 55.8604 22.8658C56.2124 22.8601 56.5651 22.8658 56.9172 22.8658C57.2592 22.8658 57.6184 22.9592 57.953 23.0262C58.2618 23.0879 58.5409 23.2418 58.8416 23.3101C58.9905 23.3439 59.1185 23.4408 59.2675 23.4757C59.4113 23.5094 59.5321 23.5528 59.6513 23.6413C59.8497 23.7887 60.1086 23.8406 60.3138 23.9831C60.3825 24.0308 60.4551 24.0829 60.5267 24.1251C60.5839 24.1587 60.5962 24.22 60.6687 24.2381" stroke="black" stroke-linecap="round"/>
<path d="M60.7637 24.4023C61.0421 24.4698 61.2046 24.7277 61.4735 24.8046C61.5763 24.834 61.7075 24.9584 61.7995 25.0175C61.8949 25.0789 61.999 25.1685 62.0532 25.2659C62.1634 25.4644 62.2834 25.6144 62.4436 25.7746C62.5154 25.8465 62.6167 25.9201 62.6802 25.9994C62.7289 26.0604 62.731 26.1348 62.7748 26.2005" stroke="black" stroke-linecap="round"/>
<path d="M57.3514 13.9807C57.3211 13.7379 56.6726 13.2265 56.4716 13.0656C56.1592 12.8158 55.9023 12.4912 55.5526 12.2913C55.1236 12.0462 54.784 11.6868 54.3637 11.4466C54.2332 11.372 54.0671 11.1776 53.9727 11.0595C53.8321 10.8838 53.5467 10.8085 53.4096 10.6371C52.7538 9.81742 51.7106 9.43129 50.8403 8.94777C50.3922 8.69883 49.8671 8.62612 49.4325 8.38464C48.9908 8.13928 48.3755 7.89949 47.8839 7.79023C46.9102 7.57387 45.9145 6.94163 44.861 6.94163C44.2558 6.94163 43.651 6.80085 43.0269 6.80085C42.2526 6.80085 41.4783 6.80085 40.704 6.80085C39.9986 6.80085 39.1377 6.79305 38.4515 6.94554C37.9832 7.04961 37.3606 7.36398 36.9029 7.36398C36.6099 7.36398 36.1781 7.5895 35.8861 7.68073C35.5449 7.78738 35.022 7.86537 34.7208 8.03269C34.5083 8.15074 34.2315 8.1246 34.0169 8.24386C33.8536 8.33455 33.4992 8.45174 33.3091 8.48632C32.2464 8.67953 31.3947 9.50218 30.4621 9.96844C29.3163 10.5413 28.2825 11.1626 27.3649 12.0802C26.5139 12.9312 25.6846 13.8611 25.1672 14.8958C24.9248 15.3805 24.6293 15.8308 24.3929 16.3036C24.2049 16.6796 24.0007 17.1868 23.7046 17.5003C23.3595 17.8656 23.0212 18.4324 22.8443 18.8924C22.6713 19.3421 22.4091 19.7288 22.2108 20.1751C21.7795 21.1455 21.3727 22.1815 21.0141 23.2176C20.6024 24.4071 20.0173 25.4955 19.6767 26.7215C19.559 27.1452 19.27 27.6116 19.27 28.0589C19.27 28.2764 19.2445 28.6686 19.184 28.8879C19.0991 29.1955 19.138 29.5176 19.094 29.8343C19.0258 30.3256 18.9357 30.8575 18.918 31.3516C18.9074 31.6507 18.8477 31.9105 18.8477 32.2119" stroke="black" stroke-linecap="round"/>
<path d="M18.9883 32.1406C18.9883 33.2521 19.1995 34.2832 19.1995 35.3786C19.1995 36.6464 19.0587 37.8693 19.0587 39.1406C19.0587 40.3111 19.2227 41.3305 19.4967 42.4568C19.5849 42.8196 19.7626 43.2266 19.7626 43.5987C19.7626 43.9391 19.756 44.5026 19.8486 44.8266C20.0201 45.4269 19.9279 46.1252 20.0402 46.7428C20.15 47.3463 20.2553 48.0666 20.2553 48.6825C20.2553 49.333 20.5369 49.9766 20.5369 50.6182C20.5369 51.0632 20.5288 51.7657 20.7129 52.1707C20.843 52.4571 20.7383 52.8523 20.8536 53.1523C20.9731 53.463 20.855 53.8734 20.9749 54.173C21.0929 54.4679 21.0887 54.8568 21.1 55.1741C21.1155 55.6073 21.2258 56.0454 21.2408 56.4802C21.264 57.152 21.5224 57.8352 21.5224 58.4981C21.5224 59.0656 21.7335 59.6178 21.7335 60.1875C21.7335 60.5144 21.8039 60.8361 21.8039 61.1729C21.8039 61.293 21.8631 61.8047 21.9447 61.8456" stroke="black" stroke-linecap="round"/>
<path d="M21.9453 61.6328C21.9453 62.1067 22.2269 62.5696 22.2269 63.0054C22.2269 63.5372 22.6397 64.057 22.7157 64.5892C22.7923 65.1257 22.8574 65.6668 22.9347 66.2082C22.981 66.5321 22.9888 66.8433 23.0012 67.178C23.0127 67.4882 23.142 67.7953 23.142 68.1088C23.142 68.5453 23.3006 69.2575 23.4783 69.6574C23.5804 69.8871 23.594 70.2175 23.6386 70.463C23.6966 70.7822 23.8337 71.1035 23.8459 71.4328C23.8669 72.002 24.057 72.5467 24.057 73.1065C24.057 73.7121 24.1055 74.4821 24.2839 75.0618C24.608 76.1154 24.634 77.225 24.9369 78.3154C25.2487 79.4378 25.2846 80.6189 25.5313 81.7294C25.6513 82.2693 25.7338 82.8555 25.9224 83.3836C26.1457 84.0089 26.3607 84.7701 26.4542 85.4249C26.5355 85.9937 26.7243 86.6126 26.8766 87.1456C27.0425 87.7265 27.2444 88.3905 27.471 88.9797C27.8287 89.9097 28.1953 90.7999 28.6168 91.6897C28.8352 92.1508 29.047 92.8012 29.3911 93.1835C29.7806 93.6163 30.2474 93.9318 30.6738 94.2942C31.6319 95.1086 33.0081 95.2078 34.0877 95.8076C34.6309 96.1093 35.2672 96.2428 35.8123 96.5154C36.5997 96.9091 37.4855 96.8771 38.3151 97.0746C38.9174 97.218 39.6833 97.1098 40.3017 97.1098C40.8804 97.1098 41.469 97.1802 42.0614 97.1802C42.7654 97.1802 43.3477 96.9291 44.0324 96.7735C44.7299 96.615 45.3419 96.2536 46.0033 95.9992C46.3439 95.8682 46.6997 95.6787 47.0357 95.526C47.4483 95.3385 47.864 95.1314 48.2715 94.9277C49.2585 94.4342 50.1582 93.7632 51.1028 93.1835C51.4776 92.9535 51.7969 92.6406 52.1782 92.4288C52.3667 92.3241 52.6076 92.1793 52.7609 92.026C52.9888 91.798 53.3093 91.6331 53.5117 91.3729C53.6274 91.2242 53.8164 91.1585 53.9028 90.9858" stroke="black" stroke-linecap="round"/>
<path d="M48.0605 75.9219C48.448 76.4917 48.9935 76.925 49.3276 77.5096C49.5999 77.9862 49.8572 78.5535 50.227 78.9643C50.6 79.3787 50.7731 80.0301 51.0522 80.5325C51.2186 80.8321 51.3529 81.0964 51.4549 81.428C51.5576 81.7616 51.8424 82.2107 51.8617 82.5386C51.879 82.8339 52.0681 83.1382 52.1471 83.4146C52.1875 83.5558 52.3603 84.1482 52.46 84.228C52.6413 84.373 52.6916 84.9163 52.7924 85.1431C52.9536 85.5059 53.086 85.8676 53.2147 86.2537C53.5037 87.1206 53.897 87.9803 54.0399 88.909C54.0913 89.2433 54.2364 89.6142 54.2549 89.9297C54.2736 90.2467 54.2592 90.6422 54.3957 90.9151" stroke="black" stroke-linecap="round"/>
<path d="M76.4277 60.8594C76.8921 61.3237 77.2875 61.8859 77.7964 62.3024C78.1574 62.5977 78.4507 63.0575 78.6099 63.4951C78.6959 63.7319 78.8409 63.9278 78.9266 64.1677C79.0141 64.4127 79.1108 64.6379 79.2277 64.8717C79.4529 65.3219 79.5867 65.7479 79.7517 66.2247C79.9014 66.6572 80.0415 67.1107 80.264 67.5113C80.4286 67.8076 80.5102 68.1533 80.6512 68.4616C80.7863 68.7572 80.8144 69.1354 80.9679 69.4119C81.2362 69.8947 81.2902 70.5927 81.4411 71.1208C81.5331 71.4428 81.5856 71.9455 81.7422 72.2275C81.8226 72.3722 81.9182 72.6701 81.9182 72.8258" stroke="black" stroke-linecap="round"/>
<path d="M81.9883 73.0364C82.3907 73.0364 83.0954 72.7032 83.4313 72.442C83.94 72.0464 84.5503 71.7945 85.0542 71.3822C85.3838 71.1125 85.8371 70.9592 86.1804 70.6783C86.4917 70.4237 86.8561 70.2259 87.1268 69.9392C87.4184 69.6305 87.7051 69.2905 88.0067 68.9889C88.1527 68.8429 88.353 68.3906 88.5346 68.3906" stroke="black" stroke-linecap="round"/>
<path d="M60.5195 17.2891C60.948 17.4498 61.3199 17.8849 61.7005 18.1338C62.1699 18.4407 62.5717 18.8905 63.0536 19.174C63.2317 19.2787 63.362 19.5762 63.5072 19.7215C63.6768 19.8911 63.8244 20.1225 63.9843 20.3002C64.2852 20.6346 64.6459 21.0942 65.0245 21.317C65.3934 21.534 65.6568 21.9727 65.9553 22.2712C66.2969 22.6128 66.5778 22.9954 66.9251 23.3427C67.9497 24.3673 68.7588 25.4942 69.6312 26.6158C70.2631 27.4283 70.7739 28.3464 71.3988 29.1499C72.0608 30.0011 72.4504 30.8426 73.0139 31.7192C73.3795 32.2879 73.8495 32.9873 74.0698 33.6236C74.2155 34.0446 74.4403 34.5664 74.6681 34.9415C74.8772 35.286 75.0189 35.6646 75.2625 35.9778C75.3856 36.1362 75.5234 36.466 75.5988 36.6622C75.7243 36.9884 75.989 37.3044 76.1776 37.6007C76.5295 38.1537 76.9318 38.8237 77.1474 39.4465C77.3514 40.0358 77.7109 40.5457 77.9217 41.1359C78.1452 41.7617 78.4658 42.5034 78.8211 43.0677C79.0786 43.4766 79.2914 43.9535 79.5094 44.3895C79.7104 44.7916 80.0061 45.1244 80.2133 45.5158C80.4766 46.0132 80.7842 46.5012 81.058 46.994C81.2966 47.4234 81.7197 48.0506 81.7776 48.5426C81.8008 48.7403 82.0166 48.9322 82.063 49.1409C82.1167 49.3824 82.2842 49.6575 82.3954 49.88C82.7333 50.5557 83.0579 51.2529 83.4317 51.9174C84.9248 54.5717 86.0131 57.4792 87.0256 60.3722C87.3617 61.3326 87.8192 62.303 88.0384 63.2895C88.1849 63.9486 88.0723 64.6791 88.2574 65.3269C88.3958 65.8111 88.5341 66.3657 88.6798 66.8755C88.7886 67.2563 88.9574 67.6316 88.9574 68.0409" stroke="black" stroke-linecap="round"/>
<path d="M56.8496 13.5625C57.3779 13.8377 57.7346 14.4333 58.294 14.6612C58.5459 14.7638 58.7476 14.9914 58.924 15.1875C59.1065 15.3902 59.3017 15.5651 59.4945 15.7579C59.666 15.9295 59.8146 16.198 60.0131 16.3303C60.1401 16.415 60.3481 16.6543 60.4107 16.7952C60.5474 17.1026 60.904 17.3403 61.1368 17.5731" stroke="black" stroke-linecap="round"/>
<path d="M53.7765 35.1523C53.7593 35.1523 53.7502 35.1705 53.7385 35.1799C53.7274 35.1888 53.7007 35.1949 53.6859 35.2033C53.6497 35.224 53.6163 35.2511 53.5763 35.2689C53.5543 35.2786 53.5353 35.2871 53.5143 35.2964C53.4997 35.3029 53.4578 35.305 53.4488 35.3162C53.4404 35.3268 53.4041 35.33 53.3905 35.336C53.3682 35.346 53.3449 35.3579 53.3213 35.3632C53.2964 35.3687 53.2687 35.381 53.2449 35.3911C53.2244 35.3997 53.1954 35.3927 53.1757 35.4036C53.1503 35.4177 53.1077 35.4212 53.079 35.4307C53.0651 35.4354 53.0195 35.445 53.0118 35.4546C53.0021 35.4667 52.9748 35.4682 52.9608 35.4744C52.94 35.4837 52.9205 35.4923 52.8989 35.5019C52.8587 35.5198 52.8193 35.5379 52.7747 35.546C52.7492 35.5507 52.7198 35.5536 52.6954 35.5606C52.6768 35.5659 52.652 35.5647 52.6331 35.5732C52.5944 35.5904 52.5356 35.5595 52.5004 35.5877C52.4907 35.5955 52.4467 35.6012 52.4328 35.6043C52.4141 35.6085 52.3959 35.6247 52.3782 35.6258C52.3389 35.6281 52.3037 35.6476 52.2616 35.6476C52.168 35.6476 52.0787 35.6549 51.9849 35.6549C51.9375 35.6549 51.892 35.6501 51.8465 35.6476C51.8127 35.6457 51.7391 35.6367 51.7227 35.6039" stroke="black" stroke-linecap="round"/>
<path d="M40.9015 45.1189C41.1462 44.8615 41.3819 44.6201 41.6599 44.4039C41.7179 44.3587 41.7766 44.3179 41.8392 44.2799C41.9102 44.2368 41.9779 44.187 42.0439 44.1366C42.0731 44.1143 42.1126 44.041 42.133 44.0716C42.1457 44.0908 41.9247 44.3749 41.897 44.4026C41.7958 44.5039 41.6677 44.6034 41.5503 44.6855C41.3209 44.8462 41.0385 44.8829 40.8148 45.0491C40.71 45.1269 40.6642 45.224 40.5813 45.3187C40.5713 45.3301 40.6259 45.2864 40.6331 45.2814C40.7001 45.235 40.7914 45.2185 40.8678 45.1947C41.0689 45.1323 41.2776 45.1084 41.4877 45.096C41.6816 45.0846 42.0397 45.0617 42.1883 44.9131C42.2967 44.8047 42.3837 44.6528 42.452 44.5122C42.5696 44.27 42.7549 44.0577 42.8902 43.8236C43.0565 43.5358 43.2325 43.2497 43.3813 42.9521C43.4112 42.8923 43.4177 42.8187 43.4583 42.7679C43.541 42.6645 43.4735 42.7461 43.4042 42.8004C43.2518 42.9197 43.1212 43.0696 42.9865 43.2073C42.8559 43.3408 42.6891 43.4552 42.5748 43.6021C42.5517 43.6317 42.4194 43.8236 42.4399 43.814C42.5319 43.7707 42.6076 43.6725 42.7 43.6238C42.878 43.5298 43.0184 43.3779 43.1442 43.2241C43.1972 43.1593 43.2589 43.0865 43.3175 43.0279C43.3608 42.9846 43.4282 42.9518 43.4583 42.8991C43.4768 42.8668 43.5815 42.8018 43.6148 42.7787C43.6787 42.7345 43.7307 42.682 43.7785 42.6223C43.8125 42.5798 43.7006 42.5582 43.7617 42.4971C43.8441 42.4146 43.7239 42.5132 43.6967 42.5404" stroke="black" stroke-width="0.5" stroke-linecap="round"/>
<path d="M42.4394 43.4961C42.3138 43.7598 42.2175 44.0474 41.9675 44.2111C41.7967 44.3231 41.6252 44.4384 41.4427 44.5313C41.0377 44.7376 40.6543 45.062 40.3039 45.3487C40.1266 45.4938 39.9077 45.6178 39.7092 45.7327C39.6314 45.7778 39.5506 45.8306 39.4757 45.8796C39.4066 45.9248 39.3324 45.9396 39.265 45.9771C39.1853 46.0214 39.0786 45.9795 39.005 46.0204C38.9534 46.0491 38.8478 46.0602 38.7883 46.0734C38.7348 46.0853 38.6638 46.1017 38.615 46.1288C38.5578 46.1606 38.4722 46.1412 38.426 46.1781C38.3844 46.2114 38.2851 46.2092 38.2358 46.2311C38.1638 46.2631 38.0878 46.2696 38.0083 46.2696C37.9473 46.2696 37.8835 46.313 37.8133 46.313C37.7412 46.313 37.6689 46.3039 37.6074 46.3346" stroke="black" stroke-width="0.5" stroke-linecap="round"/>
<path d="M51.7324 32.0975C52.1329 32.0975 52.5293 32.116 52.9214 32.2031C53.1057 32.2441 53.4645 32.4251 53.5648 32.6007C53.7013 32.8396 53.8006 33.0937 53.9183 33.3421C53.9348 33.3771 54.0374 33.633 54.0469 33.5995C54.0728 33.5089 54.0489 33.3747 54.0489 33.2807C54.0489 32.6965 53.702 32.5067 53.2537 32.2185C52.8168 31.9377 52.2816 31.8555 51.767 31.8555" stroke="black" stroke-width="0.5" stroke-linecap="round"/>
<path d="M38.0764 42.6082C38.0764 42.3033 37.9649 42.0962 37.8171 41.8303C37.6904 41.6021 37.438 41.5128 37.2121 41.4058C36.9336 41.2739 36.6369 41.1058 36.3324 41.0504C36.2232 41.0306 36.046 41.0104 35.9482 40.9659C35.8703 40.9305 35.6939 40.9893 35.6562 40.9141" stroke="black" stroke-width="0.5" stroke-linecap="round"/>
<path d="M35.6211 40.8774C36.1599 40.7468 36.8261 40.9437 37.2979 41.2058C37.5221 41.3304 37.6436 41.508 37.78 41.7225C37.8904 41.8959 38.0458 42.0665 38.1104 42.2603" stroke="black" stroke-width="0.5" stroke-linecap="round"/>
</svg>
