<svg width="32" height="33" viewBox="0 0 32 33" fill="none" xmlns="http://www.w3.org/2000/svg">
<path fill-rule="evenodd" clip-rule="evenodd" d="M9.95334 1.77159C11.5173 1.69959 12.016 1.68359 16 1.68359C19.984 1.68359 20.4827 1.70093 22.0453 1.77159C23.608 1.84226 24.6747 2.09159 25.608 2.45293C26.5853 2.82226 27.472 3.39959 28.2053 4.14626C28.952 4.87826 29.528 5.76359 29.896 6.74226C30.2587 7.67559 30.5067 8.74226 30.5787 10.3023C30.6507 11.8689 30.6667 12.3676 30.6667 16.3503C30.6667 20.3343 30.6493 20.8329 30.5787 22.3969C30.508 23.9569 30.2587 25.0236 29.896 25.9569C29.528 26.9357 28.951 27.8225 28.2053 28.5556C27.472 29.3023 26.5853 29.8783 25.608 30.2463C24.6747 30.6089 23.608 30.8569 22.048 30.9289C20.4827 31.0009 19.984 31.0169 16 31.0169C12.016 31.0169 11.5173 30.9996 9.95334 30.9289C8.39334 30.8583 7.32668 30.6089 6.39334 30.2463C5.41457 29.8782 4.52777 29.3013 3.79468 28.5556C3.04852 27.8232 2.4711 26.9368 2.10268 25.9583C1.74134 25.0249 1.49334 23.9583 1.42134 22.3983C1.34934 20.8316 1.33334 20.3329 1.33334 16.3503C1.33334 12.3663 1.35068 11.8676 1.42134 10.3049C1.49201 8.74226 1.74134 7.67559 2.10268 6.74226C2.47164 5.7637 3.0495 4.87734 3.79601 4.14493C4.52806 3.39893 5.41397 2.82152 6.39201 2.45293C7.32534 2.09159 8.39201 1.84359 9.95201 1.77159H9.95334ZM21.9267 4.41159C20.38 4.34093 19.916 4.32626 16 4.32626C12.084 4.32626 11.62 4.34093 10.0733 4.41159C8.64268 4.47693 7.86668 4.71559 7.34934 4.91693C6.66534 5.18359 6.17601 5.49959 5.66268 6.01293C5.17607 6.48633 4.80158 7.06264 4.56668 7.69959C4.36534 8.21693 4.12668 8.99293 4.06134 10.4236C3.99068 11.9703 3.97601 12.4343 3.97601 16.3503C3.97601 20.2663 3.99068 20.7303 4.06134 22.2769C4.12668 23.7076 4.36534 24.4836 4.56668 25.0009C4.80134 25.6369 5.17601 26.2143 5.66268 26.6876C6.13601 27.1743 6.71334 27.5489 7.34934 27.7836C7.86668 27.9849 8.64268 28.2236 10.0733 28.2889C11.62 28.3596 12.0827 28.3743 16 28.3743C19.9173 28.3743 20.38 28.3596 21.9267 28.2889C23.3573 28.2236 24.1333 27.9849 24.6507 27.7836C25.3347 27.5169 25.824 27.2009 26.3373 26.6876C26.824 26.2143 27.1987 25.6369 27.4333 25.0009C27.6347 24.4836 27.8733 23.7076 27.9387 22.2769C28.0093 20.7303 28.024 20.2663 28.024 16.3503C28.024 12.4343 28.0093 11.9703 27.9387 10.4236C27.8733 8.99293 27.6347 8.21693 27.4333 7.69959C27.1667 7.01559 26.8507 6.52626 26.3373 6.01293C25.8639 5.52636 25.2876 5.15187 24.6507 4.91693C24.1333 4.71559 23.3573 4.47693 21.9267 4.41159ZM14.1267 20.8716C15.1729 21.3071 16.3378 21.3659 17.4226 21.0379C18.5073 20.7099 19.4445 20.0155 20.0742 19.0733C20.7038 18.131 20.9868 16.9994 20.8747 15.8717C20.7627 14.744 20.2627 13.6902 19.46 12.8903C18.9483 12.3789 18.3296 11.9873 17.6485 11.7438C16.9673 11.5002 16.2406 11.4107 15.5207 11.4817C14.8008 11.5528 14.1055 11.7825 13.4851 12.1544C12.8646 12.5264 12.3343 13.0313 11.9324 13.6327C11.5305 14.2342 11.2669 14.9173 11.1607 15.6329C11.0545 16.3484 11.1082 17.0787 11.3181 17.771C11.5279 18.4632 11.8887 19.1004 12.3743 19.6366C12.86 20.1727 13.4584 20.5945 14.1267 20.8716ZM10.6693 11.0196C11.3694 10.3196 12.2004 9.76426 13.1151 9.38541C14.0297 9.00655 15.01 8.81156 16 8.81156C16.99 8.81156 17.9703 9.00655 18.8849 9.38541C19.7996 9.76426 20.6306 10.3196 21.3307 11.0196C22.0307 11.7196 22.586 12.5507 22.9649 13.4653C23.3437 14.38 23.5387 15.3603 23.5387 16.3503C23.5387 17.3403 23.3437 18.3206 22.9649 19.2352C22.586 20.1498 22.0307 20.9809 21.3307 21.6809C19.9169 23.0947 17.9994 23.889 16 23.889C14.0006 23.889 12.0831 23.0947 10.6693 21.6809C9.25556 20.2671 8.46131 18.3496 8.46131 16.3503C8.46131 14.3509 9.25556 12.4334 10.6693 11.0196ZM25.2107 9.93426C25.3842 9.77062 25.523 9.57384 25.6191 9.35556C25.7151 9.13728 25.7664 8.90195 25.7699 8.6635C25.7734 8.42505 25.729 8.18832 25.6393 7.96734C25.5497 7.74636 25.4166 7.54561 25.248 7.37698C25.0793 7.20835 24.8786 7.07527 24.6576 6.98562C24.4366 6.89596 24.1999 6.85156 23.9614 6.85504C23.723 6.85851 23.4877 6.9098 23.2694 7.00586C23.0511 7.10191 22.8543 7.24079 22.6907 7.41426C22.3724 7.75163 22.1982 8.19976 22.2049 8.6635C22.2117 9.12725 22.3989 9.5701 22.7269 9.89805C23.0548 10.226 23.4977 10.4132 23.9614 10.42C24.4252 10.4268 24.8733 10.2525 25.2107 9.93426Z" fill="black"/>
</svg>
