<svg width="318" height="56" viewBox="0 0 318 56" fill="none" xmlns="http://www.w3.org/2000/svg">
<g filter="url(#filter0_d)">
<rect x="4" y="2" width="310" height="48" rx="8.71" fill="white"/>
</g>
<path d="M26.9839 20.1782L26.8081 21.438C26.0952 21.1646 25.4702 21.0278 24.9331 21.0278C24.5718 21.0278 24.2544 21.0864 23.981 21.2036C23.7124 21.3159 23.5024 21.4771 23.3511 21.687C23.2046 21.8921 23.1313 22.1338 23.1313 22.4121C23.1313 22.8467 23.2827 23.1787 23.5854 23.4082C23.8931 23.6377 24.4302 23.9526 25.1968 24.353C25.9683 24.7485 26.5469 25.1514 26.9326 25.5615C27.3184 25.9668 27.5112 26.5063 27.5112 27.1802C27.5112 27.7661 27.3696 28.291 27.0864 28.7549C26.8032 29.2188 26.4004 29.5752 25.8779 29.8242C25.3604 30.0732 24.7646 30.1978 24.0908 30.1978C23.2949 30.1978 22.5356 30.0659 21.813 29.8022L21.9595 28.4546C22.6968 28.8062 23.3511 28.9819 23.9224 28.9819C24.3276 28.9819 24.6865 28.9136 24.999 28.7769C25.3164 28.6401 25.5581 28.4448 25.7241 28.1909C25.895 27.9321 25.9805 27.6294 25.9805 27.2827C25.9805 26.7847 25.812 26.4087 25.4751 26.1548C25.1382 25.896 24.6035 25.5908 23.8711 25.2393C23.1387 24.8877 22.5845 24.5239 22.2085 24.1479C21.8325 23.7671 21.6445 23.2324 21.6445 22.5439C21.6445 22.0068 21.7739 21.5332 22.0327 21.123C22.2964 20.708 22.6675 20.3857 23.146 20.1562C23.6294 19.9268 24.1787 19.812 24.7939 19.812C25.5703 19.812 26.3003 19.9341 26.9839 20.1782ZM30.0674 26.6821C30.165 27.4097 30.4312 27.9858 30.8657 28.4106C31.3052 28.8306 31.8545 29.0405 32.5137 29.0405C32.9043 29.0405 33.2852 28.9844 33.6562 28.8721C34.0273 28.7598 34.4106 28.5864 34.8062 28.3521V29.6558C34.3618 29.8511 33.959 29.9902 33.5977 30.0732C33.2363 30.1562 32.8555 30.1978 32.4551 30.1978C31.8887 30.1978 31.3735 30.105 30.9097 29.9194C30.4458 29.7339 30.0503 29.4678 29.7231 29.1211C29.396 28.7744 29.1445 28.3569 28.9688 27.8687C28.793 27.3755 28.7051 26.8359 28.7051 26.25C28.7051 25.5029 28.8467 24.8438 29.1299 24.2725C29.4131 23.7012 29.8184 23.2593 30.3457 22.9468C30.8779 22.6294 31.481 22.4707 32.1548 22.4707C32.9458 22.4707 33.5757 22.666 34.0444 23.0566C34.5181 23.4424 34.8525 23.9526 35.0479 24.5874C35.248 25.2222 35.3481 25.9204 35.3481 26.6821H30.0674ZM30.082 25.6201H33.9858C33.937 25.2197 33.8442 24.8682 33.7075 24.5654C33.5708 24.2578 33.3682 24.0112 33.0996 23.8257C32.8311 23.6401 32.5015 23.5474 32.1108 23.5474C31.5737 23.5474 31.1245 23.7329 30.7632 24.104C30.4067 24.4702 30.1797 24.9756 30.082 25.6201ZM37.3989 23.2178C37.7993 22.9834 38.1948 22.8125 38.5854 22.7051C38.981 22.5977 39.4033 22.5439 39.8525 22.5439C40.541 22.5439 41.1172 22.6758 41.5811 22.9395C42.0498 23.1982 42.3745 23.5669 42.5552 24.0454C42.7065 24.4458 42.7822 25.1245 42.7822 26.0815V27.5098C42.7822 28.0615 42.7871 28.5449 42.7969 28.96C42.8115 29.3701 42.8311 29.7168 42.8555 30H41.6104C41.6006 29.8291 41.5957 29.6387 41.5957 29.4287C41.5957 29.1699 41.6006 28.9404 41.6104 28.7402C41.3271 29.2139 40.9902 29.5605 40.5996 29.7803C40.209 29.9951 39.7256 30.1025 39.1494 30.1025C38.6416 30.1025 38.1924 30.0122 37.8018 29.8315C37.416 29.6509 37.1182 29.3945 36.9082 29.0625C36.7031 28.7256 36.6006 28.3374 36.6006 27.8979C36.6006 27.5122 36.6836 27.1729 36.8496 26.8799C37.0205 26.582 37.2695 26.3306 37.5967 26.1255C37.9238 25.9155 38.3242 25.7593 38.7979 25.6567C39.2715 25.5542 39.8184 25.5029 40.4385 25.5029C40.8096 25.5029 41.1514 25.5127 41.4639 25.5322C41.4541 24.9023 41.3003 24.4409 41.0024 24.1479C40.7046 23.8501 40.248 23.7012 39.6328 23.7012C39.2324 23.7012 38.8662 23.7573 38.5342 23.8696C38.2021 23.9771 37.8481 24.1553 37.4722 24.4043L37.3989 23.2178ZM41.4932 26.5356C41.1904 26.5063 40.9438 26.4917 40.7534 26.4917C38.9468 26.4917 38.0435 26.9556 38.0435 27.8833C38.0435 28.1079 38.1021 28.3057 38.2192 28.4766C38.3364 28.6475 38.5024 28.7817 38.7173 28.8794C38.9321 28.9771 39.1763 29.0259 39.4497 29.0259C39.9526 29.0259 40.3555 28.916 40.6582 28.6963C40.9609 28.4766 41.1758 28.1812 41.3027 27.8101C41.4297 27.439 41.4932 27.0142 41.4932 26.5356ZM44.9429 22.6685H46.2026L46.2686 23.9722C46.4883 23.5132 46.7739 23.1665 47.1255 22.9321C47.4819 22.6929 47.8945 22.5732 48.3633 22.5732C48.6074 22.5732 48.854 22.605 49.103 22.6685V23.9136C48.8687 23.8306 48.6538 23.7891 48.4585 23.7891C47.9849 23.7891 47.5918 23.9282 47.2793 24.2065C46.9668 24.48 46.7397 24.8315 46.5981 25.2612C46.4565 25.686 46.3857 26.1304 46.3857 26.5942V27.1216V30H45.0381V25.5322C45.0381 24.8096 45.0063 23.855 44.9429 22.6685ZM55.2261 22.8735L55.1382 24.0747C54.7671 23.855 54.3203 23.7451 53.7979 23.7451C53.3291 23.7451 52.9043 23.8525 52.5234 24.0674C52.1426 24.2822 51.8472 24.5825 51.6372 24.9683C51.4272 25.3491 51.3223 25.7861 51.3223 26.2793C51.3223 26.792 51.4248 27.251 51.6299 27.6562C51.835 28.0615 52.1206 28.3765 52.4868 28.6011C52.8579 28.8257 53.2852 28.938 53.7686 28.938C54.0566 28.938 54.3154 28.9014 54.5449 28.8281C54.7744 28.7549 55.0259 28.6353 55.2993 28.4692L55.4092 29.7144C55.1309 29.8413 54.8477 29.9365 54.5596 30C54.2764 30.0586 53.959 30.0879 53.6074 30.0879C52.8799 30.0879 52.2305 29.9316 51.6592 29.6191C51.0928 29.3066 50.6558 28.8696 50.3481 28.3081C50.0405 27.7417 49.8867 27.085 49.8867 26.3379C49.8867 25.625 50.0454 24.9829 50.3628 24.4116C50.6802 23.8354 51.1196 23.3862 51.6812 23.064C52.2427 22.7368 52.8701 22.5732 53.5635 22.5732C54.1348 22.5732 54.689 22.6733 55.2261 22.8735ZM58.1191 19.1968V22.7124C58.1191 23.0933 58.1045 23.4717 58.0752 23.8477C58.3291 23.4082 58.6587 23.0811 59.064 22.8662C59.4741 22.6514 59.9575 22.5439 60.5142 22.5439C61.2271 22.5439 61.7861 22.7051 62.1914 23.0273C62.6016 23.3496 62.8823 23.7744 63.0337 24.3018C63.1851 24.8291 63.2607 25.4492 63.2607 26.1621V30H61.8984V26.8213C61.8984 25.8789 61.8569 25.2441 61.7739 24.917C61.6714 24.5166 61.4883 24.2139 61.2246 24.0088C60.9609 23.8037 60.6289 23.7012 60.2285 23.7012C59.9404 23.7012 59.6646 23.7622 59.4009 23.8843C59.1372 24.0063 58.9077 24.1821 58.7124 24.4116C58.5171 24.6362 58.373 24.8999 58.2803 25.2026C58.2461 25.3052 58.2144 25.4443 58.1851 25.6201C58.1558 25.791 58.1362 25.9717 58.1265 26.1621C58.1216 26.3525 58.1191 26.6626 58.1191 27.0923V30H56.7495V19.1968H58.1191ZM76.4883 26.3525C76.4883 27.0947 76.3271 27.7588 76.0049 28.3447C75.6875 28.9307 75.2383 29.3872 74.6572 29.7144C74.0811 30.0366 73.4316 30.1978 72.709 30.1978C71.9961 30.1978 71.3564 30.0342 70.79 29.707C70.2236 29.375 69.7793 28.9136 69.457 28.3228C69.1348 27.7271 68.9736 27.0703 68.9736 26.3525C68.9736 25.7861 69.064 25.2686 69.2446 24.7998C69.4302 24.3262 69.6914 23.916 70.0283 23.5693C70.3701 23.2178 70.7705 22.9468 71.2295 22.7563C71.6934 22.5659 72.1914 22.4707 72.7236 22.4707C73.2607 22.4707 73.7612 22.5635 74.2251 22.749C74.689 22.9346 75.0918 23.2031 75.4336 23.5547C75.7754 23.9062 76.0366 24.3213 76.2173 24.7998C76.3979 25.2783 76.4883 25.7959 76.4883 26.3525ZM75.0454 26.3818C75.0454 25.9814 74.9868 25.603 74.8696 25.2466C74.7573 24.8901 74.5962 24.5874 74.3862 24.3384C74.1812 24.0845 73.937 23.8892 73.6538 23.7524C73.3755 23.6157 73.0703 23.5474 72.7383 23.5474C72.0693 23.5474 71.5127 23.811 71.0684 24.3384C70.6289 24.8657 70.4092 25.5322 70.4092 26.3379C70.4092 26.8701 70.5068 27.3486 70.7021 27.7734C70.9023 28.1982 71.1782 28.5278 71.5298 28.7622C71.8862 28.9966 72.2891 29.1138 72.7383 29.1138C73.1729 29.1138 73.5659 28.999 73.9175 28.7695C74.269 28.5352 74.5449 28.208 74.7451 27.7881C74.9453 27.3682 75.0454 26.8994 75.0454 26.3818ZM79.4106 22.6685L79.4912 23.9575C79.7744 23.4985 80.1333 23.1494 80.5679 22.9102C81.0024 22.666 81.4932 22.5439 82.04 22.5439C82.5234 22.5439 82.9556 22.6294 83.3364 22.8003C83.7173 22.9712 84.0493 23.2202 84.3325 23.5474C84.6157 23.8745 84.8306 24.2676 84.9771 24.7266C85.1284 25.1855 85.2041 25.6885 85.2041 26.2354C85.2041 26.7969 85.1284 27.3193 84.9771 27.8027C84.8306 28.2812 84.6157 28.6914 84.3325 29.0332C84.0493 29.375 83.71 29.6387 83.3145 29.8242C82.9238 30.0098 82.4893 30.1025 82.0107 30.1025C81.6201 30.1025 81.2637 30.0513 80.9414 29.9487C80.6191 29.8413 80.3408 29.6826 80.1064 29.4727C79.877 29.2627 79.6719 28.9941 79.4912 28.667C79.5498 29.126 79.5791 29.5947 79.5791 30.0732V33.0615H78.2168V25.8765C78.2168 24.7583 78.1851 23.689 78.1216 22.6685H79.4106ZM81.7544 23.7012C81.3491 23.7012 80.978 23.8159 80.6411 24.0454C80.3091 24.2749 80.0479 24.5898 79.8574 24.9902C79.6719 25.3906 79.5791 25.8398 79.5791 26.3379C79.5791 26.8164 79.6743 27.2559 79.8647 27.6562C80.0552 28.0566 80.3115 28.3716 80.6338 28.6011C80.9609 28.8257 81.3247 28.938 81.7251 28.938C82.3159 28.938 82.8018 28.6914 83.1826 28.1982C83.5684 27.7051 83.7612 27.0801 83.7612 26.3232C83.7612 25.9375 83.7148 25.5835 83.6221 25.2612C83.5293 24.9341 83.3926 24.6533 83.2119 24.4189C83.0361 24.1846 82.8262 24.0063 82.582 23.8843C82.3379 23.7622 82.062 23.7012 81.7544 23.7012ZM88.1265 22.6685L88.207 23.9575C88.4902 23.4985 88.8491 23.1494 89.2837 22.9102C89.7183 22.666 90.209 22.5439 90.7559 22.5439C91.2393 22.5439 91.6714 22.6294 92.0522 22.8003C92.4331 22.9712 92.7651 23.2202 93.0483 23.5474C93.3315 23.8745 93.5464 24.2676 93.6929 24.7266C93.8442 25.1855 93.9199 25.6885 93.9199 26.2354C93.9199 26.7969 93.8442 27.3193 93.6929 27.8027C93.5464 28.2812 93.3315 28.6914 93.0483 29.0332C92.7651 29.375 92.4258 29.6387 92.0303 29.8242C91.6396 30.0098 91.2051 30.1025 90.7266 30.1025C90.3359 30.1025 89.9795 30.0513 89.6572 29.9487C89.335 29.8413 89.0566 29.6826 88.8223 29.4727C88.5928 29.2627 88.3877 28.9941 88.207 28.667C88.2656 29.126 88.2949 29.5947 88.2949 30.0732V33.0615H86.9326V25.8765C86.9326 24.7583 86.9009 23.689 86.8374 22.6685H88.1265ZM90.4702 23.7012C90.0649 23.7012 89.6938 23.8159 89.3569 24.0454C89.0249 24.2749 88.7637 24.5898 88.5732 24.9902C88.3877 25.3906 88.2949 25.8398 88.2949 26.3379C88.2949 26.8164 88.3901 27.2559 88.5806 27.6562C88.771 28.0566 89.0273 28.3716 89.3496 28.6011C89.6768 28.8257 90.0405 28.938 90.4409 28.938C91.0317 28.938 91.5176 28.6914 91.8984 28.1982C92.2842 27.7051 92.4771 27.0801 92.4771 26.3232C92.4771 25.9375 92.4307 25.5835 92.3379 25.2612C92.2451 24.9341 92.1084 24.6533 91.9277 24.4189C91.752 24.1846 91.542 24.0063 91.2979 23.8843C91.0537 23.7622 90.7778 23.7012 90.4702 23.7012ZM102.606 26.3525C102.606 27.0947 102.445 27.7588 102.123 28.3447C101.806 28.9307 101.356 29.3872 100.775 29.7144C100.199 30.0366 99.5498 30.1978 98.8271 30.1978C98.1143 30.1978 97.4746 30.0342 96.9082 29.707C96.3418 29.375 95.8975 28.9136 95.5752 28.3228C95.2529 27.7271 95.0918 27.0703 95.0918 26.3525C95.0918 25.7861 95.1821 25.2686 95.3628 24.7998C95.5483 24.3262 95.8096 23.916 96.1465 23.5693C96.4883 23.2178 96.8887 22.9468 97.3477 22.7563C97.8115 22.5659 98.3096 22.4707 98.8418 22.4707C99.3789 22.4707 99.8794 22.5635 100.343 22.749C100.807 22.9346 101.21 23.2031 101.552 23.5547C101.894 23.9062 102.155 24.3213 102.335 24.7998C102.516 25.2783 102.606 25.7959 102.606 26.3525ZM101.164 26.3818C101.164 25.9814 101.105 25.603 100.988 25.2466C100.875 24.8901 100.714 24.5874 100.504 24.3384C100.299 24.0845 100.055 23.8892 99.772 23.7524C99.4937 23.6157 99.1885 23.5474 98.8564 23.5474C98.1875 23.5474 97.6309 23.811 97.1865 24.3384C96.7471 24.8657 96.5273 25.5322 96.5273 26.3379C96.5273 26.8701 96.625 27.3486 96.8203 27.7734C97.0205 28.1982 97.2964 28.5278 97.6479 28.7622C98.0044 28.9966 98.4072 29.1138 98.8564 29.1138C99.291 29.1138 99.6841 28.999 100.036 28.7695C100.387 28.5352 100.663 28.208 100.863 27.7881C101.063 27.3682 101.164 26.8994 101.164 26.3818ZM104.24 22.6685H105.5L105.565 23.9722C105.785 23.5132 106.071 23.1665 106.422 22.9321C106.779 22.6929 107.191 22.5732 107.66 22.5732C107.904 22.5732 108.151 22.605 108.4 22.6685V23.9136C108.166 23.8306 107.951 23.7891 107.755 23.7891C107.282 23.7891 106.889 23.9282 106.576 24.2065C106.264 24.48 106.037 24.8315 105.895 25.2612C105.753 25.686 105.683 26.1304 105.683 26.5942V27.1216V30H104.335V25.5322C104.335 24.8096 104.303 23.855 104.24 22.6685ZM111.601 20.5518V22.6978H113.549V23.7598H111.601V26.6382C111.601 27.2974 111.63 27.7783 111.688 28.0811C111.732 28.3447 111.852 28.5547 112.047 28.7109C112.248 28.8623 112.501 28.938 112.809 28.938C113.092 28.938 113.388 28.8623 113.695 28.7109V29.8828C113.266 30.0195 112.846 30.0879 112.436 30.0879C111.801 30.0879 111.322 29.9585 111 29.6997C110.678 29.4409 110.47 29.1016 110.377 28.6816C110.29 28.2617 110.246 27.7173 110.246 27.0483V23.7598H108.554V22.6978H110.246V21.0132L111.601 20.5518ZM121.459 22.6831V27.2974C121.459 27.6978 121.493 28.5986 121.562 30H120.302L120.243 28.8574C119.945 29.2725 119.589 29.585 119.174 29.7949C118.759 30 118.29 30.1025 117.768 30.1025C116.747 30.1025 116.039 29.7852 115.644 29.1504C115.248 28.5156 115.05 27.6538 115.05 26.5649V22.6831H116.413V26.0815C116.413 26.3501 116.417 26.6284 116.427 26.9165C116.442 27.2046 116.461 27.4292 116.486 27.5903C116.51 27.7515 116.547 27.9004 116.596 28.0371C116.728 28.3594 116.916 28.606 117.16 28.7769C117.409 28.9429 117.702 29.0259 118.039 29.0259C118.351 29.0259 118.634 28.9648 118.888 28.8428C119.142 28.7158 119.359 28.5352 119.54 28.3008C119.721 28.0664 119.86 27.7856 119.958 27.4585C120.055 27.1313 120.104 26.7725 120.104 26.3818V25.8911V22.6831H121.459ZM124.909 22.6685L124.975 23.833C125.531 22.9736 126.371 22.5439 127.494 22.5439C128.109 22.5439 128.603 22.6562 128.974 22.8809C129.345 23.1055 129.618 23.4033 129.794 23.7744C129.97 24.1406 130.084 24.5459 130.138 24.9902C130.192 25.4297 130.219 25.9644 130.219 26.5942V30H128.871V26.6968C128.871 26.1694 128.861 25.7861 128.842 25.5469C128.827 25.3027 128.798 25.0879 128.754 24.9023C128.651 24.5117 128.466 24.2139 128.197 24.0088C127.929 23.8037 127.594 23.7012 127.194 23.7012C126.745 23.7012 126.344 23.8354 125.993 24.104C125.641 24.3726 125.395 24.7388 125.253 25.2026C125.209 25.3345 125.172 25.4883 125.143 25.6641C125.119 25.8398 125.104 26.0303 125.099 26.2354C125.094 26.4404 125.092 26.7993 125.092 27.312V30H123.729V26.3818C123.72 25.9668 123.712 25.5859 123.708 25.2393C123.703 24.8877 123.693 24.4751 123.678 24.0015C123.668 23.5229 123.654 23.0786 123.634 22.6685H124.909ZM133.603 19.4092V20.9106H132.116V19.4092H133.603ZM133.573 22.6685V30H132.204V22.6685H133.573ZM137.616 20.5518V22.6978H139.564V23.7598H137.616V26.6382C137.616 27.2974 137.646 27.7783 137.704 28.0811C137.748 28.3447 137.868 28.5547 138.063 28.7109C138.263 28.8623 138.517 28.938 138.825 28.938C139.108 28.938 139.403 28.8623 139.711 28.7109V29.8828C139.281 30.0195 138.861 30.0879 138.451 30.0879C137.816 30.0879 137.338 29.9585 137.016 29.6997C136.693 29.4409 136.486 29.1016 136.393 28.6816C136.305 28.2617 136.261 27.7173 136.261 27.0483V23.7598H134.569V22.6978H136.261V21.0132L137.616 20.5518ZM142.553 19.4092V20.9106H141.066V19.4092H142.553ZM142.523 22.6685V30H141.154V22.6685H142.523ZM145.512 26.6821C145.609 27.4097 145.875 27.9858 146.31 28.4106C146.75 28.8306 147.299 29.0405 147.958 29.0405C148.349 29.0405 148.729 28.9844 149.101 28.8721C149.472 28.7598 149.855 28.5864 150.25 28.3521V29.6558C149.806 29.8511 149.403 29.9902 149.042 30.0732C148.681 30.1562 148.3 30.1978 147.899 30.1978C147.333 30.1978 146.818 30.105 146.354 29.9194C145.89 29.7339 145.495 29.4678 145.167 29.1211C144.84 28.7744 144.589 28.3569 144.413 27.8687C144.237 27.3755 144.149 26.8359 144.149 26.25C144.149 25.5029 144.291 24.8438 144.574 24.2725C144.857 23.7012 145.263 23.2593 145.79 22.9468C146.322 22.6294 146.925 22.4707 147.599 22.4707C148.39 22.4707 149.02 22.666 149.489 23.0566C149.962 23.4424 150.297 23.9526 150.492 24.5874C150.692 25.2222 150.792 25.9204 150.792 26.6821H145.512ZM145.526 25.6201H149.43C149.381 25.2197 149.289 24.8682 149.152 24.5654C149.015 24.2578 148.812 24.0112 148.544 23.8257C148.275 23.6401 147.946 23.5474 147.555 23.5474C147.018 23.5474 146.569 23.7329 146.208 24.104C145.851 24.4702 145.624 24.9756 145.526 25.6201ZM156.183 22.8442L156.081 23.9868C155.602 23.7476 155.106 23.6279 154.594 23.6279C154.218 23.6279 153.917 23.7134 153.693 23.8843C153.473 24.0503 153.363 24.27 153.363 24.5435C153.363 24.8267 153.473 25.0439 153.693 25.1953C153.913 25.3467 154.303 25.564 154.865 25.8472C155.431 26.1255 155.861 26.4136 156.154 26.7114C156.447 27.0093 156.593 27.4048 156.593 27.8979C156.593 28.23 156.53 28.5352 156.403 28.8135C156.281 29.0869 156.1 29.3237 155.861 29.5239C155.622 29.7192 155.333 29.8706 154.997 29.978C154.665 30.0806 154.306 30.1318 153.92 30.1318C153.246 30.1318 152.611 29.9927 152.016 29.7144V28.4985C152.367 28.6694 152.677 28.7939 152.946 28.8721C153.214 28.9453 153.478 28.9819 153.737 28.9819C154.005 28.9819 154.247 28.9404 154.462 28.8574C154.677 28.7744 154.845 28.6597 154.967 28.5132C155.089 28.3667 155.15 28.2031 155.15 28.0225C155.15 27.7441 155.033 27.5269 154.799 27.3706C154.569 27.2144 154.176 26.9922 153.62 26.7041C153.068 26.416 152.648 26.123 152.36 25.8252C152.072 25.5225 151.928 25.1392 151.928 24.6753C151.928 24.2505 152.033 23.877 152.243 23.5547C152.453 23.2324 152.75 22.9834 153.136 22.8076C153.527 22.6318 153.974 22.5439 154.477 22.5439C155.019 22.5439 155.587 22.644 156.183 22.8442ZM159.875 28.396V30H158.271V28.396H159.875ZM163.888 28.396V30H162.284V28.396H163.888ZM167.902 28.396V30H166.298V28.396H167.902Z" fill="#575757"/>
<path d="M260 2H305.29C310.1 2 314 5.8996 314 10.71V41.29C314 46.1004 310.1 50 305.29 50H260V2Z" fill="#24C7D2"/>
<path d="M284.333 15.3334C282.212 15.3334 280.177 16.1762 278.676 17.6765C277.176 19.1768 276.333 21.2116 276.333 23.3334C276.333 25.4551 277.176 27.4899 278.676 28.9902C280.177 30.4905 282.212 31.3334 284.333 31.3334C286.455 31.3334 288.49 30.4905 289.99 28.9902C291.49 27.4899 292.333 25.4551 292.333 23.3334C292.333 21.2116 291.49 19.1768 289.99 17.6765C288.49 16.1762 286.455 15.3334 284.333 15.3334ZM273.667 23.3334C273.667 21.6358 274.072 19.9629 274.849 18.4535C275.626 16.9442 276.752 15.6421 278.133 14.6553C279.514 13.6686 281.111 13.0258 282.791 12.7803C284.471 12.5349 286.185 12.6938 287.79 13.244C289.396 13.7942 290.848 14.7197 292.024 15.9436C293.2 17.1675 294.067 18.6545 294.553 20.2809C295.04 21.9074 295.13 23.6263 294.818 25.295C294.506 26.9636 293.801 28.5336 292.76 29.8747L299.943 37.0574C300.186 37.3088 300.32 37.6456 300.317 37.9952C300.314 38.3448 300.174 38.6792 299.926 38.9264C299.679 39.1737 299.345 39.3139 298.995 39.3169C298.646 39.32 298.309 39.1856 298.057 38.9427L290.875 31.76C289.298 32.9841 287.409 33.7413 285.424 33.9453C283.438 34.1494 281.435 33.7921 279.642 32.9143C277.849 32.0364 276.339 30.6731 275.283 28.9793C274.226 27.2856 273.666 25.3295 273.667 23.3334Z" fill="white"/>
<defs>
<filter id="filter0_d" x="0" y="0" width="318" height="56" filterUnits="userSpaceOnUse" color-interpolation-filters="sRGB">
<feFlood flood-opacity="0" result="BackgroundImageFix"/>
<feColorMatrix in="SourceAlpha" type="matrix" values="0 0 0 0 0 0 0 0 0 0 0 0 0 0 0 0 0 0 127 0" result="hardAlpha"/>
<feOffset dy="2"/>
<feGaussianBlur stdDeviation="2"/>
<feColorMatrix type="matrix" values="0 0 0 0 0 0 0 0 0 0 0 0 0 0 0 0 0 0 0.25 0"/>
<feBlend mode="normal" in2="BackgroundImageFix" result="effect1_dropShadow"/>
<feBlend mode="normal" in="SourceGraphic" in2="effect1_dropShadow" result="shape"/>
</filter>
</defs>
</svg>
