<svg width="80" height="80" viewBox="0 0 80 80" fill="none" xmlns="http://www.w3.org/2000/svg">
<path fill-rule="evenodd" clip-rule="evenodd" d="M52.0761 47.6521C50.6126 46.1195 48.8405 45.1864 47.5409 44.5544C46.6463 44.1194 45.7433 43.7349 44.8379 43.3904C45.2842 42.4733 46.2688 41.8873 47.3423 41.9977C50.9277 42.3665 54.5029 42.946 57.9859 43.5829C61.1248 44.1569 64.4138 44.8547 67.593 46.0501C69.3543 46.7123 72.2401 47.8769 73.8455 50.3364C75.3261 52.6044 75.5078 55.3584 75.0368 57.6276C74.4903 60.2607 73.1724 62.8208 71.0661 64.7189C68.4919 67.0387 66.1037 67.8481 62.9541 68.227C59.0887 68.6921 56.1021 68.6615 52.7862 68.6275H52.7861C51.8922 68.6184 50.9744 68.609 50.009 68.609C49.886 68.609 49.765 68.6001 49.6468 68.5829C50.1152 68.1522 50.5714 67.6745 51.0242 67.1469C51.9206 66.1021 52.6606 64.9088 53.2513 63.6305C56.381 63.6611 58.9389 63.674 62.3569 63.2628C64.7491 62.9751 66.0882 62.4741 67.7189 61.0046C68.9363 59.9074 69.7821 58.3418 70.1412 56.6116C70.4217 55.2597 70.2303 53.9453 69.6586 53.0695C69.0552 52.145 67.7119 51.4366 65.8333 50.7302C63.0882 49.698 60.1597 49.0633 57.0865 48.5014C55.4168 48.196 53.7451 47.9078 52.0761 47.6521Z" fill="blue"/>
<path d="M41.248 32.1084C41.248 35.3263 37.9058 38.7051 32.7383 38.7051C27.5708 38.7051 24.2285 35.3263 24.2285 32.1084C24.2285 28.8905 27.5708 25.5117 32.7383 25.5117C37.9058 25.5117 41.248 28.8905 41.248 32.1084Z" stroke="blue" stroke-width="5"/>
<path d="M67.2676 32.1084C67.2676 35.3263 63.9253 38.7051 58.7578 38.7051C53.5903 38.7051 50.248 35.3263 50.248 32.1084C50.248 28.8905 53.5903 25.5117 58.7578 25.5117C63.9253 25.5117 67.2676 28.8905 67.2676 32.1084Z" stroke="blue" stroke-width="5"/>
<path d="M36.0875 66.2318C32.3769 66.7453 26.6712 65.9486 22.9733 64.9708C18.1257 63.689 13.7092 60.8393 10.5533 56.962C8.46529 54.3968 5.88075 49.8358 8.8969 47.0237C12.7029 43.4752 19.2858 44.1447 23.9962 44.6292C27.4892 44.9885 30.9926 45.5553 34.4459 46.1868C37.5519 46.7547 40.6607 47.421 43.6229 48.5348C45.4428 49.2191 47.5573 50.1556 48.6618 51.8476C49.6879 53.4195 49.8745 55.4537 49.4987 57.2642C49.0459 59.4459 47.964 61.5087 46.3022 63.0064C44.1997 64.901 42.3361 65.5562 39.5652 65.8896C34.8532 66.4564 35.3847 66.2763 30.703 66.2763" stroke="blue" stroke-width="5" stroke-linecap="round"/>
</svg>
