<svg width="80" height="80" viewBox="0 0 80 80" fill="none" xmlns="http://www.w3.org/2000/svg">
<path d="M42.9996 66.2318C39.289 66.7453 33.5833 65.9486 29.8854 64.9708C25.0378 63.689 20.6213 60.8393 17.4654 56.962C15.3774 54.3968 12.7929 49.8358 15.809 47.0237C19.615 43.4752 26.1979 44.1447 30.9083 44.6292C34.4013 44.9885 37.9047 45.5553 41.358 46.1868C44.464 46.7547 47.5728 47.421 50.535 48.5348C52.3549 49.2191 54.4694 50.1556 55.5739 51.8476C56.6 53.4195 56.7866 55.4537 56.4108 57.2642C55.958 59.4459 54.8761 61.5087 53.2143 63.0064C51.1118 64.901 49.2482 65.5562 46.4773 65.8896C41.7653 66.4564 42.2968 66.2763 37.6151 66.2763" stroke="blue" stroke-width="5" stroke-linecap="round"/>
<path d="M49.1758 32.1084C49.1758 35.3263 45.8335 38.7051 40.666 38.7051C35.4985 38.7051 32.1562 35.3263 32.1562 32.1084C32.1562 28.8905 35.4985 25.5117 40.666 25.5117C45.8335 25.5117 49.1758 28.8905 49.1758 32.1084Z" stroke="blue" stroke-width="5"/>
</svg>
