<svg width="80" height="80" viewBox="0 0 80 80" fill="none" xmlns="http://www.w3.org/2000/svg">
<path d="M40.0682 73.6902C39.8238 73.6596 39.611 73.2305 39.4889 73.0474C39.143 72.5285 38.1795 71.5475 38.1795 71.5475L36.1399 69.0476L33.7115 65.3177C33.7115 65.3177 23.88 51.919 23.5058 41.978C23.1401 32.2616 23.4727 23.8521 31.5291 18.4082C34.7849 16.2082 37.089 15.4613 40.9888 14.9798C45.6659 14.4024 49.0477 14.0781 52.9245 16.7575C56.6915 19.361 57.6613 22.4755 58.7813 26.9155C59.8647 31.2106 59.3024 33.8893 58.5591 38.256C57.8917 42.1765 57.1191 44.3332 55.5275 47.9776C53.9463 51.5983 50.4961 56.7548 50.4961 56.7548L46.2107 63.6115L43.4966 68.262C43.4966 68.262 41.1594 72.0792 40.2111 73.9759" stroke="blue" stroke-width="5" stroke-linecap="round"/>
<path d="M41.1017 26.7656C40.3232 26.7656 38.777 27.1027 38.777 27.1027C38.777 27.1027 35.7177 27.8745 34.7435 29.4042C33.2177 31.8001 34.3105 34.7096 36.5568 36.4482C38.1494 37.6808 41.6015 37.5176 41.6015 37.5176C41.6015 37.5176 44.1506 37.7769 45.4722 37.0178C47.3454 35.9419 48.2568 34.2465 48.0062 32.1009C47.784 30.1982 46.7598 29.1077 45.1003 28.1489C44.0322 27.5317 42.479 26.8354 41.2474 26.7656" stroke="blue" stroke-width="5" stroke-linecap="round"/>
</svg>
