<svg width="80" height="80" viewBox="0 0 80 80" fill="none" xmlns="http://www.w3.org/2000/svg">
<path d="M20.3672 57.3142C23.7611 59.7757 28.3119 60.5245 32.3978 60.9756C37.6092 61.5511 43.2782 62.0819 48.148 59.7668C52.2179 57.8319 54.3762 52.6893 52.9021 48.422C51.3389 43.8969 46.0659 41.5248 41.8188 40.2621C36.6516 38.7259 31.0514 37.6121 26.551 34.5084C24.0987 32.8171 21.6052 29.3201 24.0519 26.5577C25.193 25.2694 27.0747 24.2685 28.6898 23.7389C31.3303 22.8732 34.2763 22.7547 37.0298 22.6928C39.3557 22.6405 41.7986 22.9708 43.9634 23.861C45.8287 24.628 47.0861 26.1684 48.7175 27.29" stroke="black" stroke-width="5" stroke-linecap="round"/>
<path d="M34.9844 14.5664C35.547 17.5906 35.3551 20.7781 35.6644 23.8364C35.9482 26.6435 36.2854 29.4428 36.6001 32.2461C36.954 35.3993 37.5416 38.5143 37.9368 41.6614C38.7079 47.8012 38.8439 54.0483 38.4889 60.2245C38.3083 63.3684 38.7505 66.4602 38.7505 69.5933" stroke="black" stroke-width="5" stroke-linecap="round"/>
</svg>
