<svg width="80" height="80" viewBox="0 0 80 80" fill="none" xmlns="http://www.w3.org/2000/svg">
<path d="M59.1419 17.6926C58.2014 17.5582 57.3972 17.1212 56.4278 17.1212C55.1149 17.1212 53.7303 16.9878 52.428 17.1529C48.6956 17.626 44.8119 18.9301 41.6033 20.8352C34.8532 24.8431 29.8661 32.3338 29.001 40.1196C28.6344 43.4189 28.922 46.8341 30.4216 49.8333C32.2497 53.4896 35.7455 54.9899 39.286 56.6185C41.5925 57.6795 44.0673 58.5094 46.484 59.2612C48.5919 59.917 50.7017 60.4357 52.92 60.5389C55.2352 60.6466 57.5354 60.6897 59.8561 60.6897" stroke="blue" stroke-width="5" stroke-linecap="round"/>
<path d="M20.1445 43.9519C22.1333 43.8032 24.0819 43.4477 26.0648 43.2694C29.0674 42.9995 32.1288 43.1311 35.1435 42.9202C38.9217 42.656 42.6415 42.5234 46.4285 42.5234" stroke="blue" stroke-width="5" stroke-linecap="round"/>
<path d="M20.1445 35.2371C22.1333 35.0884 24.0819 34.7328 26.0648 34.5546C29.0674 34.2847 32.1288 34.4162 35.1435 34.2054C38.9217 33.9412 42.6415 33.8086 46.4285 33.8086" stroke="blue" stroke-width="5" stroke-linecap="round"/>
</svg>
