<svg width="32" height="33" viewBox="0 0 32 33" fill="none" xmlns="http://www.w3.org/2000/svg">
<path d="M27.2 1.9502H4.80001C3.04001 1.9502 1.60001 3.3902 1.60001 5.1502V27.5502C1.60001 29.3118 3.04001 30.7502 4.80001 30.7502H16V19.5502H12.8V15.5902H16V12.3102C16 8.8478 17.9392 6.4158 22.0256 6.4158L24.9104 6.419V10.587H22.9952C21.4048 10.587 20.8 11.7806 20.8 12.8878V15.5918H24.9088L24 19.5502H20.8V30.7502H27.2C28.96 30.7502 30.4 29.3118 30.4 27.5502V5.1502C30.4 3.3902 28.96 1.9502 27.2 1.9502Z" fill="black"/>
</svg>
